<?xml version="1.0" encoding="UTF-8" standalone="no"?>
<svg xmlns:ffdec="https://www.free-decompiler.com/flash" xmlns:xlink="http://www.w3.org/1999/xlink" ffdec:objectType="shape" height="21.5px" width="27.35px" xmlns="http://www.w3.org/2000/svg">
  <g transform="matrix(1.0, 0.0, 0.0, 1.0, 13.65, 10.75)">
    <path d="M13.7 -4.15 Q13.7 -0.95 10.75 0.95 7.75 2.8 1.8 2.8 L-3.65 2.8 -3.65 10.75 -13.65 10.75 -13.65 -10.75 2.9 -10.75 Q8.35 -10.75 11.0 -9.05 13.7 -7.35 13.7 -4.15 M-3.65 -1.55 L-1.2 -1.55 Q1.6 -1.55 2.85 -2.25 4.0 -2.9 4.0 -3.95 4.0 -5.0 3.0 -5.65 2.1 -6.35 -0.8 -6.35 L-3.65 -6.35 -3.65 -1.55" fill="#000000" fill-rule="evenodd" stroke="none"/>
  </g>
</svg>
