<?xml version="1.0" encoding="UTF-8" standalone="no"?>
<svg xmlns:ffdec="https://www.free-decompiler.com/flash" xmlns:xlink="http://www.w3.org/1999/xlink" ffdec:objectType="shape" height="22.95px" width="40.65px" xmlns="http://www.w3.org/2000/svg">
  <g transform="matrix(1.0, 0.0, 0.0, 1.0, 20.3, 11.45)">
    <path d="M11.75 -11.45 L-6.95 11.5 -11.55 11.5 7.15 -11.45 11.75 -11.45 M-19.35 -3.0 Q-20.3 -4.25 -20.3 -5.85 -20.3 -7.35 -19.35 -8.65 -18.35 -10.0 -16.35 -10.75 L-11.6 -11.45 Q-7.55 -11.45 -5.25 -9.95 -2.9 -8.4 -2.9 -5.85 -2.9 -3.25 -5.25 -1.7 -7.55 -0.2 -11.6 -0.2 -14.45 -0.2 -16.35 -0.9 -18.35 -1.65 -19.35 -3.0 M-13.25 -3.2 Q-12.75 -2.65 -11.6 -2.65 -10.45 -2.65 -9.95 -3.2 -9.05 -3.95 -9.05 -5.8 -9.05 -7.6 -9.95 -8.4 -10.5 -8.95 -11.6 -8.95 -12.7 -8.95 -13.25 -8.4 -14.15 -7.65 -14.15 -5.8 -14.15 -3.95 -13.25 -3.2 M10.0 3.2 Q9.1 4.0 9.1 5.85 9.1 7.7 10.0 8.45 10.55 9.0 11.65 9.0 12.75 9.0 13.3 8.45 14.2 7.7 14.2 5.85 14.2 4.0 13.3 3.2 12.75 2.65 11.65 2.65 10.55 2.65 10.0 3.2 M18.05 1.7 Q20.35 3.2 20.35 5.8 20.35 8.4 18.05 9.9 15.75 11.45 11.65 11.45 8.95 11.45 6.9 10.7 4.9 10.05 3.9 8.65 2.95 7.35 2.95 5.8 2.95 4.25 3.9 2.95 4.9 1.55 6.9 0.9 8.95 0.15 11.65 0.15 15.75 0.15 18.05 1.7" fill="#000000" fill-rule="evenodd" stroke="none"/>
  </g>
</svg>
