<?xml version="1.0" encoding="UTF-8" standalone="no"?>
<svg xmlns:ffdec="https://www.free-decompiler.com/flash" xmlns:xlink="http://www.w3.org/1999/xlink" ffdec:objectType="shape" height="21.5px" width="31.7px" xmlns="http://www.w3.org/2000/svg">
  <g transform="matrix(1.0, 0.0, 0.0, 1.0, 15.85, 10.75)">
    <path d="M7.8 -10.2 Q10.25 -9.7 11.75 -8.25 13.25 -6.85 13.25 -4.8 13.25 -3.0 12.1 -1.7 10.9 -0.35 8.95 0.4 7.6 0.95 5.45 1.25 L8.0 2.05 9.6 3.2 11.0 4.5 15.85 10.75 4.6 10.75 -0.75 4.2 Q-1.7 2.95 -2.55 2.5 -3.6 2.05 -4.95 2.05 L-5.85 2.05 -5.85 10.75 -15.85 10.75 -15.85 -10.75 0.75 -10.75 7.8 -10.2 M2.25 -5.85 L-1.45 -6.4 -5.85 -6.4 -5.85 -2.0 -1.65 -2.0 1.0 -2.3 Q1.95 -2.45 2.6 -3.0 3.25 -3.5 3.25 -4.25 3.25 -5.25 2.25 -5.85" fill="#000000" fill-rule="evenodd" stroke="none"/>
  </g>
</svg>
