<?xml version="1.0" encoding="UTF-8" standalone="no"?>
<svg xmlns:ffdec="https://www.free-decompiler.com/flash" xmlns:xlink="http://www.w3.org/1999/xlink" ffdec:objectType="shape" height="22.2px" width="31.4px" xmlns="http://www.w3.org/2000/svg">
  <g transform="matrix(1.0, 0.0, 0.0, 1.0, 15.7, 11.1)">
    <path d="M-5.7 -0.1 Q-5.7 3.45 -4.05 4.8 -2.45 6.1 0.5 6.1 3.35 6.1 4.85 5.05 6.3 3.9 6.95 1.95 L15.7 3.7 Q14.75 6.25 12.9 7.75 10.95 9.45 8.2 10.25 5.35 11.1 1.1 11.1 -4.2 11.1 -7.5 10.05 -10.8 9.1 -13.25 6.5 -15.7 3.9 -15.7 -0.05 -15.7 -5.4 -11.4 -8.25 -7.2 -11.1 0.6 -11.1 6.6 -11.1 10.2 -9.5 13.7 -7.85 15.35 -4.45 L6.6 -3.15 5.65 -4.55 Q4.7 -5.35 3.6 -5.75 L0.85 -6.15 Q-2.5 -6.15 -4.3 -4.35 -5.7 -3.05 -5.7 -0.1" fill="#000000" fill-rule="evenodd" stroke="none"/>
  </g>
</svg>
