<?xml version="1.0" encoding="UTF-8" standalone="no"?>
<svg xmlns:ffdec="https://www.free-decompiler.com/flash" xmlns:xlink="http://www.w3.org/1999/xlink" ffdec:objectType="shape" height="21.45px" width="29.8px" xmlns="http://www.w3.org/2000/svg">
  <g transform="matrix(1.0, 0.0, 0.0, 1.0, 14.9, 10.75)">
    <path d="M-4.85 -2.35 L-0.5 -2.35 Q1.8 -2.35 2.75 -2.85 3.65 -3.4 3.65 -4.4 3.65 -5.4 2.75 -5.9 L-0.45 -6.4 -4.85 -6.4 -4.85 -2.35 M13.4 -5.4 Q13.4 -3.5 11.65 -2.15 10.4 -1.2 8.15 -0.7 11.55 -0.2 13.25 1.2 14.9 2.55 14.9 4.6 14.9 6.3 13.75 7.6 12.55 8.95 10.55 9.75 L6.75 10.45 -14.9 10.7 -14.9 -10.75 3.75 -10.75 Q8.45 -10.75 10.9 -9.2 13.4 -7.75 13.4 -5.4 M0.2 1.75 L-4.85 1.75 -4.85 6.1 0.2 6.1 Q2.8 6.1 3.85 5.5 4.9 4.9 4.9 3.85 4.9 2.85 3.85 2.35 2.8 1.75 0.2 1.75" fill="#000000" fill-rule="evenodd" stroke="none"/>
  </g>
</svg>
