<?xml version="1.0" encoding="UTF-8" standalone="no"?>
<svg xmlns:ffdec="https://www.free-decompiler.com/flash" xmlns:xlink="http://www.w3.org/1999/xlink" ffdec:objectType="shape" height="22.2px" width="26.35px" xmlns="http://www.w3.org/2000/svg">
  <g transform="matrix(1.0, 0.0, 0.0, 1.0, 13.15, 11.1)">
    <path d="M9.0 -9.15 L11.1 -7.35 Q11.85 -6.45 12.3 -5.15 13.2 -2.75 13.2 -0.15 13.2 5.7 10.25 8.4 7.25 11.1 0.0 11.1 -4.05 11.1 -6.6 10.25 -9.1 9.4 -10.7 7.7 -11.85 6.55 -12.5 4.5 -13.15 2.4 -13.15 -0.1 -13.15 -6.2 -9.85 -8.65 -6.55 -11.1 0.25 -11.1 L5.6 -10.55 Q7.7 -10.05 9.0 -9.15 M4.3 0.1 Q4.3 -4.2 3.2 -5.65 2.1 -7.15 -0.05 -7.15 -2.3 -7.15 -3.3 -5.6 -4.25 -4.15 -4.25 -0.05 -4.25 4.05 -3.15 5.55 -2.1 7.05 0.0 7.05 1.35 7.05 2.35 6.4 3.35 5.75 3.85 4.4 4.3 3.0 4.3 0.1" fill="#000000" fill-rule="evenodd" stroke="none"/>
  </g>
</svg>
