<?xml version="1.0" encoding="UTF-8" standalone="no"?>
<svg xmlns:ffdec="https://www.free-decompiler.com/flash" xmlns:xlink="http://www.w3.org/1999/xlink" ffdec:objectType="shape" height="15.9px" width="39.55px" xmlns="http://www.w3.org/2000/svg">
  <g transform="matrix(1.0, 0.0, 0.0, 1.0, 19.75, 7.95)">
    <path d="M-7.75 -7.35 Q-5.95 -7.95 -3.35 -7.95 -0.5 -7.95 1.1 -7.3 2.7 -6.6 3.75 -5.35 5.95 -6.9 7.6 -7.4 L11.85 -7.95 Q15.6 -7.95 17.7 -6.45 19.8 -5.05 19.8 -1.8 L19.8 7.95 10.85 7.95 10.85 -0.9 Q10.85 -2.0 10.25 -2.5 9.4 -3.3 8.0 -3.3 6.45 -3.3 5.45 -2.55 4.5 -1.75 4.5 -0.1 L4.5 7.95 -4.45 7.95 -4.45 -0.6 -4.6 -2.0 -5.6 -2.95 -7.25 -3.3 Q-8.8 -3.3 -9.8 -2.55 -10.8 -1.7 -10.8 0.0 L-10.8 7.95 -19.75 7.95 -19.75 -7.6 -11.4 -7.6 -11.4 -5.35 Q-9.65 -6.75 -7.75 -7.35" fill="#000000" fill-rule="evenodd" stroke="none"/>
  </g>
</svg>
