<?xml version="1.0" encoding="UTF-8" standalone="no"?>
<svg xmlns:ffdec="https://www.free-decompiler.com/flash" xmlns:xlink="http://www.w3.org/1999/xlink" ffdec:objectType="shape" height="21.85px" width="26.85px" xmlns="http://www.w3.org/2000/svg">
  <g transform="matrix(1.0, 0.0, 0.0, 1.0, 13.8, 11.1)">
    <path d="M0.1 -7.0 Q-1.65 -7.0 -2.7 -6.3 -3.8 -5.6 -4.2 -3.75 L-13.15 -4.25 Q-12.6 -6.75 -11.2 -8.15 -9.8 -9.6 -7.25 -10.35 -4.7 -11.1 -0.15 -11.1 L7.2 -10.4 Q9.85 -9.65 11.35 -8.15 12.85 -6.7 12.85 -4.85 12.85 -2.9 11.15 -1.1 9.4 0.7 4.85 2.85 L1.25 4.6 -0.9 5.9 13.05 5.9 13.05 10.75 -13.8 10.75 Q-13.35 8.1 -11.0 5.75 -8.65 3.4 -2.2 0.25 1.7 -1.7 2.8 -2.7 3.9 -3.75 3.9 -4.65 3.9 -5.6 2.85 -6.3 1.75 -7.0 0.1 -7.0" fill="#000000" fill-rule="evenodd" stroke="none"/>
  </g>
</svg>
