<?xml version="1.0" encoding="UTF-8" standalone="no"?>
<svg xmlns:ffdec="https://www.free-decompiler.com/flash" xmlns:xlink="http://www.w3.org/1999/xlink" ffdec:objectType="shape" height="55.0px" width="75.0px" xmlns="http://www.w3.org/2000/svg">
  <g transform="matrix(1.0, 0.0, 0.0, 1.0, 0.0, 0.0)">
    <path d="M75.0 50.0 L75.0 55.0 30.0 55.0 Q23.4 55.0 18.0 52.0 14.95 50.3 12.3 47.65 L10.0 45.0 13.0 47.0 Q18.4 50.0 25.0 50.0 L75.0 50.0" fill="#cccccc" fill-rule="evenodd" stroke="none"/>
    <path d="M10.0 45.0 L7.3 42.65 Q0.0 35.35 0.0 25.0 0.0 14.65 7.3 7.3 14.65 0.0 25.0 0.0 L75.0 0.0 75.0 50.0 25.0 50.0 Q18.4 50.0 13.0 47.0 L10.0 45.0" fill="#ffffff" fill-rule="evenodd" stroke="none"/>
  </g>
</svg>
