<?xml version="1.0" encoding="UTF-8" standalone="no"?>
<svg xmlns:ffdec="https://www.free-decompiler.com/flash" xmlns:xlink="http://www.w3.org/1999/xlink" ffdec:objectType="shape" height="55.0px" width="80.0px" xmlns="http://www.w3.org/2000/svg">
  <g transform="matrix(1.0, 0.0, 0.0, 1.0, 0.0, 0.0)">
    <path d="M70.0 10.0 L72.65 12.3 Q75.3 14.95 77.0 18.0 80.0 23.4 80.0 30.0 80.0 40.35 72.65 47.65 65.35 55.0 55.0 55.0 L0.0 55.0 0.0 50.0 50.65 50.0 Q60.6 49.75 67.65 42.65 75.0 35.35 75.0 25.0 75.0 18.4 72.0 13.0 L70.0 10.0" fill="#cccccc" fill-rule="evenodd" stroke="none"/>
    <path d="M0.0 50.0 L0.0 0.0 50.0 0.0 Q60.35 0.0 67.65 7.3 L70.0 10.0 72.0 13.0 Q75.0 18.4 75.0 25.0 75.0 35.35 67.65 42.65 60.6 49.75 50.65 50.0 L0.0 50.0" fill="#ffffff" fill-rule="evenodd" stroke="none"/>
  </g>
</svg>
