<?xml version="1.0" encoding="UTF-8" standalone="no"?>
<svg xmlns:ffdec="https://www.free-decompiler.com/flash" xmlns:xlink="http://www.w3.org/1999/xlink" ffdec:objectType="shape" height="22.2px" width="26.6px" xmlns="http://www.w3.org/2000/svg">
  <g transform="matrix(1.0, 0.0, 0.0, 1.0, 13.4, 11.1)">
    <path d="M1.85 -6.8 Q1.0 -7.4 -0.55 -7.4 -2.15 -7.4 -3.1 -6.75 -4.1 -6.1 -4.45 -4.5 L-12.95 -5.55 Q-11.9 -8.25 -8.85 -9.65 -5.85 -11.1 -0.35 -11.1 5.95 -11.1 8.75 -9.55 11.55 -7.95 11.55 -5.6 11.55 -4.2 10.45 -3.05 9.3 -1.95 6.95 -1.1 L9.85 -0.4 Q11.45 0.3 12.35 1.35 13.2 2.45 13.2 3.95 13.2 5.8 11.75 7.55 10.25 9.25 7.5 10.2 4.75 11.1 0.2 11.1 L-6.7 10.45 Q-9.25 9.75 -10.9 8.4 -12.55 7.1 -13.4 5.1 L-4.45 4.3 Q-3.95 6.1 -2.8 6.8 -1.7 7.5 0.0 7.5 1.8 7.5 3.0 6.6 4.2 5.7 4.2 4.25 4.2 2.75 3.05 1.95 1.9 1.1 -0.1 1.1 L-3.0 1.45 -2.55 -2.8 -1.35 -2.7 Q0.4 -2.7 1.6 -3.45 2.75 -4.2 2.75 -5.25 2.75 -6.2 1.85 -6.8" fill="#000000" fill-rule="evenodd" stroke="none"/>
  </g>
</svg>
