<?xml version="1.0" encoding="UTF-8" standalone="no"?>
<svg xmlns:ffdec="https://www.free-decompiler.com/flash" xmlns:xlink="http://www.w3.org/1999/xlink" ffdec:objectType="shape" height="50.0px" width="307.95px" xmlns="http://www.w3.org/2000/svg">
  <g transform="matrix(1.0, 0.0, 0.0, 1.0, 153.95, 25.0)">
    <path d="M3.65 -7.2 Q6.15 -9.75 10.7 -11.0 15.2 -12.25 22.65 -12.25 30.5 -12.25 34.45 -11.3 38.25 -10.3 40.7 -8.25 43.25 -6.3 44.9 -2.7 L28.8 -1.5 Q28.2 -3.15 26.7 -4.0 24.6 -5.05 21.9 -5.05 19.0 -5.05 17.7 -4.25 16.35 -3.4 16.35 -2.25 16.35 -0.95 18.05 -0.25 19.85 0.45 25.3 0.95 33.8 1.75 37.95 3.1 42.0 4.4 44.3 7.0 46.45 9.6 46.5 12.65 46.5 15.7 44.15 18.65 41.95 21.5 36.8 23.3 31.8 25.0 23.2 25.0 11.05 25.0 5.85 22.2 0.65 19.4 -0.8 14.3 L16.15 13.05 Q17.1 15.45 19.05 16.5 20.95 17.5 24.1 17.55 27.55 17.5 29.4 16.35 30.85 15.5 30.85 14.15 30.85 12.65 28.95 11.9 27.5 11.35 21.6 10.5 12.8 9.3 9.25 8.2 5.75 7.1 3.45 4.6 1.1 2.15 1.1 -1.15 1.1 -4.7 3.65 -7.2 M56.1 -7.2 Q58.6 -9.75 63.1 -11.0 67.7 -12.25 75.15 -12.25 L86.85 -11.3 Q90.75 -10.25 93.2 -8.25 95.75 -6.2 97.4 -2.7 L81.3 -1.5 Q80.65 -3.1 79.2 -4.0 77.05 -5.05 74.3 -5.05 71.5 -5.05 70.15 -4.25 68.85 -3.4 68.85 -2.25 68.85 -0.95 70.5 -0.25 72.3 0.45 77.75 0.95 86.25 1.7 90.4 3.1 94.55 4.45 96.75 7.0 98.95 9.6 98.95 12.65 98.95 15.65 96.65 18.65 94.3 21.5 89.3 23.3 84.25 25.0 75.65 25.0 63.5 25.0 58.3 22.2 53.1 19.4 51.7 14.3 L68.55 13.05 Q69.6 15.5 71.5 16.5 73.3 17.5 76.5 17.55 80.05 17.5 81.85 16.35 83.35 15.5 83.35 14.15 83.35 12.7 81.45 11.9 80.0 11.35 74.1 10.5 65.1 9.25 61.75 8.2 58.25 7.1 55.95 4.6 53.55 2.1 53.55 -1.15 53.55 -4.65 56.1 -7.2 M107.2 -25.0 L125.4 -25.0 125.4 -13.8 121.9 8.7 110.65 8.7 107.2 -13.8 107.2 -25.0 M154.0 -25.0 L154.0 -13.8 150.5 8.7 139.25 8.7 135.8 -13.8 135.8 -25.0 154.0 -25.0 M153.4 24.15 L136.45 24.15 136.45 12.15 153.4 12.15 153.4 24.15 M124.8 24.15 L107.85 24.15 107.85 12.15 124.8 12.15 124.8 24.15 M-122.35 -25.0 Q-112.1 -25.0 -106.9 -21.0 -101.8 -17.1 -101.8 -9.85 -101.8 -2.45 -107.35 1.8 -112.9 6.0 -124.5 6.0 L-134.9 6.0 -134.9 24.15 -153.95 24.15 -153.95 -25.0 -122.35 -25.0 M-130.2 -3.95 Q-124.8 -3.95 -122.45 -5.5 -120.25 -6.95 -120.25 -9.4 -120.25 -11.75 -122.15 -13.3 -124.05 -14.9 -129.45 -14.9 L-134.9 -14.9 -134.9 -3.95 -130.2 -3.95 M-72.1 -10.8 Q-69.7 -12.25 -66.05 -12.25 -62.2 -12.25 -57.8 -10.35 L-63.1 -0.65 Q-66.1 -1.7 -67.85 -1.65 -71.2 -1.7 -73.05 0.5 -75.75 3.7 -75.7 12.25 L-75.7 24.15 -92.9 24.15 -92.9 -11.45 -76.85 -11.45 -76.85 -5.6 Q-74.6 -9.4 -72.1 -10.8 M-37.8 -1.55 Q-39.35 0.05 -39.8 3.25 L-22.9 3.25 Q-23.4 -0.75 -25.6 -2.45 -27.75 -4.15 -31.25 -4.15 -35.35 -4.15 -37.8 -1.55 M-8.45 -3.25 Q-5.55 1.15 -5.55 8.25 L-5.55 9.75 -39.8 9.75 Q-39.35 12.95 -37.6 14.7 -35.1 16.95 -31.1 16.95 -28.6 16.95 -26.3 15.95 -24.95 15.35 -23.35 13.75 L-6.5 15.0 Q-10.35 20.3 -15.8 22.7 -21.45 25.0 -31.5 25.0 -40.3 25.0 -45.4 23.0 -50.45 21.0 -53.8 16.7 -57.15 12.35 -57.15 6.45 -57.15 -1.9 -50.45 -7.1 -43.75 -12.25 -31.95 -12.25 -22.4 -12.25 -16.9 -9.95 -11.35 -7.65 -8.45 -3.25" fill="#ff0000" fill-rule="evenodd" stroke="none"/>
  </g>
</svg>
