<?xml version="1.0" encoding="UTF-8" standalone="no"?>
<svg xmlns:ffdec="https://www.free-decompiler.com/flash" xmlns:xlink="http://www.w3.org/1999/xlink" ffdec:objectType="shape" height="21.85px" width="26.85px" xmlns="http://www.w3.org/2000/svg">
  <g transform="matrix(1.0, 0.0, 0.0, 1.0, 13.55, 10.75)">
    <path d="M11.75 -6.0 L-2.65 -6.0 -3.45 -2.75 -0.45 -3.45 2.4 -3.7 Q7.25 -3.7 10.25 -1.75 13.3 0.2 13.3 3.15 13.3 5.25 11.75 7.15 10.2 9.1 7.35 10.1 4.5 11.1 0.05 11.1 L-5.4 10.7 Q-7.7 10.3 -9.3 9.5 -10.9 8.7 -11.9 7.7 L-13.55 5.2 -4.45 4.5 Q-4.15 5.95 -2.9 6.75 -1.7 7.5 -0.05 7.5 1.85 7.5 3.05 6.55 4.25 5.6 4.25 3.7 4.25 1.8 3.05 0.9 1.8 0.0 -0.25 0.0 L-2.75 0.45 Q-3.65 0.75 -4.75 1.55 L-12.35 0.8 -9.5 -10.75 11.75 -10.75 11.75 -6.0" fill="#000000" fill-rule="evenodd" stroke="none"/>
  </g>
</svg>
