<?xml version="1.0" encoding="UTF-8" standalone="no"?>
<svg xmlns:ffdec="https://www.free-decompiler.com/flash" xmlns:xlink="http://www.w3.org/1999/xlink" ffdec:objectType="shape" height="50.0px" width="423.05px" xmlns="http://www.w3.org/2000/svg">
  <g transform="matrix(1.0, 0.0, 0.0, 1.0, 211.5, 25.0)">
    <path d="M32.4 -11.65 Q37.05 -10.95 40.1 -8.75 42.35 -7.2 43.55 -4.5 44.8 -1.75 44.85 0.8 L44.85 16.55 Q44.8 18.95 45.2 20.5 45.7 22.05 47.0 24.1 L30.95 24.1 29.7 22.05 29.15 19.85 Q25.9 22.3 22.5 23.5 17.8 25.0 11.95 25.0 3.95 24.95 -0.1 22.0 -4.25 19.0 -4.25 14.75 -4.3 10.6 -1.25 8.0 1.75 5.3 9.7 4.15 L22.15 1.95 28.2 0.35 Q28.2 -2.2 26.85 -3.2 25.55 -4.2 22.35 -4.2 18.1 -4.2 16.05 -3.15 14.4 -2.3 13.4 0.05 L-2.9 -1.35 Q-1.95 -4.8 -0.2 -6.7 1.55 -8.7 4.8 -10.1 7.0 -11.15 11.25 -11.7 L20.1 -12.3 32.4 -11.65 M75.5 -12.3 L87.2 -11.35 Q91.0 -10.35 93.55 -8.3 95.95 -6.35 97.75 -2.75 L81.6 -1.5 Q81.05 -3.15 79.55 -4.05 77.4 -5.1 74.65 -5.1 71.8 -5.1 70.5 -4.3 69.15 -3.4 69.15 -2.3 69.15 -1.0 70.8 -0.3 72.6 0.4 78.1 0.9 86.6 1.65 90.75 3.05 94.75 4.4 97.05 6.95 99.25 9.5 99.25 12.6 99.25 15.65 96.95 18.6 94.7 21.45 89.65 23.25 84.6 24.95 76.0 25.0 63.85 24.95 58.65 22.15 53.5 19.4 52.0 14.25 L68.9 13.0 Q70.0 15.5 71.85 16.45 73.65 17.45 76.85 17.5 80.3 17.5 82.2 16.3 83.7 15.4 83.7 14.1 83.65 12.65 81.7 11.85 80.35 11.3 74.4 10.45 65.5 9.2 62.1 8.15 58.65 7.1 56.25 4.6 53.85 2.05 53.9 -1.2 53.85 -4.7 56.4 -7.25 58.9 -9.8 63.45 -11.05 68.05 -12.3 75.5 -12.3 M131.2 -4.2 Q127.1 -4.2 124.65 -1.6 123.15 -0.05 122.7 3.2 L139.55 3.2 Q139.0 -0.85 136.85 -2.5 134.7 -4.2 131.2 -4.2 M154.0 -3.3 Q156.9 1.1 156.9 8.2 L156.9 9.75 122.65 9.75 Q123.1 12.9 124.85 14.65 127.35 16.9 131.35 16.9 133.85 16.9 136.15 15.9 137.5 15.35 139.1 13.75 L155.95 14.95 Q152.1 20.25 146.65 22.65 141.1 24.95 131.0 25.0 122.2 25.0 117.1 23.0 112.0 20.95 108.65 16.65 105.3 12.3 105.3 6.4 105.3 -1.9 112.0 -7.15 118.7 -12.3 130.5 -12.3 140.0 -12.3 145.6 -10.0 151.1 -7.65 154.0 -3.3 M193.35 -25.0 L211.55 -25.0 211.55 -13.8 208.0 8.7 196.75 8.7 193.35 -13.8 193.35 -25.0 M182.95 -25.0 L182.95 -13.8 179.4 8.7 168.15 8.7 164.75 -13.8 164.75 -25.0 182.95 -25.0 M210.95 24.1 L193.95 24.1 193.95 12.1 210.95 12.1 210.95 24.1 M165.4 24.1 L165.4 12.1 182.35 12.1 182.35 24.1 165.4 24.1 M28.2 7.2 L20.85 8.95 Q15.55 10.1 14.25 11.2 12.8 12.25 12.8 13.75 12.8 15.3 14.25 16.4 15.65 17.4 18.4 17.4 21.3 17.4 23.65 16.3 26.15 15.1 27.15 13.6 28.15 11.85 28.2 9.4 L28.2 7.2 M-192.45 -5.05 L-184.45 -5.05 -179.4 -5.7 Q-177.5 -6.0 -176.35 -7.25 -175.2 -8.4 -175.1 -10.1 -175.1 -12.45 -177.0 -13.75 -178.9 -15.05 -184.1 -15.05 L-192.45 -15.05 -192.45 -5.05 M-166.4 -23.8 Q-161.8 -22.6 -158.95 -19.3 -156.1 -16.05 -156.05 -11.35 -156.1 -7.2 -158.25 -4.3 -160.4 -1.3 -164.25 0.55 -166.9 1.8 -170.95 2.5 -167.7 3.35 -166.0 4.3 -164.75 5.1 -163.0 6.9 -161.0 8.8 -160.3 9.95 L-151.1 24.1 -172.55 24.1 -182.65 9.15 Q-184.6 6.25 -186.1 5.4 -188.15 4.25 -190.75 4.25 L-192.45 4.25 -192.45 24.1 -211.5 24.1 -211.5 -25.0 -179.85 -25.0 Q-171.15 -25.05 -166.4 -23.8 M-122.2 -12.3 Q-112.65 -12.3 -107.1 -10.0 -101.55 -7.7 -98.65 -3.3 -95.8 1.15 -95.8 8.2 L-95.8 9.75 -130.0 9.75 Q-129.6 12.95 -127.75 14.65 -125.35 16.9 -121.3 16.9 -118.8 16.9 -116.5 15.9 -115.25 15.4 -113.5 13.75 L-96.75 14.95 Q-100.55 20.25 -106.05 22.65 -111.55 24.95 -121.65 25.0 -130.5 25.0 -135.6 23.0 -140.7 20.95 -144.0 16.65 -147.35 12.2 -147.35 6.4 -147.35 -1.95 -140.65 -7.15 -133.95 -12.3 -122.2 -12.3 M-121.45 -4.2 Q-125.55 -4.2 -128.0 -1.6 -129.55 0.05 -129.95 3.2 L-113.1 3.2 Q-113.6 -0.8 -115.75 -2.5 -117.95 -4.2 -121.45 -4.2 M-35.65 -4.2 Q-39.8 -4.2 -42.2 -1.6 -43.75 0.05 -44.15 3.2 L-27.3 3.2 Q-27.8 -0.8 -29.95 -2.5 -32.15 -4.2 -35.65 -4.2 M-21.3 -10.0 Q-15.75 -7.7 -12.85 -3.3 -10.0 1.15 -10.0 8.2 L-10.0 9.75 -44.2 9.75 Q-43.8 12.95 -41.95 14.65 -39.55 16.9 -35.5 16.9 -33.0 16.9 -30.7 15.9 -29.45 15.4 -27.7 13.75 L-10.95 14.95 Q-14.75 20.25 -20.25 22.65 -25.75 24.95 -35.85 25.0 -44.7 25.0 -49.8 23.0 -54.9 20.95 -58.2 16.65 -61.55 12.2 -61.55 6.4 -61.55 -1.95 -54.85 -7.15 -48.2 -12.3 -36.4 -12.3 -26.85 -12.3 -21.3 -10.0 M-70.35 -25.0 L-70.35 24.1 -87.4 24.1 -87.4 -25.0 -70.35 -25.0" fill="#ff0000" fill-rule="evenodd" stroke="none"/>
  </g>
</svg>
