<?xml version="1.0" encoding="UTF-8" standalone="no"?>
<svg xmlns:ffdec="https://www.free-decompiler.com/flash" xmlns:xlink="http://www.w3.org/1999/xlink" ffdec:objectType="shape" height="139.45px" width="216.0px" xmlns="http://www.w3.org/2000/svg">
  <g transform="matrix(1.0, 0.0, 0.0, 1.0, 108.0, 69.7)">
    <path d="M57.75 -28.55 L108.0 -27.25 62.2 -9.65 74.35 3.05 56.5 9.25 79.0 30.65 39.6 24.35 40.55 41.4 15.2 33.95 9.05 51.5 -9.0 42.75 -19.45 57.1 -31.95 48.0 -58.0 69.75 -60.55 48.05 -94.25 45.45 -75.0 28.75 -108.0 12.75 -69.0 4.75 -95.35 -17.0 -54.0 -20.25 -62.0 -46.25 -23.45 -29.3 -10.0 -58.25 6.6 -43.3 39.45 -69.7 38.0 -33.25 71.55 -49.2 57.75 -28.55" fill="#ffff00" fill-opacity="0.5019608" fill-rule="evenodd" stroke="none"/>
  </g>
</svg>
