<?xml version="1.0" encoding="UTF-8" standalone="no"?>
<svg xmlns:ffdec="https://www.free-decompiler.com/flash" xmlns:xlink="http://www.w3.org/1999/xlink" ffdec:objectType="shape" height="156.65px" width="276.8px" xmlns="http://www.w3.org/2000/svg">
  <g transform="matrix(1.0, 0.0, 0.0, 1.0, 138.05, 76.4)">
    <path d="M45.85 -74.9 L52.75 -74.8 58.8 -51.8 69.8 -73.8 76.6 -72.85 79.8 -48.45 95.15 -67.7 101.6 -65.35 99.6 -39.5 113.0 -61.15 118.75 -57.75 117.8 -47.35 123.2 -55.15 128.65 -51.9 113.4 -29.35 107.95 -33.05 109.55 -44.25 103.85 -35.8 99.2 -38.95 99.3 -39.1 92.75 -41.4 92.9 -45.05 86.1 -47.55 83.8 -44.6 72.9 -47.6 72.3 -51.15 65.1 -52.2 63.45 -48.85 52.25 -49.25 51.2 -52.7 43.95 -52.85 42.75 -49.35 32.95 -48.45 30.85 -51.85 23.3 -49.5 23.1 -45.25 11.95 -41.25 9.45 -44.65 1.8 -41.85 1.9 -37.45 -7.25 -31.85 -10.5 -34.95 -18.5 -30.7 -17.7 -26.15 -30.45 -19.15 -34.25 -24.15 -42.15 -21.05 -41.55 -13.95 -50.0 -10.0 Q-52.4 -0.3 -62.2 8.5 -69.15 14.7 -79.8 20.5 -81.75 28.35 -85.1 30.95 -88.6 33.6 -95.35 31.95 L-96.95 44.05 -122.4 80.25 -124.1 26.2 -127.6 27.2 -127.6 21.3 -123.95 20.05 -124.05 1.45 -137.85 22.45 -138.05 3.45 -113.45 -40.6 -111.2 17.35 -106.55 15.45 -106.55 20.45 -111.2 22.3 -111.4 41.95 -100.0 25.0 -104.75 0.0 -100.0 -6.5 Q-83.7 44.65 -96.5 -9.5 L-90.25 -17.75 -85.05 -6.55 -96.75 -57.5 -84.65 -64.35 Q-80.45 -66.15 -77.0 -66.9 -69.25 -68.7 -65.5 -65.5 -58.05 -59.15 -62.05 -40.55 -52.35 -38.6 -50.6 -27.0 L-49.7 -45.5 -49.7 -45.55 -44.4 -47.65 -44.35 -47.6 -24.65 -24.25 -29.8 -55.85 -22.2 -59.9 -4.35 -41.1 -5.0 -67.15 2.25 -69.8 17.25 -47.4 18.75 -74.2 25.95 -76.4 38.6 -54.15 45.85 -74.9 M43.0 -55.3 L52.25 -55.6 53.6 -50.7 56.6 -50.7 50.85 -72.8 46.9 -72.85 39.45 -50.8 41.5 -50.75 43.0 -55.3 M48.65 -61.0 L47.8 -63.85 46.75 -60.9 48.65 -61.0 M43.9 -58.25 L47.9 -70.65 51.35 -58.4 43.9 -58.25 M64.45 -54.75 L73.65 -53.85 74.4 -48.85 77.4 -48.45 74.5 -71.1 70.55 -71.65 60.4 -50.7 62.45 -50.45 64.45 -54.75 M70.8 -59.7 L70.3 -62.6 68.95 -59.85 70.8 -59.7 M71.25 -69.35 L73.2 -56.8 65.75 -57.55 71.25 -69.35 M3.5 -52.85 L1.4 -55.65 1.5 -51.95 3.5 -52.85 M21.1 -72.5 L20.45 -72.3 19.95 -61.15 19.25 -46.5 19.25 -45.7 21.4 -46.4 21.6 -51.9 30.15 -55.0 31.05 -55.35 33.95 -50.5 36.4 -51.3 37.05 -51.5 31.2 -61.95 24.6 -73.6 21.1 -72.5 M25.75 -60.15 L24.15 -63.05 23.75 -59.55 25.75 -60.15 M21.4 -55.75 L22.7 -70.6 29.2 -58.05 21.4 -55.75 M15.95 -44.6 L1.15 -66.8 -3.05 -65.3 -2.1 -37.75 0.1 -38.6 -0.2 -44.2 9.35 -48.25 12.75 -43.4 15.95 -44.6 M125.45 -50.9 L123.55 -52.05 113.9 -39.0 115.65 -56.75 113.65 -57.95 101.4 -39.65 103.1 -38.6 113.05 -53.0 110.6 -33.95 112.9 -32.25 125.45 -50.9 M93.25 -53.65 L93.35 -56.65 91.4 -54.2 93.25 -53.65 M95.7 -63.05 L94.95 -50.35 87.85 -52.65 95.7 -63.05 M95.5 -65.45 L81.2 -47.1 83.15 -46.4 86.0 -50.2 94.8 -47.4 94.5 -42.3 97.35 -41.35 99.2 -64.1 95.5 -65.45 M119.7 -26.9 L121.7 -25.65 123.45 -27.5 121.2 -29.15 119.7 -26.9 M117.85 -26.5 L120.75 -31.0 125.7 -27.75 122.1 -23.75 117.85 -26.5 M124.85 -33.75 L125.85 -33.3 135.6 -44.75 132.45 -47.15 124.85 -33.75 M138.75 -45.0 L125.75 -30.5 122.5 -32.5 131.95 -49.65 138.75 -45.0 M-81.75 -31.35 L-87.0 -53.5 Q-81.25 -58.65 -77.0 -59.85 L-73.7 -60.2 Q-68.5 -59.65 -67.45 -57.85 -66.4 -56.1 -67.5 -46.7 -68.05 -42.2 -73.85 -36.15 L-77.0 -33.2 Q-80.2 -30.6 -81.75 -31.35 M-88.3 -4.9 L-90.9 -12.2 -92.55 -7.6 Q-89.4 1.3 -87.05 14.45 L-87.2 17.8 -89.15 20.65 Q-91.3 23.1 -92.6 21.75 -97.9 14.8 -100.0 0.0 L-102.5 3.0 Q-101.6 9.9 -98.5 20.75 -96.45 27.9 -95.05 28.45 -92.15 29.55 -88.1 27.1 -84.05 24.6 -84.05 13.4 -84.05 11.85 -86.15 3.35 L-88.3 -4.9 M-27.4 -54.25 L-22.15 -25.75 -19.85 -27.0 -21.05 -32.8 -11.15 -38.7 -6.65 -34.2 -3.4 -36.05 -23.0 -56.6 -27.4 -54.25 M-73.9 -64.5 L-77.0 -64.05 Q-83.0 -62.55 -93.25 -56.0 L-76.7 15.3 Q-70.9 12.25 -66.4 8.5 -55.85 -0.4 -52.75 -13.5 -51.3 -19.55 -53.1 -25.75 -55.9 -36.0 -66.0 -36.5 -63.0 -48.35 -63.8 -56.5 -64.65 -64.65 -73.9 -64.5 M-77.0 -55.6 Q-79.8 -54.85 -84.0 -51.5 L-80.45 -36.2 -77.0 -38.85 Q-70.25 -44.8 -71.55 -51.7 -72.55 -56.85 -77.0 -55.6 M-47.25 -44.45 L-48.25 -14.75 -44.25 -16.25 -44.4 -22.15 -33.8 -26.6 -30.3 -21.9 -27.0 -23.25 -45.0 -45.25 -47.25 -44.45 M-43.55 -36.45 L-42.9 -29.2 -39.4 -31.0 -43.55 -36.45 M-78.8 -24.8 L-77.0 -26.4 Q-71.8 -30.65 -65.0 -31.5 -62.3 -30.2 -60.7 -27.95 -57.35 -23.25 -56.4 -19.9 -55.35 -16.0 -56.5 -10.95 -63.85 2.9 -74.0 6.5 L-80.0 -23.5 -78.8 -24.8 M-44.5 -26.05 L-44.9 -41.5 -39.85 -34.75 -39.8 -34.75 -36.0 -29.55 -44.5 -26.05 M-77.0 -22.5 L-70.55 1.45 Q-63.7 -3.1 -60.6 -9.5 L-59.0 -18.5 Q-59.55 -23.95 -64.0 -27.5 -70.8 -27.7 -75.9 -23.55 L-77.0 -22.5 M-20.3 -41.2 L-18.3 -42.4 -21.0 -45.0 -20.3 -41.2 M-21.8 -36.55 L-25.0 -52.45 -13.8 -41.25 -21.8 -36.55 M-1.15 -63.2 L7.35 -51.05 -0.4 -47.85 -1.15 -63.2 M-114.75 18.0 L-116.15 -31.05 -134.15 2.95 -133.85 12.5 -120.75 -7.5 -120.35 19.85 -114.75 18.0 M-100.0 34.3 L-115.35 56.0 -114.75 22.5 -119.95 25.0 -119.35 69.85 -100.0 41.75 -100.0 34.3" fill="#22244c" fill-rule="evenodd" stroke="none"/>
    <path d="M43.0 -55.3 L41.5 -50.75 39.45 -50.8 46.9 -72.85 50.85 -72.8 56.6 -50.7 53.6 -50.7 52.25 -55.6 43.0 -55.3 M64.45 -54.75 L62.45 -50.45 60.4 -50.7 70.55 -71.65 74.5 -71.1 77.4 -48.45 74.4 -48.85 73.65 -53.85 64.45 -54.75 M43.9 -58.25 L51.35 -58.4 47.9 -70.65 43.9 -58.25 M71.25 -69.35 L65.75 -57.55 73.2 -56.8 71.25 -69.35 M19.95 -61.15 L21.1 -72.5 24.6 -73.6 31.2 -61.95 36.4 -51.3 33.95 -50.5 31.05 -55.35 30.15 -55.0 21.1 -52.3 20.6 -46.85 19.25 -46.5 19.95 -61.15 M21.4 -55.75 L29.2 -58.05 22.7 -70.6 21.4 -55.75 M15.95 -44.6 L12.75 -43.4 9.35 -48.25 -0.2 -44.2 0.1 -38.6 -2.1 -37.75 -3.05 -65.3 1.15 -66.8 15.95 -44.6 M125.45 -50.9 L112.9 -32.25 110.6 -33.95 113.05 -53.0 103.1 -38.6 101.4 -39.65 113.65 -57.95 115.65 -56.75 113.9 -39.0 123.55 -52.05 125.45 -50.9 M119.7 -26.9 L121.2 -29.15 123.45 -27.5 121.7 -25.65 119.7 -26.9 M95.5 -65.45 L99.2 -64.1 97.35 -41.35 94.5 -42.3 94.8 -47.4 86.0 -50.2 83.15 -46.4 81.2 -47.1 95.5 -65.45 M95.7 -63.05 L87.85 -52.65 94.95 -50.35 95.7 -63.05 M124.85 -33.75 L132.45 -47.15 135.6 -44.75 125.85 -33.3 124.85 -33.75 M-88.3 -4.9 L-86.15 3.35 Q-84.05 11.85 -84.05 13.4 -84.05 24.6 -88.1 27.1 -92.15 29.55 -95.05 28.45 -96.45 27.9 -98.5 20.75 -101.6 9.9 -102.5 3.0 L-100.0 0.0 Q-97.9 14.8 -92.6 21.75 -91.3 23.1 -89.15 20.65 L-87.2 17.8 -87.05 14.45 Q-89.4 1.3 -92.55 -7.6 L-90.9 -12.2 -88.3 -4.9 M-81.75 -31.35 Q-80.2 -30.6 -77.0 -33.2 L-73.85 -36.15 Q-68.05 -42.2 -67.5 -46.7 -66.4 -56.1 -67.45 -57.85 -68.5 -59.65 -73.7 -60.2 L-77.0 -59.85 Q-81.25 -58.65 -87.0 -53.5 L-81.75 -31.35 M-73.9 -64.5 Q-64.65 -64.65 -63.8 -56.5 -63.0 -48.35 -66.0 -36.5 -55.9 -36.0 -53.1 -25.75 -51.3 -19.55 -52.75 -13.5 -55.85 -0.4 -66.4 8.5 -70.9 12.25 -76.7 15.3 L-93.25 -56.0 Q-83.0 -62.55 -77.0 -64.05 L-73.9 -64.5 M-27.4 -54.25 L-23.0 -56.6 -3.4 -36.05 -6.65 -34.2 -11.15 -38.7 -21.05 -32.8 -19.85 -27.0 -22.15 -25.75 -27.4 -54.25 M-47.25 -44.45 L-45.0 -45.25 -27.0 -23.25 -30.3 -21.9 -33.8 -26.6 -44.4 -22.15 -44.25 -16.25 -48.25 -14.75 -47.25 -44.45 M-44.5 -26.05 L-36.0 -29.55 -39.8 -34.75 -39.85 -34.75 -44.9 -41.5 -44.5 -26.05 M-78.8 -24.8 L-80.0 -23.5 -74.0 6.5 Q-63.85 2.9 -56.5 -10.95 -55.35 -16.0 -56.4 -19.9 -57.35 -23.25 -60.7 -27.95 -62.3 -30.2 -65.0 -31.5 -71.8 -30.65 -77.0 -26.4 L-78.8 -24.8 M-100.0 34.3 L-100.0 41.75 -119.35 69.85 -119.95 25.0 -114.75 22.5 -115.35 56.0 -100.0 34.3 M-114.75 18.0 L-120.35 19.85 -120.75 -7.5 -133.85 12.5 -134.15 2.95 -116.15 -31.05 -114.75 18.0 M-1.15 -63.2 L-0.4 -47.85 7.35 -51.05 -1.15 -63.2 M-21.8 -36.55 L-13.8 -41.25 -25.0 -52.45 -21.8 -36.55" fill="#e5e6fe" fill-rule="evenodd" stroke="none"/>
  </g>
</svg>
