<?xml version="1.0" encoding="UTF-8" standalone="no"?>
<svg xmlns:ffdec="https://www.free-decompiler.com/flash" xmlns:xlink="http://www.w3.org/1999/xlink" ffdec:objectType="shape" height="22.2px" width="26.55px" xmlns="http://www.w3.org/2000/svg">
  <g transform="matrix(1.0, 0.0, 0.0, 1.0, 13.1, 11.1)">
    <path d="M0.65 -7.45 Q-1.5 -7.45 -2.75 -6.0 -3.6 -4.9 -4.0 -1.45 -2.4 -2.55 -0.75 -3.05 L3.2 -3.6 Q7.5 -3.6 10.5 -1.55 13.45 0.5 13.45 3.65 13.45 5.8 11.95 7.55 10.45 9.3 7.8 10.2 5.1 11.1 1.1 11.1 -3.75 11.1 -6.7 10.0 -9.6 8.9 -11.35 6.5 -13.1 4.1 -13.1 0.1 -13.1 -5.7 -9.45 -8.4 -5.75 -11.1 0.75 -11.1 L6.85 -10.5 Q9.05 -9.9 10.55 -8.75 12.0 -7.65 12.8 -5.9 L3.85 -5.15 Q3.5 -6.4 2.7 -6.95 L0.65 -7.45 M-2.4 6.4 Q-1.1 7.4 0.85 7.4 2.6 7.4 3.8 6.5 4.95 5.6 4.95 3.85 4.95 2.0 3.75 1.05 2.5 0.1 0.7 0.1 -1.2 0.1 -2.45 1.05 -3.7 1.95 -3.7 3.65 -3.7 5.4 -2.4 6.4" fill="#000000" fill-rule="evenodd" stroke="none"/>
  </g>
</svg>
