<?xml version="1.0" encoding="UTF-8" standalone="no"?>
<svg xmlns:ffdec="https://www.free-decompiler.com/flash" xmlns:xlink="http://www.w3.org/1999/xlink" ffdec:objectType="shape" height="22.2px" width="26.35px" xmlns="http://www.w3.org/2000/svg">
  <g transform="matrix(1.0, 0.0, 0.0, 1.0, 13.15, 11.1)">
    <path d="M10.9 -2.6 Q10.0 -1.7 8.0 -0.8 10.6 0.05 11.9 1.4 13.2 2.8 13.2 4.45 13.2 6.05 12.1 7.5 11.0 8.85 9.35 9.65 7.75 10.4 5.35 10.75 L0.2 11.1 -7.65 10.3 Q-10.35 9.5 -11.75 7.95 -13.15 6.35 -13.15 4.45 -13.15 2.55 -11.85 1.25 -10.5 -0.1 -7.75 -0.8 -9.9 -1.55 -10.85 -2.45 -12.15 -3.75 -12.15 -5.35 -12.15 -8.05 -8.35 -9.8 -5.4 -11.1 -0.5 -11.1 5.95 -11.1 9.05 -9.45 12.15 -7.8 12.15 -5.35 12.15 -3.9 10.9 -2.6 M2.55 -6.75 Q1.55 -7.45 -0.05 -7.45 -1.7 -7.45 -2.7 -6.8 -3.75 -6.1 -3.75 -5.0 -3.75 -3.9 -2.7 -3.2 -1.65 -2.55 0.1 -2.55 1.65 -2.55 2.6 -3.2 3.6 -3.9 3.6 -4.95 3.6 -6.1 2.55 -6.75 M-2.9 6.55 Q-1.65 7.45 0.05 7.45 1.65 7.45 2.95 6.55 4.2 5.6 4.2 4.2 4.2 2.8 2.95 1.9 1.65 0.95 -0.05 0.95 -1.75 0.95 -2.95 1.85 -4.2 2.75 -4.2 4.25 -4.2 5.65 -2.9 6.55" fill="#000000" fill-rule="evenodd" stroke="none"/>
  </g>
</svg>
