<?xml version="1.0" encoding="UTF-8" standalone="no"?>
<svg xmlns:ffdec="https://www.free-decompiler.com/flash" xmlns:xlink="http://www.w3.org/1999/xlink" ffdec:objectType="shape" height="22.2px" width="26.6px" xmlns="http://www.w3.org/2000/svg">
  <g transform="matrix(1.0, 0.0, 0.0, 1.0, 13.45, 11.1)">
    <path d="M3.75 -3.65 Q3.75 -5.4 2.4 -6.4 1.1 -7.4 -0.8 -7.4 -2.55 -7.4 -3.75 -6.5 -4.95 -5.6 -4.95 -3.8 -4.95 -2.0 -3.7 -1.05 -2.5 -0.1 -0.65 -0.1 1.25 -0.1 2.5 -1.0 3.75 -1.95 3.75 -3.65 M13.15 -0.1 Q13.15 5.7 9.45 8.4 5.8 11.1 -0.75 11.1 L-6.8 10.55 Q-9.0 9.95 -10.5 8.8 -11.95 7.65 -12.75 5.95 L-3.85 5.2 Q-3.5 6.45 -2.65 6.95 -1.85 7.45 -0.6 7.45 1.55 7.45 2.75 6.0 3.65 4.95 4.05 1.45 2.45 2.55 0.75 3.1 L-3.15 3.6 Q-7.5 3.6 -10.45 1.55 -13.45 -0.5 -13.45 -3.65 -13.45 -5.8 -11.9 -7.55 -10.4 -9.3 -7.75 -10.2 -5.1 -11.1 -1.05 -11.1 3.8 -11.1 6.7 -10.0 9.65 -8.9 11.4 -6.45 13.15 -4.05 13.15 -0.1" fill="#000000" fill-rule="evenodd" stroke="none"/>
  </g>
</svg>
