<?xml version="1.0" encoding="UTF-8" standalone="no"?>
<svg xmlns:ffdec="https://www.free-decompiler.com/flash" xmlns:xlink="http://www.w3.org/1999/xlink" ffdec:objectType="shape" height="54.75px" width="611.15px" xmlns="http://www.w3.org/2000/svg">
  <g transform="matrix(1.0, 0.0, 0.0, 1.0, 305.55, 27.35)">
    <path d="M33.8 -20.35 Q40.8 -27.35 53.6 -27.35 63.6 -27.35 69.35 -23.35 75.05 -19.3 77.8 -10.9 L63.35 -7.7 Q62.6 -10.1 61.8 -11.2 60.4 -13.1 58.4 -14.1 56.45 -15.1 54.0 -15.1 48.4 -15.1 45.45 -10.65 43.2 -7.3 43.2 -0.2 43.2 8.6 45.9 11.85 48.55 15.1 53.4 15.1 58.1 15.1 60.5 12.5 62.9 9.85 64.0 4.8 L78.35 9.15 Q76.9 15.2 73.8 19.25 70.65 23.3 66.1 25.35 61.45 27.4 54.35 27.4 45.7 27.4 40.25 24.9 34.75 22.4 30.8 16.05 26.8 9.75 26.8 -0.1 26.8 -13.25 33.8 -20.35 M114.15 -5.75 Q115.8 -6.05 116.85 -7.4 117.85 -8.75 117.85 -10.45 117.85 -13.05 116.2 -14.4 114.6 -15.8 110.1 -15.8 L102.95 -15.8 102.95 -5.0 109.85 -5.0 114.15 -5.75 M113.75 -26.45 Q121.35 -26.45 125.35 -25.15 129.4 -23.85 131.85 -20.35 134.3 -16.8 134.3 -11.75 134.3 -7.35 132.4 -4.15 130.55 -0.95 127.25 1.05 125.15 2.3 121.5 3.1 124.45 4.1 125.75 5.05 126.65 5.7 128.35 7.85 L130.7 11.15 138.55 26.4 158.4 -26.45 176.25 -26.45 196.2 26.5 179.05 26.5 176.4 17.75 157.8 17.75 155.25 26.5 120.1 26.5 111.35 10.3 Q109.7 7.15 108.4 6.25 106.6 5.0 104.35 5.0 L102.95 5.0 102.95 26.5 86.5 26.5 86.5 -26.45 113.75 -26.45 M217.1 -16.3 Q215.65 -15.1 215.65 -13.35 215.65 -12.1 216.85 -11.1 218.0 -10.05 222.35 -9.15 233.05 -6.8 237.7 -4.45 242.35 -2.1 244.5 1.4 246.55 4.95 246.55 9.25 246.55 14.35 243.75 18.65 240.95 22.95 235.9 25.2 230.8 27.4 223.1 27.4 209.6 27.4 204.4 22.2 199.2 17.0 198.5 9.0 L214.1 8.0 Q214.6 11.8 216.15 13.8 218.7 17.0 223.35 17.0 226.9 17.0 228.8 15.35 230.65 13.7 230.65 11.55 230.65 9.5 228.85 7.85 227.05 6.25 220.5 4.8 209.7 2.35 205.15 -1.65 200.5 -5.65 200.5 -11.85 200.5 -15.95 202.9 -19.55 205.25 -23.2 210.0 -25.3 214.75 -27.35 223.0 -27.35 233.15 -27.35 238.5 -23.6 243.85 -19.8 244.85 -11.6 L229.4 -10.7 Q228.8 -14.25 226.85 -15.9 224.85 -17.5 221.4 -17.5 218.55 -17.5 217.1 -16.3 M271.25 -7.95 L289.15 -7.95 289.15 -26.45 305.6 -26.45 305.6 26.5 289.15 26.5 289.15 5.05 271.25 5.05 271.25 26.5 254.9 26.5 254.9 -26.45 271.25 -26.45 271.25 -7.95 M173.0 6.3 L167.15 -12.75 161.35 6.3 173.0 6.3" fill="#ff0000" fill-rule="evenodd" stroke="none"/>
    <path d="M-267.8 -26.45 L-247.85 26.5 -265.0 26.5 -267.65 17.75 -286.25 17.75 -288.8 26.5 -305.55 26.5 -285.65 -26.45 -267.8 -26.45 M-226.3 -6.75 L-200.85 -6.75 -200.85 4.05 -226.3 4.05 -226.3 14.5 -198.05 14.5 -198.05 26.5 -242.7 26.5 -242.7 -26.45 -198.85 -26.45 -198.85 -15.15 -226.3 -15.15 -226.3 -6.75 M-172.55 -5.0 L-165.65 -5.0 -161.35 -5.75 Q-159.7 -6.05 -158.65 -7.4 -157.65 -8.75 -157.65 -10.45 -157.65 -13.05 -159.3 -14.4 -160.9 -15.8 -165.4 -15.8 L-172.55 -15.8 -172.55 -5.0 M-143.1 -4.15 Q-144.95 -0.95 -148.25 1.05 -150.35 2.3 -154.0 3.1 -151.05 4.1 -149.75 5.05 -148.85 5.7 -147.15 7.85 -145.4 10.0 -144.8 11.15 L-136.9 26.5 -155.4 26.5 -164.15 10.3 Q-165.8 7.15 -167.1 6.25 -168.9 5.0 -171.15 5.0 L-172.55 5.0 -172.55 26.5 -189.0 26.5 -189.0 -26.45 -161.75 -26.45 Q-154.15 -26.45 -150.15 -25.15 -146.1 -23.85 -143.65 -20.35 -141.2 -16.8 -141.2 -11.75 -141.2 -7.35 -143.1 -4.15 M-114.65 -26.45 L-114.65 26.5 -131.05 26.5 -131.05 -26.45 -114.65 -26.45 M-28.95 -26.45 L-28.95 13.45 -3.4 13.45 -3.4 26.5 -45.35 26.5 -45.35 -26.45 -28.95 -26.45 M-70.45 -26.45 L-50.5 26.5 -67.65 26.5 -70.3 17.75 -88.9 17.75 -91.45 26.5 -108.2 26.5 -88.3 -26.45 -70.45 -26.45 M-73.7 6.3 L-79.55 -12.75 -85.35 6.3 -73.7 6.3 M-271.05 6.3 L-276.9 -12.75 -282.7 6.3 -271.05 6.3" fill="#ff0000" fill-rule="evenodd" stroke="none"/>
  </g>
</svg>
