<?xml version="1.0" encoding="UTF-8" standalone="no"?>
<svg xmlns:ffdec="https://www.free-decompiler.com/flash" xmlns:xlink="http://www.w3.org/1999/xlink" ffdec:objectType="shape" height="50.0px" width="398.5px" xmlns="http://www.w3.org/2000/svg">
  <g transform="matrix(1.0, 0.0, 0.0, 1.0, 199.35, 25.0)">
    <path d="M33.4 -21.25 Q39.95 -17.75 43.0 -9.95 L26.6 -7.15 24.7 -10.2 20.95 -13.05 15.8 -14.0 Q9.65 -14.0 6.15 -9.75 3.55 -6.7 3.55 -0.35 3.55 7.6 6.65 10.65 9.65 13.7 15.3 13.75 20.2 13.7 23.3 11.4 25.85 9.25 27.25 4.35 L43.75 8.3 Q41.8 13.7 38.55 17.45 35.0 21.0 29.6 23.1 24.0 24.95 16.25 25.0 6.15 24.95 0.05 22.65 -6.05 20.5 -10.55 14.65 -15.25 8.55 -15.25 -0.1 -15.25 -11.85 -7.25 -18.7 1.0 -25.0 15.3 -25.0 26.8 -25.0 33.4 -21.25 M72.35 -24.3 L72.35 24.05 53.6 24.05 53.6 -24.3 72.35 -24.3 M122.6 -24.3 L145.4 24.05 125.9 24.05 122.85 16.1 101.7 16.1 98.7 24.05 79.65 24.05 102.2 -24.3 122.6 -24.3 M170.05 -24.3 L170.05 12.05 199.15 12.05 199.15 24.05 151.5 24.05 151.5 -24.3 170.05 -24.3 M118.85 5.75 L112.3 -11.65 105.7 5.75 118.85 5.75 M-194.4 -17.95 Q-191.85 -21.3 -186.4 -23.15 -180.3 -25.0 -171.4 -25.0 -159.65 -25.0 -153.75 -21.45 -147.7 -18.45 -146.5 -10.7 L-164.1 -9.75 Q-164.85 -13.05 -166.95 -14.4 -169.3 -16.1 -173.25 -16.1 -176.35 -16.1 -178.2 -14.9 -179.85 -14.0 -179.85 -12.3 -179.9 -10.95 -178.45 -10.2 L-172.1 -8.35 Q-160.15 -6.25 -154.5 -4.1 -149.1 -2.0 -146.95 1.3 -144.4 4.55 -144.4 8.3 -144.4 13.0 -147.7 17.0 -150.7 20.75 -156.6 22.9 -162.5 25.0 -171.15 25.0 -186.65 24.95 -192.75 20.3 -198.65 15.1 -199.35 8.1 L-181.5 7.15 Q-181.25 10.4 -179.15 12.55 -176.35 15.35 -170.9 15.35 -166.95 15.35 -164.85 13.95 -162.7 12.55 -162.7 10.45 -162.7 8.55 -164.85 7.15 -166.5 5.7 -174.2 4.35 -185.95 2.2 -191.85 -1.55 -197.25 -5.5 -197.25 -10.9 -197.25 -14.45 -194.4 -17.95 M-104.0 -12.8 Q-106.1 -14.45 -111.05 -14.4 L-116.45 -14.4 -116.45 -3.65 -111.75 -3.65 Q-106.35 -3.65 -104.25 -5.05 -102.15 -6.5 -102.1 -8.8 -102.15 -11.15 -104.0 -12.8 M-83.8 -9.3 Q-83.8 -2.05 -89.45 2.25 -94.85 6.2 -106.1 6.2 L-116.45 6.2 -116.45 24.05 -135.25 24.05 -135.25 -24.3 -104.0 -24.3 Q-94.15 -24.3 -88.95 -20.3 -83.8 -16.55 -83.8 -9.3 M-55.4 -6.25 L-26.25 -6.25 -26.25 3.65 -55.4 3.65 -55.4 13.25 -23.0 13.25 -23.0 24.05 -74.15 24.05 -74.15 -24.3 -23.9 -24.3 -23.9 -14.0 -55.4 -14.0 -55.4 -6.25" fill="#ff0000" fill-rule="evenodd" stroke="none"/>
  </g>
</svg>
