<?xml version="1.0" encoding="UTF-8" standalone="no"?>
<svg xmlns:ffdec="https://www.free-decompiler.com/flash" xmlns:xlink="http://www.w3.org/1999/xlink" ffdec:objectType="shape" height="150.0px" width="150.0px" xmlns="http://www.w3.org/2000/svg">
  <g transform="matrix(1.0, 0.0, 0.0, 1.0, 75.0, 75.0)">
    <path d="M0.0 -25.0 L-37.5 -62.5 -62.5 -37.5 -25.0 0.0 -62.5 37.5 -37.5 62.5 0.0 25.0 37.5 62.5 62.5 37.5 25.0 0.0 62.5 -37.5 37.5 -62.5 0.0 -25.0 M75.0 -37.5 L37.5 0.0 75.0 37.5 37.5 75.0 0.0 37.5 -37.5 75.0 -75.0 37.5 -37.5 0.0 -75.0 -37.5 -37.5 -75.0 0.0 -37.5 37.5 -75.0 75.0 -37.5" fill="#000000" fill-rule="evenodd" stroke="none"/>
    <path d="M0.0 -25.0 L37.5 -62.5 62.5 -37.5 25.0 0.0 62.5 37.5 37.5 62.5 0.0 25.0 -37.5 62.5 -62.5 37.5 -25.0 0.0 -62.5 -37.5 -37.5 -62.5 0.0 -25.0" fill="#ff0000" fill-rule="evenodd" stroke="none"/>
  </g>
</svg>
