<?xml version="1.0" encoding="UTF-8" standalone="no"?>
<svg xmlns:ffdec="https://www.free-decompiler.com/flash" xmlns:xlink="http://www.w3.org/1999/xlink" ffdec:objectType="shape" height="16.3px" width="24.8px" xmlns="http://www.w3.org/2000/svg">
  <g transform="matrix(1.0, 0.0, 0.0, 1.0, 12.4, 8.15)">
    <path d="M-12.4 3.45 L-3.5 2.9 Q-2.95 3.95 -2.0 4.4 L0.65 4.85 Q2.5 4.85 3.45 4.35 4.2 3.95 4.2 3.4 4.2 2.75 3.2 2.4 L-0.65 1.8 -7.1 0.8 Q-8.95 0.35 -10.15 -0.8 -11.4 -1.85 -11.4 -3.3 -11.4 -4.85 -10.05 -5.95 -8.7 -7.1 -6.35 -7.6 L-0.05 -8.15 6.1 -7.75 Q8.05 -7.3 9.4 -6.4 10.65 -5.55 11.6 -4.0 L3.15 -3.45 Q2.8 -4.2 2.05 -4.55 L-0.5 -5.0 -2.7 -4.65 Q-3.4 -4.25 -3.4 -3.75 -3.4 -3.2 -2.5 -2.9 L1.3 -2.4 7.95 -1.45 Q10.1 -0.85 11.25 0.3 12.4 1.3 12.4 2.75 12.4 4.05 11.2 5.35 10.0 6.65 7.35 7.4 4.75 8.15 0.2 8.15 -6.25 8.15 -8.9 6.9 -11.55 5.7 -12.4 3.45" fill="#000000" fill-rule="evenodd" stroke="none"/>
  </g>
</svg>
