<?xml version="1.0" encoding="UTF-8" standalone="no"?>
<svg xmlns:ffdec="https://www.free-decompiler.com/flash" xmlns:xlink="http://www.w3.org/1999/xlink" ffdec:objectType="shape" height="16.3px" width="26.8px" xmlns="http://www.w3.org/2000/svg">
  <g transform="matrix(1.0, 0.0, 0.0, 1.0, 13.4, 8.15)">
    <path d="M-9.8 -5.85 Q-13.4 -3.55 -13.4 0.05 -13.4 3.85 -9.1 6.25 -5.6 8.15 -0.05 8.15 6.15 8.15 9.85 5.85 13.4 3.5 13.4 -0.05 13.4 -3.3 10.5 -5.45 7.0 -8.15 -0.05 -8.15 -6.25 -8.15 -9.8 -5.85 M3.15 3.15 Q2.0 4.1 0.0 4.1 -1.95 4.1 -3.15 3.1 -4.4 2.15 -4.4 0.05 -4.4 -2.0 -3.15 -3.05 -1.85 -4.05 0.05 -4.05 1.85 -4.05 3.15 -3.05 4.4 -2.1 4.4 -0.05 4.4 2.2 3.15 3.15" fill="#000000" fill-rule="evenodd" stroke="none"/>
  </g>
</svg>
