<?xml version="1.0" encoding="UTF-8" standalone="no"?>
<svg xmlns:ffdec="https://www.free-decompiler.com/flash" xmlns:xlink="http://www.w3.org/1999/xlink" ffdec:objectType="shape" height="16.3px" width="26.85px" xmlns="http://www.w3.org/2000/svg">
  <g transform="matrix(1.0, 0.0, 0.0, 1.0, 13.4, 8.15)">
    <path d="M0.6 7.5 Q2.45 6.95 4.1 5.9 L4.4 6.85 5.05 7.8 13.45 7.8 Q12.7 6.85 12.55 6.2 12.3 5.45 12.3 4.45 L12.3 -2.4 Q12.3 -3.5 11.65 -4.75 11.0 -5.9 9.85 -6.6 8.35 -7.55 5.8 -7.85 L-0.65 -8.15 -5.3 -7.9 -8.7 -7.2 Q-10.45 -6.55 -11.3 -5.7 -12.25 -4.8 -12.7 -3.35 L-4.15 -2.75 Q-3.65 -3.8 -2.75 -4.15 L0.5 -4.6 2.9 -4.15 Q3.6 -3.75 3.6 -2.65 L-6.1 -0.95 Q-10.3 -0.45 -11.85 0.75 -13.4 1.85 -13.4 3.65 -13.4 5.6 -11.25 6.85 -9.05 8.15 -4.9 8.15 L0.6 7.5 M3.6 1.35 Q3.6 2.45 3.05 3.15 L1.25 4.35 -1.55 4.85 -3.75 4.4 Q-4.45 3.95 -4.45 3.2 -4.45 2.6 -3.7 2.1 -3.1 1.7 -0.25 1.15 L3.6 0.35 3.6 1.35" fill="#000000" fill-rule="evenodd" stroke="none"/>
  </g>
</svg>
