<?xml version="1.0" encoding="UTF-8" standalone="no"?>
<svg xmlns:ffdec="https://www.free-decompiler.com/flash" xmlns:xlink="http://www.w3.org/1999/xlink" ffdec:objectType="shape" height="16.3px" width="27.0px" xmlns="http://www.w3.org/2000/svg">
  <g transform="matrix(1.0, 0.0, 0.0, 1.0, 13.5, 8.15)">
    <path d="M11.15 5.4 Q12.7 4.2 13.5 2.3 L5.0 1.7 Q4.4 2.9 3.2 3.5 2.0 4.1 0.25 4.1 -1.95 4.1 -3.25 3.1 -4.6 2.1 -4.6 0.2 -4.6 -1.95 -3.25 -3.0 -1.8 -4.05 0.35 -4.05 2.2 -4.05 3.15 -3.55 4.25 -3.1 4.6 -2.05 L13.05 -2.8 Q11.75 -5.45 8.8 -6.8 5.8 -8.15 0.1 -8.15 L-6.6 -7.45 Q-8.2 -7.0 -9.8 -6.05 -11.4 -5.15 -12.3 -3.95 -13.5 -2.4 -13.5 0.05 -13.5 2.4 -12.5 3.75 -11.55 5.1 -9.7 6.2 -8.0 7.15 -5.45 7.7 L0.75 8.15 7.05 7.4 Q9.45 6.75 11.15 5.4" fill="#000000" fill-rule="evenodd" stroke="none"/>
  </g>
</svg>
