<?xml version="1.0" encoding="UTF-8" standalone="no"?>
<svg xmlns:ffdec="https://www.free-decompiler.com/flash" xmlns:xlink="http://www.w3.org/1999/xlink" ffdec:objectType="shape" height="22.25px" width="25.7px" xmlns="http://www.w3.org/2000/svg">
  <g transform="matrix(1.0, 0.0, 0.0, 1.0, 12.85, 11.15)">
    <path d="M1.15 -10.55 Q2.9 -9.95 4.45 -8.5 L4.45 -10.8 12.85 -10.8 12.85 4.6 Q12.85 6.1 11.9 7.4 10.95 8.75 9.45 9.5 7.85 10.35 5.5 10.7 L0.05 11.1 Q-6.95 11.1 -9.6 9.65 -12.25 8.3 -12.25 5.9 L-12.2 5.1 -3.5 5.75 Q-3.25 6.5 -2.5 6.9 L0.0 7.35 Q1.9 7.35 2.9 6.65 3.85 5.95 3.85 4.25 L3.85 1.9 Q2.45 3.0 1.2 3.4 -0.9 4.15 -3.25 4.15 -7.95 4.15 -10.8 1.4 -12.85 -0.45 -12.85 -3.7 -12.85 -7.35 -10.2 -9.25 -7.55 -11.15 -3.35 -11.15 -0.55 -11.15 1.15 -10.55 M-0.2 -6.85 Q-1.85 -6.85 -2.95 -6.0 -3.95 -5.15 -3.95 -3.25 -3.95 -1.55 -2.85 -0.75 -1.85 0.05 -0.05 0.05 1.7 0.05 2.75 -0.8 3.9 -1.65 3.9 -3.3 3.9 -5.05 2.7 -5.95 1.5 -6.85 -0.2 -6.85" fill="#000000" fill-rule="evenodd" stroke="none"/>
  </g>
</svg>
