<?xml version="1.0" encoding="UTF-8" standalone="no"?>
<svg xmlns:ffdec="https://www.free-decompiler.com/flash" xmlns:xlink="http://www.w3.org/1999/xlink" ffdec:objectType="shape" height="48.6px" width="28.1px" xmlns="http://www.w3.org/2000/svg">
  <g transform="matrix(1.0, 0.0, 0.0, 1.0, 14.05, 24.3)">
    <path d="M-1.9 -11.35 L-1.9 10.4 Q-1.9 14.5 -1.55 15.45 -1.25 16.4 0.0 16.4 1.2 16.4 1.55 15.3 1.9 14.2 1.9 10.1 L1.9 -11.35 Q1.9 -14.6 1.55 -15.5 1.2 -16.45 0.05 -16.45 -0.9 -16.45 -1.4 -15.7 -1.9 -14.95 -1.9 -11.35 M11.55 -19.4 Q13.35 -16.95 13.7 -14.1 14.05 -11.2 14.05 -4.0 L14.05 3.95 Q14.05 11.0 13.7 13.95 13.35 16.85 11.65 19.25 9.9 21.7 6.9 23.0 3.95 24.3 0.0 24.3 -3.75 24.3 -6.7 23.05 -9.7 21.85 -11.5 19.4 -13.35 16.95 -13.7 14.05 -14.05 11.15 -14.05 3.95 L-14.05 -4.0 Q-14.05 -11.05 -13.7 -13.95 -13.35 -16.9 -11.6 -19.3 -9.9 -21.75 -6.9 -23.0 -3.95 -24.3 0.0 -24.3 3.75 -24.3 6.75 -23.1 9.7 -21.85 11.55 -19.4" fill="#ff7700" fill-rule="evenodd" stroke="none"/>
  </g>
</svg>
