<?xml version="1.0" encoding="UTF-8" standalone="no"?>
<svg xmlns:ffdec="https://www.free-decompiler.com/flash" xmlns:xlink="http://www.w3.org/1999/xlink" ffdec:objectType="shape" height="21.85px" width="25.7px" xmlns="http://www.w3.org/2000/svg">
  <g transform="matrix(1.0, 0.0, 0.0, 1.0, 12.85, 10.95)">
    <path d="M1.25 10.2 Q2.7 9.7 4.5 8.2 L4.5 10.55 12.85 10.55 12.85 -10.95 3.8 -10.95 3.8 -3.55 Q2.6 -4.4 0.8 -4.95 L-3.0 -5.4 Q-7.25 -5.4 -10.05 -3.35 -12.85 -1.3 -12.85 2.6 -12.85 6.05 -10.3 8.45 -7.85 10.9 -3.05 10.9 L1.25 10.2 M2.75 5.6 Q1.65 6.5 -0.1 6.5 -1.65 6.5 -2.8 5.6 -3.85 4.7 -3.85 2.8 -3.85 0.8 -2.8 -0.1 -1.7 -0.95 -0.2 -0.95 1.55 -0.95 2.75 -0.05 3.9 0.85 3.9 2.7 3.9 4.7 2.75 5.6" fill="#000000" fill-rule="evenodd" stroke="none"/>
  </g>
</svg>
