<?xml version="1.0" encoding="UTF-8" standalone="no"?>
<svg xmlns:ffdec="https://www.free-decompiler.com/flash" xmlns:xlink="http://www.w3.org/1999/xlink" ffdec:objectType="shape" height="71.3px" width="317.55px" xmlns="http://www.w3.org/2000/svg">
  <g transform="matrix(1.0, 0.0, 0.0, 1.0, 158.8, 35.65)">
    <path d="M31.45 -28.2 Q27.9 -29.65 23.25 -29.65 18.4 -29.65 14.8 -28.1 11.25 -26.55 9.1 -23.55 6.95 -20.65 6.55 -17.05 6.15 -13.2 6.15 -4.9 L6.15 4.85 Q6.15 13.45 6.55 17.15 7.0 20.65 9.2 23.7 11.5 26.65 15.05 28.15 18.65 29.65 23.25 29.65 28.15 29.65 31.7 28.05 35.3 26.45 37.4 23.55 39.6 20.55 39.95 17.0 40.35 13.25 40.35 4.85 L40.35 -4.9 Q40.35 -13.45 39.95 -17.2 39.5 -20.65 37.3 -23.7 35.05 -26.7 31.45 -28.2 M38.2 -31.15 L39.85 -29.8 39.85 -34.5 56.3 -34.5 67.85 -34.0 Q72.8 -33.45 76.05 -31.85 L76.05 -34.5 158.75 -34.5 156.25 11.05 157.25 11.05 157.25 34.45 112.55 34.45 112.55 11.05 113.55 11.05 112.35 -11.15 111.7 -11.15 111.7 34.45 39.85 34.45 39.85 29.85 38.25 31.1 Q32.1 35.65 23.25 35.65 14.5 35.65 8.3 31.15 1.6 26.3 0.6 17.9 0.25 15.15 0.2 9.4 -3.45 11.1 -8.75 11.4 L-8.75 34.45 -123.0 34.45 -123.0 -11.15 -123.2 -11.15 -123.2 34.45 -150.0 34.45 -150.0 -11.15 -158.8 -11.15 -158.8 -34.5 -66.2 -34.5 -66.2 11.05 -65.6 11.05 -65.6 -34.5 -14.7 -34.5 Q-2.0 -34.5 3.05 -29.8 L4.75 -27.85 Q7.6 -31.5 12.4 -33.6 17.15 -35.65 23.25 -35.65 32.0 -35.65 38.2 -31.15 M105.7 -17.15 L114.4 -17.15 114.4 -28.5 82.05 -28.5 82.05 -17.15 90.85 -17.15 90.85 28.45 105.7 28.45 105.7 -17.15 M60.65 -6.15 L60.65 -18.8 Q63.2 -18.8 64.15 -17.95 65.15 -17.1 65.15 -14.4 L65.15 -11.25 Q65.15 -7.5 64.15 -6.8 63.2 -6.15 60.65 -6.15 M56.3 -28.5 L45.85 -28.5 45.85 28.45 60.65 28.45 60.65 2.75 Q63.75 2.75 64.4 3.8 65.15 4.9 65.15 9.5 L65.15 28.45 78.9 28.45 78.9 13.4 Q78.9 6.65 78.5 4.95 78.1 3.45 76.65 1.6 75.1 -0.25 70.75 -1.3 75.55 -1.75 77.25 -4.05 78.9 -6.4 78.9 -13.0 78.9 -20.2 76.55 -23.6 74.25 -26.85 70.5 -27.7 L56.3 -28.5 M23.3 -20.05 Q24.65 -20.05 25.1 -18.9 25.5 -17.8 25.5 -13.85 L25.5 12.3 Q25.5 17.5 25.1 18.65 24.75 20.0 23.2 20.0 21.8 20.0 21.4 18.85 21.0 17.8 21.0 12.75 L21.0 -13.85 Q21.0 -18.25 21.6 -19.15 22.2 -20.05 23.3 -20.05 M2.3 -12.6 Q2.3 -17.85 1.75 -20.5 1.15 -23.05 -0.5 -24.85 -2.15 -26.65 -5.4 -27.55 -8.55 -28.5 -14.7 -28.5 L-29.6 -28.5 -29.6 28.45 -14.75 28.45 -14.75 5.45 -10.8 5.45 Q-6.0 5.45 -2.95 4.15 0.05 2.8 1.2 0.3 2.3 -2.1 2.3 -7.65 L2.3 -12.6 M82.3 -0.85 Q84.25 2.0 84.75 6.0 L84.85 8.1 84.85 -10.8 Q84.55 -4.25 82.3 -0.85 M-72.2 -28.5 L-87.0 -28.5 -87.0 28.45 -63.25 28.45 -63.25 17.05 -72.2 17.05 -72.2 -28.5 M-11.0 -17.9 Q-10.1 -17.1 -10.1 -14.1 L-10.1 -9.45 Q-10.1 -6.3 -10.85 -5.25 -11.7 -4.25 -13.7 -4.25 L-14.75 -4.3 -14.75 -18.8 Q-11.9 -18.8 -11.0 -17.9 M-44.75 -6.25 L-44.75 -17.15 -34.9 -17.15 -34.9 -28.5 -59.6 -28.5 -59.6 28.45 -33.9 28.45 -33.9 17.05 -44.75 17.05 -44.75 4.55 -35.55 4.55 -35.55 -6.25 -44.75 -6.25 M-102.2 -17.15 L-92.3 -17.15 -92.3 -28.5 -117.0 -28.5 -117.0 28.45 -91.3 28.45 -91.3 17.05 -102.2 17.05 -102.2 4.55 -92.95 4.55 -92.95 -6.25 -102.2 -6.25 -102.2 -17.15 M-152.8 -17.15 L-144.0 -17.15 -144.0 28.45 -129.2 28.45 -129.2 -17.15 -120.45 -17.15 -120.45 -28.5 -152.8 -28.5 -152.8 -17.15 M131.9 28.45 L131.9 17.05 118.55 17.05 118.55 28.45 131.9 28.45 M151.25 28.45 L151.25 17.05 137.95 17.05 137.95 28.45 151.25 28.45 M133.05 -28.5 L117.4 -28.5 119.75 14.4 130.7 14.4 133.05 -28.5 M152.4 -28.5 L136.8 -28.5 139.1 14.4 150.1 14.4 152.4 -28.5 M-35.6 10.9 L-35.6 10.55 -38.75 10.55 -35.6 10.9 M-93.0 10.9 L-93.0 10.55 -96.2 10.55 -93.0 10.9" fill="#ff0000" fill-rule="evenodd" stroke="none"/>
    <path d="M31.45 -28.2 Q35.05 -26.7 37.3 -23.7 39.5 -20.65 39.95 -17.2 40.35 -13.45 40.35 -4.9 L40.35 4.85 Q40.35 13.25 39.95 17.0 39.6 20.55 37.4 23.55 35.3 26.45 31.7 28.05 28.15 29.65 23.25 29.65 18.65 29.65 15.05 28.15 11.5 26.65 9.2 23.7 7.0 20.65 6.55 17.15 6.15 13.45 6.15 4.85 L6.15 -4.9 Q6.15 -13.2 6.55 -17.05 6.95 -20.65 9.1 -23.55 11.25 -26.55 14.8 -28.1 18.4 -29.65 23.25 -29.65 27.9 -29.65 31.45 -28.2 M2.3 -12.6 L2.3 -7.65 Q2.3 -2.1 1.2 0.3 0.05 2.8 -2.95 4.15 -6.0 5.45 -10.8 5.45 L-14.75 5.45 -14.75 28.45 -29.6 28.45 -29.6 -28.5 -14.7 -28.5 Q-8.55 -28.5 -5.4 -27.55 -2.15 -26.65 -0.5 -24.85 1.15 -23.05 1.75 -20.5 2.3 -17.85 2.3 -12.6 M23.3 -20.05 Q22.2 -20.05 21.6 -19.15 21.0 -18.25 21.0 -13.85 L21.0 12.75 Q21.0 17.8 21.4 18.85 21.8 20.0 23.2 20.0 24.75 20.0 25.1 18.65 25.5 17.5 25.5 12.3 L25.5 -13.85 Q25.5 -17.8 25.1 -18.9 24.65 -20.05 23.3 -20.05 M56.3 -28.5 L70.5 -27.7 Q74.25 -26.85 76.55 -23.6 78.9 -20.2 78.9 -13.0 78.9 -6.4 77.25 -4.05 75.55 -1.75 70.75 -1.3 75.1 -0.25 76.65 1.6 78.1 3.45 78.5 4.95 78.9 6.65 78.9 13.4 L78.9 28.45 65.15 28.45 65.15 9.5 Q65.15 4.9 64.4 3.8 63.75 2.75 60.65 2.75 L60.65 28.45 45.85 28.45 45.85 -28.5 56.3 -28.5 M60.65 -6.15 Q63.2 -6.15 64.15 -6.8 65.15 -7.5 65.15 -11.25 L65.15 -14.4 Q65.15 -17.1 64.15 -17.95 63.2 -18.8 60.65 -18.8 L60.65 -6.15 M105.7 -17.15 L105.7 28.45 90.85 28.45 90.85 -17.15 82.05 -17.15 82.05 -28.5 114.4 -28.5 114.4 -17.15 105.7 -17.15 M152.4 -28.5 L150.1 14.4 139.1 14.4 136.8 -28.5 152.4 -28.5 M133.05 -28.5 L130.7 14.4 119.75 14.4 117.4 -28.5 133.05 -28.5 M151.25 28.45 L137.95 28.45 137.95 17.05 151.25 17.05 151.25 28.45 M131.9 28.45 L118.55 28.45 118.55 17.05 131.9 17.05 131.9 28.45 M-152.8 -17.15 L-152.8 -28.5 -120.45 -28.5 -120.45 -17.15 -129.2 -17.15 -129.2 28.45 -144.0 28.45 -144.0 -17.15 -152.8 -17.15 M-102.2 -17.15 L-102.2 -6.25 -92.95 -6.25 -92.95 4.55 -102.2 4.55 -102.2 17.05 -91.3 17.05 -91.3 28.45 -117.0 28.45 -117.0 -28.5 -92.3 -28.5 -92.3 -17.15 -102.2 -17.15 M-44.75 -6.25 L-35.55 -6.25 -35.55 4.55 -44.75 4.55 -44.75 17.05 -33.9 17.05 -33.9 28.45 -59.6 28.45 -59.6 -28.5 -34.9 -28.5 -34.9 -17.15 -44.75 -17.15 -44.75 -6.25 M-11.0 -17.9 Q-11.9 -18.8 -14.75 -18.8 L-14.75 -4.3 -13.7 -4.25 Q-11.7 -4.25 -10.85 -5.25 -10.1 -6.3 -10.1 -9.45 L-10.1 -14.1 Q-10.1 -17.1 -11.0 -17.9 M-72.2 -28.5 L-72.2 17.05 -63.25 17.05 -63.25 28.45 -87.0 28.45 -87.0 -28.5 -72.2 -28.5" fill="#ffa7ff" fill-rule="evenodd" stroke="none"/>
  </g>
</svg>
