<?xml version="1.0" encoding="UTF-8" standalone="no"?>
<svg xmlns:ffdec="https://www.free-decompiler.com/flash" xmlns:xlink="http://www.w3.org/1999/xlink" ffdec:objectType="shape" height="69.85px" width="216.25px" xmlns="http://www.w3.org/2000/svg">
  <g transform="matrix(1.0, 0.0, 0.0, 1.0, 108.1, 34.95)">
    <path d="M11.4 -13.95 Q9.95 -11.3 9.95 -5.7 9.95 -1.75 11.3 1.1 12.75 4.05 18.95 7.5 26.45 11.65 27.15 12.5 27.95 13.3 27.95 16.65 27.95 19.1 27.35 19.85 26.75 20.6 25.25 20.6 23.85 20.6 23.4 19.5 22.9 18.45 22.9 14.6 L22.9 11.65 10.3 11.65 10.3 13.9 Q10.3 19.65 11.75 22.65 13.15 25.5 17.05 27.2 21.0 28.9 26.3 28.9 31.15 28.9 34.65 27.3 38.15 25.7 39.55 22.85 41.05 19.9 41.05 14.25 41.05 9.15 39.1 6.45 37.25 3.85 31.05 0.75 26.4 -1.5 24.9 -2.7 23.45 -3.9 23.15 -4.9 22.85 -5.95 22.85 -8.05 22.85 -9.65 23.45 -10.45 24.05 -11.2 25.25 -11.2 26.75 -11.2 27.05 -10.35 27.45 -9.45 27.45 -6.25 L27.45 -3.75 39.95 -3.75 39.95 -6.45 Q39.95 -10.05 39.6 -11.6 39.25 -13.25 37.5 -15.2 35.75 -17.15 32.5 -18.3 29.3 -19.5 24.6 -19.5 20.05 -19.5 16.4 -18.05 12.9 -16.65 11.4 -13.95 M7.35 -18.45 Q12.3 -25.5 24.6 -25.5 31.8 -25.5 36.6 -23.25 L36.6 -23.5 39.6 -23.5 39.6 -30.85 60.75 -30.85 60.5 -34.95 108.15 -34.95 105.7 10.65 106.7 10.65 106.7 34.0 58.6 34.0 Q46.9 34.0 43.1 29.55 L42.65 28.95 42.6 29.0 Q37.4 34.9 26.3 34.9 13.2 34.9 7.9 27.45 L7.85 27.35 7.55 27.75 Q2.2 34.9 -9.9 34.9 -22.15 34.9 -27.45 28.75 L-28.55 27.25 -28.75 27.0 -29.3 27.75 Q-34.7 34.9 -46.8 34.9 -59.05 34.9 -64.3 28.75 L-64.85 28.05 -64.95 28.15 Q-66.1 29.7 -67.6 30.75 -72.3 34.0 -85.0 34.0 L-108.1 34.0 -108.1 -34.95 -87.35 -34.95 Q-74.7 -34.95 -69.1 -30.4 -64.75 -26.9 -63.35 -19.85 -57.9 -25.5 -47.4 -25.5 -36.1 -25.5 -30.3 -19.35 L-28.55 -17.2 Q-23.25 -25.5 -10.5 -25.5 0.75 -25.5 6.55 -19.35 L7.35 -18.45 M-83.35 17.3 Q-84.2 18.2 -87.25 18.3 L-87.25 2.3 Q-84.1 2.45 -83.25 3.2 -82.5 3.95 -82.5 7.65 L-82.5 12.95 Q-82.5 16.35 -83.35 17.3 M-12.15 -5.75 Q-12.15 -9.25 -11.75 -10.3 -11.3 -11.2 -10.05 -11.2 -8.7 -11.2 -8.35 -10.3 -8.0 -9.4 -8.0 -5.75 L-8.0 15.75 Q-8.0 18.9 -8.4 19.7 -8.75 20.6 -10.05 20.6 -11.3 20.6 -11.75 19.6 -12.15 18.55 -12.15 15.3 L-12.15 -5.75 M-45.2 -10.3 Q-44.85 -9.4 -44.85 -5.75 L-44.85 15.75 Q-44.85 18.9 -45.25 19.7 -45.6 20.6 -46.9 20.6 -48.15 20.6 -48.6 19.6 -49.0 18.55 -49.0 15.3 L-49.0 -5.75 Q-49.0 -9.25 -48.6 -10.3 -48.15 -11.2 -46.9 -11.2 -45.65 -11.2 -45.2 -10.3 M-61.8 -11.4 Q-63.2 -7.6 -63.2 -1.25 L-63.2 10.7 Q-63.2 16.75 -62.4 19.65 -61.65 22.6 -59.85 24.7 -58.05 26.8 -54.75 27.85 -51.5 28.9 -46.8 28.9 -42.55 28.9 -39.3 27.65 -36.0 26.4 -34.0 23.9 -31.9 21.35 -31.3 18.4 -30.65 15.6 -30.65 9.2 L-30.65 -2.25 Q-30.65 -7.15 -31.35 -9.65 -32.05 -12.15 -33.9 -14.35 -35.65 -16.65 -39.15 -18.1 -42.55 -19.5 -47.4 -19.5 -53.05 -19.5 -56.75 -17.3 -60.4 -15.0 -61.8 -11.4 M-87.35 -28.95 L-102.1 -28.95 -102.1 28.0 -85.0 28.0 Q-75.9 28.0 -73.2 27.0 -70.35 25.95 -69.0 23.2 -67.7 20.55 -67.7 14.65 L-67.7 9.35 Q-67.7 3.8 -69.5 1.1 -71.4 -1.65 -76.5 -2.75 -71.8 -3.85 -70.35 -5.8 -68.75 -7.8 -68.75 -12.75 -68.75 -20.05 -70.95 -23.45 -73.2 -26.7 -76.8 -27.85 -80.55 -28.95 -87.35 -28.95 M-84.25 -18.9 Q-83.45 -18.6 -83.0 -17.55 -82.5 -16.4 -82.5 -13.8 -82.5 -8.7 -83.1 -7.65 -83.7 -6.6 -85.8 -6.6 L-87.25 -6.55 -87.25 -19.2 -84.25 -18.9 M100.7 28.0 L100.7 16.65 87.35 16.65 87.35 28.0 100.7 28.0 M81.3 28.0 L81.3 16.65 68.0 16.65 68.0 28.0 81.3 28.0 M82.45 -28.95 L66.85 -28.95 69.15 14.0 80.15 14.0 82.45 -28.95 M101.85 -28.95 L86.2 -28.95 88.55 14.0 99.5 14.0 101.85 -28.95 M59.8 -24.85 L45.6 -24.85 45.6 -17.5 42.6 -17.5 42.6 -10.05 45.6 -10.05 45.6 13.6 Q45.6 20.4 46.0 22.4 46.4 24.35 48.0 25.75 49.65 27.25 51.65 27.6 L58.6 28.0 64.35 28.0 64.35 20.55 Q60.75 20.55 60.3 20.0 59.8 19.5 59.8 14.85 L59.8 -10.05 63.75 -10.05 63.75 -17.5 59.8 -17.5 59.8 -24.85 M5.5 -9.65 Q4.8 -12.1 3.0 -14.35 1.15 -16.65 -2.3 -18.1 -5.7 -19.5 -10.5 -19.5 -16.2 -19.5 -19.85 -17.3 -23.55 -15.05 -24.95 -11.4 -26.35 -7.6 -26.35 -1.25 L-26.35 10.7 Q-26.35 16.75 -25.55 19.65 -24.8 22.6 -23.0 24.7 -21.1 26.85 -17.9 27.85 -14.6 28.9 -9.9 28.9 -5.6 28.9 -2.45 27.65 0.85 26.4 2.85 23.9 4.9 21.4 5.6 18.4 6.2 15.45 6.2 9.2 L6.2 -2.25 Q6.2 -7.4 5.5 -9.65" fill="#ff0000" fill-rule="evenodd" stroke="none"/>
    <path d="M11.4 -13.95 Q12.9 -16.65 16.4 -18.05 20.05 -19.5 24.6 -19.5 29.3 -19.5 32.5 -18.3 35.75 -17.15 37.5 -15.2 39.25 -13.25 39.6 -11.6 39.95 -10.05 39.95 -6.45 L39.95 -3.75 27.45 -3.75 27.45 -6.25 Q27.45 -9.45 27.05 -10.35 26.75 -11.2 25.25 -11.2 24.05 -11.2 23.45 -10.45 22.85 -9.65 22.85 -8.05 22.85 -5.95 23.15 -4.9 23.45 -3.9 24.9 -2.7 26.4 -1.5 31.05 0.75 37.25 3.85 39.1 6.45 41.05 9.15 41.05 14.25 41.05 19.9 39.55 22.85 38.15 25.7 34.65 27.3 31.15 28.9 26.3 28.9 21.0 28.9 17.05 27.2 13.15 25.5 11.75 22.65 10.3 19.65 10.3 13.9 L10.3 11.65 22.9 11.65 22.9 14.6 Q22.9 18.45 23.4 19.5 23.85 20.6 25.25 20.6 26.75 20.6 27.35 19.85 27.95 19.1 27.95 16.65 27.95 13.3 27.15 12.5 26.45 11.65 18.95 7.5 12.75 4.05 11.3 1.1 9.95 -1.75 9.95 -5.7 9.95 -11.3 11.4 -13.95 M5.5 -9.65 Q6.2 -7.4 6.2 -2.25 L6.2 9.2 Q6.2 15.45 5.6 18.4 4.9 21.4 2.85 23.9 0.85 26.4 -2.45 27.65 -5.6 28.9 -9.9 28.9 -14.6 28.9 -17.9 27.85 -21.1 26.85 -23.0 24.7 -24.8 22.6 -25.55 19.65 -26.35 16.75 -26.35 10.7 L-26.35 -1.25 Q-26.35 -7.6 -24.95 -11.4 -23.55 -15.05 -19.85 -17.3 -16.2 -19.5 -10.5 -19.5 -5.7 -19.5 -2.3 -18.1 1.15 -16.65 3.0 -14.35 4.8 -12.1 5.5 -9.65 M59.8 -24.85 L59.8 -17.5 63.75 -17.5 63.75 -10.05 59.8 -10.05 59.8 14.85 Q59.8 19.5 60.3 20.0 60.75 20.55 64.35 20.55 L64.35 28.0 58.6 28.0 51.65 27.6 Q49.65 27.25 48.0 25.75 46.4 24.35 46.0 22.4 45.6 20.4 45.6 13.6 L45.6 -10.05 42.6 -10.05 42.6 -17.5 45.6 -17.5 45.6 -24.85 59.8 -24.85 M101.85 -28.95 L99.5 14.0 88.55 14.0 86.2 -28.95 101.85 -28.95 M82.45 -28.95 L80.15 14.0 69.15 14.0 66.85 -28.95 82.45 -28.95 M81.3 28.0 L68.0 28.0 68.0 16.65 81.3 16.65 81.3 28.0 M100.7 28.0 L87.35 28.0 87.35 16.65 100.7 16.65 100.7 28.0 M-84.25 -18.9 L-87.25 -19.2 -87.25 -6.55 -85.8 -6.6 Q-83.7 -6.6 -83.1 -7.65 -82.5 -8.7 -82.5 -13.8 -82.5 -16.4 -83.0 -17.55 -83.45 -18.6 -84.25 -18.9 M-87.35 -28.95 Q-80.55 -28.95 -76.8 -27.85 -73.2 -26.7 -70.95 -23.45 -68.75 -20.05 -68.75 -12.75 -68.75 -7.8 -70.35 -5.8 -71.8 -3.85 -76.5 -2.75 -71.4 -1.65 -69.5 1.1 -67.7 3.8 -67.7 9.35 L-67.7 14.65 Q-67.7 20.55 -69.0 23.2 -70.35 25.95 -73.2 27.0 -75.9 28.0 -85.0 28.0 L-102.1 28.0 -102.1 -28.95 -87.35 -28.95 M-61.8 -11.4 Q-60.4 -15.0 -56.75 -17.3 -53.05 -19.5 -47.4 -19.5 -42.55 -19.5 -39.15 -18.1 -35.65 -16.65 -33.9 -14.35 -32.05 -12.15 -31.35 -9.65 -30.65 -7.15 -30.65 -2.25 L-30.65 9.2 Q-30.65 15.6 -31.3 18.4 -31.9 21.35 -34.0 23.9 -36.0 26.4 -39.3 27.65 -42.55 28.9 -46.8 28.9 -51.5 28.9 -54.75 27.85 -58.05 26.8 -59.85 24.7 -61.65 22.6 -62.4 19.65 -63.2 16.75 -63.2 10.7 L-63.2 -1.25 Q-63.2 -7.6 -61.8 -11.4 M-45.2 -10.3 Q-45.65 -11.2 -46.9 -11.2 -48.15 -11.2 -48.6 -10.3 -49.0 -9.25 -49.0 -5.75 L-49.0 15.3 Q-49.0 18.55 -48.6 19.6 -48.15 20.6 -46.9 20.6 -45.6 20.6 -45.25 19.7 -44.85 18.9 -44.85 15.75 L-44.85 -5.75 Q-44.85 -9.4 -45.2 -10.3 M-12.15 -5.75 L-12.15 15.3 Q-12.15 18.55 -11.75 19.6 -11.3 20.6 -10.05 20.6 -8.75 20.6 -8.4 19.7 -8.0 18.9 -8.0 15.75 L-8.0 -5.75 Q-8.0 -9.4 -8.35 -10.3 -8.7 -11.2 -10.05 -11.2 -11.3 -11.2 -11.75 -10.3 -12.15 -9.25 -12.15 -5.75 M-83.35 17.3 Q-82.5 16.35 -82.5 12.95 L-82.5 7.65 Q-82.5 3.95 -83.25 3.2 -84.1 2.45 -87.25 2.3 L-87.25 18.3 Q-84.2 18.2 -83.35 17.3" fill="#ffaa00" fill-rule="evenodd" stroke="none"/>
  </g>
</svg>
