<?xml version="1.0" encoding="UTF-8" standalone="no"?>
<svg xmlns:ffdec="https://www.free-decompiler.com/flash" xmlns:xlink="http://www.w3.org/1999/xlink" ffdec:objectType="shape" height="71.35px" width="231.0px" xmlns="http://www.w3.org/2000/svg">
  <g transform="matrix(1.0, 0.0, 0.0, 1.0, 115.5, 35.65)">
    <path d="M30.05 -34.5 L115.5 -34.5 113.05 11.1 114.05 11.1 114.05 34.45 30.05 34.45 30.05 29.75 27.15 31.95 Q21.4 35.7 13.35 35.7 0.05 35.7 -5.5 28.3 L-6.75 26.3 Q-8.6 29.05 -11.45 31.15 -17.65 35.7 -26.5 35.7 -34.2 35.7 -39.95 32.2 L-39.95 34.45 -75.7 34.45 -75.7 31.65 Q-80.6 34.45 -92.4 34.45 L-115.5 34.45 -115.5 -34.5 -94.75 -34.5 Q-82.1 -34.5 -76.5 -29.95 L-75.7 -29.25 -75.7 -34.5 -48.9 -34.5 -48.9 -18.15 -48.2 -21.55 Q-45.75 -29.85 -37.3 -33.55 -32.5 -35.65 -26.5 -35.65 -17.75 -35.65 -11.55 -31.15 -8.65 -29.05 -6.85 -26.3 -3.9 -30.9 2.0 -33.5 6.95 -35.65 12.95 -35.65 24.25 -35.65 30.05 -30.15 L30.05 -34.5 M12.95 -29.65 Q8.15 -29.65 4.4 -28.0 0.7 -26.35 -1.4 -23.5 -3.45 -20.75 -3.9 -17.6 -4.3 -14.85 -4.3 -8.35 L-4.3 8.3 Q-4.3 16.65 -2.95 20.8 -1.6 24.95 2.65 27.35 6.9 29.7 13.35 29.7 19.6 29.7 23.9 26.9 28.2 24.1 29.4 20.4 30.65 16.8 30.65 7.85 L30.65 5.65 15.85 5.65 15.85 12.8 Q15.85 17.4 15.35 18.75 14.8 20.05 13.2 20.05 11.45 20.05 11.0 18.8 10.5 17.6 10.5 13.35 L10.5 -13.05 Q10.5 -17.4 11.0 -18.7 11.45 -20.0 13.3 -20.0 14.9 -20.0 15.35 -18.9 15.85 -17.9 15.85 -13.55 L15.85 -3.65 30.65 -3.65 30.65 -9.05 Q30.65 -17.0 29.35 -20.8 28.0 -24.55 23.75 -27.1 19.5 -29.65 12.95 -29.65 M69.65 -1.2 L69.5 -3.6 69.2 -2.65 69.65 -1.2 M-89.9 8.1 L-89.9 13.4 Q-89.9 16.8 -90.75 17.75 -91.6 18.65 -94.65 18.75 L-94.65 2.75 Q-91.4 2.9 -90.65 3.65 -89.9 4.4 -89.9 8.1 M-26.4 -20.0 Q-25.1 -20.0 -24.65 -18.9 -24.2 -17.8 -24.2 -13.8 L-24.2 12.35 Q-24.2 17.35 -24.65 18.7 -25.0 20.05 -26.5 20.05 -27.95 20.05 -28.35 18.9 -28.75 17.6 -28.75 12.75 L-28.75 -13.8 Q-28.75 -18.2 -28.15 -19.1 -27.55 -20.0 -26.4 -20.0 M-54.9 -28.5 L-69.7 -28.5 -69.7 28.45 -45.95 28.45 -45.95 17.1 -54.9 17.1 -54.9 -28.5 M-40.65 -23.5 Q-42.75 -20.6 -43.2 -17.0 -43.6 -13.15 -43.6 -4.85 L-43.6 4.9 Q-43.6 13.65 -43.15 17.2 -42.8 20.6 -40.55 23.7 -38.3 26.7 -34.7 28.2 -31.0 29.7 -26.5 29.7 -21.7 29.7 -18.05 28.1 -14.45 26.55 -12.3 23.55 -10.15 20.6 -9.8 17.05 -9.4 13.85 -9.4 4.9 L-9.4 -4.85 Q-9.4 -14.0 -9.8 -17.15 -10.25 -20.75 -12.45 -23.65 -14.6 -26.65 -18.3 -28.15 -21.9 -29.65 -26.5 -29.65 -31.25 -29.65 -34.9 -28.05 -38.6 -26.45 -40.65 -23.5 M-90.5 -7.2 Q-91.1 -6.15 -93.2 -6.15 L-94.65 -6.1 -94.65 -18.75 -91.65 -18.45 Q-90.85 -18.15 -90.4 -17.1 -89.9 -16.05 -89.9 -13.35 -89.9 -8.25 -90.5 -7.2 M-84.15 -27.4 Q-87.9 -28.5 -94.75 -28.5 L-109.5 -28.5 -109.5 28.45 -92.4 28.45 Q-83.3 28.45 -80.6 27.45 -77.65 26.4 -76.4 23.65 -75.05 20.85 -75.05 15.1 L-75.05 9.8 Q-75.05 4.3 -76.9 1.55 -78.8 -1.2 -83.9 -2.3 -79.25 -3.35 -77.7 -5.35 -76.15 -7.25 -76.15 -12.3 -76.15 -19.6 -78.35 -23.0 -80.6 -26.3 -84.15 -27.4 M94.7 28.45 L108.05 28.45 108.05 17.1 94.7 17.1 94.7 28.45 M88.65 28.45 L88.65 17.1 75.35 17.1 75.35 28.45 88.65 28.45 M89.8 -28.5 L74.2 -28.5 76.5 14.45 87.5 14.45 89.8 -28.5 M109.2 -28.5 L93.55 -28.5 95.9 14.45 106.85 14.45 109.2 -28.5 M50.9 -6.35 L50.9 -28.5 36.05 -28.5 36.05 28.45 50.9 28.45 50.9 4.05 56.9 28.45 72.15 28.45 62.9 -2.75 71.35 -28.5 57.55 -28.5 50.9 -6.35" fill="#a000a0" fill-rule="evenodd" stroke="none"/>
    <path d="M12.95 -29.65 Q19.5 -29.65 23.75 -27.1 28.0 -24.55 29.35 -20.8 30.65 -17.0 30.65 -9.05 L30.65 -3.65 15.85 -3.65 15.85 -13.55 Q15.85 -17.9 15.35 -18.9 14.9 -20.0 13.3 -20.0 11.45 -20.0 11.0 -18.7 10.5 -17.4 10.5 -13.05 L10.5 13.35 Q10.5 17.6 11.0 18.8 11.45 20.05 13.2 20.05 14.8 20.05 15.35 18.75 15.85 17.4 15.85 12.8 L15.85 5.65 30.65 5.65 30.65 7.85 Q30.65 16.8 29.4 20.4 28.2 24.1 23.9 26.9 19.6 29.7 13.35 29.7 6.9 29.7 2.65 27.35 -1.6 24.95 -2.95 20.8 -4.3 16.65 -4.3 8.3 L-4.3 -8.35 Q-4.3 -14.85 -3.9 -17.6 -3.45 -20.75 -1.4 -23.5 0.7 -26.35 4.4 -28.0 8.15 -29.65 12.95 -29.65 M50.9 -6.35 L57.55 -28.5 71.35 -28.5 62.9 -2.75 72.15 28.45 56.9 28.45 50.9 4.05 50.9 28.45 36.05 28.45 36.05 -28.5 50.9 -28.5 50.9 -6.35 M109.2 -28.5 L106.85 14.45 95.9 14.45 93.55 -28.5 109.2 -28.5 M89.8 -28.5 L87.5 14.45 76.5 14.45 74.2 -28.5 89.8 -28.5 M88.65 28.45 L75.35 28.45 75.35 17.1 88.65 17.1 88.65 28.45 M94.7 28.45 L94.7 17.1 108.05 17.1 108.05 28.45 94.7 28.45 M-84.15 -27.4 Q-80.6 -26.3 -78.35 -23.0 -76.15 -19.6 -76.15 -12.3 -76.15 -7.25 -77.7 -5.35 -79.25 -3.35 -83.9 -2.3 -78.8 -1.2 -76.9 1.55 -75.05 4.3 -75.05 9.8 L-75.05 15.1 Q-75.05 20.85 -76.4 23.65 -77.65 26.4 -80.6 27.45 -83.3 28.45 -92.4 28.45 L-109.5 28.45 -109.5 -28.5 -94.75 -28.5 Q-87.9 -28.5 -84.15 -27.4 M-90.5 -7.2 Q-89.9 -8.25 -89.9 -13.35 -89.9 -16.05 -90.4 -17.1 -90.85 -18.15 -91.65 -18.45 L-94.65 -18.75 -94.65 -6.1 -93.2 -6.15 Q-91.1 -6.15 -90.5 -7.2 M-40.65 -23.5 Q-38.6 -26.45 -34.9 -28.05 -31.25 -29.65 -26.5 -29.65 -21.9 -29.65 -18.3 -28.15 -14.6 -26.65 -12.45 -23.65 -10.25 -20.75 -9.8 -17.15 -9.4 -14.0 -9.4 -4.85 L-9.4 4.9 Q-9.4 13.85 -9.8 17.05 -10.15 20.6 -12.3 23.55 -14.45 26.55 -18.05 28.1 -21.7 29.7 -26.5 29.7 -31.0 29.7 -34.7 28.2 -38.3 26.7 -40.55 23.7 -42.8 20.6 -43.15 17.2 -43.6 13.65 -43.6 4.9 L-43.6 -4.85 Q-43.6 -13.15 -43.2 -17.0 -42.75 -20.6 -40.65 -23.5 M-54.9 -28.5 L-54.9 17.1 -45.95 17.1 -45.95 28.45 -69.7 28.45 -69.7 -28.5 -54.9 -28.5 M-26.4 -20.0 Q-27.55 -20.0 -28.15 -19.1 -28.75 -18.2 -28.75 -13.8 L-28.75 12.75 Q-28.75 17.6 -28.35 18.9 -27.95 20.05 -26.5 20.05 -25.0 20.05 -24.65 18.7 -24.2 17.35 -24.2 12.35 L-24.2 -13.8 Q-24.2 -17.8 -24.65 -18.9 -25.1 -20.0 -26.4 -20.0 M-89.9 8.1 Q-89.9 4.4 -90.65 3.65 -91.4 2.9 -94.65 2.75 L-94.65 18.75 Q-91.6 18.65 -90.75 17.75 -89.9 16.8 -89.9 13.4 L-89.9 8.1" fill="#ff7fff" fill-rule="evenodd" stroke="none"/>
  </g>
</svg>
