<?xml version="1.0" encoding="UTF-8" standalone="no"?>
<svg xmlns:ffdec="https://www.free-decompiler.com/flash" xmlns:xlink="http://www.w3.org/1999/xlink" ffdec:objectType="shape" height="124.7px" width="150.0px" xmlns="http://www.w3.org/2000/svg">
  <g transform="matrix(1.0, 0.0, 0.0, 1.0, 75.0, 124.7)">
    <path d="M53.0 -110.05 Q75.0 -95.4 75.0 -74.7 75.0 -54.0 53.0 -39.35 31.05 -24.7 0.0 -24.7 L-7.35 -24.9 -10.95 -21.7 Q-33.6 -2.2 -64.65 0.0 L-60.95 -4.0 Q-49.15 -17.5 -42.75 -33.5 -48.15 -36.1 -53.05 -39.35 -75.0 -54.0 -75.0 -74.7 -75.0 -95.4 -53.05 -110.05 -31.05 -124.7 0.0 -124.7 31.05 -124.7 53.0 -110.05" fill="#ffffff" fill-rule="evenodd" stroke="none"/>
    <path d="M2.85 -58.6 L-10.45 -60.95 -3.35 -109.1 13.75 -106.15 8.15 -83.7 2.85 -58.6 M0.2 -42.65 Q-1.9 -40.3 -5.45 -40.3 -8.65 -40.3 -11.35 -42.95 -13.7 -45.3 -13.7 -48.85 -13.7 -52.1 -11.05 -54.75 -8.95 -57.1 -5.45 -57.1 -2.2 -57.1 0.5 -54.45 2.85 -52.4 2.85 -48.55 2.85 -45.3 0.2 -42.65" fill="#000000" fill-rule="evenodd" stroke="none"/>
  </g>
</svg>
