<?xml version="1.0" encoding="UTF-8" standalone="no"?>
<svg xmlns:ffdec="https://www.free-decompiler.com/flash" xmlns:xlink="http://www.w3.org/1999/xlink" ffdec:objectType="shape" height="71.35px" width="194.0px" xmlns="http://www.w3.org/2000/svg">
  <g transform="matrix(1.0, 0.0, 0.0, 1.0, 97.0, 35.65)">
    <path d="M13.95 -29.8 L13.95 -34.5 34.85 -34.5 Q44.3 -34.5 49.5 -31.9 L49.35 -34.5 97.0 -34.5 94.55 11.1 95.55 11.1 95.55 34.45 50.85 34.45 50.85 11.1 51.8 11.1 51.65 8.3 Q47.65 11.05 40.8 11.45 L40.8 34.45 13.95 34.45 13.95 29.9 12.4 31.15 Q6.2 35.7 -2.65 35.7 -11.35 35.7 -17.55 31.2 -24.25 26.35 -25.3 17.9 L-25.45 16.15 -25.45 34.45 -52.3 34.45 -52.3 22.55 Q-56.15 35.7 -73.6 35.7 -96.55 35.7 -96.55 11.8 L-96.55 2.1 -91.45 2.1 Q-94.3 -0.8 -95.6 -4.35 -97.0 -8.1 -97.0 -13.65 -97.0 -35.65 -74.95 -35.65 -66.3 -35.65 -61.1 -32.7 L-61.1 -34.5 -16.75 -34.5 -16.75 -31.75 -13.45 -33.55 Q-8.65 -35.65 -2.65 -35.65 6.1 -35.65 12.3 -31.15 L13.95 -29.8 M-91.0 -13.65 Q-91.0 -9.15 -89.8 -6.2 -88.65 -3.25 -86.85 -1.6 L-79.55 3.7 Q-73.95 7.4 -72.65 8.9 -71.25 10.35 -71.25 15.45 -71.25 17.7 -72.0 18.9 -72.7 20.05 -74.15 20.05 -75.65 20.05 -76.25 19.15 -76.8 18.15 -76.8 15.0 L-76.8 8.1 -90.55 8.1 -90.55 11.8 Q-90.55 18.2 -89.25 21.7 -88.0 25.2 -83.75 27.45 -79.55 29.7 -73.6 29.7 -68.2 29.7 -64.15 27.75 -60.05 25.8 -58.65 22.9 -57.2 20.0 -57.2 13.95 -57.2 5.5 -59.8 1.8 -62.3 -1.9 -72.2 -7.85 -75.65 -9.9 -76.4 -11.35 -77.15 -12.8 -77.15 -15.6 -77.15 -17.9 -76.5 -18.9 -75.8 -20.0 -74.45 -20.0 -73.25 -20.0 -72.7 -19.2 -72.2 -18.4 -72.2 -15.4 L-72.2 -11.2 -58.45 -11.2 -58.45 -13.45 Q-58.45 -20.2 -59.75 -23.1 -61.15 -25.95 -65.15 -27.75 -69.25 -29.65 -74.95 -29.65 -80.1 -29.65 -83.95 -27.95 -87.65 -26.2 -89.3 -23.2 -91.0 -20.25 -91.0 -13.65 M70.15 17.1 L56.85 17.1 56.85 28.45 70.15 28.45 70.15 17.1 M89.55 28.45 L89.55 17.1 76.2 17.1 76.2 28.45 89.55 28.45 M90.7 -28.5 L75.05 -28.5 77.4 14.45 88.35 14.45 90.7 -28.5 M71.3 -28.5 L55.7 -28.5 58.0 14.45 69.0 14.45 71.3 -28.5 M34.85 -28.5 L19.95 -28.5 19.95 28.45 34.8 28.45 34.8 5.5 38.75 5.5 Q43.6 5.5 46.6 4.15 49.55 2.9 50.7 0.35 51.85 -2.25 51.85 -7.6 L51.85 -12.55 Q51.85 -17.9 51.25 -20.45 50.75 -22.95 49.05 -24.8 47.4 -26.6 44.15 -27.55 40.75 -28.5 34.85 -28.5 M38.55 -17.9 Q39.45 -17.0 39.45 -14.1 L39.45 -9.4 Q39.45 -6.2 38.65 -5.2 37.9 -4.2 35.85 -4.2 L34.8 -4.25 34.8 -18.75 Q37.6 -18.75 38.55 -17.9 M14.45 -4.85 Q14.45 -13.4 14.05 -17.15 13.6 -20.75 11.4 -23.65 9.25 -26.65 5.55 -28.15 1.95 -29.65 -2.65 -29.65 -7.4 -29.65 -11.05 -28.05 -14.7 -26.5 -16.8 -23.5 -18.9 -20.6 -19.35 -17.0 -19.75 -13.15 -19.75 -4.85 L-19.75 4.9 Q-19.75 13.65 -19.3 17.2 -18.95 20.6 -16.7 23.7 -14.45 26.7 -10.85 28.2 -7.15 29.7 -2.65 29.7 2.15 29.7 5.8 28.1 9.4 26.55 11.55 23.55 13.7 20.6 14.05 17.05 14.45 13.85 14.45 4.9 L14.45 -4.85 M-52.45 -5.2 L-58.1 -5.2 Q-56.15 -3.5 -54.8 -1.55 -53.2 0.8 -52.3 4.15 L-52.3 -11.1 -52.45 -11.1 -52.45 -5.2 M-4.9 -13.8 Q-4.9 -18.2 -4.3 -19.1 -3.7 -20.0 -2.55 -20.0 -1.25 -20.0 -0.8 -18.9 -0.35 -17.8 -0.35 -13.8 L-0.35 12.35 Q-0.35 17.35 -0.8 18.7 -1.15 20.05 -2.65 20.05 -4.1 20.05 -4.5 18.9 -4.9 17.85 -4.9 12.75 L-4.9 -13.8 M-55.1 -17.1 L-46.3 -17.1 -46.3 28.45 -31.45 28.45 -31.45 -17.1 -22.75 -17.1 -22.75 -28.5 -55.1 -28.5 -55.1 -17.1" fill="#ff0000" fill-rule="evenodd" stroke="none"/>
    <path d="M14.45 -4.85 L14.45 4.9 Q14.45 13.85 14.05 17.05 13.7 20.6 11.55 23.55 9.4 26.55 5.8 28.1 2.15 29.7 -2.65 29.7 -7.15 29.7 -10.85 28.2 -14.45 26.7 -16.7 23.7 -18.95 20.6 -19.3 17.2 -19.75 13.65 -19.75 4.9 L-19.75 -4.85 Q-19.75 -13.15 -19.35 -17.0 -18.9 -20.6 -16.8 -23.5 -14.7 -26.5 -11.05 -28.05 -7.4 -29.65 -2.65 -29.65 1.95 -29.65 5.55 -28.15 9.25 -26.65 11.4 -23.65 13.6 -20.75 14.05 -17.15 14.45 -13.4 14.45 -4.85 M38.55 -17.9 Q37.6 -18.75 34.8 -18.75 L34.8 -4.25 35.85 -4.2 Q37.9 -4.2 38.65 -5.2 39.45 -6.2 39.45 -9.4 L39.45 -14.1 Q39.45 -17.0 38.55 -17.9 M34.85 -28.5 Q40.75 -28.5 44.15 -27.55 47.4 -26.6 49.05 -24.8 50.75 -22.95 51.25 -20.45 51.85 -17.9 51.85 -12.55 L51.85 -7.6 Q51.85 -2.25 50.7 0.35 49.55 2.9 46.6 4.15 43.6 5.5 38.75 5.5 L34.8 5.5 34.8 28.45 19.95 28.45 19.95 -28.5 34.85 -28.5 M71.3 -28.5 L69.0 14.45 58.0 14.45 55.7 -28.5 71.3 -28.5 M90.7 -28.5 L88.35 14.45 77.4 14.45 75.05 -28.5 90.7 -28.5 M89.55 28.45 L76.2 28.45 76.2 17.1 89.55 17.1 89.55 28.45 M70.15 17.1 L70.15 28.45 56.85 28.45 56.85 17.1 70.15 17.1 M-91.0 -13.65 Q-91.0 -20.25 -89.3 -23.2 -87.65 -26.2 -83.95 -27.95 -80.1 -29.65 -74.95 -29.65 -69.25 -29.65 -65.15 -27.75 -61.15 -25.95 -59.75 -23.1 -58.45 -20.2 -58.45 -13.45 L-58.45 -11.2 -72.2 -11.2 -72.2 -15.4 Q-72.2 -18.4 -72.7 -19.2 -73.25 -20.0 -74.45 -20.0 -75.8 -20.0 -76.5 -18.9 -77.15 -17.9 -77.15 -15.6 -77.15 -12.8 -76.4 -11.35 -75.65 -9.9 -72.2 -7.85 -62.3 -1.9 -59.8 1.8 -57.2 5.5 -57.2 13.95 -57.2 20.0 -58.65 22.9 -60.05 25.8 -64.15 27.75 -68.2 29.7 -73.6 29.7 -79.55 29.7 -83.75 27.45 -88.0 25.2 -89.25 21.7 -90.55 18.2 -90.55 11.8 L-90.55 8.1 -76.8 8.1 -76.8 15.0 Q-76.8 18.15 -76.25 19.15 -75.65 20.05 -74.15 20.05 -72.7 20.05 -72.0 18.9 -71.25 17.7 -71.25 15.45 -71.25 10.35 -72.65 8.9 -73.95 7.4 -79.55 3.7 L-86.85 -1.6 Q-88.65 -3.25 -89.8 -6.2 -91.0 -9.15 -91.0 -13.65 M-55.1 -17.1 L-55.1 -28.5 -22.75 -28.5 -22.75 -17.1 -31.45 -17.1 -31.45 28.45 -46.3 28.45 -46.3 -17.1 -55.1 -17.1 M-4.9 -13.8 L-4.9 12.75 Q-4.9 17.85 -4.5 18.9 -4.1 20.05 -2.65 20.05 -1.15 20.05 -0.8 18.7 -0.35 17.35 -0.35 12.35 L-0.35 -13.8 Q-0.35 -17.8 -0.8 -18.9 -1.25 -20.0 -2.55 -20.0 -3.7 -20.0 -4.3 -19.1 -4.9 -18.2 -4.9 -13.8" fill="#ffa7ff" fill-rule="evenodd" stroke="none"/>
  </g>
</svg>
