<?xml version="1.0" encoding="UTF-8" standalone="no"?>
<svg xmlns:ffdec="https://www.free-decompiler.com/flash" xmlns:xlink="http://www.w3.org/1999/xlink" ffdec:objectType="shape" height="68.95px" width="230.45px" xmlns="http://www.w3.org/2000/svg">
  <g transform="matrix(1.0, 0.0, 0.0, 1.0, 115.2, 34.5)">
    <path d="M24.85 -28.5 L3.4 -28.5 -4.1 28.45 11.2 28.45 12.05 18.25 17.4 18.25 18.15 28.45 33.3 28.45 24.85 -28.5 M69.4 -1.2 L69.25 -3.6 68.95 -2.65 69.4 -1.2 M94.45 28.45 L107.8 28.45 107.8 17.1 94.45 17.1 94.45 28.45 M88.4 28.45 L88.4 17.1 75.1 17.1 75.1 28.45 88.4 28.45 M89.55 -28.5 L73.95 -28.5 76.25 14.45 87.25 14.45 89.55 -28.5 M108.95 -28.5 L93.3 -28.5 95.65 14.45 106.6 14.45 108.95 -28.5 M62.65 -2.75 L71.1 -28.5 57.3 -28.5 50.65 -6.35 50.65 -28.5 35.8 -28.5 35.8 28.45 50.65 28.45 50.65 4.05 56.65 28.45 71.9 28.45 62.65 -2.75 M113.8 11.1 L113.8 34.45 -75.45 34.45 -75.45 31.7 Q-80.35 34.45 -92.1 34.45 L-115.2 34.45 -115.2 -34.5 -94.5 -34.5 Q-81.85 -34.5 -76.25 -29.95 L-75.45 -29.25 -75.45 -34.5 -59.0 -34.5 -47.45 -34.0 Q-41.85 -33.35 -38.4 -31.4 L-36.7 -30.25 -36.7 -34.5 115.25 -34.5 112.8 11.1 113.8 11.1 M-15.9 -6.25 L-15.9 -17.1 -6.0 -17.1 -6.0 -28.5 -30.7 -28.5 -30.7 28.45 -5.0 28.45 -5.0 17.1 -15.9 17.1 -15.9 4.55 -6.65 4.55 -6.65 -6.25 -15.9 -6.25 M-54.6 -18.75 Q-52.0 -18.75 -51.1 -17.9 -50.15 -17.05 -50.15 -14.35 L-50.15 -11.2 Q-50.15 -7.5 -51.15 -6.75 -52.1 -6.1 -54.6 -6.1 L-54.6 -18.75 M-44.8 -27.65 L-59.0 -28.5 -69.45 -28.5 -69.45 28.45 -54.6 28.45 -54.6 2.75 Q-51.65 2.75 -50.85 3.85 -50.15 5.0 -50.15 9.55 L-50.15 28.45 -36.4 28.45 -36.4 13.45 Q-36.4 6.85 -36.75 5.0 -37.15 3.45 -38.65 1.65 -40.2 -0.2 -44.55 -1.25 -39.75 -1.7 -38.05 -4.0 -36.4 -6.35 -36.4 -12.95 -36.4 -20.15 -38.75 -23.55 -41.1 -26.9 -44.8 -27.65 M-89.65 -13.35 Q-89.65 -8.3 -90.2 -7.2 -90.85 -6.1 -92.95 -6.1 L-94.4 -6.1 -94.4 -18.75 -91.4 -18.45 Q-90.65 -18.15 -90.1 -17.1 -89.65 -16.0 -89.65 -13.35 M-83.9 -27.4 Q-87.65 -28.5 -94.5 -28.5 L-109.2 -28.5 -109.2 28.45 -92.1 28.45 Q-83.1 28.45 -80.3 27.45 -77.45 26.4 -76.1 23.65 -74.8 20.8 -74.8 15.1 L-74.8 9.8 Q-74.8 4.2 -76.65 1.55 -78.45 -1.15 -83.6 -2.3 -79.0 -3.35 -77.45 -5.35 -75.9 -7.25 -75.9 -12.3 -75.9 -19.7 -78.1 -23.0 -80.25 -26.25 -83.9 -27.4 M16.95 8.15 L11.95 8.15 Q12.6 -0.15 14.75 -15.8 L16.95 8.15 M-7.8 10.55 L-9.9 10.55 -7.8 10.8 -7.8 10.55 M-94.4 2.75 Q-91.15 2.9 -90.4 3.65 -89.65 4.4 -89.65 8.1 L-89.65 13.45 Q-89.65 16.95 -90.5 17.75 -91.35 18.65 -94.4 18.75 L-94.4 2.75" fill="#ff3f00" fill-rule="evenodd" stroke="none"/>
    <path d="M24.85 -28.5 L33.3 28.45 18.15 28.45 17.4 18.25 12.05 18.25 11.2 28.45 -4.1 28.45 3.4 -28.5 24.85 -28.5 M62.65 -2.75 L71.9 28.45 56.65 28.45 50.65 4.05 50.65 28.45 35.8 28.45 35.8 -28.5 50.65 -28.5 50.65 -6.35 57.3 -28.5 71.1 -28.5 62.65 -2.75 M108.95 -28.5 L106.6 14.45 95.65 14.45 93.3 -28.5 108.95 -28.5 M89.55 -28.5 L87.25 14.45 76.25 14.45 73.95 -28.5 89.55 -28.5 M88.4 28.45 L75.1 28.45 75.1 17.1 88.4 17.1 88.4 28.45 M94.45 28.45 L94.45 17.1 107.8 17.1 107.8 28.45 94.45 28.45 M16.95 8.15 L14.75 -15.8 Q12.6 -0.15 11.95 8.15 L16.95 8.15 M-83.9 -27.4 Q-80.25 -26.25 -78.1 -23.0 -75.9 -19.7 -75.9 -12.3 -75.9 -7.25 -77.45 -5.35 -79.0 -3.35 -83.6 -2.3 -78.45 -1.15 -76.65 1.55 -74.8 4.2 -74.8 9.8 L-74.8 15.1 Q-74.8 20.8 -76.1 23.65 -77.45 26.4 -80.3 27.45 -83.1 28.45 -92.1 28.45 L-109.2 28.45 -109.2 -28.5 -94.5 -28.5 Q-87.65 -28.5 -83.9 -27.4 M-89.65 -13.35 Q-89.65 -16.0 -90.1 -17.1 -90.65 -18.15 -91.4 -18.45 L-94.4 -18.75 -94.4 -6.1 -92.95 -6.1 Q-90.85 -6.1 -90.2 -7.2 -89.65 -8.3 -89.65 -13.35 M-44.8 -27.65 Q-41.1 -26.9 -38.75 -23.55 -36.4 -20.15 -36.4 -12.95 -36.4 -6.35 -38.05 -4.0 -39.75 -1.7 -44.55 -1.25 -40.2 -0.2 -38.65 1.65 -37.15 3.45 -36.75 5.0 -36.4 6.85 -36.4 13.45 L-36.4 28.45 -50.15 28.45 -50.15 9.55 Q-50.15 5.0 -50.85 3.85 -51.65 2.75 -54.6 2.75 L-54.6 28.45 -69.45 28.45 -69.45 -28.5 -59.0 -28.5 -44.8 -27.65 M-54.6 -18.75 L-54.6 -6.1 Q-52.1 -6.1 -51.15 -6.75 -50.15 -7.5 -50.15 -11.2 L-50.15 -14.35 Q-50.15 -17.05 -51.1 -17.9 -52.0 -18.75 -54.6 -18.75 M-15.9 -6.25 L-6.65 -6.25 -6.65 4.55 -15.9 4.55 -15.9 17.1 -5.0 17.1 -5.0 28.45 -30.7 28.45 -30.7 -28.5 -6.0 -28.5 -6.0 -17.1 -15.9 -17.1 -15.9 -6.25 M-94.4 2.75 L-94.4 18.75 Q-91.35 18.65 -90.5 17.75 -89.65 16.95 -89.65 13.45 L-89.65 8.1 Q-89.65 4.4 -90.4 3.65 -91.15 2.9 -94.4 2.75" fill="#ffff00" fill-rule="evenodd" stroke="none"/>
  </g>
</svg>
