<?xml version="1.0" encoding="UTF-8" standalone="no"?>
<svg xmlns:ffdec="https://www.free-decompiler.com/flash" xmlns:xlink="http://www.w3.org/1999/xlink" ffdec:objectType="shape" height="124.7px" width="150.0px" xmlns="http://www.w3.org/2000/svg">
  <g transform="matrix(1.0, 0.0, 0.0, 1.0, 75.0, 124.7)">
    <path d="M53.0 -110.05 Q75.0 -95.4 75.0 -74.7 75.0 -54.0 53.0 -39.35 31.05 -24.7 0.0 -24.7 L-7.35 -24.9 -10.95 -21.7 Q-33.6 -2.2 -64.65 0.0 L-60.95 -4.0 Q-49.15 -17.5 -42.75 -33.5 -48.15 -36.1 -53.05 -39.35 -75.0 -54.0 -75.0 -74.7 -75.0 -95.4 -53.05 -110.05 -31.05 -124.7 0.0 -124.7 31.05 -124.7 53.0 -110.05" fill="#ffffff" fill-rule="evenodd" stroke="none"/>
    <path d="M18.3 -100.65 Q24.5 -94.45 23.6 -85.6 23.35 -79.4 18.9 -76.15 L12.4 -70.85 Q6.5 -66.7 3.85 -54.9 L-9.45 -56.95 -6.5 -66.1 Q-3.85 -71.15 0.0 -74.7 L8.25 -82.05 Q10.95 -84.15 10.35 -87.95 9.75 -91.5 7.4 -92.7 3.85 -94.45 -2.65 -93.0 -9.45 -91.2 -18.3 -82.95 L-26.3 -92.7 Q-18.6 -98.9 -12.1 -101.85 -5.0 -105.1 2.05 -105.1 13.0 -105.4 18.3 -100.65 M2.05 -38.35 Q-0.3 -36.0 -3.55 -36.0 -7.1 -36.0 -10.05 -38.35 -12.1 -40.4 -12.1 -44.25 -12.1 -48.7 -10.05 -50.75 -7.1 -53.1 -4.15 -53.1 -0.6 -53.1 2.05 -50.45 4.45 -47.5 4.45 -44.25 4.45 -40.7 2.05 -38.35" fill="#000000" fill-rule="evenodd" stroke="none"/>
  </g>
</svg>
