<?xml version="1.0" encoding="UTF-8" standalone="no"?>
<svg xmlns:ffdec="https://www.free-decompiler.com/flash" xmlns:xlink="http://www.w3.org/1999/xlink" ffdec:objectType="shape" height="175.0px" width="200.0px" xmlns="http://www.w3.org/2000/svg">
  <g transform="matrix(1.0, 0.0, 0.0, 1.0, 100.0, 87.5)">
    <path d="M41.15 -28.65 Q44.8 -25.0 50.0 -25.0 55.2 -25.0 58.85 -28.65 62.5 -32.3 62.5 -37.5 62.5 -42.7 58.85 -46.35 55.2 -50.0 50.0 -50.0 44.8 -50.0 41.15 -46.35 37.5 -42.7 37.5 -37.5 37.5 -32.3 41.15 -28.65 M0.0 -25.0 Q5.2 -25.0 8.85 -28.65 12.5 -32.3 12.5 -37.5 12.5 -42.7 8.85 -46.35 5.2 -50.0 0.0 -50.0 -5.2 -50.0 -8.85 -46.35 -12.5 -42.7 -12.5 -37.5 -12.5 -32.3 -8.85 -28.65 -5.2 -25.0 0.0 -25.0 M70.7 -72.85 Q100.0 -58.2 100.0 -37.5 100.0 -16.8 70.7 -2.15 41.4 12.5 0.0 12.5 -41.4 12.5 -70.7 -2.15 -100.0 -16.8 -100.0 -37.5 -100.0 -58.2 -70.7 -72.85 -41.4 -87.5 0.0 -87.5 41.4 -87.5 70.7 -72.85 M-62.5 -37.5 Q-62.5 -32.3 -58.85 -28.65 -55.2 -25.0 -50.0 -25.0 -44.8 -25.0 -41.15 -28.65 -37.5 -32.3 -37.5 -37.5 -37.5 -42.7 -41.15 -46.35 -44.8 -50.0 -50.0 -50.0 -55.2 -50.0 -58.85 -46.35 -62.5 -42.7 -62.5 -37.5 M-75.0 87.5 Q-85.35 87.5 -92.7 83.85 -100.0 80.2 -100.0 75.0 -100.0 69.8 -92.7 66.15 -85.35 62.5 -75.0 62.5 -64.65 62.5 -57.35 66.15 -50.0 69.8 -50.0 75.0 -50.0 80.2 -57.35 83.85 -64.65 87.5 -75.0 87.5 M-14.65 19.8 Q0.0 27.15 0.0 37.5 0.0 47.85 -14.65 55.15 -29.3 62.5 -50.0 62.5 -70.7 62.5 -85.35 55.15 -100.0 47.85 -100.0 37.5 -100.0 27.15 -85.35 19.8 -70.7 12.5 -50.0 12.5 -29.3 12.5 -14.65 19.8" fill="#ffffff" fill-rule="evenodd" stroke="none"/>
    <path d="M0.0 -25.0 Q-5.2 -25.0 -8.85 -28.65 -12.5 -32.3 -12.5 -37.5 -12.5 -42.7 -8.85 -46.35 -5.2 -50.0 0.0 -50.0 5.2 -50.0 8.85 -46.35 12.5 -42.7 12.5 -37.5 12.5 -32.3 8.85 -28.65 5.2 -25.0 0.0 -25.0 M41.15 -28.65 Q37.5 -32.3 37.5 -37.5 37.5 -42.7 41.15 -46.35 44.8 -50.0 50.0 -50.0 55.2 -50.0 58.85 -46.35 62.5 -42.7 62.5 -37.5 62.5 -32.3 58.85 -28.65 55.2 -25.0 50.0 -25.0 44.8 -25.0 41.15 -28.65 M-62.5 -37.5 Q-62.5 -42.7 -58.85 -46.35 -55.2 -50.0 -50.0 -50.0 -44.8 -50.0 -41.15 -46.35 -37.5 -42.7 -37.5 -37.5 -37.5 -32.3 -41.15 -28.65 -44.8 -25.0 -50.0 -25.0 -55.2 -25.0 -58.85 -28.65 -62.5 -32.3 -62.5 -37.5" fill="#000000" fill-rule="evenodd" stroke="none"/>
  </g>
</svg>
