<?xml version="1.0" encoding="UTF-8" standalone="no"?>
<svg xmlns:ffdec="https://www.free-decompiler.com/flash" xmlns:xlink="http://www.w3.org/1999/xlink" ffdec:objectType="shape" height="71.35px" width="272.85px" xmlns="http://www.w3.org/2000/svg">
  <g transform="matrix(1.0, 0.0, 0.0, 1.0, 136.4, 35.7)">
    <path d="M31.25 -6.3 L31.25 -17.15 41.1 -17.15 41.1 -28.55 16.45 -28.55 16.45 28.4 42.15 28.4 42.15 17.05 31.25 17.05 31.25 4.5 40.5 4.5 40.5 -6.3 31.25 -6.3 M46.5 -11.15 L46.5 10.5 37.25 10.5 48.15 11.7 48.15 34.4 -30.2 34.4 Q-33.3 35.65 -36.8 35.65 -44.3 35.65 -49.95 30.8 L-50.65 30.2 -50.65 34.4 -136.4 34.4 -127.35 -34.55 -50.65 -34.55 -50.65 -29.95 -48.85 -31.45 Q-43.1 -35.7 -34.5 -35.7 -22.9 -35.7 -17.0 -29.5 L-17.0 -34.55 9.85 -34.55 9.85 11.05 10.45 11.05 10.45 -34.55 47.1 -34.55 47.1 -11.15 46.5 -11.15 M113.45 -28.55 L98.55 -28.55 98.55 28.4 113.35 28.4 113.35 5.45 117.35 5.45 Q122.2 5.45 125.2 4.1 128.15 2.85 129.3 0.3 130.45 -2.3 130.45 -7.65 L130.45 -12.6 Q130.45 -17.95 129.85 -20.5 129.25 -23.15 127.65 -24.85 126.05 -26.6 122.75 -27.6 119.35 -28.55 113.45 -28.55 M114.45 -4.25 L113.35 -4.3 113.35 -18.8 Q116.2 -18.8 117.15 -17.95 118.05 -17.05 118.05 -14.15 L118.05 -9.45 Q118.05 -6.25 117.25 -5.25 116.5 -4.25 114.45 -4.25 M73.75 -28.55 L58.9 -28.55 58.9 5.2 Q58.9 15.05 59.25 17.85 59.65 20.9 61.55 23.55 63.45 26.3 67.35 27.95 71.2 29.65 76.35 29.65 80.9 29.65 84.35 28.2 87.75 26.75 89.8 24.05 91.95 21.25 92.3 18.65 92.75 16.0 92.75 9.55 L92.75 -28.55 77.9 -28.55 77.9 13.45 Q77.9 17.65 77.5 18.85 77.1 20.0 75.75 20.0 74.55 20.0 74.15 18.95 73.75 18.0 73.75 14.2 L73.75 -28.55 M136.45 -7.65 Q136.45 1.6 132.55 6.15 128.5 10.9 119.35 11.4 L119.35 34.4 92.55 34.4 92.55 30.1 Q90.15 32.3 86.7 33.75 82.2 35.65 76.35 35.65 67.65 35.65 61.3 31.45 54.25 26.8 53.3 18.55 52.9 15.1 52.9 5.2 L52.9 -34.55 113.45 -34.55 Q126.15 -34.55 131.2 -29.85 136.45 -25.0 136.45 -12.6 L136.45 -7.65 M-108.5 8.1 L-113.55 8.1 Q-113.0 0.95 -110.75 -15.85 L-108.5 8.1 M-50.3 -19.85 Q-51.2 -16.2 -51.2 -8.0 L-51.2 8.95 Q-51.2 14.65 -50.8 17.75 -50.35 20.65 -48.7 23.35 -47.05 25.95 -43.75 27.85 -40.5 29.65 -36.8 29.65 -33.65 29.65 -31.35 28.3 -29.05 26.95 -27.55 24.35 L-26.2 28.4 -16.85 28.4 -16.85 -2.1 -34.15 -2.1 -34.15 6.55 -31.25 6.55 -31.25 13.3 Q-31.25 17.2 -31.8 18.6 -32.4 20.0 -33.95 20.0 -35.35 20.0 -35.9 18.8 -36.35 17.5 -36.35 13.75 L-36.35 -13.55 Q-36.35 -17.95 -35.9 -19.0 -35.35 -20.05 -34.05 -20.05 -32.55 -20.05 -32.1 -18.8 -31.7 -17.5 -31.7 -12.7 L-31.7 -7.5 -16.85 -7.5 -16.85 -9.95 Q-16.85 -16.9 -18.15 -20.65 -19.45 -24.35 -23.75 -27.0 -28.0 -29.7 -34.5 -29.7 -41.05 -29.7 -45.3 -26.6 -49.5 -23.5 -50.3 -19.85 M-69.0 -28.55 L-69.0 -2.9 -77.3 -28.55 -89.7 -28.55 -89.7 28.4 -77.3 28.4 -77.3 2.55 -69.6 28.4 -56.65 28.4 -56.65 -28.55 -69.0 -28.55 M-100.65 -28.55 L-122.1 -28.55 -129.6 28.4 -114.25 28.4 -113.45 18.2 -108.1 18.2 -107.3 28.4 -92.2 28.4 -100.65 -28.55 M12.75 28.4 L12.75 17.05 3.85 17.05 3.85 -28.55 -11.0 -28.55 -11.0 28.4 12.75 28.4" fill="#ff3f00" fill-rule="evenodd" stroke="none"/>
    <path d="M31.25 -6.3 L40.5 -6.3 40.5 4.5 31.25 4.5 31.25 17.05 42.15 17.05 42.15 28.4 16.45 28.4 16.45 -28.55 41.1 -28.55 41.1 -17.15 31.25 -17.15 31.25 -6.3 M73.75 -28.55 L73.75 14.2 Q73.75 18.0 74.15 18.95 74.55 20.0 75.75 20.0 77.1 20.0 77.5 18.85 77.9 17.65 77.9 13.45 L77.9 -28.55 92.75 -28.55 92.75 9.55 Q92.75 16.0 92.3 18.65 91.95 21.25 89.8 24.05 87.75 26.75 84.35 28.2 80.9 29.65 76.35 29.65 71.2 29.65 67.35 27.95 63.45 26.3 61.55 23.55 59.65 20.9 59.25 17.85 58.9 15.05 58.9 5.2 L58.9 -28.55 73.75 -28.55 M114.45 -4.25 Q116.5 -4.25 117.25 -5.25 118.05 -6.25 118.05 -9.45 L118.05 -14.15 Q118.05 -17.05 117.15 -17.95 116.2 -18.8 113.35 -18.8 L113.35 -4.3 114.45 -4.25 M113.45 -28.55 Q119.35 -28.55 122.75 -27.6 126.05 -26.6 127.65 -24.85 129.25 -23.15 129.85 -20.5 130.45 -17.95 130.45 -12.6 L130.45 -7.65 Q130.45 -2.3 129.3 0.3 128.15 2.85 125.2 4.1 122.2 5.45 117.35 5.45 L113.35 5.45 113.35 28.4 98.55 28.4 98.55 -28.55 113.45 -28.55 M12.75 28.4 L-11.0 28.4 -11.0 -28.55 3.85 -28.55 3.85 17.05 12.75 17.05 12.75 28.4 M-100.65 -28.55 L-92.2 28.4 -107.3 28.4 -108.1 18.2 -113.45 18.2 -114.25 28.4 -129.6 28.4 -122.1 -28.55 -100.65 -28.55 M-69.0 -28.55 L-56.65 -28.55 -56.65 28.4 -69.6 28.4 -77.3 2.55 -77.3 28.4 -89.7 28.4 -89.7 -28.55 -77.3 -28.55 -69.0 -2.9 -69.0 -28.55 M-50.3 -19.85 Q-49.5 -23.5 -45.3 -26.6 -41.05 -29.7 -34.5 -29.7 -28.0 -29.7 -23.75 -27.0 -19.45 -24.35 -18.15 -20.65 -16.85 -16.9 -16.85 -9.95 L-16.85 -7.5 -31.7 -7.5 -31.7 -12.7 Q-31.7 -17.5 -32.1 -18.8 -32.55 -20.05 -34.05 -20.05 -35.35 -20.05 -35.9 -19.0 -36.35 -17.95 -36.35 -13.55 L-36.35 13.75 Q-36.35 17.5 -35.9 18.8 -35.35 20.0 -33.95 20.0 -32.4 20.0 -31.8 18.6 -31.25 17.2 -31.25 13.3 L-31.25 6.55 -34.15 6.55 -34.15 -2.1 -16.85 -2.1 -16.85 28.4 -26.2 28.4 -27.55 24.35 Q-29.05 26.95 -31.35 28.3 -33.65 29.65 -36.8 29.65 -40.5 29.65 -43.75 27.85 -47.05 25.95 -48.7 23.35 -50.35 20.65 -50.8 17.75 -51.2 14.65 -51.2 8.95 L-51.2 -8.0 Q-51.2 -16.2 -50.3 -19.85 M-108.5 8.1 L-110.75 -15.85 Q-113.0 0.95 -113.55 8.1 L-108.5 8.1" fill="#ffff00" fill-rule="evenodd" stroke="none"/>
  </g>
</svg>
