<?xml version="1.0" encoding="UTF-8" standalone="no"?>
<svg xmlns:ffdec="https://www.free-decompiler.com/flash" xmlns:xlink="http://www.w3.org/1999/xlink" ffdec:objectType="shape" height="71.35px" width="372.25px" xmlns="http://www.w3.org/2000/svg">
  <g transform="matrix(1.0, 0.0, 0.0, 1.0, 186.1, 35.7)">
    <path d="M20.5 -34.55 L34.65 -33.7 Q40.45 -32.7 43.6 -30.1 45.3 -28.7 46.5 -26.65 49.45 -31.15 55.05 -33.6 59.85 -35.7 65.9 -35.7 73.4 -35.7 79.05 -32.35 L78.8 -34.55 186.15 -34.55 186.15 34.4 86.8 34.4 85.8 25.9 Q83.95 28.85 80.9 31.1 74.7 35.65 65.9 35.65 57.15 35.65 50.95 31.15 48.6 29.45 46.95 27.3 L45.5 29.4 Q41.05 34.4 28.1 34.4 L3.45 34.4 3.45 -34.55 20.5 -34.55 M-84.2 -29.7 Q-90.8 -29.7 -94.95 -26.6 -99.1 -23.55 -100.0 -19.85 -100.85 -16.4 -100.85 -8.0 L-100.85 8.95 Q-100.85 15.15 -100.45 17.75 -100.0 20.65 -98.35 23.35 -96.65 26.0 -93.4 27.85 -90.15 29.65 -86.45 29.65 -83.3 29.65 -81.05 28.3 -78.8 27.0 -77.2 24.35 L-75.85 28.4 -66.55 28.4 -66.55 -2.1 -83.8 -2.1 -83.8 6.55 -80.95 6.55 -80.95 13.3 Q-80.95 17.35 -81.5 18.6 -82.0 20.0 -83.65 20.0 -85.1 20.0 -85.55 18.8 -86.05 17.6 -86.05 13.75 L-86.05 -13.55 Q-86.05 -18.0 -85.55 -19.0 -85.1 -20.05 -83.75 -20.05 -82.2 -20.05 -81.75 -18.8 -81.35 -17.5 -81.35 -12.7 L-81.35 -7.5 -66.55 -7.5 -66.55 -9.95 Q-66.55 -17.1 -67.85 -20.65 -69.15 -24.4 -73.4 -27.0 -77.65 -29.7 -84.2 -29.7 M-126.95 -28.55 L-139.35 -28.55 -139.35 28.4 -126.95 28.4 -126.95 2.55 -119.25 28.4 -106.3 28.4 -106.3 -28.55 -118.7 -28.55 -118.7 -2.9 -126.95 -28.55 M159.5 -28.55 L147.1 -28.55 147.1 28.4 159.5 28.4 159.5 2.55 167.2 28.4 180.15 28.4 180.15 -28.55 167.75 -28.55 167.75 -2.9 159.5 -28.55 M99.9 -28.55 L85.5 -28.55 92.15 28.4 110.5 28.4 114.65 -1.5 Q116.65 15.25 119.15 28.4 L137.6 28.4 144.2 -28.55 129.8 -28.55 Q127.05 -9.4 125.65 11.95 L122.4 -28.55 107.1 -28.55 Q103.85 -4.65 103.0 10.6 L99.9 -28.55 M63.6 -13.85 Q63.6 -18.25 64.2 -19.15 64.8 -20.05 65.95 -20.05 67.3 -20.05 67.7 -18.95 68.15 -17.85 68.15 -13.85 L68.15 12.3 Q68.15 17.2 67.75 18.65 67.3 20.0 65.85 20.0 64.4 20.0 64.0 18.85 63.6 17.55 63.6 12.7 L63.6 -13.85 M74.1 -28.2 Q70.45 -29.7 65.9 -29.7 61.1 -29.7 57.45 -28.1 53.85 -26.55 51.7 -23.55 49.6 -20.6 49.2 -17.05 48.8 -13.85 48.8 -4.9 L48.8 4.85 Q48.8 14.0 49.2 17.15 49.65 20.7 51.85 23.65 54.05 26.65 57.7 28.15 61.3 29.65 65.9 29.65 70.65 29.65 74.3 28.05 78.0 26.45 80.05 23.5 82.15 20.55 82.6 17.0 83.0 13.15 83.0 4.85 L83.0 -4.9 Q83.0 -13.7 82.55 -17.2 82.2 -20.6 79.95 -23.7 77.7 -26.7 74.1 -28.2 M27.55 -18.3 Q28.45 -17.75 28.65 -16.7 L28.9 -11.75 28.9 10.4 Q28.9 16.1 28.15 17.4 27.4 18.7 24.3 18.7 L24.3 -18.8 27.55 -18.3 M20.5 -28.55 L9.45 -28.55 9.45 28.4 28.1 28.4 36.05 27.85 Q38.65 27.25 40.5 25.8 42.25 24.4 43.0 21.75 43.7 19.35 43.7 11.5 L43.7 -8.45 Q43.7 -16.65 43.2 -19.3 42.75 -21.95 40.75 -24.3 38.75 -26.6 35.0 -27.55 L20.5 -28.55 M-98.5 -31.45 Q-92.75 -35.7 -84.2 -35.7 -72.55 -35.7 -66.65 -29.45 L-66.65 -34.55 -39.85 -34.55 -39.85 11.05 -39.25 11.05 -39.25 -34.55 -2.55 -34.55 -2.55 -11.15 -3.2 -11.15 -3.2 10.5 -12.4 10.5 -1.55 11.7 -1.55 34.4 -79.9 34.4 Q-82.9 35.65 -86.45 35.65 -93.95 35.65 -99.6 30.8 L-100.3 30.2 -100.3 34.4 -186.1 34.4 -177.0 -34.55 -100.3 -34.55 -100.3 -29.95 -98.5 -31.45 M-158.2 8.1 L-163.2 8.1 Q-162.55 -0.4 -160.4 -15.85 L-158.2 8.1 M-150.35 -28.55 L-171.75 -28.55 -179.25 28.4 -163.95 28.4 -163.1 18.2 -157.8 18.2 -157.0 28.4 -141.85 28.4 -150.35 -28.55 M-8.55 -28.55 L-33.25 -28.55 -33.25 28.4 -7.55 28.4 -7.55 17.05 -18.4 17.05 -18.4 4.5 -9.2 4.5 -9.2 -6.3 -18.4 -6.3 -18.4 -17.15 -8.55 -17.15 -8.55 -28.55 M-45.85 -28.55 L-60.65 -28.55 -60.65 28.4 -36.9 28.4 -36.9 17.05 -45.85 17.05 -45.85 -28.55" fill="#ff3f00" fill-rule="evenodd" stroke="none"/>
    <path d="M20.5 -28.55 L35.0 -27.55 Q38.75 -26.6 40.75 -24.3 42.75 -21.95 43.2 -19.3 43.7 -16.65 43.7 -8.45 L43.7 11.5 Q43.7 19.35 43.0 21.75 42.25 24.4 40.5 25.8 38.65 27.25 36.05 27.85 L28.1 28.4 9.45 28.4 9.45 -28.55 20.5 -28.55 M27.55 -18.3 L24.3 -18.8 24.3 18.7 Q27.4 18.7 28.15 17.4 28.9 16.1 28.9 10.4 L28.9 -11.75 28.65 -16.7 Q28.45 -17.75 27.55 -18.3 M74.1 -28.2 Q77.7 -26.7 79.95 -23.7 82.2 -20.6 82.55 -17.2 83.0 -13.7 83.0 -4.9 L83.0 4.85 Q83.0 13.15 82.6 17.0 82.15 20.55 80.05 23.5 78.0 26.45 74.3 28.05 70.65 29.65 65.9 29.65 61.3 29.65 57.7 28.15 54.05 26.65 51.85 23.65 49.65 20.7 49.2 17.15 48.8 14.0 48.8 4.85 L48.8 -4.9 Q48.8 -13.85 49.2 -17.05 49.6 -20.6 51.7 -23.55 53.85 -26.55 57.45 -28.1 61.1 -29.7 65.9 -29.7 70.45 -29.7 74.1 -28.2 M63.6 -13.85 L63.6 12.7 Q63.6 17.55 64.0 18.85 64.4 20.0 65.85 20.0 67.3 20.0 67.75 18.65 68.15 17.2 68.15 12.3 L68.15 -13.85 Q68.15 -17.85 67.7 -18.95 67.3 -20.05 65.95 -20.05 64.8 -20.05 64.2 -19.15 63.6 -18.25 63.6 -13.85 M99.9 -28.55 L103.0 10.6 Q103.85 -4.65 107.1 -28.55 L122.4 -28.55 125.65 11.95 Q127.05 -9.4 129.8 -28.55 L144.2 -28.55 137.6 28.4 119.15 28.4 Q116.65 15.25 114.65 -1.5 L110.5 28.4 92.15 28.4 85.5 -28.55 99.9 -28.55 M159.5 -28.55 L167.75 -2.9 167.75 -28.55 180.15 -28.55 180.15 28.4 167.2 28.4 159.5 2.55 159.5 28.4 147.1 28.4 147.1 -28.55 159.5 -28.55 M-126.95 -28.55 L-118.7 -2.9 -118.7 -28.55 -106.3 -28.55 -106.3 28.4 -119.25 28.4 -126.95 2.55 -126.95 28.4 -139.35 28.4 -139.35 -28.55 -126.95 -28.55 M-84.2 -29.7 Q-77.65 -29.7 -73.4 -27.0 -69.15 -24.4 -67.85 -20.65 -66.55 -17.1 -66.55 -9.95 L-66.55 -7.5 -81.35 -7.5 -81.35 -12.7 Q-81.35 -17.5 -81.75 -18.8 -82.2 -20.05 -83.75 -20.05 -85.1 -20.05 -85.55 -19.0 -86.05 -18.0 -86.05 -13.55 L-86.05 13.75 Q-86.05 17.6 -85.55 18.8 -85.1 20.0 -83.65 20.0 -82.0 20.0 -81.5 18.6 -80.95 17.35 -80.95 13.3 L-80.95 6.55 -83.8 6.55 -83.8 -2.1 -66.55 -2.1 -66.55 28.4 -75.85 28.4 -77.2 24.35 Q-78.8 27.0 -81.05 28.3 -83.3 29.65 -86.45 29.65 -90.15 29.65 -93.4 27.85 -96.65 26.0 -98.35 23.35 -100.0 20.65 -100.45 17.75 -100.85 15.15 -100.85 8.95 L-100.85 -8.0 Q-100.85 -16.4 -100.0 -19.85 -99.1 -23.55 -94.95 -26.6 -90.8 -29.7 -84.2 -29.7 M-45.85 -28.55 L-45.85 17.05 -36.9 17.05 -36.9 28.4 -60.65 28.4 -60.65 -28.55 -45.85 -28.55 M-8.55 -28.55 L-8.55 -17.15 -18.4 -17.15 -18.4 -6.3 -9.2 -6.3 -9.2 4.5 -18.4 4.5 -18.4 17.05 -7.55 17.05 -7.55 28.4 -33.25 28.4 -33.25 -28.55 -8.55 -28.55 M-150.35 -28.55 L-141.85 28.4 -157.0 28.4 -157.8 18.2 -163.1 18.2 -163.95 28.4 -179.25 28.4 -171.75 -28.55 -150.35 -28.55 M-158.2 8.1 L-160.4 -15.85 Q-162.55 -0.4 -163.2 8.1 L-158.2 8.1" fill="#ffff00" fill-rule="evenodd" stroke="none"/>
  </g>
</svg>
