<?xml version="1.0" encoding="UTF-8" standalone="no"?>
<svg xmlns:ffdec="https://www.free-decompiler.com/flash" xmlns:xlink="http://www.w3.org/1999/xlink" ffdec:objectType="shape" height="31.25px" width="62.5px" xmlns="http://www.w3.org/2000/svg">
  <g transform="matrix(1.0, 0.0, 0.0, 1.0, 31.25, 112.5)">
    <path d="M11.0 -91.35 Q15.6 -93.65 15.6 -96.85 15.6 -100.1 11.0 -102.4 6.45 -104.7 0.0 -104.65 -6.5 -104.7 -11.1 -102.4 -15.65 -100.1 -15.65 -96.85 -15.65 -93.65 -11.1 -91.35 -6.5 -89.05 0.0 -89.05 6.45 -89.05 11.0 -91.35 M22.05 -85.85 Q12.9 -81.25 0.0 -81.25 -12.95 -81.25 -22.1 -85.85 -31.3 -90.4 -31.25 -96.85 -31.3 -103.35 -22.1 -107.9 -12.95 -112.5 0.0 -112.5 12.9 -112.5 22.05 -107.9 31.2 -103.35 31.25 -96.85 31.2 -90.4 22.05 -85.85" fill="#ffff55" fill-rule="evenodd" stroke="none"/>
  </g>
</svg>
