<?xml version="1.0" encoding="UTF-8" standalone="no"?>
<svg xmlns:ffdec="https://www.free-decompiler.com/flash" xmlns:xlink="http://www.w3.org/1999/xlink" ffdec:objectType="shape" height="71.35px" width="306.1px" xmlns="http://www.w3.org/2000/svg">
  <g transform="matrix(1.0, 0.0, 0.0, 1.0, 153.05, 35.65)">
    <path d="M36.5 -23.5 Q34.4 -20.7 33.95 -17.0 33.55 -13.15 33.55 -4.85 L33.55 4.9 Q33.55 13.65 34.0 17.2 34.35 20.7 36.6 23.7 38.85 26.7 42.45 28.2 46.15 29.7 50.65 29.7 55.35 29.7 59.1 28.1 62.7 26.5 64.8 23.6 67.0 20.6 67.35 17.05 67.75 13.3 67.75 4.9 L67.75 -4.85 Q67.75 -13.4 67.35 -17.15 66.9 -20.6 64.7 -23.65 62.4 -26.7 58.85 -28.15 55.25 -29.65 50.65 -29.65 45.9 -29.65 42.25 -28.05 38.6 -26.5 36.5 -23.5 M8.75 -28.5 L5.4 -1.9 1.5 -28.5 -17.6 -28.5 -17.6 28.45 -4.65 28.45 -4.6 -9.1 0.8 28.45 9.9 28.45 15.05 -9.95 15.05 28.45 28.05 28.45 28.05 -28.5 8.75 -28.5 M34.05 -29.9 Q36.45 -32.1 39.8 -33.55 44.65 -35.65 50.65 -35.65 59.4 -35.65 65.6 -31.15 L67.25 -29.8 67.25 -34.5 153.05 -34.5 150.6 11.1 151.55 11.1 151.55 34.45 67.25 34.45 67.25 29.9 65.65 31.15 Q59.5 35.7 50.65 35.7 41.9 35.7 35.7 31.2 L34.05 29.9 34.05 34.45 -75.2 34.45 -75.2 30.15 Q-77.6 32.35 -81.05 33.8 -85.55 35.7 -91.4 35.7 -100.1 35.7 -106.45 31.5 -109.0 29.8 -110.75 27.7 -116.1 35.7 -129.7 35.7 -152.65 35.7 -152.65 11.85 L-152.65 2.1 -147.45 2.1 -149.5 -0.25 Q-153.05 -5.15 -153.05 -13.65 -153.05 -35.65 -131.0 -35.65 -120.3 -35.65 -114.85 -31.1 L-114.85 -34.5 34.05 -34.5 34.05 -29.9 M-42.85 -28.5 L-46.2 -1.9 -50.1 -28.5 -69.2 -28.5 -69.2 28.45 -56.25 28.45 -56.2 -9.1 -50.8 28.45 -41.7 28.45 -36.55 -9.95 -36.55 28.45 -23.55 28.45 -23.55 -28.5 -42.85 -28.5 M-94.0 -28.5 L-108.85 -28.5 -108.85 5.25 Q-108.85 15.1 -108.5 17.9 -108.1 20.95 -106.2 23.6 -104.3 26.35 -100.4 28.0 -96.55 29.7 -91.4 29.7 -86.85 29.7 -83.4 28.25 -79.9 26.75 -77.95 24.1 -75.8 21.3 -75.45 18.7 -75.0 16.05 -75.0 9.6 L-75.0 -28.5 -89.85 -28.5 -89.85 13.5 Q-89.85 17.7 -90.25 18.9 -90.65 20.05 -92.0 20.05 -93.2 20.05 -93.65 19.0 -94.0 18.0 -94.0 14.25 L-94.0 -28.5 M-131.0 -29.65 Q-136.25 -29.65 -140.0 -27.9 -143.7 -26.25 -145.4 -23.2 -147.05 -20.2 -147.05 -13.65 -147.05 -9.1 -145.9 -6.2 -144.7 -3.25 -142.9 -1.6 -141.4 -0.15 -135.65 3.7 -130.05 7.4 -128.7 8.9 -127.35 10.4 -127.35 15.45 -127.35 17.65 -128.05 18.9 -128.8 20.05 -130.25 20.05 -131.7 20.05 -132.3 19.15 -132.9 18.25 -132.9 15.0 L-132.9 8.1 -146.65 8.1 -146.65 11.85 Q-146.65 18.2 -145.35 21.7 -144.0 25.25 -139.85 27.45 -135.65 29.7 -129.7 29.7 -124.3 29.7 -120.2 27.75 -116.1 25.75 -114.7 22.9 -113.3 20.1 -113.3 13.95 -113.3 5.6 -115.85 1.8 -118.35 -1.9 -128.3 -7.85 -131.7 -9.9 -132.45 -11.3 -133.25 -12.75 -133.25 -15.6 -133.25 -17.75 -132.55 -18.9 -131.85 -20.0 -130.55 -20.0 -129.35 -20.0 -128.8 -19.15 -128.25 -18.35 -128.25 -15.4 L-128.25 -11.2 -114.5 -11.2 -114.5 -13.45 Q-114.5 -20.3 -115.85 -23.05 -117.1 -25.85 -121.2 -27.75 -125.3 -29.65 -131.0 -29.65 M126.2 28.45 L126.2 17.1 112.9 17.1 112.9 28.45 126.2 28.45 M145.55 17.1 L132.25 17.1 132.25 28.45 145.55 28.45 145.55 17.1 M127.35 -28.5 L111.7 -28.5 114.05 14.45 125.05 14.45 127.35 -28.5 M146.7 -28.5 L131.1 -28.5 133.4 14.45 144.4 14.45 146.7 -28.5 M93.9 -28.5 L93.9 -2.85 85.65 -28.5 73.25 -28.5 73.25 28.45 85.65 28.45 85.65 2.6 93.35 28.45 106.3 28.45 106.3 -28.5 93.9 -28.5 M48.4 -13.8 Q48.4 -18.2 49.0 -19.1 49.6 -20.0 50.7 -20.0 52.05 -20.0 52.5 -18.85 52.9 -17.9 52.9 -13.8 L52.9 12.35 Q52.9 17.55 52.5 18.7 52.15 20.05 50.6 20.05 49.2 20.05 48.8 18.9 48.4 17.85 48.4 12.8 L48.4 -13.8" fill="#ff0000" fill-rule="evenodd" stroke="none"/>
    <path d="M8.75 -28.5 L28.05 -28.5 28.05 28.45 15.05 28.45 15.05 -9.95 9.9 28.45 0.8 28.45 -4.6 -9.1 -4.65 28.45 -17.6 28.45 -17.6 -28.5 1.5 -28.5 5.4 -1.9 8.75 -28.5 M36.5 -23.5 Q38.6 -26.5 42.25 -28.05 45.9 -29.65 50.65 -29.65 55.25 -29.65 58.85 -28.15 62.4 -26.7 64.7 -23.65 66.9 -20.6 67.35 -17.15 67.75 -13.4 67.75 -4.85 L67.75 4.9 Q67.75 13.3 67.35 17.05 67.0 20.6 64.8 23.6 62.7 26.5 59.1 28.1 55.35 29.7 50.65 29.7 46.15 29.7 42.45 28.2 38.85 26.7 36.6 23.7 34.35 20.7 34.0 17.2 33.55 13.65 33.55 4.9 L33.55 -4.85 Q33.55 -13.15 33.95 -17.0 34.4 -20.7 36.5 -23.5 M48.4 -13.8 L48.4 12.8 Q48.4 17.85 48.8 18.9 49.2 20.05 50.6 20.05 52.15 20.05 52.5 18.7 52.9 17.55 52.9 12.35 L52.9 -13.8 Q52.9 -17.9 52.5 -18.85 52.05 -20.0 50.7 -20.0 49.6 -20.0 49.0 -19.1 48.4 -18.2 48.4 -13.8 M93.9 -28.5 L106.3 -28.5 106.3 28.45 93.35 28.45 85.65 2.6 85.65 28.45 73.25 28.45 73.25 -28.5 85.65 -28.5 93.9 -2.85 93.9 -28.5 M146.7 -28.5 L144.4 14.45 133.4 14.45 131.1 -28.5 146.7 -28.5 M127.35 -28.5 L125.05 14.45 114.05 14.45 111.7 -28.5 127.35 -28.5 M145.55 17.1 L145.55 28.45 132.25 28.45 132.25 17.1 145.55 17.1 M126.2 28.45 L112.9 28.45 112.9 17.1 126.2 17.1 126.2 28.45 M-131.0 -29.65 Q-125.3 -29.65 -121.2 -27.75 -117.1 -25.85 -115.85 -23.05 -114.5 -20.3 -114.5 -13.45 L-114.5 -11.2 -128.25 -11.2 -128.25 -15.4 Q-128.25 -18.35 -128.8 -19.15 -129.35 -20.0 -130.55 -20.0 -131.85 -20.0 -132.55 -18.9 -133.25 -17.75 -133.25 -15.6 -133.25 -12.75 -132.45 -11.3 -131.7 -9.9 -128.3 -7.85 -118.35 -1.9 -115.85 1.8 -113.3 5.6 -113.3 13.95 -113.3 20.1 -114.7 22.9 -116.1 25.75 -120.2 27.75 -124.3 29.7 -129.7 29.7 -135.65 29.7 -139.85 27.45 -144.0 25.25 -145.35 21.7 -146.65 18.2 -146.65 11.85 L-146.65 8.1 -132.9 8.1 -132.9 15.0 Q-132.9 18.25 -132.3 19.15 -131.7 20.05 -130.25 20.05 -128.8 20.05 -128.05 18.9 -127.35 17.65 -127.35 15.45 -127.35 10.4 -128.7 8.9 -130.05 7.4 -135.65 3.7 -141.4 -0.15 -142.9 -1.6 -144.7 -3.25 -145.9 -6.2 -147.05 -9.1 -147.05 -13.65 -147.05 -20.2 -145.4 -23.2 -143.7 -26.25 -140.0 -27.9 -136.25 -29.65 -131.0 -29.65 M-94.0 -28.5 L-94.0 14.25 Q-94.0 18.0 -93.65 19.0 -93.2 20.05 -92.0 20.05 -90.65 20.05 -90.25 18.9 -89.85 17.7 -89.85 13.5 L-89.85 -28.5 -75.0 -28.5 -75.0 9.6 Q-75.0 16.05 -75.45 18.7 -75.8 21.3 -77.95 24.1 -79.9 26.75 -83.4 28.25 -86.85 29.7 -91.4 29.7 -96.55 29.7 -100.4 28.0 -104.3 26.35 -106.2 23.6 -108.1 20.95 -108.5 17.9 -108.85 15.1 -108.85 5.25 L-108.85 -28.5 -94.0 -28.5 M-42.85 -28.5 L-23.55 -28.5 -23.55 28.45 -36.55 28.45 -36.55 -9.95 -41.7 28.45 -50.8 28.45 -56.2 -9.1 -56.25 28.45 -69.2 28.45 -69.2 -28.5 -50.1 -28.5 -46.2 -1.9 -42.85 -28.5" fill="#ffa7ff" fill-rule="evenodd" stroke="none"/>
  </g>
</svg>
