<?xml version="1.0" encoding="UTF-8" standalone="no"?>
<svg xmlns:ffdec="https://www.free-decompiler.com/flash" xmlns:xlink="http://www.w3.org/1999/xlink" ffdec:objectType="shape" height="71.35px" width="278.9px" xmlns="http://www.w3.org/2000/svg">
  <g transform="matrix(1.0, 0.0, 0.0, 1.0, 139.45, 35.65)">
    <path d="M11.75 -23.65 Q9.5 -26.65 5.9 -28.15 2.25 -29.65 -2.3 -29.65 -7.1 -29.65 -10.75 -28.05 -14.35 -26.5 -16.5 -23.5 -18.6 -20.55 -19.0 -17.0 -19.4 -13.8 -19.4 -4.85 L-19.4 4.9 Q-19.4 14.05 -19.0 17.2 -18.55 20.75 -16.35 23.7 -14.15 26.7 -10.5 28.2 -6.9 29.7 -2.3 29.7 2.45 29.7 6.1 28.1 9.8 26.5 11.85 23.55 13.95 20.6 14.4 17.05 14.8 13.2 14.8 4.9 L14.8 -4.85 Q14.8 -13.65 14.35 -17.15 14.0 -20.55 11.75 -23.65 M14.05 -30.0 L14.05 -34.5 59.9 -34.5 59.9 -30.0 61.6 -31.4 Q67.4 -35.65 75.95 -35.65 87.55 -35.65 93.45 -29.45 L93.45 -34.5 139.45 -34.5 139.45 34.45 80.25 34.45 Q77.15 35.7 73.7 35.7 66.2 35.7 60.5 30.85 58.2 28.9 56.7 26.6 53.8 31.3 47.85 33.8 43.25 35.7 37.5 35.7 28.8 35.7 22.45 31.5 19.2 29.35 17.25 26.5 15.45 29.1 12.7 31.15 6.55 35.7 -2.3 35.7 -11.05 35.7 -17.25 31.2 L-18.7 30.05 -18.7 34.45 -103.65 34.45 -103.65 -11.1 -103.85 -11.1 -103.85 34.45 -130.65 34.45 -130.65 -11.1 -139.45 -11.1 -139.45 -34.5 -47.25 -34.5 -35.75 -34.0 Q-30.15 -33.35 -26.7 -31.4 -23.65 -29.7 -21.75 -26.55 -18.8 -31.1 -13.15 -33.55 -8.35 -35.65 -2.3 -35.65 6.4 -35.65 12.6 -31.15 L14.05 -30.0 M-4.6 -13.8 Q-4.6 -18.2 -4.0 -19.1 -3.4 -20.0 -2.25 -20.0 -0.9 -20.0 -0.5 -18.9 -0.05 -17.8 -0.05 -13.8 L-0.05 12.35 Q-0.05 17.25 -0.45 18.7 -0.9 20.05 -2.35 20.05 -3.8 20.05 -4.2 18.9 -4.6 17.6 -4.6 12.75 L-4.6 -13.8 M-42.9 -6.1 L-42.9 -18.75 Q-40.3 -18.75 -39.4 -17.9 -38.45 -17.1 -38.45 -14.35 L-38.45 -11.25 Q-38.45 -7.45 -39.4 -6.8 -40.4 -6.1 -42.9 -6.1 M-47.25 -28.5 L-57.75 -28.5 -57.75 28.45 -42.9 28.45 -42.9 2.75 Q-39.85 2.75 -39.15 3.85 -38.45 4.9 -38.45 9.5 L-38.45 28.45 -24.7 28.45 -24.7 13.45 Q-24.7 6.45 -25.05 5.0 -25.45 3.35 -26.95 1.65 -28.4 -0.15 -32.85 -1.3 -28.0 -1.75 -26.35 -4.0 -24.7 -6.35 -24.7 -12.95 -24.7 -20.3 -27.0 -23.55 -29.35 -26.85 -33.05 -27.7 L-47.25 -28.5 M-82.85 -8.1 L-82.85 -28.5 -97.65 -28.5 -97.65 28.45 -82.85 28.45 -82.85 4.55 -78.5 4.55 -78.5 28.45 -63.7 28.45 -63.7 -28.5 -78.5 -28.5 -78.5 -8.1 -82.85 -8.1 M-133.45 -28.5 L-133.45 -17.1 -124.65 -17.1 -124.65 28.45 -109.85 28.45 -109.85 -17.1 -101.1 -17.1 -101.1 -28.5 -133.45 -28.5 M114.3 -8.1 L114.3 -28.5 99.45 -28.5 99.45 28.45 114.3 28.45 114.3 4.55 118.6 4.55 118.6 28.45 133.45 28.45 133.45 -28.5 118.6 -28.5 118.6 -8.1 114.3 -8.1 M75.95 -29.65 Q69.35 -29.65 65.2 -26.55 61.05 -23.5 60.15 -19.8 59.25 -16.15 59.25 -7.95 L59.25 9.0 Q59.25 14.85 59.7 17.8 60.05 20.7 61.8 23.4 63.35 25.95 66.7 27.9 70.0 29.7 73.7 29.7 76.85 29.7 79.1 28.35 81.4 27.0 82.9 24.4 L84.3 28.45 93.6 28.45 93.6 -2.05 76.35 -2.05 76.35 6.6 79.2 6.6 79.2 13.35 Q79.2 17.25 78.65 18.65 78.05 20.05 76.5 20.05 75.05 20.05 74.6 18.85 74.1 17.65 74.1 13.8 L74.1 -13.5 Q74.1 -17.95 74.6 -18.95 75.05 -20.0 76.4 -20.0 78.0 -20.0 78.35 -18.75 78.8 -17.55 78.8 -12.65 L78.8 -7.45 93.6 -7.45 93.6 -9.9 Q93.6 -17.05 92.3 -20.6 91.0 -24.35 86.75 -26.95 82.4 -29.65 75.95 -29.65 M34.9 -28.5 L20.05 -28.5 20.05 5.25 Q20.05 15.1 20.4 17.9 20.8 20.95 22.7 23.6 24.75 26.4 28.55 28.0 32.4 29.7 37.5 29.7 42.05 29.7 45.5 28.25 48.85 26.85 51.0 24.1 53.1 21.25 53.45 18.7 53.9 16.05 53.9 9.6 L53.9 -28.5 39.05 -28.5 39.05 13.5 Q39.05 17.9 38.65 18.9 38.25 20.05 36.9 20.05 35.7 20.05 35.3 19.0 34.9 18.05 34.9 14.25 L34.9 -28.5" fill="#0000ff" fill-rule="evenodd" stroke="none"/>
    <path d="M11.75 -23.65 Q14.0 -20.55 14.35 -17.15 14.8 -13.65 14.8 -4.85 L14.8 4.9 Q14.8 13.2 14.4 17.05 13.95 20.6 11.85 23.55 9.8 26.5 6.1 28.1 2.45 29.7 -2.3 29.7 -6.9 29.7 -10.5 28.2 -14.15 26.7 -16.35 23.7 -18.55 20.75 -19.0 17.2 -19.4 14.05 -19.4 4.9 L-19.4 -4.85 Q-19.4 -13.8 -19.0 -17.0 -18.6 -20.55 -16.5 -23.5 -14.35 -26.5 -10.75 -28.05 -7.1 -29.65 -2.3 -29.65 2.25 -29.65 5.9 -28.15 9.5 -26.65 11.75 -23.65 M34.9 -28.5 L34.9 14.25 Q34.9 18.05 35.3 19.0 35.7 20.05 36.9 20.05 38.25 20.05 38.65 18.9 39.05 17.9 39.05 13.5 L39.05 -28.5 53.9 -28.5 53.9 9.6 Q53.9 16.05 53.45 18.7 53.1 21.25 51.0 24.1 48.85 26.85 45.5 28.25 42.05 29.7 37.5 29.7 32.4 29.7 28.55 28.0 24.75 26.4 22.7 23.6 20.8 20.95 20.4 17.9 20.05 15.1 20.05 5.25 L20.05 -28.5 34.9 -28.5 M75.95 -29.65 Q82.4 -29.65 86.75 -26.95 91.0 -24.35 92.3 -20.6 93.6 -17.05 93.6 -9.9 L93.6 -7.45 78.8 -7.45 78.8 -12.65 Q78.8 -17.55 78.35 -18.75 78.0 -20.0 76.4 -20.0 75.05 -20.0 74.6 -18.95 74.1 -17.95 74.1 -13.5 L74.1 13.8 Q74.1 17.65 74.6 18.85 75.05 20.05 76.5 20.05 78.05 20.05 78.65 18.65 79.2 17.25 79.2 13.35 L79.2 6.6 76.35 6.6 76.35 -2.05 93.6 -2.05 93.6 28.45 84.3 28.45 82.9 24.4 Q81.4 27.0 79.1 28.35 76.85 29.7 73.7 29.7 70.0 29.7 66.7 27.9 63.35 25.95 61.8 23.4 60.05 20.7 59.7 17.8 59.25 14.85 59.25 9.0 L59.25 -7.95 Q59.25 -16.15 60.15 -19.8 61.05 -23.5 65.2 -26.55 69.35 -29.65 75.95 -29.65 M114.3 -8.1 L118.6 -8.1 118.6 -28.5 133.45 -28.5 133.45 28.45 118.6 28.45 118.6 4.55 114.3 4.55 114.3 28.45 99.45 28.45 99.45 -28.5 114.3 -28.5 114.3 -8.1 M-133.45 -28.5 L-101.1 -28.5 -101.1 -17.1 -109.85 -17.1 -109.85 28.45 -124.65 28.45 -124.65 -17.1 -133.45 -17.1 -133.45 -28.5 M-82.85 -8.1 L-78.5 -8.1 -78.5 -28.5 -63.7 -28.5 -63.7 28.45 -78.5 28.45 -78.5 4.55 -82.85 4.55 -82.85 28.45 -97.65 28.45 -97.65 -28.5 -82.85 -28.5 -82.85 -8.1 M-47.25 -28.5 L-33.05 -27.7 Q-29.35 -26.85 -27.0 -23.55 -24.7 -20.3 -24.7 -12.95 -24.7 -6.35 -26.35 -4.0 -28.0 -1.75 -32.85 -1.3 -28.4 -0.15 -26.95 1.65 -25.45 3.35 -25.05 5.0 -24.7 6.45 -24.7 13.45 L-24.7 28.45 -38.45 28.45 -38.45 9.5 Q-38.45 4.9 -39.15 3.85 -39.85 2.75 -42.9 2.75 L-42.9 28.45 -57.75 28.45 -57.75 -28.5 -47.25 -28.5 M-42.9 -6.1 Q-40.4 -6.1 -39.4 -6.8 -38.45 -7.45 -38.45 -11.25 L-38.45 -14.35 Q-38.45 -17.1 -39.4 -17.9 -40.3 -18.75 -42.9 -18.75 L-42.9 -6.1 M-4.6 -13.8 L-4.6 12.75 Q-4.6 17.6 -4.2 18.9 -3.8 20.05 -2.35 20.05 -0.9 20.05 -0.45 18.7 -0.05 17.25 -0.05 12.35 L-0.05 -13.8 Q-0.05 -17.8 -0.5 -18.9 -0.9 -20.0 -2.25 -20.0 -3.4 -20.0 -4.0 -19.1 -4.6 -18.2 -4.6 -13.8" fill="#00ffff" fill-rule="evenodd" stroke="none"/>
  </g>
</svg>
