<?xml version="1.0" encoding="UTF-8" standalone="no"?>
<svg xmlns:ffdec="https://www.free-decompiler.com/flash" xmlns:xlink="http://www.w3.org/1999/xlink" ffdec:objectType="shape" height="48.6px" width="28.7px" xmlns="http://www.w3.org/2000/svg">
  <g transform="matrix(1.0, 0.0, 0.0, 1.0, 14.35, 24.3)">
    <path d="M-14.0 -14.45 Q-13.65 -16.95 -11.9 -19.3 -10.2 -21.65 -7.15 -22.95 -4.15 -24.3 -0.2 -24.3 5.2 -24.3 8.65 -22.25 12.15 -20.15 13.25 -17.1 14.35 -14.0 14.35 -7.45 L14.35 -3.05 2.2 -3.05 2.2 -11.15 Q2.2 -14.65 1.85 -15.55 1.45 -16.45 0.1 -16.45 -1.4 -16.45 -1.8 -15.35 -2.2 -14.3 -2.2 -10.75 L-2.2 10.9 Q-2.2 14.3 -1.8 15.35 -1.4 16.4 0.0 16.4 1.35 16.4 1.8 15.35 2.2 14.3 2.2 10.5 L2.2 4.6 14.35 4.6 14.35 6.4 Q14.35 13.65 13.35 16.7 12.3 19.75 8.8 22.0 5.3 24.3 0.15 24.3 -5.15 24.3 -8.6 22.35 -12.1 20.4 -13.2 17.0 -14.35 13.6 -14.35 6.75 L-14.35 -6.9 Q-14.35 -11.95 -14.0 -14.45" fill="#ff7700" fill-rule="evenodd" stroke="none"/>
  </g>
</svg>
