<?xml version="1.0" encoding="UTF-8" standalone="no"?>
<svg xmlns:ffdec="https://www.free-decompiler.com/flash" xmlns:xlink="http://www.w3.org/1999/xlink" ffdec:objectType="shape" height="27.2px" width="155.15px" xmlns="http://www.w3.org/2000/svg">
  <g transform="matrix(1.0, 0.0, 0.0, 1.0, 0.0, 0.0)">
    <path d="M122.15 27.2 L120.8 22.7 111.25 22.7 109.95 27.2 101.35 27.2 111.6 0.0 120.75 0.0 130.95 27.2 122.15 27.2 M155.15 27.2 L133.65 27.2 133.65 0.0 142.05 0.0 142.05 20.5 155.15 20.5 155.15 27.2 M119.05 16.85 L116.05 7.05 113.1 16.85 119.05 16.85 M98.05 0.0 L98.05 27.2 89.6 27.2 89.6 0.0 98.05 0.0 M84.4 7.55 Q84.4 9.8 83.45 11.45 82.45 13.1 80.75 14.1 79.7 14.75 77.8 15.2 79.35 15.7 80.0 16.2 L81.35 17.65 82.55 19.3 86.6 27.2 77.1 27.2 72.6 18.9 Q71.75 17.25 71.1 16.8 70.2 16.15 69.05 16.15 L68.3 16.15 68.3 27.2 59.85 27.2 59.85 0.0 73.85 0.0 79.8 0.65 Q81.85 1.35 83.15 3.15 84.4 4.95 84.4 7.55 M72.0 5.5 L68.3 5.5 68.3 11.0 71.85 11.0 74.05 10.65 Q74.9 10.5 75.45 9.8 75.95 9.1 75.95 8.2 75.95 6.9 75.1 6.2 74.3 5.5 72.0 5.5 M53.75 15.7 L40.7 15.7 40.7 21.05 55.2 21.05 55.2 27.2 32.25 27.2 32.25 0.0 54.8 0.0 54.8 5.8 40.7 5.8 40.7 10.15 53.75 10.15 53.75 15.7 M19.4 0.0 L29.6 27.2 20.8 27.2 19.45 22.7 9.9 22.7 8.6 27.2 0.0 27.2 10.25 0.0 19.4 0.0 M14.7 7.05 L11.75 16.85 17.7 16.85 14.7 7.05" fill="#ff0000" fill-rule="evenodd" stroke="none"/>
  </g>
</svg>
