<?xml version="1.0" encoding="UTF-8" standalone="no"?>
<svg xmlns:ffdec="https://www.free-decompiler.com/flash" xmlns:xlink="http://www.w3.org/1999/xlink" ffdec:objectType="shape" height="46.65px" width="27.1px" xmlns="http://www.w3.org/2000/svg">
  <g transform="matrix(1.0, 0.0, 0.0, 1.0, 13.55, 23.3)">
    <path d="M-1.4 -15.3 L-1.4 -4.95 Q0.65 -4.95 1.5 -5.5 2.3 -6.05 2.3 -9.15 L2.3 -11.7 Q2.3 -13.95 1.5 -14.6 0.7 -15.3 -1.4 -15.3 M-4.95 -23.3 L6.7 -22.65 Q9.7 -21.95 11.65 -19.25 13.55 -16.5 13.55 -10.55 13.55 -5.1 12.2 -3.25 10.85 -1.35 6.85 -1.0 10.45 -0.1 11.7 1.4 12.95 2.9 13.25 4.15 13.55 5.4 13.55 11.05 L13.55 23.35 2.3 23.35 2.3 7.85 Q2.3 4.1 1.7 3.2 1.1 2.3 -1.4 2.3 L-1.4 23.35 -13.55 23.35 -13.55 -23.3 -4.95 -23.3" fill="#ff7700" fill-rule="evenodd" stroke="none"/>
  </g>
</svg>
