<?xml version="1.0" encoding="UTF-8" standalone="no"?>
<svg xmlns:ffdec="https://www.free-decompiler.com/flash" xmlns:xlink="http://www.w3.org/1999/xlink" ffdec:objectType="shape" height="48.6px" width="27.75px" xmlns="http://www.w3.org/2000/svg">
  <g transform="matrix(1.0, 0.0, 0.0, 1.0, 13.85, 24.3)">
    <path d="M-12.85 -5.1 Q-13.85 -7.5 -13.85 -11.2 -13.85 -16.55 -12.45 -19.05 -11.1 -21.55 -8.05 -22.9 -5.0 -24.3 -0.65 -24.3 4.05 -24.3 7.4 -22.8 10.7 -21.25 11.8 -18.95 12.85 -16.65 12.85 -11.05 L12.85 -9.2 1.6 -9.2 1.6 -12.7 Q1.6 -15.1 1.15 -15.75 0.75 -16.45 -0.25 -16.45 -1.35 -16.45 -1.9 -15.55 -2.5 -14.65 -2.5 -12.85 -2.5 -10.5 -1.85 -9.3 -1.25 -8.15 1.55 -6.45 9.65 -1.65 11.75 1.45 13.9 4.5 13.9 11.35 13.9 16.35 12.7 18.7 11.55 21.1 8.2 22.7 4.85 24.3 0.4 24.3 -4.45 24.3 -7.85 22.45 -11.35 20.6 -12.4 17.75 -13.45 14.9 -13.45 9.65 L-13.45 6.6 -2.2 6.6 -2.2 12.25 Q-2.2 14.9 -1.7 15.65 -1.25 16.4 -0.05 16.4 1.15 16.4 1.8 15.45 2.35 14.5 2.35 12.6 2.35 8.5 1.25 7.2 0.1 5.95 -4.45 3.0 L-10.45 -1.35 Q-11.9 -2.7 -12.85 -5.1" fill="#ff7700" fill-rule="evenodd" stroke="none"/>
  </g>
</svg>
