<?xml version="1.0" encoding="UTF-8" standalone="no"?>
<svg xmlns:ffdec="https://www.free-decompiler.com/flash" xmlns:xlink="http://www.w3.org/1999/xlink" ffdec:objectType="shape" height="300.0px" width="800.0px" xmlns="http://www.w3.org/2000/svg">
  <g transform="matrix(1.0, 0.0, 0.0, 1.0, 400.0, 0.0)">
    <path d="M400.0 100.0 L400.0 118.75 75.0 200.0 400.0 281.25 400.0 300.0 325.0 300.0 0.0 218.75 -325.0 300.0 -400.0 300.0 -400.0 281.25 -75.0 200.0 -400.0 118.75 -400.0 100.0 -325.0 100.0 0.0 181.25 325.0 100.0 400.0 100.0" fill="#ff0000" fill-rule="evenodd" stroke="none"/>
    <path d="M400.0 100.0 L325.0 100.0 -200.0 100.0 -200.0 0.0 400.0 0.0 400.0 100.0 M-113.15 55.9 L-98.95 55.9 Q-91.5 55.9 -88.7 57.85 -85.75 59.75 -85.7 63.0 -85.75 66.45 -88.7 68.55 -91.75 70.6 -98.9 70.6 L-113.15 70.6 -113.15 55.9 M-91.85 30.2 Q-89.3 32.0 -89.3 35.1 -89.3 38.55 -91.85 40.3 -94.55 42.1 -101.0 42.1 L-113.15 42.1 -113.15 28.4 -100.75 28.4 Q-94.45 28.4 -91.85 30.2 M-61.9 31.7 Q-61.95 24.1 -68.9 18.95 -75.85 13.7 -88.95 13.7 L-141.4 13.7 -141.4 86.2 -93.05 86.2 -80.55 85.15 Q-73.4 84.35 -69.95 82.8 -64.35 80.2 -60.95 75.65 -57.7 71.25 -57.7 65.5 -57.7 58.65 -62.25 54.1 -66.85 49.5 -76.7 47.6 -70.15 45.75 -66.9 42.75 -61.9 38.25 -61.9 31.7 M28.6 86.2 L28.6 68.35 -15.1 68.35 -15.1 13.7 -43.1 13.7 -43.1 86.2 28.6 86.2 M98.5 34.1 Q103.6 38.8 103.65 49.1 103.6 61.25 98.7 65.95 93.65 70.65 84.7 70.65 75.95 70.65 70.85 65.9 65.7 60.95 65.75 50.05 65.7 39.0 70.85 34.25 76.05 29.4 84.5 29.4 93.2 29.4 98.5 34.1 M119.35 22.15 Q107.1 12.45 84.55 12.5 62.5 12.45 50.15 22.4 37.75 32.25 37.75 50.0 37.75 62.6 44.0 71.15 50.25 79.65 60.3 83.5 70.2 87.35 85.6 87.4 100.8 87.35 110.85 82.9 121.05 78.3 126.25 70.25 131.55 62.15 131.55 49.35 131.55 31.85 119.35 22.15 M230.65 35.0 Q225.9 23.5 216.15 18.05 206.35 12.45 189.2 12.5 167.35 12.45 155.45 22.15 143.45 31.7 143.45 49.8 143.45 63.3 150.2 71.95 157.0 80.55 166.4 84.0 175.95 87.45 190.5 87.45 202.5 87.45 210.6 84.65 218.45 81.75 223.75 76.3 229.15 70.65 231.55 62.5 L207.0 56.5 Q205.25 63.35 201.05 67.0 196.95 70.65 188.9 70.65 180.55 70.65 176.1 66.15 171.5 61.8 171.5 49.65 171.5 39.95 175.3 35.35 180.35 29.25 189.95 29.25 194.2 29.25 197.5 30.6 200.75 31.9 203.3 34.55 204.7 36.2 205.95 39.35 L230.65 35.0 M273.2 41.05 L273.2 13.7 245.25 13.7 245.25 86.2 273.2 86.2 273.2 68.5 287.7 56.4 306.75 86.2 341.25 86.2 306.75 41.05 339.8 13.7 302.6 13.7 273.2 41.05" fill="#ffffff" fill-rule="evenodd" stroke="none"/>
    <path d="M273.2 41.05 L302.6 13.7 339.8 13.7 306.75 41.05 341.25 86.2 306.75 86.2 287.7 56.4 273.2 68.5 273.2 86.2 245.25 86.2 245.25 13.7 273.2 13.7 273.2 41.05 M230.65 35.0 L205.95 39.35 Q204.7 36.2 203.3 34.55 200.75 31.9 197.5 30.6 194.2 29.25 189.95 29.25 180.35 29.25 175.3 35.35 171.5 39.95 171.5 49.65 171.5 61.8 176.1 66.15 180.55 70.65 188.9 70.65 196.95 70.65 201.05 67.0 205.25 63.35 207.0 56.5 L231.55 62.5 Q229.15 70.65 223.75 76.3 218.45 81.75 210.6 84.65 202.5 87.45 190.5 87.45 175.95 87.45 166.4 84.0 157.0 80.55 150.2 71.95 143.45 63.3 143.45 49.8 143.45 31.7 155.45 22.15 167.35 12.45 189.2 12.5 206.35 12.45 216.15 18.05 225.9 23.5 230.65 35.0 M119.35 22.15 Q131.55 31.85 131.55 49.35 131.55 62.15 126.25 70.25 121.05 78.3 110.85 82.9 100.8 87.35 85.6 87.4 70.2 87.35 60.3 83.5 50.25 79.65 44.0 71.15 37.75 62.6 37.75 50.0 37.75 32.25 50.15 22.4 62.5 12.45 84.55 12.5 107.1 12.45 119.35 22.15 M98.5 34.1 Q93.2 29.4 84.5 29.4 76.05 29.4 70.85 34.25 65.7 39.0 65.75 50.05 65.7 60.95 70.85 65.9 75.95 70.65 84.7 70.65 93.65 70.65 98.7 65.95 103.6 61.25 103.65 49.1 103.6 38.8 98.5 34.1 M28.6 86.2 L-43.1 86.2 -43.1 13.7 -15.1 13.7 -15.1 68.35 28.6 68.35 28.6 86.2 M-61.9 31.7 Q-61.9 38.25 -66.9 42.75 -70.15 45.75 -76.7 47.6 -66.85 49.5 -62.25 54.1 -57.7 58.65 -57.7 65.5 -57.7 71.25 -60.95 75.65 -64.35 80.2 -69.95 82.8 -73.4 84.35 -80.55 85.15 L-93.05 86.2 -141.4 86.2 -141.4 13.7 -88.95 13.7 Q-75.85 13.7 -68.9 18.95 -61.95 24.1 -61.9 31.7 M-91.85 30.2 Q-94.45 28.4 -100.75 28.4 L-113.15 28.4 -113.15 42.1 -101.0 42.1 Q-94.55 42.1 -91.85 40.3 -89.3 38.55 -89.3 35.1 -89.3 32.0 -91.85 30.2 M-113.15 55.9 L-113.15 70.6 -98.9 70.6 Q-91.75 70.6 -88.7 68.55 -85.75 66.45 -85.7 63.0 -85.75 59.75 -88.7 57.85 -91.5 55.9 -98.95 55.9 L-113.15 55.9" fill="#a000a0" fill-rule="evenodd" stroke="none"/>
  </g>
</svg>
