<?xml version="1.0" encoding="UTF-8" standalone="no"?>
<svg xmlns:ffdec="https://www.free-decompiler.com/flash" xmlns:xlink="http://www.w3.org/1999/xlink" ffdec:objectType="shape" height="200.0px" width="600.0px" xmlns="http://www.w3.org/2000/svg">
  <g transform="matrix(1.0, 0.0, 0.0, 1.0, 400.0, -100.0)">
    <path d="M67.05 127.75 Q63.1 129.35 63.15 131.75 63.1 133.5 66.35 134.85 69.6 136.35 81.4 137.5 110.3 140.6 123.45 143.9 136.3 147.2 141.95 152.0 147.75 156.75 147.75 162.7 147.75 169.65 140.05 175.55 132.35 181.35 118.45 184.45 104.8 187.45 83.6 187.5 46.75 187.45 32.4 180.4 18.15 173.2 16.25 162.25 L58.85 161.0 Q60.3 166.2 64.55 168.85 71.4 173.3 84.3 173.3 93.75 173.25 99.05 171.05 104.25 168.7 104.25 165.75 104.25 163.0 99.35 160.8 94.4 158.6 76.35 156.55 47.0 153.3 34.4 147.8 21.7 142.3 21.75 133.8 21.7 128.15 28.2 123.25 34.55 118.3 47.65 115.45 60.8 112.55 83.3 112.55 111.0 112.55 125.6 117.75 140.25 122.9 143.0 134.15 L100.8 135.4 Q99.1 130.55 93.7 128.3 88.2 126.05 78.85 126.05 71.05 126.05 67.05 127.75 M80.5 229.35 L80.5 213.7 -2.65 213.7 -2.65 286.3 31.1 286.3 31.1 256.7 73.3 256.7 73.3 242.0 31.1 242.0 31.1 229.35 80.5 229.35 M117.6 286.3 L117.6 266.15 85.4 266.15 85.4 286.3 117.6 286.3 M200.0 200.0 L200.0 300.0 -400.0 300.0 -400.0 200.0 -200.0 200.0 200.0 200.0 M-147.7 113.85 L-100.85 113.85 -68.25 166.0 -36.1 113.85 9.35 113.85 -44.4 186.3 -92.9 186.3 -147.7 113.85 M-55.25 266.15 L-55.25 286.3 -23.05 286.3 -23.05 266.15 -55.25 266.15 M-60.2 229.35 L-60.2 213.7 -143.35 213.7 -143.35 286.3 -109.6 286.3 -109.6 256.7 -67.35 256.7 -67.35 242.0 -109.6 242.0 -109.6 229.35 -60.2 229.35 M-163.7 286.3 L-163.7 266.15 -195.95 266.15 -195.95 286.3 -163.7 286.3 M-212.85 235.1 Q-218.45 223.7 -230.25 218.05 -242.05 212.5 -262.65 212.55 L-279.75 213.7 -285.75 214.9 Q-296.05 217.3 -303.3 222.25 -317.65 231.85 -317.65 249.9 -317.65 263.2 -309.45 271.95 -301.3 280.5 -290.05 284.05 L-285.75 285.2 -279.75 286.3 -261.0 287.5 Q-246.7 287.5 -236.95 284.7 -227.6 281.85 -221.05 276.3 -214.75 270.75 -211.7 262.55 L-241.25 256.6 Q-243.45 263.35 -248.35 267.05 -253.3 270.7 -262.95 270.7 -272.95 270.7 -278.35 266.2 L-279.75 264.85 Q-283.85 260.15 -283.85 249.75 -283.85 240.45 -279.75 235.9 L-279.3 235.45 Q-273.2 229.35 -261.75 229.35 -256.7 229.3 -252.6 230.75 -248.4 232.1 -245.65 234.65 -244.05 236.05 -242.45 239.45 L-212.85 235.1" fill="#ffffff" fill-rule="evenodd" stroke="none"/>
    <path d="M67.05 127.75 Q71.05 126.05 78.85 126.05 88.2 126.05 93.7 128.3 99.1 130.55 100.8 135.4 L143.0 134.15 Q140.25 122.9 125.6 117.75 111.0 112.55 83.3 112.55 60.8 112.55 47.65 115.45 34.55 118.3 28.2 123.25 21.7 128.15 21.75 133.8 21.7 142.3 34.4 147.8 47.0 153.3 76.35 156.55 94.4 158.6 99.35 160.8 104.25 163.0 104.25 165.75 104.25 168.7 99.05 171.05 93.75 173.25 84.3 173.3 71.4 173.3 64.55 168.85 60.3 166.2 58.85 161.0 L16.25 162.25 Q18.15 173.2 32.4 180.4 46.75 187.45 83.6 187.5 104.8 187.45 118.45 184.45 132.35 181.35 140.05 175.55 147.75 169.65 147.75 162.7 147.75 156.75 141.95 152.0 136.3 147.2 123.45 143.9 110.3 140.6 81.4 137.5 69.6 136.35 66.35 134.85 63.1 133.5 63.15 131.75 63.1 129.35 67.05 127.75 M-200.0 200.0 L-200.0 100.0 200.0 100.0 200.0 200.0 -200.0 200.0 M-147.7 113.85 L-92.9 186.3 -44.4 186.3 9.35 113.85 -36.1 113.85 -68.25 166.0 -100.85 113.85 -147.7 113.85" fill="#ff0000" fill-rule="evenodd" stroke="none"/>
    <path d="M117.6 286.3 L85.4 286.3 85.4 266.15 117.6 266.15 117.6 286.3 M80.5 229.35 L31.1 229.35 31.1 242.0 73.3 242.0 73.3 256.7 31.1 256.7 31.1 286.3 -2.65 286.3 -2.65 213.7 80.5 213.7 80.5 229.35 M-212.85 235.1 L-242.45 239.45 Q-244.05 236.05 -245.65 234.65 -248.4 232.1 -252.6 230.75 -256.7 229.3 -261.75 229.35 -273.2 229.35 -279.3 235.45 L-279.75 235.9 Q-283.85 240.45 -283.85 249.75 -283.85 260.15 -279.75 264.85 L-278.35 266.2 Q-272.95 270.7 -262.95 270.7 -253.3 270.7 -248.35 267.05 -243.45 263.35 -241.25 256.6 L-211.7 262.55 Q-214.75 270.75 -221.05 276.3 -227.6 281.85 -236.95 284.7 -246.7 287.5 -261.0 287.5 L-279.75 286.3 -285.75 285.2 -290.05 284.05 Q-301.3 280.5 -309.45 271.95 -317.65 263.2 -317.65 249.9 -317.65 231.85 -303.3 222.25 -296.05 217.3 -285.75 214.9 L-279.75 213.7 -262.65 212.55 Q-242.05 212.5 -230.25 218.05 -218.45 223.7 -212.85 235.1 M-163.7 286.3 L-195.95 286.3 -195.95 266.15 -163.7 266.15 -163.7 286.3 M-60.2 229.35 L-109.6 229.35 -109.6 242.0 -67.35 242.0 -67.35 256.7 -109.6 256.7 -109.6 286.3 -143.35 286.3 -143.35 213.7 -60.2 213.7 -60.2 229.35 M-55.25 266.15 L-23.05 266.15 -23.05 286.3 -55.25 286.3 -55.25 266.15" fill="#ff5100" fill-rule="evenodd" stroke="none"/>
  </g>
</svg>
