<?xml version="1.0" encoding="UTF-8" standalone="no"?>
<svg xmlns:ffdec="https://www.free-decompiler.com/flash" xmlns:xlink="http://www.w3.org/1999/xlink" ffdec:objectType="shape" height="100.0px" width="175.0px" xmlns="http://www.w3.org/2000/svg">
  <g transform="matrix(1.0, 0.0, 0.0, 1.0, 87.5, 50.0)">
    <path d="M-49.7 0.0 L-87.5 1.6 -87.5 -1.55 -49.7 0.0 M-87.5 42.2 L-87.5 35.6 -21.45 9.55 -87.5 42.2 M-87.5 17.5 L-87.5 11.95 -23.15 3.9 -87.5 17.5 M-0.9 50.0 L0.0 28.6 0.9 50.0 -0.9 50.0 M-33.6 50.0 L-37.5 50.0 -13.55 19.1 -33.6 50.0 M-7.6 50.0 L-9.3 50.0 -5.0 30.0 -7.6 50.0 M-17.85 50.0 L-20.55 50.0 -8.4 21.9 -17.85 50.0 M-67.1 50.0 L-75.3 50.0 -24.65 17.55 -67.1 50.0 M-47.45 50.0 L-52.45 50.0 -20.1 20.2 -47.45 50.0 M-73.25 -50.0 L-67.15 -50.0 -35.7 -25.6 -73.25 -50.0 M-52.85 -50.0 L-47.8 -50.0 -20.2 -20.1 -52.85 -50.0 M-23.65 -50.0 L-20.8 -50.0 -9.5 -21.35 -23.65 -50.0 M-9.55 -50.0 L-7.25 -50.0 -3.9 -23.1 -9.55 -50.0 M-36.45 -50.0 L-33.3 -50.0 -17.2 -24.8 -36.45 -50.0 M-87.5 -12.7 L-87.5 -17.65 -29.65 -5.1 -87.5 -12.7 M-87.5 -30.4 L-87.5 -36.65 -21.85 -8.3 -87.5 -30.4 M87.5 1.35 L55.45 0.0 87.5 -1.3 87.5 1.35 M52.8 50.0 L47.8 50.0 20.2 20.15 52.8 50.0 M75.2 50.0 L66.1 50.0 19.05 13.6 75.2 50.0 M9.5 50.0 L7.2 50.0 3.85 23.2 9.5 50.0 M36.85 50.0 L33.75 50.0 17.7 25.0 36.85 50.0 M23.55 50.0 L20.75 50.0 9.45 21.5 23.55 50.0 M87.5 30.55 L87.5 36.85 21.8 8.45 87.5 30.55 M87.5 12.8 L87.5 17.75 30.15 5.3 87.5 12.8 M87.5 -17.4 L87.5 -11.9 23.15 -3.85 87.5 -17.4 M87.5 -42.05 L87.5 -35.5 21.4 -9.45 87.5 -42.05 M0.9 -50.0 L0.0 -28.55 -0.9 -50.0 0.9 -50.0 M33.6 -50.0 L37.5 -50.0 13.55 -19.05 33.6 -50.0 M8.1 -50.0 L9.8 -50.0 5.45 -29.8 8.1 -50.0 M17.85 -50.0 L20.55 -50.0 8.35 -21.75 17.85 -50.0 M67.8 -50.0 L76.05 -50.0 25.15 -17.4 67.8 -50.0 M47.45 -50.0 L52.35 -50.0 20.1 -20.2 47.45 -50.0" fill="#a6693a" fill-rule="evenodd" stroke="none"/>
  </g>
</svg>
