<?xml version="1.0" encoding="UTF-8" standalone="no"?>
<svg xmlns:ffdec="https://www.free-decompiler.com/flash" xmlns:xlink="http://www.w3.org/1999/xlink" ffdec:objectType="shape" height="71.35px" width="259.0px" xmlns="http://www.w3.org/2000/svg">
  <g transform="matrix(1.0, 0.0, 0.0, 1.0, 129.5, 35.65)">
    <path d="M23.3 -34.5 L129.5 -34.5 127.05 11.1 128.05 11.1 128.05 34.45 23.3 34.45 23.3 31.75 Q17.8 35.7 8.25 35.7 1.55 35.7 -3.15 33.7 -3.4 33.55 -3.6 33.5 L-3.45 34.45 -89.15 34.45 -89.15 29.75 -92.0 31.95 Q-97.85 35.7 -105.85 35.7 -119.15 35.7 -124.7 28.3 -129.5 21.9 -129.5 8.3 L-129.5 -8.35 Q-129.5 -18.3 -127.65 -23.15 -125.0 -30.05 -117.2 -33.5 -112.25 -35.65 -106.25 -35.65 -94.95 -35.65 -89.15 -30.15 L-89.15 -34.5 -72.65 -34.5 -61.15 -34.0 Q-55.55 -33.35 -52.1 -31.4 -48.65 -29.5 -46.7 -25.8 L-45.55 -34.5 -13.7 -34.5 -12.45 -26.2 Q-7.5 -35.65 6.95 -35.65 17.85 -35.65 23.3 -30.95 L23.3 -34.5 M-26.7 8.15 L-31.75 8.15 Q-31.1 -0.35 -28.95 -15.8 L-26.7 8.15 M-18.85 -28.5 L-40.3 -28.5 -47.8 28.45 -32.45 28.45 -31.65 18.25 -26.3 18.25 -25.5 28.45 -10.4 28.45 -18.85 -28.5 M-58.25 -1.3 Q-53.4 -1.75 -51.75 -4.0 -50.1 -6.35 -50.1 -12.95 -50.1 -20.2 -52.45 -23.55 -54.8 -26.9 -58.5 -27.7 L-72.65 -28.5 -83.15 -28.5 -83.15 28.45 -68.3 28.45 -68.3 2.75 Q-65.35 2.75 -64.55 3.85 -63.85 5.0 -63.85 9.5 L-63.85 28.45 -50.1 28.45 -50.1 13.45 Q-50.1 6.45 -50.45 5.0 -50.85 3.45 -52.35 1.65 -53.8 -0.15 -58.25 -1.3 M-68.3 -18.75 Q-65.7 -18.75 -64.8 -17.9 -63.85 -17.1 -63.85 -14.35 L-63.85 -11.25 Q-63.85 -7.5 -64.85 -6.8 -65.75 -6.1 -68.3 -6.1 L-68.3 -18.75 M-123.1 -17.6 Q-123.5 -14.85 -123.5 -8.35 L-123.5 8.3 Q-123.5 16.65 -122.15 20.8 -120.85 24.9 -116.55 27.35 -112.3 29.7 -105.85 29.7 -99.6 29.7 -95.3 26.9 -91.0 24.1 -89.8 20.4 -88.55 16.8 -88.55 7.85 L-88.55 5.65 -103.35 5.65 -103.35 12.8 Q-103.35 17.4 -103.85 18.75 -104.4 20.05 -106.0 20.05 -107.75 20.05 -108.2 18.8 -108.7 17.6 -108.7 13.35 L-108.7 -13.05 Q-108.7 -17.4 -108.2 -18.7 -107.75 -20.0 -105.9 -20.0 -104.3 -20.0 -103.85 -18.9 -103.35 -17.9 -103.35 -13.55 L-103.35 -3.65 -88.55 -3.65 -88.55 -9.05 Q-88.55 -17.0 -89.85 -20.8 -91.2 -24.55 -95.45 -27.1 -99.7 -29.65 -106.25 -29.65 -111.05 -29.65 -114.8 -28.0 -118.5 -26.35 -120.6 -23.5 -122.65 -20.75 -123.1 -17.6 M102.65 17.1 L89.35 17.1 89.35 28.45 102.65 28.45 102.65 17.1 M83.3 28.45 L83.3 17.1 69.95 17.1 69.95 28.45 83.3 28.45 M122.05 28.45 L122.05 17.1 108.7 17.1 108.7 28.45 122.05 28.45 M84.45 -28.5 L68.8 -28.5 71.15 14.45 82.1 14.45 84.45 -28.5 M123.2 -28.5 L107.55 -28.5 109.9 14.45 120.85 14.45 123.2 -28.5 M103.8 -28.5 L88.2 -28.5 90.5 14.45 101.5 14.45 103.8 -28.5 M48.45 -8.1 L44.15 -8.1 44.15 -28.5 29.3 -28.5 29.3 28.45 44.15 28.45 44.15 4.55 48.45 4.55 48.45 28.45 63.3 28.45 63.3 -28.5 48.45 -28.5 48.45 -8.1 M16.75 -27.75 Q12.65 -29.65 6.95 -29.65 1.75 -29.65 -2.05 -27.95 -5.8 -26.25 -7.45 -23.2 -9.1 -20.2 -9.1 -13.65 -9.1 -9.2 -7.95 -6.2 -6.75 -3.25 -5.0 -1.6 -3.35 -0.1 2.3 3.7 7.75 7.2 9.25 8.9 10.6 10.4 10.6 15.45 10.6 17.65 9.9 18.9 9.15 20.05 7.7 20.05 6.25 20.05 5.65 19.15 5.05 18.15 5.05 15.0 L5.05 8.1 -8.7 8.1 -8.7 11.8 Q-8.7 18.2 -7.4 21.7 -6.05 25.25 -1.9 27.45 2.3 29.7 8.25 29.7 13.65 29.7 17.75 27.75 21.85 25.75 23.25 22.9 24.65 20.1 24.65 13.95 24.65 5.55 22.1 1.8 19.6 -1.9 9.65 -7.85 6.2 -9.9 5.5 -11.35 4.7 -12.75 4.7 -15.6 4.7 -17.8 5.4 -18.9 6.05 -20.0 7.4 -20.0 8.6 -20.0 9.15 -19.2 9.7 -18.35 9.7 -15.4 L9.7 -11.2 23.45 -11.2 23.45 -13.45 Q23.45 -20.25 22.1 -23.1 20.8 -25.95 16.75 -27.75" fill="#ff0000" fill-rule="evenodd" stroke="none"/>
    <path d="M16.75 -27.75 Q20.8 -25.95 22.1 -23.1 23.45 -20.25 23.45 -13.45 L23.45 -11.2 9.7 -11.2 9.7 -15.4 Q9.7 -18.35 9.15 -19.2 8.6 -20.0 7.4 -20.0 6.05 -20.0 5.4 -18.9 4.7 -17.8 4.7 -15.6 4.7 -12.75 5.5 -11.35 6.2 -9.9 9.65 -7.85 19.6 -1.9 22.1 1.8 24.65 5.55 24.65 13.95 24.65 20.1 23.25 22.9 21.85 25.75 17.75 27.75 13.65 29.7 8.25 29.7 2.3 29.7 -1.9 27.45 -6.05 25.25 -7.4 21.7 -8.7 18.2 -8.7 11.8 L-8.7 8.1 5.05 8.1 5.05 15.0 Q5.05 18.15 5.65 19.15 6.25 20.05 7.7 20.05 9.15 20.05 9.9 18.9 10.6 17.65 10.6 15.45 10.6 10.4 9.25 8.9 7.75 7.2 2.3 3.7 -3.35 -0.1 -5.0 -1.6 -6.75 -3.25 -7.95 -6.2 -9.1 -9.2 -9.1 -13.65 -9.1 -20.2 -7.45 -23.2 -5.8 -26.25 -2.05 -27.95 1.75 -29.65 6.95 -29.65 12.65 -29.65 16.75 -27.75 M48.45 -8.1 L48.45 -28.5 63.3 -28.5 63.3 28.45 48.45 28.45 48.45 4.55 44.15 4.55 44.15 28.45 29.3 28.45 29.3 -28.5 44.15 -28.5 44.15 -8.1 48.45 -8.1 M103.8 -28.5 L101.5 14.45 90.5 14.45 88.2 -28.5 103.8 -28.5 M123.2 -28.5 L120.85 14.45 109.9 14.45 107.55 -28.5 123.2 -28.5 M84.45 -28.5 L82.1 14.45 71.15 14.45 68.8 -28.5 84.45 -28.5 M122.05 28.45 L108.7 28.45 108.7 17.1 122.05 17.1 122.05 28.45 M83.3 28.45 L69.95 28.45 69.95 17.1 83.3 17.1 83.3 28.45 M102.65 17.1 L102.65 28.45 89.35 28.45 89.35 17.1 102.65 17.1 M-123.1 -17.6 Q-122.65 -20.75 -120.6 -23.5 -118.5 -26.35 -114.8 -28.0 -111.05 -29.65 -106.25 -29.65 -99.7 -29.65 -95.45 -27.1 -91.2 -24.55 -89.85 -20.8 -88.55 -17.0 -88.55 -9.05 L-88.55 -3.65 -103.35 -3.65 -103.35 -13.55 Q-103.35 -17.9 -103.85 -18.9 -104.3 -20.0 -105.9 -20.0 -107.75 -20.0 -108.2 -18.7 -108.7 -17.4 -108.7 -13.05 L-108.7 13.35 Q-108.7 17.6 -108.2 18.8 -107.75 20.05 -106.0 20.05 -104.4 20.05 -103.85 18.75 -103.35 17.4 -103.35 12.8 L-103.35 5.65 -88.55 5.65 -88.55 7.85 Q-88.55 16.8 -89.8 20.4 -91.0 24.1 -95.3 26.9 -99.6 29.7 -105.85 29.7 -112.3 29.7 -116.55 27.35 -120.85 24.9 -122.15 20.8 -123.5 16.65 -123.5 8.3 L-123.5 -8.35 Q-123.5 -14.85 -123.1 -17.6 M-68.3 -18.75 L-68.3 -6.1 Q-65.75 -6.1 -64.85 -6.8 -63.85 -7.5 -63.85 -11.25 L-63.85 -14.35 Q-63.85 -17.1 -64.8 -17.9 -65.7 -18.75 -68.3 -18.75 M-58.25 -1.3 Q-53.8 -0.15 -52.35 1.65 -50.85 3.45 -50.45 5.0 -50.1 6.45 -50.1 13.45 L-50.1 28.45 -63.85 28.45 -63.85 9.5 Q-63.85 5.0 -64.55 3.85 -65.35 2.75 -68.3 2.75 L-68.3 28.45 -83.15 28.45 -83.15 -28.5 -72.65 -28.5 -58.5 -27.7 Q-54.8 -26.9 -52.45 -23.55 -50.1 -20.2 -50.1 -12.95 -50.1 -6.35 -51.75 -4.0 -53.4 -1.75 -58.25 -1.3 M-18.85 -28.5 L-10.4 28.45 -25.5 28.45 -26.3 18.25 -31.65 18.25 -32.45 28.45 -47.8 28.45 -40.3 -28.5 -18.85 -28.5 M-26.7 8.15 L-28.95 -15.8 Q-31.1 -0.35 -31.75 8.15 L-26.7 8.15" fill="#ffd900" fill-rule="evenodd" stroke="none"/>
  </g>
</svg>
