<?xml version="1.0" encoding="UTF-8" standalone="no"?>
<svg xmlns:ffdec="https://www.free-decompiler.com/flash" xmlns:xlink="http://www.w3.org/1999/xlink" ffdec:objectType="shape" height="400.0px" width="800.0px" xmlns="http://www.w3.org/2000/svg">
  <g transform="matrix(1.0, 0.0, 0.0, 1.0, 400.0, 400.0)">
    <path d="M-250.0 0.0 L149.95 -400.0 249.95 -400.0 -150.0 0.0 -250.0 0.0" fill="#ffffff" fill-rule="evenodd" stroke="none"/>
    <path d="M0.0 -400.0 L-96.1 -305.45 -400.0 0.0 -400.0 -400.0 0.0 -400.0 M399.95 -400.0 L400.0 0.0 0.0 0.0 399.95 -400.0" fill="#ff7f00" fill-rule="evenodd" stroke="none"/>
    <path d="M0.0 -400.0 L149.95 -400.0 -250.0 0.0 -400.0 0.0 -96.1 -305.45 0.0 -400.0" fill="url(#gradient0)" fill-rule="evenodd" stroke="none"/>
    <path d="M249.95 -400.0 L399.95 -400.0 0.0 0.0 -150.0 0.0 249.95 -400.0" fill="url(#gradient1)" fill-rule="evenodd" stroke="none"/>
  </g>
  <defs>
    <linearGradient gradientTransform="matrix(-0.0916, 0.0, -0.2441, 0.2441, -125.0, -200.0)" gradientUnits="userSpaceOnUse" id="gradient0" spreadMethod="pad" x1="-819.2" x2="819.2">
      <stop offset="0.0" stop-color="#ffffff"/>
      <stop offset="0.5254901960784314" stop-color="#ffff00"/>
      <stop offset="1.0" stop-color="#ff7f00"/>
    </linearGradient>
    <linearGradient gradientTransform="matrix(0.0916, 0.0, -0.2441, 0.2441, 125.0, -200.0)" gradientUnits="userSpaceOnUse" id="gradient1" spreadMethod="pad" x1="-819.2" x2="819.2">
      <stop offset="0.0" stop-color="#ffffff"/>
      <stop offset="0.5254901960784314" stop-color="#ffff00"/>
      <stop offset="1.0" stop-color="#ff7f00"/>
    </linearGradient>
  </defs>
</svg>
