<?xml version="1.0" encoding="UTF-8" standalone="no"?>
<svg xmlns:ffdec="https://www.free-decompiler.com/flash" xmlns:xlink="http://www.w3.org/1999/xlink" ffdec:objectType="shape" height="71.35px" width="443.0px" xmlns="http://www.w3.org/2000/svg">
  <g transform="matrix(1.0, 0.0, 0.0, 1.0, 221.5, 35.7)">
    <path d="M69.5 -17.15 L78.25 -17.15 78.25 -28.55 45.9 -28.55 45.9 -17.15 54.7 -17.15 54.7 28.4 69.5 28.4 69.5 -17.15 M75.5 -11.15 L75.5 34.4 -50.5 34.4 -50.5 31.6 Q-55.4 34.4 -67.15 34.4 L-141.85 34.4 -141.85 29.85 -143.45 31.1 Q-149.6 35.65 -158.45 35.65 -167.2 35.65 -173.4 31.15 -176.3 29.05 -178.1 26.3 -180.3 29.5 -184.0 31.9 -189.85 35.65 -197.8 35.65 -211.1 35.65 -216.7 28.25 -221.5 21.85 -221.5 8.25 L-221.5 -8.4 Q-221.5 -18.35 -219.65 -23.2 -217.0 -30.1 -209.2 -33.55 -204.15 -35.7 -198.25 -35.7 -185.35 -35.7 -179.6 -28.55 L-178.1 -26.3 Q-175.1 -31.05 -169.3 -33.6 -164.5 -35.7 -158.45 -35.7 -149.75 -35.7 -143.55 -31.2 L-141.85 -29.8 -141.85 -34.55 -69.55 -34.55 Q-56.9 -34.55 -51.3 -30.0 L-50.5 -29.3 -50.5 -34.55 102.5 -34.55 102.5 -29.95 Q104.9 -32.15 108.25 -33.6 113.1 -35.7 119.1 -35.7 127.85 -35.7 134.05 -31.2 134.9 -30.55 135.7 -29.85 L135.7 -34.55 221.5 -34.55 219.0 11.05 220.0 11.05 220.0 34.4 135.7 34.4 135.7 29.85 134.1 31.1 Q127.95 35.65 119.1 35.65 110.35 35.65 104.15 31.15 L102.5 29.85 102.5 34.4 75.7 34.4 75.7 -11.15 75.5 -11.15 M-65.45 3.6 Q-64.7 4.35 -64.7 8.05 L-64.7 13.4 Q-64.7 16.9 -65.55 17.7 -66.4 18.6 -69.45 18.7 L-69.45 2.7 Q-66.2 2.85 -65.45 3.6 M-29.65 -28.55 L-44.5 -28.55 -44.5 28.4 -29.65 28.4 -29.65 -28.55 M-50.95 -12.35 Q-50.95 -19.65 -53.15 -23.05 -55.3 -26.3 -58.95 -27.45 -62.7 -28.55 -69.55 -28.55 L-84.3 -28.55 -84.3 28.4 -67.15 28.4 Q-58.15 28.4 -55.35 27.4 -52.45 26.35 -51.2 23.6 -49.85 20.8 -49.85 15.05 L-49.85 9.75 Q-49.85 4.15 -51.7 1.5 -53.5 -1.2 -58.7 -2.35 -54.05 -3.4 -52.5 -5.4 -50.95 -7.3 -50.95 -12.35 M-69.45 -6.15 L-69.45 -18.8 -66.45 -18.5 Q-65.7 -18.2 -65.15 -17.15 -64.7 -16.05 -64.7 -13.4 -64.7 -8.3 -65.3 -7.25 -65.85 -6.15 -68.0 -6.15 L-69.45 -6.15 M-109.5 -28.55 L-112.85 -1.95 -116.75 -28.55 -135.85 -28.55 -135.85 28.4 -122.9 28.4 -122.9 -9.15 -117.45 28.4 -108.35 28.4 -103.2 -10.05 -103.2 28.4 -90.25 28.4 -90.25 -28.55 -109.5 -28.55 M-160.15 -19.15 Q-159.55 -20.05 -158.4 -20.05 -157.05 -20.05 -156.6 -18.95 -156.2 -17.75 -156.2 -13.85 L-156.2 12.3 Q-156.2 17.2 -156.6 18.65 -157.05 20.0 -158.5 20.0 -159.9 20.0 -160.35 18.85 -160.75 17.55 -160.75 12.7 L-160.75 -13.85 Q-160.75 -18.25 -160.15 -19.15 M-175.15 -17.05 Q-175.55 -13.85 -175.55 -4.9 L-175.55 4.85 Q-175.55 13.4 -175.15 17.15 -174.7 20.8 -172.5 23.65 -170.3 26.65 -166.65 28.15 -163.05 29.65 -158.45 29.65 -153.7 29.65 -150.05 28.05 -146.4 26.5 -144.3 23.55 -142.2 20.55 -141.75 17.0 -141.35 13.15 -141.35 4.85 L-141.35 -4.9 Q-141.35 -13.7 -141.8 -17.2 -142.15 -20.6 -144.4 -23.7 -146.65 -26.7 -150.25 -28.2 -153.9 -29.7 -158.45 -29.7 -163.25 -29.7 -166.9 -28.1 -170.5 -26.55 -172.65 -23.55 -174.75 -20.6 -175.15 -17.05 M-215.1 -17.65 Q-215.5 -14.35 -215.5 -8.4 L-215.5 8.25 Q-215.5 16.6 -214.15 20.75 -212.75 24.9 -208.55 27.3 -204.3 29.65 -197.8 29.65 -191.6 29.65 -187.3 26.85 -183.0 24.05 -181.75 20.35 -180.5 16.5 -180.5 7.8 L-180.5 5.6 -195.35 5.6 -195.35 12.75 Q-195.35 17.55 -195.85 18.75 -196.35 20.0 -198.0 20.0 -199.7 20.0 -200.2 18.75 -200.65 17.45 -200.65 13.3 L-200.65 -13.1 Q-200.65 -17.4 -200.2 -18.75 -199.65 -20.05 -197.9 -20.05 -196.3 -20.05 -195.8 -18.95 -195.35 -17.9 -195.35 -13.6 L-195.35 -3.7 -180.5 -3.7 -180.5 -9.1 Q-180.5 -17.1 -181.85 -20.85 -183.2 -24.6 -187.45 -27.15 -191.7 -29.7 -198.25 -29.7 -203.05 -29.7 -206.75 -28.05 -210.4 -26.45 -212.55 -23.55 -214.65 -20.7 -215.1 -17.65 M9.3 28.4 L9.3 -28.55 -3.1 -28.55 -3.1 -2.9 -11.4 -28.55 -23.75 -28.55 -23.75 28.4 -11.4 28.4 -11.4 2.55 -3.65 28.4 9.3 28.4 M32.85 8.1 L27.8 8.1 Q28.35 1.1 30.6 -15.85 L32.85 8.1 M181.3 28.4 L194.65 28.4 194.65 17.05 181.3 17.05 181.3 28.4 M214.0 28.4 L214.0 17.05 200.7 17.05 200.7 28.4 214.0 28.4 M215.15 -28.55 L199.55 -28.55 201.85 14.4 212.85 14.4 215.15 -28.55 M195.8 -28.55 L180.15 -28.55 182.5 14.4 193.45 14.4 195.8 -28.55 M154.05 -28.55 L141.7 -28.55 141.7 28.4 154.05 28.4 154.05 2.55 161.75 28.4 174.75 28.4 174.75 -28.55 162.35 -28.55 162.35 -2.9 154.05 -28.55 M120.95 -18.95 Q121.35 -17.75 121.35 -13.85 L121.35 12.3 Q121.35 17.2 120.95 18.65 120.5 20.0 119.05 20.0 117.65 20.0 117.2 18.85 116.8 17.55 116.8 12.7 L116.8 -13.85 Q116.8 -18.3 117.45 -19.15 118.05 -20.05 119.15 -20.05 120.5 -20.05 120.95 -18.95 M96.5 -28.55 L81.7 -28.55 81.7 28.4 96.5 28.4 96.5 -28.55 M119.1 -29.7 Q114.4 -29.7 110.65 -28.1 107.05 -26.55 104.9 -23.55 102.8 -20.6 102.4 -17.05 102.0 -13.2 102.0 -4.9 L102.0 4.85 Q102.0 13.4 102.4 17.15 102.85 20.8 105.05 23.65 107.25 26.65 110.9 28.15 114.5 29.65 119.1 29.65 123.85 29.65 127.5 28.05 131.15 26.5 133.25 23.55 135.35 20.65 135.8 17.0 136.2 13.15 136.2 4.85 L136.2 -4.9 Q136.2 -13.7 135.75 -17.2 135.4 -20.6 133.15 -23.7 130.9 -26.7 127.3 -28.2 123.65 -29.7 119.1 -29.7 M40.7 -28.55 L19.25 -28.55 11.75 28.4 27.1 28.4 27.9 18.2 33.25 18.2 34.05 28.4 49.15 28.4 40.7 -28.55" fill="#ff3f00" fill-rule="evenodd" stroke="none"/>
    <path d="M69.5 -17.15 L69.5 28.4 54.7 28.4 54.7 -17.15 45.9 -17.15 45.9 -28.55 78.25 -28.55 78.25 -17.15 69.5 -17.15 M40.7 -28.55 L49.15 28.4 34.05 28.4 33.25 18.2 27.9 18.2 27.1 28.4 11.75 28.4 19.25 -28.55 40.7 -28.55 M119.1 -29.7 Q123.65 -29.7 127.3 -28.2 130.9 -26.7 133.15 -23.7 135.4 -20.6 135.75 -17.2 136.2 -13.7 136.2 -4.9 L136.2 4.85 Q136.2 13.15 135.8 17.0 135.35 20.65 133.25 23.55 131.15 26.5 127.5 28.05 123.85 29.65 119.1 29.65 114.5 29.65 110.9 28.15 107.25 26.65 105.05 23.65 102.85 20.8 102.4 17.15 102.0 13.4 102.0 4.85 L102.0 -4.9 Q102.0 -13.2 102.4 -17.05 102.8 -20.6 104.9 -23.55 107.05 -26.55 110.65 -28.1 114.4 -29.7 119.1 -29.7 M96.5 -28.55 L96.5 28.4 81.7 28.4 81.7 -28.55 96.5 -28.55 M120.95 -18.95 Q120.5 -20.05 119.15 -20.05 118.05 -20.05 117.45 -19.15 116.8 -18.3 116.8 -13.85 L116.8 12.7 Q116.8 17.55 117.2 18.85 117.65 20.0 119.05 20.0 120.5 20.0 120.95 18.65 121.35 17.2 121.35 12.3 L121.35 -13.85 Q121.35 -17.75 120.95 -18.95 M154.05 -28.55 L162.35 -2.9 162.35 -28.55 174.75 -28.55 174.75 28.4 161.75 28.4 154.05 2.55 154.05 28.4 141.7 28.4 141.7 -28.55 154.05 -28.55 M195.8 -28.55 L193.45 14.4 182.5 14.4 180.15 -28.55 195.8 -28.55 M215.15 -28.55 L212.85 14.4 201.85 14.4 199.55 -28.55 215.15 -28.55 M214.0 28.4 L200.7 28.4 200.7 17.05 214.0 17.05 214.0 28.4 M181.3 28.4 L181.3 17.05 194.65 17.05 194.65 28.4 181.3 28.4 M32.85 8.1 L30.6 -15.85 Q28.35 1.1 27.8 8.1 L32.85 8.1 M9.3 28.4 L-3.65 28.4 -11.4 2.55 -11.4 28.4 -23.75 28.4 -23.75 -28.55 -11.4 -28.55 -3.1 -2.9 -3.1 -28.55 9.3 -28.55 9.3 28.4 M-215.1 -17.65 Q-214.65 -20.7 -212.55 -23.55 -210.4 -26.45 -206.75 -28.05 -203.05 -29.7 -198.25 -29.7 -191.7 -29.7 -187.45 -27.15 -183.2 -24.6 -181.85 -20.85 -180.5 -17.1 -180.5 -9.1 L-180.5 -3.7 -195.35 -3.7 -195.35 -13.6 Q-195.35 -17.9 -195.8 -18.95 -196.3 -20.05 -197.9 -20.05 -199.65 -20.05 -200.2 -18.75 -200.65 -17.4 -200.65 -13.1 L-200.65 13.3 Q-200.65 17.45 -200.2 18.75 -199.7 20.0 -198.0 20.0 -196.35 20.0 -195.85 18.75 -195.35 17.55 -195.35 12.75 L-195.35 5.6 -180.5 5.6 -180.5 7.8 Q-180.5 16.5 -181.75 20.35 -183.0 24.05 -187.3 26.85 -191.6 29.65 -197.8 29.65 -204.3 29.65 -208.55 27.3 -212.75 24.9 -214.15 20.75 -215.5 16.6 -215.5 8.25 L-215.5 -8.4 Q-215.5 -14.35 -215.1 -17.65 M-175.15 -17.05 Q-174.75 -20.6 -172.65 -23.55 -170.5 -26.55 -166.9 -28.1 -163.25 -29.7 -158.45 -29.7 -153.9 -29.7 -150.25 -28.2 -146.65 -26.7 -144.4 -23.7 -142.15 -20.6 -141.8 -17.2 -141.35 -13.7 -141.35 -4.9 L-141.35 4.85 Q-141.35 13.15 -141.75 17.0 -142.2 20.55 -144.3 23.55 -146.4 26.5 -150.05 28.05 -153.7 29.65 -158.45 29.65 -163.05 29.65 -166.65 28.15 -170.3 26.65 -172.5 23.65 -174.7 20.8 -175.15 17.15 -175.55 13.4 -175.55 4.85 L-175.55 -4.9 Q-175.55 -13.85 -175.15 -17.05 M-160.15 -19.15 Q-160.75 -18.25 -160.75 -13.85 L-160.75 12.7 Q-160.75 17.55 -160.35 18.85 -159.9 20.0 -158.5 20.0 -157.05 20.0 -156.6 18.65 -156.2 17.2 -156.2 12.3 L-156.2 -13.85 Q-156.2 -17.75 -156.6 -18.95 -157.05 -20.05 -158.4 -20.05 -159.55 -20.05 -160.15 -19.15 M-109.5 -28.55 L-90.25 -28.55 -90.25 28.4 -103.2 28.4 -103.2 -10.05 -108.35 28.4 -117.45 28.4 -122.9 -9.15 -122.9 28.4 -135.85 28.4 -135.85 -28.55 -116.75 -28.55 -112.85 -1.95 -109.5 -28.55 M-69.45 -6.15 L-68.0 -6.15 Q-65.85 -6.15 -65.3 -7.25 -64.7 -8.3 -64.7 -13.4 -64.7 -16.05 -65.15 -17.15 -65.7 -18.2 -66.45 -18.5 L-69.45 -18.8 -69.45 -6.15 M-50.95 -12.35 Q-50.95 -7.3 -52.5 -5.4 -54.05 -3.4 -58.7 -2.35 -53.5 -1.2 -51.7 1.5 -49.85 4.15 -49.85 9.75 L-49.85 15.05 Q-49.85 20.8 -51.2 23.6 -52.45 26.35 -55.35 27.4 -58.15 28.4 -67.15 28.4 L-84.3 28.4 -84.3 -28.55 -69.55 -28.55 Q-62.7 -28.55 -58.95 -27.45 -55.3 -26.3 -53.15 -23.05 -50.95 -19.65 -50.95 -12.35 M-29.65 -28.55 L-29.65 28.4 -44.5 28.4 -44.5 -28.55 -29.65 -28.55 M-65.45 3.6 Q-66.2 2.85 -69.45 2.7 L-69.45 18.7 Q-66.4 18.6 -65.55 17.7 -64.7 16.9 -64.7 13.4 L-64.7 8.05 Q-64.7 4.35 -65.45 3.6" fill="#ffff00" fill-rule="evenodd" stroke="none"/>
  </g>
</svg>
