<?xml version="1.0" encoding="UTF-8" standalone="no"?>
<svg xmlns:ffdec="https://www.free-decompiler.com/flash" xmlns:xlink="http://www.w3.org/1999/xlink" ffdec:objectType="shape" height="400.0px" width="800.0px" xmlns="http://www.w3.org/2000/svg">
  <g transform="matrix(1.0, 0.0, 0.0, 1.0, 400.0, 400.0)">
    <path d="M139.85 -151.6 Q143.65 -144.95 143.65 -135.7 L143.65 -122.05 Q142.3 -116.6 138.2 -112.5 134.1 -108.4 130.0 -112.5 114.95 -128.9 102.65 -154.85 106.75 -169.9 109.5 -200.0 110.85 -220.5 104.0 -225.95 93.05 -230.05 83.5 -232.8 83.5 -228.7 87.6 -221.85 L87.6 -209.55 Q87.6 -194.5 84.85 -182.2 78.05 -198.6 75.3 -213.65 71.2 -225.95 68.45 -251.95 80.75 -256.05 93.05 -269.7 95.8 -272.45 93.05 -276.55 91.7 -279.3 86.25 -280.65 76.65 -283.4 67.1 -283.4 67.1 -292.95 68.45 -308.0 68.45 -325.75 46.6 -336.7 L37.0 -336.7 Q24.7 -329.85 20.6 -329.85 24.7 -325.75 32.9 -316.2 L32.9 -313.45 41.1 -276.55 Q38.4 -275.2 34.3 -272.45 17.85 -268.35 9.65 -266.95 L-27.25 -266.95 Q-25.9 -264.25 -4.0 -250.55 11.05 -245.1 43.85 -249.2 43.85 -241.0 45.2 -232.8 43.85 -232.8 38.4 -234.15 L26.1 -236.9 Q1.45 -227.3 -16.3 -227.3 -14.95 -234.15 -21.75 -242.35 -30.0 -250.55 -35.45 -249.2 -42.3 -250.55 -51.85 -253.3 L-61.4 -256.05 Q-58.7 -250.55 -53.2 -245.1 -42.3 -232.8 -42.3 -224.6 -42.3 -171.25 -57.3 -143.95 -73.75 -119.3 -94.25 -108.4 L-96.95 -109.75 Q-95.6 -120.7 -88.75 -143.95 -80.55 -171.25 -77.85 -191.8 -79.2 -193.15 -81.95 -190.4 -98.35 -157.6 -118.85 -127.5 -128.4 -117.95 -128.4 -127.5 L-129.8 -145.3 Q-127.05 -172.65 -120.2 -184.95 -113.4 -195.9 -105.15 -201.35 -102.45 -202.7 -102.45 -213.65 -102.45 -227.3 -109.25 -231.45 -117.5 -236.9 -131.15 -235.55 -139.35 -235.55 -146.2 -234.15 -153.0 -234.15 -154.4 -232.8 -155.75 -232.8 -154.4 -230.05 -138.0 -217.75 -133.9 -212.3 -131.15 -208.2 -131.15 -204.1 -138.0 -171.25 -144.8 -128.9 -146.2 -108.4 -140.7 -98.8 -133.9 -87.85 -122.95 -81.05 -118.85 -78.3 -112.0 -85.15 -103.8 -93.35 -96.95 -105.65 -95.6 -107.0 -81.95 -107.0 L-71.0 -108.4 Q-61.4 -113.85 -51.85 -126.15 L-46.4 -126.15 Q-35.45 -120.7 -30.0 -122.05 -12.2 -126.15 15.15 -149.4 23.35 -143.95 39.75 -131.6 43.85 -127.5 54.8 -127.5 L42.5 -117.95 Q27.45 -111.1 13.75 -104.3 12.4 -100.2 13.75 -100.2 20.6 -100.2 30.2 -102.9 42.5 -107.0 64.35 -119.3 78.05 -127.5 84.85 -134.35 119.05 -76.95 149.1 -66.0 155.95 -63.25 157.35 -72.85 158.7 -86.5 158.7 -98.8 158.7 -116.6 154.6 -127.5 150.5 -139.8 140.9 -152.15 L139.55 -152.15 139.85 -151.6 M95.8 -317.55 Q93.05 -314.8 97.15 -308.0 L102.65 -297.05 Q110.85 -291.6 139.55 -288.85 145.0 -295.7 142.3 -301.15 130.0 -321.65 114.95 -321.65 99.9 -321.65 95.8 -317.55 M28.8 -197.25 Q30.2 -195.9 24.7 -193.15 L24.7 -198.6 Q27.45 -198.6 28.8 -197.25 M57.5 -189.05 Q63.0 -171.25 73.95 -152.15 67.1 -141.2 58.9 -133.0 L56.15 -141.2 Q50.7 -148.05 42.5 -153.5 34.3 -158.95 22.0 -168.55 22.0 -171.25 23.35 -172.65 43.85 -178.1 57.5 -189.05 M47.95 -219.1 Q53.4 -206.8 53.4 -198.6 L23.35 -204.1 Q-1.25 -213.65 -5.35 -213.65 2.85 -201.35 2.85 -195.9 1.45 -187.7 0.1 -171.25 -4.0 -175.35 -4.0 -178.1 -1.25 -183.55 -2.65 -186.3 -4.0 -187.7 -10.85 -184.95 -13.55 -183.55 -19.05 -189.05 -14.95 -198.6 -16.3 -223.2 -13.55 -223.2 -8.1 -219.1 4.2 -212.3 13.75 -212.3 28.8 -213.65 47.95 -219.1 M400.0 0.0 L-400.0 0.0 -400.0 -400.0 400.0 -400.0 400.0 0.0 M-2.65 -163.05 Q-4.0 -158.95 -5.35 -156.25 -23.15 -130.25 -39.55 -130.25 -45.0 -130.25 -47.75 -131.6 -38.2 -141.2 -31.35 -156.25 -28.6 -164.45 -24.5 -172.65 -23.15 -164.45 -2.65 -163.05 M-109.25 -294.3 Q-102.45 -287.5 -101.05 -283.4 -110.65 -266.95 -136.6 -251.95 -148.9 -243.75 -135.25 -250.55 L-64.15 -271.05 -53.2 -275.2 Q-47.75 -277.9 -53.2 -284.75 -65.5 -299.8 -87.4 -301.15 -112.0 -299.8 -109.25 -294.3" fill="url(#gradient0)" fill-rule="evenodd" stroke="none"/>
    <path d="M95.8 -317.55 Q99.9 -321.65 114.95 -321.65 130.0 -321.65 142.3 -301.15 145.0 -295.7 139.55 -288.85 110.85 -291.6 102.65 -297.05 L97.15 -308.0 Q93.05 -314.8 95.8 -317.55 M140.9 -152.15 Q150.5 -139.8 154.6 -127.5 158.7 -116.6 158.7 -98.8 158.7 -86.5 157.35 -72.85 155.95 -63.25 149.1 -66.0 119.05 -76.95 84.85 -134.35 78.05 -127.5 64.35 -119.3 42.5 -107.0 30.2 -102.9 20.6 -100.2 13.75 -100.2 12.4 -100.2 13.75 -104.3 27.45 -111.1 42.5 -117.95 L54.8 -127.5 Q43.85 -127.5 39.75 -131.6 23.35 -143.95 15.15 -149.4 -12.2 -126.15 -30.0 -122.05 -35.45 -120.7 -46.4 -126.15 L-51.85 -126.15 Q-61.4 -113.85 -71.0 -108.4 L-81.95 -107.0 Q-95.6 -107.0 -96.95 -105.65 -103.8 -93.35 -112.0 -85.15 -118.85 -78.3 -122.95 -81.05 -133.9 -87.85 -140.7 -98.8 -146.2 -108.4 -144.8 -128.9 -138.0 -171.25 -131.15 -204.1 -131.15 -208.2 -133.9 -212.3 -138.0 -217.75 -154.4 -230.05 -155.75 -232.8 -154.4 -232.8 -153.0 -234.15 -146.2 -234.15 -139.35 -235.55 -131.15 -235.55 -117.5 -236.9 -109.25 -231.45 -102.45 -227.3 -102.45 -213.65 -102.45 -202.7 -105.15 -201.35 -113.4 -195.9 -120.2 -184.95 -127.05 -172.65 -129.8 -145.3 L-128.4 -127.5 Q-128.4 -117.95 -118.85 -127.5 -98.35 -157.6 -81.95 -190.4 -79.2 -193.15 -77.85 -191.8 -80.55 -171.25 -88.75 -143.95 -95.6 -120.7 -96.95 -109.75 L-94.25 -108.4 Q-73.75 -119.3 -57.3 -143.95 -42.3 -171.25 -42.3 -224.6 -42.3 -232.8 -53.2 -245.1 -58.7 -250.55 -61.4 -256.05 L-51.85 -253.3 Q-42.3 -250.55 -35.45 -249.2 -30.0 -250.55 -21.75 -242.35 -14.95 -234.15 -16.3 -227.3 1.45 -227.3 26.1 -236.9 L38.4 -234.15 Q43.85 -232.8 45.2 -232.8 43.85 -241.0 43.85 -249.2 11.05 -245.1 -4.0 -250.55 -25.9 -264.25 -27.25 -266.95 L9.65 -266.95 Q17.85 -268.35 34.3 -272.45 38.4 -275.2 41.1 -276.55 L32.9 -313.45 32.9 -316.2 Q24.7 -325.75 20.6 -329.85 24.7 -329.85 37.0 -336.7 L46.6 -336.7 Q68.45 -325.75 68.45 -308.0 67.1 -292.95 67.1 -283.4 76.65 -283.4 86.25 -280.65 91.7 -279.3 93.05 -276.55 95.8 -272.45 93.05 -269.7 80.75 -256.05 68.45 -251.95 71.2 -225.95 75.3 -213.65 78.05 -198.6 84.85 -182.2 87.6 -194.5 87.6 -209.55 L87.6 -221.85 Q83.5 -228.7 83.5 -232.8 93.05 -230.05 104.0 -225.95 110.85 -220.5 109.5 -200.0 106.75 -169.9 102.65 -154.85 114.95 -128.9 130.0 -112.5 134.1 -108.4 138.2 -112.5 142.3 -116.6 143.65 -122.05 L143.65 -135.7 Q143.65 -144.95 139.85 -151.6 L140.9 -152.15 M47.95 -219.1 Q28.8 -213.65 13.75 -212.3 4.2 -212.3 -8.1 -219.1 -13.55 -223.2 -16.3 -223.2 -14.95 -198.6 -19.05 -189.05 -13.55 -183.55 -10.85 -184.95 -4.0 -187.7 -2.65 -186.3 -1.25 -183.55 -4.0 -178.1 -4.0 -175.35 0.1 -171.25 1.45 -187.7 2.85 -195.9 2.85 -201.35 -5.35 -213.65 -1.25 -213.65 23.35 -204.1 L53.4 -198.6 Q53.4 -206.8 47.95 -219.1 M57.5 -189.05 Q43.85 -178.1 23.35 -172.65 22.0 -171.25 22.0 -168.55 34.3 -158.95 42.5 -153.5 50.7 -148.05 56.15 -141.2 L58.9 -133.0 Q67.1 -141.2 73.95 -152.15 63.0 -171.25 57.5 -189.05 M28.8 -197.25 Q27.45 -198.6 24.7 -198.6 L24.7 -193.15 Q30.2 -195.9 28.8 -197.25 M-109.25 -294.3 Q-112.0 -299.8 -87.4 -301.15 -65.5 -299.8 -53.2 -284.75 -47.75 -277.9 -53.2 -275.2 L-64.15 -271.05 -135.25 -250.55 Q-148.9 -243.75 -136.6 -251.95 -110.65 -266.95 -101.05 -283.4 -102.45 -287.5 -109.25 -294.3 M-2.65 -163.05 Q-23.15 -164.45 -24.5 -172.65 -28.6 -164.45 -31.35 -156.25 -38.2 -141.2 -47.75 -131.6 -45.0 -130.25 -39.55 -130.25 -23.15 -130.25 -5.35 -156.25 -4.0 -158.95 -2.65 -163.05" fill="url(#gradient1)" fill-rule="evenodd" stroke="none"/>
    <path d="M139.85 -151.6 L139.55 -152.15 140.9 -152.15 139.85 -151.6" fill="#ffff7f" fill-opacity="0.5019608" fill-rule="evenodd" stroke="none"/>
  </g>
  <defs>
    <radialGradient cx="0" cy="0" gradientTransform="matrix(0.5459, 0.0, 0.0, 0.5459, 0.0, -200.0)" gradientUnits="userSpaceOnUse" id="gradient0" r="819.2" spreadMethod="pad">
      <stop offset="0.0" stop-color="#ff0000"/>
      <stop offset="1.0" stop-color="#ffff00"/>
    </radialGradient>
    <radialGradient cx="0" cy="0" gradientTransform="matrix(0.5459, 0.0, 0.0, 0.5459, 0.0, -200.0)" gradientUnits="userSpaceOnUse" id="gradient1" r="819.2" spreadMethod="pad">
      <stop offset="0.0" stop-color="#ff8040"/>
      <stop offset="1.0" stop-color="#ffff40"/>
    </radialGradient>
  </defs>
</svg>
