<?xml version="1.0" encoding="UTF-8" standalone="no"?>
<svg xmlns:ffdec="https://www.free-decompiler.com/flash" xmlns:xlink="http://www.w3.org/1999/xlink" ffdec:objectType="shape" height="233.0px" width="506.4px" xmlns="http://www.w3.org/2000/svg">
  <g transform="matrix(1.0, 0.0, 0.0, 1.0, 253.2, 116.5)">
    <path d="M92.85 -103.8 L67.45 -103.8 71.0 -115.6 96.7 -115.6 92.85 -103.8 M45.0 -89.05 L44.15 -83.7 34.95 -54.8 9.3 -54.8 18.15 -81.95 18.15 -84.0 Q18.15 -87.55 13.4 -87.55 8.1 -87.55 3.95 -84.3 0.45 -81.05 -1.95 -74.3 L-8.15 -54.8 -33.55 -54.8 -24.95 -81.95 Q-24.65 -82.85 -24.65 -84.0 -24.65 -87.55 -29.7 -87.55 -33.55 -87.55 -37.95 -84.9 -42.1 -82.25 -44.15 -75.75 L-50.95 -54.8 -76.65 -54.8 -62.45 -98.8 -38.85 -98.8 -40.9 -92.6 -40.6 -92.3 Q-29.4 -99.95 -16.1 -99.95 -10.8 -99.95 -5.2 -97.9 -0.15 -96.15 1.6 -92.3 9.3 -97.0 14.6 -98.2 20.5 -99.95 27.0 -99.95 35.85 -99.95 40.6 -96.7 45.0 -93.45 45.0 -89.05 M65.7 -98.8 L91.35 -98.8 77.2 -54.8 51.5 -54.8 65.7 -98.8 M39.7 -12.85 Q45.0 -14.9 49.45 -14.9 L58.3 -13.45 48.85 -0.45 43.85 -1.05 Q36.45 -1.05 32.0 2.5 27.6 6.05 24.95 13.75 L19.6 30.25 -5.75 30.25 8.4 -13.75 32.0 -13.75 29.05 -5.15 29.35 -4.9 Q34.1 -10.2 39.7 -12.85 M122.1 -72.5 Q122.1 -68.65 125.6 -66.9 129.15 -65.1 133.3 -65.1 143.65 -65.1 148.35 -72.5 L172.0 -70.75 Q163.1 -53.6 132.4 -53.6 97.55 -53.6 97.55 -72.8 97.55 -83.45 109.1 -92.0 120.6 -99.95 141.25 -99.95 156.05 -99.95 165.2 -95.85 174.65 -91.7 175.8 -83.45 L153.1 -82.85 Q151.3 -88.45 141.25 -88.45 132.1 -88.45 127.1 -83.45 122.1 -78.4 122.1 -72.5 M153.95 -8.7 Q161.35 -12.55 166.95 -13.45 L182.0 -14.9 Q200.9 -14.9 208.6 -9.3 216.85 -3.7 216.85 3.7 L215.1 12.55 164.3 12.55 Q165.2 21.4 176.4 21.4 184.1 21.4 188.2 17.55 L212.7 19.05 Q207.4 25.85 198.25 28.5 189.7 31.45 175.8 31.45 156.35 31.45 148.05 25.55 139.8 19.95 139.8 11.05 139.8 4.85 143.65 -0.15 147.15 -5.15 153.95 -8.7 M122.65 -10.8 Q131.55 -6.65 133.3 1.6 L110.25 2.2 Q109.1 -3.4 98.75 -3.4 89.6 -3.4 84.6 1.6 79.55 6.65 79.55 12.55 79.55 16.4 83.1 18.15 86.65 19.95 90.8 19.95 100.8 19.95 105.55 12.55 L129.45 14.3 Q120.6 31.45 89.6 31.45 54.75 31.45 54.75 12.25 54.75 1.6 66.25 -6.95 77.8 -14.9 98.75 -14.9 113.5 -14.9 122.65 -10.8 M172.55 -2.5 Q169.0 -0.45 166.65 4.55 L191.75 4.55 192.05 1.9 Q192.05 -1.35 189.1 -3.1 186.15 -4.9 181.45 -4.9 176.7 -4.9 172.55 -2.5 M199.45 70.15 Q213.3 70.15 220.4 77.2 L227.8 54.5 253.2 54.5 233.4 115.3 210.05 115.3 211.25 110.9 210.95 110.9 201.2 115.3 190.85 116.5 Q180.25 116.5 173.75 111.45 167.85 106.45 167.85 98.2 167.85 86.65 176.7 78.7 185.85 70.15 199.45 70.15 M192.65 97.6 Q192.65 101.45 195.0 103.5 197.35 105.25 201.2 105.25 208.0 105.25 212.15 100.25 215.7 94.95 215.7 89.3 215.7 85.5 212.7 83.4 210.05 81.65 205.95 81.65 200.3 81.65 196.5 86.35 192.65 91.1 192.65 97.6 M115.6 97.6 L65.1 97.6 Q66.0 106.45 76.9 106.45 84.85 106.45 89.0 102.6 L113.5 104.1 Q107.6 111.2 98.75 113.55 90.2 116.5 76.3 116.5 57.1 116.5 48.55 110.6 40.3 105.0 40.3 96.1 40.3 89.9 44.15 84.9 48.25 79.85 54.75 76.35 62.15 72.5 67.75 71.6 L82.8 70.15 Q101.7 70.15 109.4 75.75 117.35 81.05 117.35 88.75 L115.6 97.6 M89.6 81.95 Q86.65 80.15 82.2 80.15 77.5 80.15 73.35 82.55 69.5 84.9 67.15 89.6 L92.25 89.6 Q92.85 88.15 92.85 86.95 92.85 83.7 89.6 81.95 M10.75 66.3 L14.3 54.5 39.7 54.5 35.85 66.3 10.75 66.3 M34.4 71.3 L20.2 115.3 -5.2 115.3 9.0 71.3 34.4 71.3 M122.35 115.3 L141.85 54.5 167.25 54.5 147.75 115.3 122.35 115.3 M-200.35 -102.6 Q-206.85 -102.6 -212.45 -99.65 -218.05 -96.7 -221.9 -90.2 -225.45 -84.0 -225.45 -78.1 -225.45 -73.4 -221.9 -70.45 -218.05 -67.5 -211.3 -67.5 -204.8 -67.5 -200.35 -70.15 -195.35 -73.7 -192.7 -78.7 L-166.1 -76.05 Q-170.25 -66.9 -182.05 -60.1 -193.85 -53.6 -212.75 -53.6 -232.55 -53.6 -242.85 -60.7 -253.2 -67.5 -253.2 -79.3 -253.2 -87.85 -247.0 -97.3 -240.8 -106.15 -229.0 -111.5 -216.6 -116.5 -200.65 -116.5 -183.25 -116.5 -173.2 -110.9 -163.45 -104.7 -161.65 -95.55 L-187.65 -93.45 -187.65 -93.75 Q-187.65 -98.2 -191.8 -100.55 -195.65 -102.6 -200.35 -102.6 M-100.85 -57.45 Q-109.7 -53.6 -123.9 -53.6 -141.0 -53.6 -149.55 -59.2 -157.85 -64.85 -157.85 -73.7 -157.85 -80.75 -153.1 -86.7 -147.8 -92.9 -138.65 -96.4 -129.2 -99.95 -116.2 -99.95 -98.5 -99.95 -90.2 -93.75 -82.25 -87.85 -82.25 -79.9 -82.25 -73.4 -86.95 -67.5 -91.1 -61.0 -100.85 -57.45 M-106.75 -80.75 Q-106.75 -84.9 -110.0 -86.7 -112.95 -88.45 -117.1 -88.45 -125.35 -88.45 -129.2 -83.7 -133.35 -78.1 -133.35 -73.7 -133.35 -69.85 -130.1 -67.5 -127.4 -65.1 -122.4 -65.1 -115.0 -65.1 -111.2 -69.85 -106.75 -74.55 -106.75 -80.75 M-134.2 -6.65 L-93.75 -6.65 -97.6 5.75 -138.65 5.75 -146.3 30.25 -174.35 30.25 -154.9 -30.55 -84.9 -30.55 -89.05 -17.6 -130.95 -17.6 -134.2 -6.65 M-45.35 -14.9 Q-27.6 -14.9 -19.65 -8.7 -11.4 -3.1 -11.4 5.15 -11.4 11.65 -16.1 17.55 -20.25 24.05 -30.0 27.6 -39.45 31.45 -53.3 31.45 -70.15 31.45 -78.7 25.85 -86.95 20.2 -86.95 11.35 -86.95 4.3 -82.25 -1.65 -77.5 -7.55 -67.8 -11.4 -58.35 -14.9 -45.35 -14.9 M-46.25 -3.4 Q-54.5 -3.4 -58.35 1.3 -62.45 6.95 -62.45 11.35 -62.45 15.2 -59.2 17.55 -56.55 19.95 -51.55 19.95 -44.15 19.95 -40.3 15.2 -35.9 10.5 -35.9 4.3 -35.9 0.15 -39.15 -1.65 -42.7 -3.4 -46.25 -3.4 M-49.45 78.4 L-8.75 78.4 -12.85 90.8 -53.6 90.8 -61.3 115.3 -89.35 115.3 -69.85 54.5 0.15 54.5 -4.3 67.45 -45.95 67.45 -49.45 78.4" fill="#ffffff" fill-rule="evenodd" stroke="none"/>
  </g>
</svg>
