<?xml version="1.0" encoding="UTF-8" standalone="no"?>
<svg xmlns:ffdec="https://www.free-decompiler.com/flash" xmlns:xlink="http://www.w3.org/1999/xlink" ffdec:objectType="shape" height="95.75px" width="258.9px" xmlns="http://www.w3.org/2000/svg">
  <g transform="matrix(1.0, 0.0, 0.0, 1.0, 129.45, 47.9)">
    <path d="M-121.6 -28.2 L-123.55 -28.2 -124.35 -23.05 -122.45 -23.05 -123.8 -13.7 Q-123.8 -11.95 -122.85 -10.55 -122.0 -9.1 -119.65 -9.1 L-116.1 -9.55 -115.3 -14.65 -116.95 -14.3 Q-118.2 -14.3 -118.2 -15.6 L-117.1 -23.05 -114.3 -23.05 -113.45 -28.2 -116.25 -28.2 -115.15 -35.1 -121.15 -31.1 -121.6 -28.2 M-125.0 -32.2 L-124.8 -33.45 -109.75 -43.5 -111.55 -32.2 -87.85 -32.2 -85.05 -32.6 Q-80.55 -32.6 -78.15 -28.8 L-78.1 -28.75 Q-74.6 -32.6 -69.2 -32.6 -63.9 -32.6 -60.8 -29.3 -59.4 -27.75 -58.65 -25.7 L-52.8 -25.7 -49.35 -47.9 -35.3 -47.9 Q-27.7 -47.9 -23.85 -42.25 -20.5 -37.4 -20.5 -29.5 -20.5 -20.4 -24.45 -13.65 -29.25 -5.55 -37.75 -5.55 L-56.0 -5.55 -54.95 -12.2 -59.35 -12.2 Q-61.1 -8.85 -63.05 -7.35 -65.85 -5.1 -70.5 -5.1 -76.1 -5.1 -79.2 -8.7 L-79.5 -9.1 Q-82.35 -5.05 -86.85 -5.05 L-88.35 -5.15 -89.4 1.6 -102.9 1.6 -102.0 -3.85 Q-103.2 -1.55 -104.55 -0.2 -106.85 2.05 -110.3 2.05 -113.05 2.05 -118.5 0.0 L-118.0 -5.25 -119.65 -5.1 Q-123.35 -5.1 -125.6 -7.6 -127.8 -10.0 -127.8 -13.7 L-127.4 -17.3 -127.1 -19.05 -129.0 -19.05 -127.0 -32.2 -125.0 -32.2 M-0.1 8.9 L-7.25 8.9 -9.3 21.7 Q-11.3 17.8 -15.25 17.8 -19.15 17.8 -21.6 22.5 -24.15 27.2 -24.15 33.5 -24.15 38.3 -22.45 41.05 -20.8 43.85 -17.6 43.85 -15.85 43.85 -14.7 43.2 L-11.9 40.8 -12.25 43.25 -5.65 43.25 -0.1 8.9 M-36.55 -36.3 Q-34.15 -36.3 -33.25 -34.8 -32.35 -33.25 -32.35 -30.6 -32.35 -25.95 -33.95 -21.6 -35.5 -17.1 -38.8 -17.1 L-42.1 -17.1 -39.1 -36.3 -36.55 -36.3 M-45.9 -43.9 L-51.3 -9.55 -37.75 -9.55 Q-35.0 -9.55 -31.95 -11.2 -28.9 -12.85 -26.75 -18.1 -24.5 -23.35 -24.5 -29.5 -24.5 -35.95 -27.1 -39.9 -29.65 -43.9 -35.3 -43.9 L-45.9 -43.9 M-52.35 -21.7 L-60.15 -21.7 -61.05 -16.2 -53.2 -16.2 -52.35 -21.7 M-69.3 -24.45 Q-68.35 -24.45 -67.75 -23.7 -67.1 -23.0 -67.1 -21.55 L-67.2 -20.5 -72.4 -20.5 Q-71.95 -22.55 -71.15 -23.45 -70.3 -24.45 -69.3 -24.45 M-72.35 -28.1 Q-73.75 -27.55 -75.1 -26.05 -76.55 -24.5 -77.35 -22.35 -78.15 -20.25 -78.15 -17.65 -78.15 -14.1 -76.4 -11.6 -74.7 -9.1 -70.5 -9.1 -67.65 -9.1 -65.8 -10.3 -63.9 -11.55 -62.7 -14.3 L-67.9 -14.95 Q-68.85 -13.25 -70.4 -13.25 -72.65 -13.25 -72.9 -17.0 L-62.25 -17.0 -61.85 -20.75 Q-61.85 -24.0 -63.6 -26.35 -65.25 -28.6 -69.2 -28.6 L-72.35 -28.1 M-88.25 -13.9 Q-89.1 -13.9 -89.7 -14.7 -90.35 -15.6 -90.35 -17.15 -90.35 -19.3 -89.55 -21.7 -88.75 -23.9 -87.25 -23.9 -86.45 -23.9 -85.95 -23.15 -85.4 -22.35 -85.4 -20.7 -85.4 -17.95 -86.25 -15.85 -87.05 -13.9 -88.25 -13.9 M-107.0 -28.2 L-112.3 -28.2 -109.6 -9.55 Q-110.5 -7.05 -112.1 -7.05 L-113.85 -7.5 -114.25 -2.7 Q-112.3 -1.95 -110.3 -1.95 -108.6 -1.95 -107.4 -3.0 -106.1 -4.2 -104.9 -7.15 L-96.0 -28.2 -101.45 -28.2 -106.25 -15.2 -107.0 -28.2 M-85.05 -28.6 L-87.25 -28.1 Q-88.1 -27.65 -89.3 -26.25 L-89.35 -26.3 -89.1 -28.2 -94.05 -28.2 -98.2 -2.4 -92.85 -2.4 -91.3 -12.0 Q-89.8 -9.05 -86.85 -9.05 -84.0 -9.05 -82.05 -12.6 -80.2 -16.1 -80.2 -20.85 -80.2 -24.45 -81.45 -26.5 -82.7 -28.6 -85.05 -28.6 M-12.15 14.25 L-10.7 4.9 4.6 4.9 -2.2 47.25 -14.05 47.25 Q-15.6 47.85 -17.6 47.85 -22.85 47.85 -25.65 43.5 L-26.25 47.25 -63.35 47.25 Q-64.85 47.85 -66.9 47.85 -71.1 47.85 -73.65 44.9 -74.6 43.8 -75.15 42.5 -79.5 47.85 -86.6 47.85 -93.1 47.85 -96.75 43.35 L-97.9 41.75 -98.85 42.9 Q-102.8 47.25 -108.9 47.25 L-129.45 47.25 -122.65 4.9 -107.35 4.9 Q-101.4 4.9 -98.0 7.85 -94.35 11.0 -94.35 16.95 L-94.35 17.7 Q-90.4 13.85 -84.4 13.85 -77.25 13.85 -73.8 18.95 L-73.35 19.65 -72.5 14.4 -35.3 14.4 -31.85 13.85 Q-27.7 13.85 -25.15 16.8 L-23.95 18.6 Q-20.55 13.8 -15.25 13.8 L-12.15 14.25 M123.65 25.2 L124.75 18.4 121.05 18.4 122.5 9.2 114.5 14.5 113.9 18.4 111.3 18.4 110.25 25.2 112.8 25.2 110.95 37.75 Q110.95 40.05 112.2 41.95 113.5 43.85 116.45 43.85 L121.2 43.25 122.3 36.45 120.05 36.9 Q118.4 36.9 118.4 35.2 L119.9 25.2 123.65 25.2 M-88.3 36.05 Q-89.2 34.7 -89.2 32.6 -89.2 29.85 -88.05 27.0 -86.9 24.25 -84.65 24.25 -83.55 24.25 -82.65 25.25 -81.75 26.2 -81.75 28.6 -81.75 31.9 -82.95 34.7 -84.15 37.4 -86.15 37.4 -87.4 37.4 -88.3 36.05 M-107.45 29.7 Q-106.8 30.6 -106.8 31.9 -106.8 35.9 -111.3 35.9 L-115.6 35.9 -114.45 28.9 -110.15 28.9 Q-108.1 28.9 -107.45 29.7 M-113.4 22.35 L-112.4 15.85 -109.0 15.85 Q-107.15 15.85 -106.5 16.6 -105.85 17.25 -105.85 18.55 -105.85 19.6 -106.45 20.65 -107.05 21.7 -108.0 22.0 L-110.7 22.35 -113.4 22.35 M-99.1 13.2 Q-99.9 11.45 -101.1 10.45 -102.5 9.45 -103.8 9.15 L-119.25 8.9 -124.75 43.25 -108.9 43.25 Q-104.15 43.25 -101.6 39.95 -99.05 36.65 -99.05 32.55 -99.05 27.1 -103.2 25.2 -100.75 24.25 -99.5 21.9 -98.35 19.5 -98.35 16.95 -98.35 14.9 -99.1 13.2 M-76.1 36.1 Q-74.8 32.5 -74.8 29.1 -74.8 24.55 -77.1 21.2 -79.35 17.85 -84.4 17.85 -88.05 17.85 -90.7 19.8 -93.45 21.85 -94.75 25.3 -96.15 28.75 -96.15 32.6 -96.15 37.45 -93.85 40.65 -91.45 43.85 -86.6 43.85 -82.7 43.85 -80.1 41.75 -77.5 39.8 -76.1 36.1 M-49.55 18.4 L-56.75 18.4 -58.5 29.2 Q-59.1 32.8 -60.3 34.85 -61.5 36.8 -63.1 36.8 -64.45 36.8 -64.45 34.7 L-64.4 33.65 -61.95 18.4 -69.1 18.4 -71.3 31.7 Q-72.05 36.25 -72.05 37.9 -72.05 40.35 -70.75 42.1 -69.5 43.85 -66.9 43.85 -62.7 43.85 -59.65 39.45 L-60.3 43.25 -53.55 43.25 -49.55 18.4 M-11.45 25.3 Q-10.6 26.45 -10.6 28.6 -10.6 31.65 -11.65 34.65 -12.7 37.6 -14.7 37.6 -15.85 37.6 -16.5 36.5 -17.15 35.4 -17.15 33.3 -17.15 29.45 -16.05 26.9 -14.9 24.2 -13.35 24.2 -12.3 24.2 -11.45 25.3 M-28.05 19.55 Q-29.3 17.85 -31.85 17.85 -36.15 17.85 -39.05 22.25 L-39.15 22.15 -38.5 18.4 -45.2 18.4 -49.25 43.25 -42.0 43.25 -40.25 32.5 Q-39.65 28.8 -38.5 26.8 -37.3 24.8 -35.75 24.8 -34.3 24.8 -34.3 26.85 L-36.85 43.25 -29.65 43.25 -27.5 29.7 Q-26.8 25.1 -26.8 23.8 -26.8 21.25 -28.05 19.55 M129.45 14.4 L127.05 29.2 123.35 29.2 122.9 32.15 127.2 31.0 124.75 46.7 116.45 47.85 Q112.1 47.85 109.45 44.9 108.45 43.8 107.9 42.45 L105.95 44.45 Q101.85 47.85 95.5 47.85 87.95 47.85 85.05 43.85 L84.45 42.9 Q80.2 47.85 73.35 47.85 66.85 47.85 63.2 43.35 L61.75 41.2 61.15 42.0 Q56.75 47.85 49.35 47.85 42.85 47.85 39.2 43.35 L38.05 41.75 37.1 42.9 Q33.2 47.25 27.1 47.25 L6.5 47.25 13.3 4.9 28.6 4.9 Q34.55 4.9 37.95 7.85 41.6 11.0 41.6 16.95 L41.6 17.7 Q45.6 13.85 51.55 13.85 58.75 13.85 62.2 18.95 L63.2 20.6 63.8 19.7 Q68.2 13.85 75.55 13.85 82.75 13.85 86.2 18.95 L87.0 20.2 Q87.95 18.55 89.5 17.2 93.4 13.85 99.3 13.85 104.7 13.85 107.6 16.15 L107.85 14.4 110.5 14.4 110.85 12.15 127.9 0.8 125.75 14.4 129.45 14.4 M107.55 24.35 Q107.05 20.75 105.05 19.3 103.0 17.85 99.3 17.85 96.05 17.85 93.8 19.05 91.6 20.25 90.45 22.35 89.35 24.4 89.35 26.6 89.35 29.2 90.8 31.05 92.35 32.85 96.45 33.65 L98.9 34.45 Q99.55 34.8 99.55 36.0 99.55 37.2 98.65 37.95 97.8 38.6 96.6 38.6 94.05 38.6 93.6 35.6 L86.55 36.4 Q86.85 40.35 88.95 42.1 91.0 43.85 95.5 43.85 100.95 43.85 103.65 41.15 106.3 38.4 106.3 34.6 106.3 31.8 104.95 30.15 103.65 28.55 99.45 27.7 96.85 27.15 96.3 26.6 95.7 26.05 95.7 25.2 95.7 24.35 96.35 23.7 97.1 23.05 98.35 23.05 100.55 23.05 100.85 25.3 L107.55 24.35 M97.4 26.6 Q97.8 26.6 98.35 27.05 L98.4 27.0 96.9 25.85 97.4 26.6 M28.5 29.7 Q29.15 30.6 29.15 31.9 29.15 35.9 24.65 35.9 L20.4 35.9 21.5 28.9 25.85 28.9 Q27.85 28.9 28.5 29.7 M22.55 22.35 L23.55 15.85 26.95 15.85 Q28.85 15.85 29.45 16.6 30.1 17.25 30.1 18.55 30.1 19.6 29.5 20.65 29.0 21.7 27.95 22.0 L25.25 22.35 22.55 22.35 M34.85 10.45 Q33.55 9.45 32.15 9.15 L16.7 8.9 11.2 43.25 27.1 43.25 Q31.8 43.25 34.35 39.95 36.9 36.65 36.9 32.55 36.9 27.05 32.8 25.2 35.3 24.2 36.45 21.9 37.6 19.5 37.6 16.95 37.6 14.9 36.85 13.2 36.15 11.55 34.85 10.45 M77.3 25.25 Q78.2 26.2 78.2 28.6 78.2 31.9 77.0 34.7 75.9 37.4 73.85 37.4 72.55 37.4 71.65 36.05 70.75 34.7 70.75 32.6 70.75 29.85 71.9 27.0 73.05 24.25 75.3 24.25 76.4 24.25 77.3 25.25 M54.2 28.6 Q54.2 31.9 53.0 34.7 51.9 37.4 49.85 37.4 48.55 37.4 47.65 36.05 46.75 34.7 46.75 32.6 46.75 29.85 47.9 27.0 49.05 24.25 51.3 24.25 52.4 24.25 53.3 25.25 54.2 26.2 54.2 28.6 M51.55 17.85 Q47.9 17.85 45.25 19.8 42.5 21.85 41.2 25.3 39.8 28.75 39.8 32.6 39.8 37.5 42.15 40.65 44.45 43.85 49.35 43.85 53.2 43.85 55.9 41.75 58.5 39.75 59.85 36.1 61.15 32.7 61.15 29.1 61.15 24.55 58.85 21.2 56.6 17.85 51.55 17.85 M83.85 36.1 Q85.15 32.7 85.15 29.1 85.15 24.55 82.85 21.2 80.6 17.85 75.55 17.85 71.9 17.85 69.25 19.8 66.5 21.85 65.2 25.3 63.8 28.75 63.8 32.6 63.8 37.5 66.15 40.65 68.45 43.85 73.35 43.85 77.2 43.85 79.9 41.75 82.5 39.75 83.85 36.1" fill="#ff3f00" fill-rule="evenodd" stroke="none"/>
    <path d="M-121.6 -28.2 L-121.15 -31.1 -115.15 -35.1 -116.25 -28.2 -113.45 -28.2 -114.3 -23.05 -117.1 -23.05 -118.2 -15.6 Q-118.2 -14.3 -116.95 -14.3 L-115.3 -14.65 -116.1 -9.55 -119.65 -9.1 Q-122.0 -9.1 -122.85 -10.55 -123.8 -11.95 -123.8 -13.7 L-122.45 -23.05 -124.35 -23.05 -123.55 -28.2 -121.6 -28.2 M-85.05 -28.6 Q-82.7 -28.6 -81.45 -26.5 -80.2 -24.45 -80.2 -20.85 -80.2 -16.1 -82.05 -12.6 -84.0 -9.05 -86.85 -9.05 -89.8 -9.05 -91.3 -12.0 L-92.85 -2.4 -98.2 -2.4 -94.05 -28.2 -89.1 -28.2 -89.35 -26.3 -89.3 -26.25 Q-88.1 -27.65 -87.25 -28.1 L-85.05 -28.6 M-107.0 -28.2 L-106.25 -15.2 -101.45 -28.2 -96.0 -28.2 -104.9 -7.15 Q-106.1 -4.2 -107.4 -3.0 -108.6 -1.95 -110.3 -1.95 -112.3 -1.95 -114.25 -2.7 L-113.85 -7.5 -112.1 -7.05 Q-110.5 -7.05 -109.6 -9.55 L-112.3 -28.2 -107.0 -28.2 M-88.25 -13.9 Q-87.05 -13.9 -86.25 -15.85 -85.4 -17.95 -85.4 -20.7 -85.4 -22.35 -85.95 -23.15 -86.45 -23.9 -87.25 -23.9 -88.75 -23.9 -89.55 -21.7 -90.35 -19.3 -90.35 -17.15 -90.35 -15.6 -89.7 -14.7 -89.1 -13.9 -88.25 -13.9 M-72.35 -28.1 L-69.2 -28.6 Q-65.25 -28.6 -63.6 -26.35 -61.85 -24.0 -61.85 -20.75 L-62.25 -17.0 -72.9 -17.0 Q-72.65 -13.25 -70.4 -13.25 -68.85 -13.25 -67.9 -14.95 L-62.7 -14.3 Q-63.9 -11.55 -65.8 -10.3 -67.65 -9.1 -70.5 -9.1 -74.7 -9.1 -76.4 -11.6 -78.15 -14.1 -78.15 -17.65 -78.15 -20.25 -77.35 -22.35 -76.55 -24.5 -75.1 -26.05 -73.75 -27.55 -72.35 -28.1 M-69.3 -24.45 Q-70.3 -24.45 -71.15 -23.45 -71.95 -22.55 -72.4 -20.5 L-67.2 -20.5 -67.1 -21.55 Q-67.1 -23.0 -67.75 -23.7 -68.35 -24.45 -69.3 -24.45 M-52.35 -21.7 L-53.2 -16.2 -61.05 -16.2 -60.15 -21.7 -52.35 -21.7 M-45.9 -43.9 L-35.3 -43.9 Q-29.65 -43.9 -27.1 -39.9 -24.5 -35.95 -24.5 -29.5 -24.5 -23.35 -26.75 -18.1 -28.9 -12.85 -31.95 -11.2 -35.0 -9.55 -37.75 -9.55 L-51.3 -9.55 -45.9 -43.9 M-36.55 -36.3 L-39.1 -36.3 -42.1 -17.1 -38.8 -17.1 Q-35.5 -17.1 -33.95 -21.6 -32.35 -25.95 -32.35 -30.6 -32.35 -33.25 -33.25 -34.8 -34.15 -36.3 -36.55 -36.3 M-0.1 8.9 L-5.65 43.25 -12.25 43.25 -11.9 40.8 -14.7 43.2 Q-15.85 43.85 -17.6 43.85 -20.8 43.85 -22.45 41.05 -24.15 38.3 -24.15 33.5 -24.15 27.2 -21.6 22.5 -19.15 17.8 -15.25 17.8 -11.3 17.8 -9.3 21.7 L-7.25 8.9 -0.1 8.9 M-28.05 19.55 Q-26.8 21.25 -26.8 23.8 -26.8 25.1 -27.5 29.7 L-29.65 43.25 -36.85 43.25 -34.3 26.85 Q-34.3 24.8 -35.75 24.8 -37.3 24.8 -38.5 26.8 -39.65 28.8 -40.25 32.5 L-42.0 43.25 -49.25 43.25 -45.2 18.4 -38.5 18.4 -39.15 22.15 -39.05 22.25 Q-36.15 17.85 -31.85 17.85 -29.3 17.85 -28.05 19.55 M-11.45 25.3 Q-12.3 24.2 -13.35 24.2 -14.9 24.2 -16.05 26.9 -17.15 29.45 -17.15 33.3 -17.15 35.4 -16.5 36.5 -15.85 37.6 -14.7 37.6 -12.7 37.6 -11.65 34.65 -10.6 31.65 -10.6 28.6 -10.6 26.45 -11.45 25.3 M-49.55 18.4 L-53.55 43.25 -60.3 43.25 -59.65 39.45 Q-62.7 43.85 -66.9 43.85 -69.5 43.85 -70.75 42.1 -72.05 40.35 -72.05 37.9 -72.05 36.25 -71.3 31.7 L-69.1 18.4 -61.95 18.4 -64.4 33.65 -64.45 34.7 Q-64.45 36.8 -63.1 36.8 -61.5 36.8 -60.3 34.85 -59.1 32.8 -58.5 29.2 L-56.75 18.4 -49.55 18.4 M-76.1 36.1 Q-77.5 39.8 -80.1 41.75 -82.7 43.85 -86.6 43.85 -91.45 43.85 -93.85 40.65 -96.15 37.45 -96.15 32.6 -96.15 28.75 -94.75 25.3 -93.45 21.85 -90.7 19.8 -88.05 17.85 -84.4 17.85 -79.35 17.85 -77.1 21.2 -74.8 24.55 -74.8 29.1 -74.8 32.5 -76.1 36.1 M-99.1 13.2 Q-98.35 14.9 -98.35 16.95 -98.35 19.5 -99.5 21.9 -100.75 24.25 -103.2 25.2 -99.05 27.1 -99.05 32.55 -99.05 36.65 -101.6 39.95 -104.15 43.25 -108.9 43.25 L-124.75 43.25 -119.25 8.9 -103.8 9.15 Q-102.5 9.45 -101.1 10.45 -99.9 11.45 -99.1 13.2 M-113.4 22.35 L-110.7 22.35 -108.0 22.0 Q-107.05 21.7 -106.45 20.65 -105.85 19.6 -105.85 18.55 -105.85 17.25 -106.5 16.6 -107.15 15.85 -109.0 15.85 L-112.4 15.85 -113.4 22.35 M-107.45 29.7 Q-108.1 28.9 -110.15 28.9 L-114.45 28.9 -115.6 35.9 -111.3 35.9 Q-106.8 35.9 -106.8 31.9 -106.8 30.6 -107.45 29.7 M-88.3 36.05 Q-87.4 37.4 -86.15 37.4 -84.15 37.4 -82.95 34.7 -81.75 31.9 -81.75 28.6 -81.75 26.2 -82.65 25.25 -83.55 24.25 -84.65 24.25 -86.9 24.25 -88.05 27.0 -89.2 29.85 -89.2 32.6 -89.2 34.7 -88.3 36.05 M123.65 25.2 L119.9 25.2 118.4 35.2 Q118.4 36.9 120.05 36.9 L122.3 36.45 121.2 43.25 116.45 43.85 Q113.5 43.85 112.2 41.95 110.95 40.05 110.95 37.75 L112.8 25.2 110.25 25.2 111.3 18.4 113.9 18.4 114.5 14.5 122.5 9.2 121.05 18.4 124.75 18.4 123.65 25.2 M107.55 24.35 L100.85 25.3 Q100.55 23.05 98.35 23.05 97.1 23.05 96.35 23.7 95.7 24.35 95.7 25.2 95.7 26.05 96.3 26.6 96.85 27.15 99.45 27.7 103.65 28.55 104.95 30.15 106.3 31.8 106.3 34.6 106.3 38.4 103.65 41.15 100.95 43.85 95.5 43.85 91.0 43.85 88.95 42.1 86.85 40.35 86.55 36.4 L93.6 35.6 Q94.05 38.6 96.6 38.6 97.8 38.6 98.65 37.95 99.55 37.2 99.55 36.0 99.55 34.8 98.9 34.45 L96.45 33.65 Q92.35 32.85 90.8 31.05 89.35 29.2 89.35 26.6 89.35 24.4 90.45 22.35 91.6 20.25 93.8 19.05 96.05 17.85 99.3 17.85 103.0 17.85 105.05 19.3 107.05 20.75 107.55 24.35 M83.85 36.1 Q82.5 39.75 79.9 41.75 77.2 43.85 73.35 43.85 68.45 43.85 66.15 40.65 63.8 37.5 63.8 32.6 63.8 28.75 65.2 25.3 66.5 21.85 69.25 19.8 71.9 17.85 75.55 17.85 80.6 17.85 82.85 21.2 85.15 24.55 85.15 29.1 85.15 32.7 83.85 36.1 M51.55 17.85 Q56.6 17.85 58.85 21.2 61.15 24.55 61.15 29.1 61.15 32.7 59.85 36.1 58.5 39.75 55.9 41.75 53.2 43.85 49.35 43.85 44.45 43.85 42.15 40.65 39.8 37.5 39.8 32.6 39.8 28.75 41.2 25.3 42.5 21.85 45.25 19.8 47.9 17.85 51.55 17.85 M54.2 28.6 Q54.2 26.2 53.3 25.25 52.4 24.25 51.3 24.25 49.05 24.25 47.9 27.0 46.75 29.85 46.75 32.6 46.75 34.7 47.65 36.05 48.55 37.4 49.85 37.4 51.9 37.4 53.0 34.7 54.2 31.9 54.2 28.6 M77.3 25.25 Q76.4 24.25 75.3 24.25 73.05 24.25 71.9 27.0 70.75 29.85 70.75 32.6 70.75 34.7 71.65 36.05 72.55 37.4 73.85 37.4 75.9 37.4 77.0 34.7 78.2 31.9 78.2 28.6 78.2 26.2 77.3 25.25 M34.85 10.45 Q36.15 11.55 36.85 13.2 37.6 14.9 37.6 16.95 37.6 19.5 36.45 21.9 35.3 24.2 32.8 25.2 36.9 27.05 36.9 32.55 36.9 36.65 34.35 39.95 31.8 43.25 27.1 43.25 L11.2 43.25 16.7 8.9 32.15 9.15 Q33.55 9.45 34.85 10.45 M22.55 22.35 L25.25 22.35 27.95 22.0 Q29.0 21.7 29.5 20.65 30.1 19.6 30.1 18.55 30.1 17.25 29.45 16.6 28.85 15.85 26.95 15.85 L23.55 15.85 22.55 22.35 M28.5 29.7 Q27.85 28.9 25.85 28.9 L21.5 28.9 20.4 35.9 24.65 35.9 Q29.15 35.9 29.15 31.9 29.15 30.6 28.5 29.7" fill="#ffff00" fill-rule="evenodd" stroke="none"/>
  </g>
</svg>
