<?xml version="1.0" encoding="UTF-8" standalone="no"?>
<svg xmlns:ffdec="https://www.free-decompiler.com/flash" xmlns:xlink="http://www.w3.org/1999/xlink" ffdec:objectType="shape" height="135.75px" width="429.4px" xmlns="http://www.w3.org/2000/svg">
  <g transform="matrix(1.0, 0.0, 0.0, 1.0, 214.7, 67.9)">
    <path d="M12.25 -5.6 Q16.55 -5.6 19.3 -4.0 L19.4 -5.05 21.5 -5.05 Q22.95 -8.0 37.2 -19.85 L36.55 -14.55 48.4 -14.55 47.25 -5.6 47.6 -5.6 Q51.5 -5.6 53.75 -2.45 55.65 0.3 55.65 4.35 L55.05 10.75 52.85 27.8 31.35 27.8 27.1 28.4 Q25.1 28.4 23.55 27.65 L23.55 27.8 10.9 27.8 Q9.55 28.4 7.85 28.4 3.3 28.4 0.75 24.85 L0.6 24.65 0.05 25.25 Q-3.0 28.4 -8.25 28.4 -14.5 28.4 -17.7 23.55 L-18.5 22.15 Q-22.3 27.8 -28.45 27.8 L-43.85 27.8 -38.5 -14.55 -26.5 -14.55 Q-19.65 -14.55 -16.35 -8.35 -15.05 -5.9 -14.45 -2.75 -11.3 -5.6 -6.8 -5.6 -0.85 -5.6 2.25 -1.15 L2.45 -0.85 2.7 -1.3 Q5.55 -5.6 12.25 -5.6 M69.8 -9.8 Q67.95 -8.45 66.95 -6.0 65.95 -3.45 65.95 -0.6 65.95 2.6 67.15 4.95 68.4 7.3 72.9 9.95 74.9 11.15 75.4 12.05 75.9 13.05 75.9 14.0 75.9 15.4 75.1 16.5 74.25 17.6 72.8 17.6 71.3 17.6 70.45 16.25 69.6 15.05 69.6 11.75 L63.6 12.4 63.6 13.2 Q63.6 18.15 65.65 21.25 67.7 24.4 72.6 24.4 76.05 24.4 78.0 22.75 79.85 21.05 80.9 18.45 81.9 15.85 81.9 12.9 81.9 9.85 80.95 7.55 80.05 5.45 78.55 4.1 77.25 2.85 74.75 1.25 72.9 0.1 72.45 -0.65 71.95 -1.35 71.95 -2.2 71.95 -3.35 72.55 -4.15 73.2 -4.95 74.3 -4.95 77.1 -4.95 77.3 -0.45 L83.25 -1.0 Q82.75 -11.1 74.35 -11.1 71.8 -11.1 69.8 -9.8 M25.05 -1.05 L22.95 -1.05 22.1 5.8 24.15 5.8 22.7 18.3 Q22.7 20.65 23.7 22.5 24.7 24.4 27.1 24.4 L30.9 23.8 31.75 17.0 29.95 17.45 Q28.65 17.45 28.65 15.75 L29.85 5.8 32.85 5.8 33.7 -1.05 30.75 -1.05 31.95 -10.25 25.55 -4.95 25.05 -1.05 M65.05 -10.65 Q68.45 -15.1 74.35 -15.1 81.9 -15.1 84.95 -9.45 86.15 -7.2 86.8 -3.4 89.75 -5.6 93.7 -5.6 98.75 -5.6 101.8 -2.35 L102.15 -5.05 113.35 -5.05 Q114.6 -5.6 116.35 -5.6 118.45 -5.6 120.1 -4.65 L120.15 -5.05 122.25 -5.05 Q123.75 -8.0 137.95 -19.85 L136.05 -5.05 139.0 -5.05 138.9 -3.95 Q141.5 -5.6 144.9 -5.6 150.0 -5.6 153.0 -2.35 L153.35 -5.05 164.5 -5.05 167.55 -5.6 Q171.45 -5.6 173.7 -2.45 L174.4 -1.3 Q177.95 -5.6 183.65 -5.6 190.1 -5.6 193.0 -0.75 196.6 -5.6 202.5 -5.6 208.45 -5.6 211.55 -1.15 214.3 2.7 214.3 8.85 L213.95 14.1 214.7 14.25 213.5 17.7 Q211.65 22.9 209.35 25.25 206.3 28.4 201.05 28.4 194.8 28.4 191.6 23.55 L191.45 23.25 Q188.05 28.4 181.65 28.4 176.2 28.4 173.2 24.95 L172.8 27.8 149.1 27.8 149.2 27.15 Q146.75 28.4 143.45 28.4 138.5 28.4 135.5 25.4 L135.25 27.1 Q129.7 28.4 127.85 28.4 124.1 28.4 121.9 25.8 L121.65 27.8 97.95 27.8 98.05 27.15 Q95.6 28.4 92.3 28.4 86.05 28.4 82.85 23.55 L82.75 23.4 82.55 23.65 Q78.9 28.4 72.6 28.4 66.05 28.4 62.65 23.9 59.6 19.9 59.6 13.2 L59.6 8.85 64.6 8.25 Q61.95 4.85 61.95 -0.6 61.95 -6.65 65.05 -10.65 M165.3 48.95 Q165.95 48.55 166.8 48.55 167.7 48.55 168.25 48.95 168.75 49.4 168.75 50.1 L168.6 51.35 165.5 52.0 161.35 52.85 Q159.9 53.3 158.8 54.6 157.75 55.85 157.75 58.4 157.75 60.55 158.95 62.2 160.1 63.85 162.75 63.85 165.35 63.85 167.45 61.3 L167.65 63.4 172.85 63.4 Q172.55 62.1 172.55 60.85 172.55 59.15 173.2 55.55 173.9 51.75 173.9 49.75 173.9 47.05 172.5 45.75 171.05 44.35 166.9 44.35 163.3 44.35 161.55 45.8 159.8 47.25 159.3 49.9 L164.3 50.6 Q164.75 49.35 165.3 48.95 M191.5 7.6 Q191.15 3.0 189.1 0.7 187.1 -1.6 183.65 -1.6 179.0 -1.6 176.35 2.9 173.75 7.35 173.75 13.65 173.75 24.4 181.65 24.4 188.65 24.4 190.6 14.7 L185.25 13.75 Q184.15 17.95 181.85 17.95 180.9 17.95 180.15 16.9 179.35 15.8 179.35 13.8 179.35 10.35 180.45 7.65 181.6 4.8 183.65 4.8 185.9 4.8 186.3 8.05 L191.5 7.6 M208.5 45.75 Q207.05 44.35 202.9 44.35 199.3 44.35 197.55 45.8 195.8 47.25 195.3 49.9 L200.3 50.6 Q200.75 49.35 201.3 48.95 201.95 48.55 202.8 48.55 203.7 48.55 204.25 48.95 204.75 49.4 204.75 50.1 L204.6 51.35 201.5 52.0 197.35 52.85 Q195.9 53.3 194.8 54.6 193.75 55.85 193.75 58.4 193.75 60.55 194.95 62.2 196.1 63.85 198.75 63.85 201.35 63.85 203.45 61.3 L203.65 63.4 208.85 63.4 Q208.5 61.9 208.5 60.85 208.5 59.45 209.2 55.55 209.9 51.75 209.9 49.75 209.9 47.05 208.5 45.75 M204.0 4.9 Q204.7 5.9 204.7 7.8 L204.6 9.2 199.05 9.2 Q199.5 6.6 200.4 5.25 201.3 3.95 202.35 3.95 203.35 3.95 204.0 4.9 M162.2 -1.05 L156.85 -1.05 153.65 23.8 159.4 23.8 160.8 13.05 Q161.35 9.15 162.25 7.35 163.15 5.35 164.45 5.35 165.55 5.35 165.55 7.4 L163.55 23.8 169.3 23.8 171.6 4.35 Q171.6 1.85 170.6 0.1 169.55 -1.6 167.55 -1.6 164.15 -1.6 161.75 2.8 L161.7 2.7 162.2 -1.05 M202.5 -1.6 Q200.45 -1.6 199.1 -0.9 197.65 -0.2 196.15 1.75 194.6 3.85 193.8 6.7 192.9 9.6 192.9 12.95 192.9 17.75 194.8 21.1 196.6 24.4 201.05 24.4 204.05 24.4 206.1 22.8 208.1 21.15 209.4 17.45 L203.85 16.6 Q202.9 18.85 201.2 18.85 198.8 18.85 198.55 13.85 L209.9 13.85 210.3 8.85 Q210.3 4.45 208.45 1.4 206.65 -1.6 202.5 -1.6 M144.9 -1.6 Q142.85 -1.6 141.5 -0.9 140.05 -0.2 138.55 1.75 137.0 3.85 136.2 6.7 135.3 9.6 135.3 12.95 135.3 17.75 137.2 21.1 139.0 24.4 143.45 24.4 146.45 24.4 148.5 22.8 150.5 21.15 151.8 17.45 L146.25 16.6 Q145.3 18.85 143.6 18.85 141.2 18.85 140.95 13.85 L152.3 13.85 152.7 8.85 Q152.7 4.45 150.85 1.4 149.05 -1.6 144.9 -1.6 M126.3 -4.95 L125.8 -1.05 123.7 -1.05 122.85 5.8 124.9 5.8 123.45 18.3 Q123.45 20.65 124.45 22.5 125.45 24.4 127.85 24.4 L131.65 23.8 132.5 17.0 130.75 17.45 Q129.4 17.45 129.4 15.75 L130.6 5.8 133.6 5.8 134.45 -1.05 131.5 -1.05 132.7 -10.25 126.3 -4.95 M111.05 -1.05 L105.7 -1.05 102.45 23.8 108.25 23.8 109.65 13.05 Q110.1 9.45 111.05 7.35 112.0 5.35 113.25 5.35 114.4 5.35 114.4 7.4 L112.4 23.8 118.15 23.8 119.85 10.25 Q120.4 6.2 120.4 4.35 120.4 1.75 119.4 0.1 118.45 -1.6 116.35 -1.6 113.0 -1.6 110.6 2.8 L110.55 2.7 111.05 -1.05 M93.7 -1.6 Q91.7 -1.6 90.3 -0.9 88.95 -0.25 87.4 1.75 85.9 3.75 85.0 6.7 84.15 9.7 84.15 12.95 84.15 17.85 86.0 21.1 87.9 24.4 92.3 24.4 95.3 24.4 97.35 22.8 99.4 21.15 100.6 17.45 L95.1 16.6 Q94.15 18.85 92.45 18.85 90.0 18.85 89.75 13.85 L101.15 13.85 101.5 8.85 Q101.5 4.45 99.7 1.4 97.9 -1.6 93.7 -1.6 M43.85 -10.55 L38.15 -10.55 33.7 23.8 39.45 23.8 40.85 13.05 Q41.4 9.15 42.3 7.35 43.2 5.35 44.5 5.35 45.6 5.35 45.6 7.4 L43.6 23.8 49.35 23.8 51.05 10.25 51.65 4.35 Q51.65 1.9 50.65 0.15 49.65 -1.6 47.6 -1.6 44.4 -1.6 42.3 2.0 L42.25 1.9 43.85 -10.55 M176.4 44.1 Q179.9 40.35 185.4 40.35 190.25 40.35 193.25 43.2 L193.85 43.8 Q196.5 40.35 202.9 40.35 213.9 40.35 213.9 49.75 213.9 51.75 213.15 56.25 L212.5 60.85 Q212.5 62.55 214.05 67.4 L201.55 67.4 198.75 67.85 Q194.65 67.85 192.15 65.1 L191.85 64.75 Q188.75 67.85 183.45 67.85 180.2 67.85 177.85 66.7 L178.05 67.4 165.55 67.4 162.75 67.85 Q159.65 67.85 157.5 66.3 L157.3 67.4 129.55 67.4 126.75 67.85 Q123.4 67.85 121.15 66.05 L120.9 67.4 109.0 67.4 108.35 65.45 108.05 67.4 94.35 67.4 99.8 33.65 111.7 33.65 112.35 35.6 112.6 33.65 126.35 33.65 125.1 41.35 Q127.45 40.35 130.9 40.35 135.9 40.35 138.6 42.3 L138.85 40.75 149.5 40.75 152.25 40.35 Q155.8 40.35 158.0 42.85 L158.35 43.25 Q161.05 40.35 166.9 40.35 173.8 40.35 176.4 44.1 M84.45 44.9 Q83.45 44.35 82.6 44.35 81.5 44.35 80.55 45.2 79.6 46.0 78.3 48.45 L78.9 44.75 73.9 44.75 70.9 63.4 76.3 63.4 77.4 56.45 Q77.95 53.2 78.9 51.7 79.8 50.25 81.4 50.25 L82.5 50.45 84.45 44.9 M93.55 3.95 Q94.6 3.95 95.25 4.9 95.95 5.9 95.95 7.8 L95.85 9.2 90.3 9.2 Q90.75 6.6 91.65 5.25 92.5 3.95 93.55 3.95 M147.25 44.75 L142.25 44.75 139.25 63.4 144.65 63.4 145.95 55.35 Q146.4 52.55 147.3 51.05 148.2 49.55 149.35 49.55 150.4 49.55 150.4 51.1 L148.55 63.4 153.9 63.4 155.55 53.25 156.05 48.8 Q156.05 46.9 155.1 45.65 154.1 44.35 152.25 44.35 149.1 44.35 146.85 47.65 L146.8 47.6 147.25 44.75 M129.3 48.95 Q129.95 48.55 130.8 48.55 131.7 48.55 132.25 48.95 132.75 49.4 132.75 50.1 L132.6 51.35 129.5 52.0 125.35 52.85 Q123.9 53.3 122.8 54.6 121.75 55.85 121.75 58.4 121.75 60.55 122.95 62.2 124.1 63.85 126.75 63.85 129.35 63.85 131.45 61.3 L131.65 63.4 136.85 63.4 Q136.55 62.1 136.55 60.85 136.55 59.15 137.2 55.55 137.9 51.75 137.9 49.75 137.9 47.05 136.5 45.75 135.05 44.35 130.9 44.35 127.3 44.35 125.55 45.8 123.8 47.25 123.3 49.9 L128.3 50.6 Q128.75 49.35 129.3 48.95 M146.4 4.9 Q147.1 5.8 147.1 7.8 L147.0 9.2 141.45 9.2 Q141.9 6.6 142.8 5.25 143.7 3.95 144.75 3.95 145.75 3.95 146.4 4.9 M168.0 55.05 Q167.7 57.75 166.7 58.85 165.65 59.95 164.65 59.95 163.95 59.95 163.5 59.45 163.0 58.95 163.0 58.05 163.0 57.2 163.65 56.55 164.35 55.85 168.0 55.05 M200.65 59.95 Q199.95 59.95 199.5 59.45 199.0 58.95 199.0 58.05 199.0 57.2 199.65 56.55 200.35 55.85 204.0 55.05 203.7 57.75 202.7 58.85 201.65 59.95 200.65 59.95 M190.45 46.1 Q188.55 44.35 185.4 44.35 181.0 44.35 178.5 47.75 176.1 51.1 176.1 55.8 176.1 63.85 183.45 63.85 190.05 63.85 191.9 56.6 L186.85 55.85 Q185.85 59.05 183.7 59.05 182.8 59.05 182.05 58.2 181.3 57.45 181.3 55.9 181.3 53.4 182.35 51.3 183.4 49.15 185.4 49.15 187.45 49.15 187.85 51.6 L192.7 51.25 Q192.35 47.85 190.45 46.1 M89.35 43.1 L86.25 51.8 85.45 52.2 92.35 52.2 89.9 67.4 66.2 67.4 66.25 67.05 Q64.15 67.85 61.35 67.85 55.8 67.85 52.65 64.25 51.45 62.9 50.8 61.2 L48.15 67.4 35.55 67.4 30.7 33.65 44.9 33.65 45.35 38.55 47.1 33.65 62.35 33.65 59.35 40.8 62.7 40.35 Q67.25 40.35 70.15 42.8 L70.45 40.75 80.25 40.75 82.6 40.35 Q84.25 40.35 86.15 41.25 L89.35 43.1 M0.6 13.85 L1.0 8.85 Q1.0 4.45 -0.85 1.4 -2.65 -1.6 -6.8 -1.6 -8.85 -1.6 -10.2 -0.9 -11.65 -0.2 -13.15 1.75 -14.7 3.85 -15.5 6.7 -16.4 9.6 -16.4 12.95 -16.4 17.75 -14.5 21.1 -12.6 24.4 -8.25 24.4 -5.25 24.4 -3.2 22.8 -1.2 21.15 0.1 17.45 L-5.45 16.6 Q-6.4 18.85 -8.1 18.85 -10.5 18.85 -10.75 13.85 L0.6 13.85 M9.9 19.2 Q9.1 19.2 8.6 18.5 8.1 17.75 8.1 16.65 8.1 15.5 8.8 14.65 9.5 13.75 13.45 12.7 13.05 16.3 12.0 17.75 10.95 19.2 9.9 19.2 M19.75 5.6 Q19.75 2.0 18.2 0.25 16.7 -1.6 12.25 -1.6 8.4 -1.6 6.55 0.3 4.65 2.25 4.15 5.8 L9.5 6.75 Q9.95 5.0 10.6 4.5 11.15 4.0 12.15 4.0 13.05 4.0 13.7 4.55 14.25 5.2 14.25 6.05 L14.1 7.75 10.75 8.6 Q8.25 9.0 6.35 9.7 4.7 10.3 3.65 12.05 2.5 13.8 2.5 17.1 2.5 19.95 3.75 22.2 5.05 24.4 7.85 24.4 10.6 24.4 12.85 21.0 L13.05 23.8 18.65 23.8 Q18.25 21.95 18.25 20.4 18.25 18.4 19.0 13.3 19.75 7.9 19.75 5.6 M62.55 48.5 Q63.5 48.5 64.15 49.25 64.75 50.0 64.75 51.4 L64.65 52.45 59.45 52.45 Q59.9 50.5 60.75 49.5 61.6 48.5 62.55 48.5 M59.5 44.85 Q58.25 45.35 56.75 46.9 55.4 48.35 54.55 50.6 53.7 52.85 53.7 55.3 53.7 58.85 55.45 61.35 57.2 63.85 61.35 63.85 64.25 63.85 66.1 62.65 67.95 61.5 69.15 58.65 L64.0 58.0 Q63.0 59.7 61.5 59.7 59.25 59.7 59.0 55.95 L69.65 55.95 70.0 52.2 Q70.0 48.9 68.3 46.6 66.6 44.35 62.7 44.35 60.8 44.35 59.5 44.85 M56.35 37.65 L49.85 37.65 42.95 56.0 41.25 37.65 35.3 37.65 39.05 63.4 45.5 63.4 56.35 37.65 M130.7 58.85 Q129.65 59.95 128.65 59.95 127.95 59.95 127.5 59.45 127.0 58.95 127.0 58.05 127.0 57.2 127.65 56.55 128.35 55.85 132.0 55.05 131.7 57.75 130.7 58.85 M87.65 56.2 L81.9 56.2 80.7 63.4 86.5 63.4 87.65 56.2 M108.8 37.65 L103.2 37.65 99.05 63.4 104.65 63.4 107.1 48.45 111.9 63.4 117.5 63.4 121.65 37.65 116.05 37.65 113.55 52.65 108.8 37.65 M-170.05 -52.05 Q-165.55 -52.05 -163.15 -48.25 L-163.1 -48.2 Q-159.6 -52.05 -154.2 -52.05 -148.9 -52.05 -145.8 -48.75 -144.4 -47.2 -143.65 -45.15 L-138.5 -45.15 Q-138.05 -53.4 -134.05 -59.65 -128.8 -67.9 -119.65 -67.9 -111.6 -67.9 -107.9 -61.9 -105.15 -57.45 -104.45 -48.65 L-117.7 -46.65 -105.2 -44.05 Q-107.2 -35.0 -110.45 -30.55 -114.95 -24.4 -123.1 -24.4 -130.75 -24.4 -134.9 -30.05 L-135.95 -31.65 -144.35 -31.65 Q-146.1 -28.3 -148.05 -26.8 -150.85 -24.55 -155.5 -24.55 -161.1 -24.55 -164.2 -28.15 L-164.5 -28.55 Q-167.35 -24.5 -171.85 -24.5 L-173.35 -24.6 -174.4 -17.85 -187.9 -17.85 -187.0 -23.3 Q-188.2 -21.0 -189.55 -19.65 -191.85 -17.4 -195.3 -17.4 -198.05 -17.4 -203.5 -19.45 L-203.0 -24.7 -204.65 -24.55 Q-208.35 -24.55 -210.6 -27.05 -212.8 -29.45 -212.8 -33.15 L-212.4 -36.75 -212.1 -38.5 -214.0 -38.5 -212.0 -51.65 -210.0 -51.65 -209.8 -52.9 -194.75 -62.95 -196.55 -51.65 -172.85 -51.65 -170.05 -52.05 M-190.3 -6.4 Q-191.0 -8.45 -192.35 -9.5 -193.7 -10.55 -196.3 -10.55 L-205.7 -10.55 -210.15 23.8 -203.7 23.8 -202.1 11.15 -199.3 11.15 Q-195.9 11.15 -194.0 9.85 -192.1 8.5 -190.85 5.5 -189.6 2.55 -189.6 -1.35 -189.6 -4.5 -190.3 -6.4 M-200.15 -3.75 L-197.65 -3.75 Q-195.65 -3.75 -195.65 -0.65 -195.65 1.45 -196.6 2.85 -197.55 4.35 -199.05 4.35 L-201.2 4.35 -200.15 -3.75 M-197.1 -26.5 Q-197.95 -26.5 -198.85 -26.95 L-199.25 -22.15 Q-197.3 -21.4 -195.3 -21.4 -193.6 -21.4 -192.4 -22.45 -191.1 -23.65 -189.9 -26.6 L-181.0 -47.65 -186.45 -47.65 -191.25 -34.65 -192.0 -47.65 -197.3 -47.65 -194.6 -29.0 Q-195.5 -26.5 -197.1 -26.5 M-162.35 -41.8 Q-163.15 -39.7 -163.15 -37.1 -163.15 -33.55 -161.4 -31.05 -159.7 -28.55 -155.5 -28.55 -152.65 -28.55 -150.8 -29.75 -148.95 -30.9 -147.7 -33.75 L-152.9 -34.4 Q-153.85 -32.7 -155.4 -32.7 -157.65 -32.7 -157.9 -36.45 L-147.25 -36.45 -146.85 -40.2 Q-146.85 -43.45 -148.6 -45.8 -150.25 -48.05 -154.2 -48.05 L-157.35 -47.55 Q-158.75 -47.0 -160.1 -45.5 -161.55 -43.95 -162.35 -41.8 M-165.2 -40.3 Q-165.2 -43.9 -166.45 -45.95 -167.7 -48.05 -170.05 -48.05 -171.4 -48.05 -172.25 -47.55 L-174.3 -45.7 -174.35 -45.75 -174.1 -47.65 -179.05 -47.65 -183.2 -21.85 -177.85 -21.85 -176.3 -31.45 Q-174.8 -28.5 -171.85 -28.5 -169.0 -28.5 -167.05 -32.05 -165.2 -35.55 -165.2 -40.3 M-170.95 -42.6 Q-170.4 -41.8 -170.4 -40.15 -170.4 -37.4 -171.25 -35.3 -172.05 -33.35 -173.25 -33.35 -174.1 -33.35 -174.7 -34.15 -175.35 -35.05 -175.35 -36.6 -175.35 -38.75 -174.55 -41.15 -173.75 -43.35 -172.25 -43.35 -171.45 -43.35 -170.95 -42.6 M-208.55 -47.65 L-209.35 -42.5 -207.45 -42.5 -208.8 -33.15 Q-208.8 -31.4 -207.85 -30.0 -207.0 -28.55 -204.65 -28.55 L-201.1 -29.0 -200.3 -34.1 -201.95 -33.75 Q-203.2 -33.75 -203.2 -35.0 L-202.1 -42.5 -199.3 -42.5 -198.45 -47.65 -201.25 -47.65 -200.15 -54.55 -206.15 -50.55 -206.6 -47.65 -208.55 -47.65 M-185.75 -4.35 Q-183.25 -5.6 -179.65 -5.6 -174.2 -5.6 -171.35 -3.1 L-171.1 -5.05 -160.9 -5.05 -158.25 -5.6 Q-156.55 -5.6 -154.7 -4.6 L-154.0 -4.1 Q-151.4 -5.6 -147.45 -5.6 -139.95 -5.6 -137.35 -0.85 -133.75 -5.6 -127.75 -5.6 -122.95 -5.6 -120.15 -2.95 L-118.65 -14.55 -104.9 -14.55 -106.05 -5.6 -105.65 -5.6 Q-102.75 -5.6 -100.75 -3.8 L-100.6 -5.05 -80.6 -5.05 Q-79.15 -8.0 -64.9 -19.85 L-66.8 -5.05 -63.85 -5.05 -63.95 -4.0 Q-61.35 -5.6 -58.0 -5.6 -52.05 -5.6 -48.9 -1.15 -46.2 2.7 -46.2 8.85 -46.2 11.05 -46.55 14.1 L-45.75 14.25 -46.95 17.7 Q-48.85 22.95 -51.1 25.25 -54.15 28.4 -59.4 28.4 -64.35 28.4 -67.35 25.4 L-67.6 27.1 -75.0 28.4 Q-78.65 28.4 -80.9 25.9 L-81.15 27.8 -92.25 27.8 Q-93.5 28.4 -95.35 28.4 -98.3 28.4 -100.25 26.65 L-100.4 27.8 -124.15 27.8 -124.05 27.1 Q-126.55 28.4 -129.8 28.4 -133.75 28.4 -136.4 26.6 L-136.15 27.8 -148.8 27.8 Q-150.2 28.4 -151.9 28.4 -156.45 28.4 -159.0 24.85 -160.15 23.25 -160.65 21.25 L-161.5 27.8 -181.0 27.8 Q-182.4 28.4 -184.1 28.4 -188.65 28.4 -191.2 24.85 -193.4 21.75 -193.4 17.1 L-193.15 13.9 Q-195.55 15.05 -198.6 15.15 L-200.2 27.8 -214.7 27.8 -209.2 -14.55 -196.3 -14.55 Q-186.9 -14.55 -185.75 -4.35 M-112.0 -60.65 Q-114.75 -63.9 -119.65 -63.9 -124.45 -63.9 -127.7 -61.0 -131.0 -58.2 -132.85 -53.0 -134.6 -47.9 -134.6 -42.9 -134.6 -36.35 -131.65 -32.35 -128.65 -28.4 -123.1 -28.4 -117.75 -28.4 -114.45 -32.0 -111.15 -35.55 -109.95 -41.0 L-117.4 -42.5 Q-118.4 -39.2 -119.6 -37.75 -120.9 -36.2 -122.7 -36.2 -124.7 -36.2 -125.7 -37.95 -126.75 -39.7 -126.75 -42.2 -126.75 -45.5 -125.75 -49.1 -124.65 -52.75 -123.05 -54.35 -121.35 -56.1 -119.65 -56.1 -118.25 -56.1 -117.15 -54.9 -116.05 -53.65 -116.05 -51.15 L-116.05 -50.95 -108.7 -52.05 Q-109.15 -57.4 -112.0 -60.65 M-162.25 -1.05 L-167.6 -1.05 -170.75 23.8 -165.05 23.8 -163.85 14.5 Q-163.25 10.1 -162.25 8.2 -161.2 6.25 -159.6 6.25 L-158.4 6.5 -156.3 -0.85 Q-157.35 -1.6 -158.25 -1.6 -159.45 -1.6 -160.5 -0.5 -161.4 0.55 -162.9 3.85 L-162.25 -1.05 M-122.75 -42.2 L-122.5 -40.5 Q-121.95 -41.35 -120.2 -47.2 L-120.05 -51.7 Q-121.35 -50.4 -122.15 -47.15 -122.75 -44.5 -122.75 -42.2 M-178.45 12.7 Q-178.8 16.2 -179.9 17.75 -180.95 19.2 -182.05 19.2 -182.8 19.2 -183.3 18.5 -183.8 17.85 -183.8 16.65 -183.8 15.5 -183.1 14.65 -182.4 13.75 -178.45 12.7 M-172.15 5.6 Q-172.15 2.1 -173.7 0.25 -175.25 -1.6 -179.65 -1.6 -183.5 -1.6 -185.4 0.3 -187.25 2.3 -187.75 5.8 L-182.4 6.75 Q-181.95 5.0 -181.35 4.5 -180.8 4.0 -179.75 4.0 -178.8 4.0 -178.25 4.55 -177.65 5.15 -177.65 6.05 L-177.85 7.75 -181.15 8.6 -185.55 9.7 Q-187.15 10.3 -188.3 12.05 -189.4 13.85 -189.4 17.1 -189.4 20.05 -188.15 22.2 -186.95 24.4 -184.1 24.4 -181.3 24.4 -179.05 21.0 L-178.85 23.8 -173.3 23.8 Q-173.65 22.2 -173.65 20.4 L-172.95 13.3 Q-172.15 8.05 -172.15 5.6 M-146.25 12.7 Q-146.6 16.2 -147.7 17.75 -148.75 19.2 -149.85 19.2 -150.6 19.2 -151.1 18.5 -151.6 17.85 -151.6 16.65 -151.6 15.5 -150.9 14.65 -150.2 13.75 -146.25 12.7 M-139.95 5.6 Q-139.95 2.0 -141.5 0.25 -143.05 -1.6 -147.45 -1.6 -151.3 -1.6 -153.15 0.3 -155.05 2.25 -155.55 5.8 L-150.2 6.75 Q-149.75 5.0 -149.15 4.5 -148.6 4.0 -147.55 4.0 -146.6 4.0 -146.05 4.55 -145.45 5.15 -145.45 6.05 L-145.65 7.75 -148.95 8.6 -153.35 9.7 Q-154.95 10.3 -156.1 12.05 -157.2 13.85 -157.2 17.1 -157.2 19.95 -155.95 22.2 -154.65 24.4 -151.9 24.4 -149.1 24.4 -146.85 21.0 L-146.65 23.8 -141.1 23.8 Q-141.45 22.2 -141.45 20.4 L-140.75 13.3 Q-139.95 8.05 -139.95 5.6 M-127.75 4.8 Q-125.5 4.8 -125.1 8.05 L-119.95 7.6 Q-120.35 2.95 -122.3 0.7 -124.3 -1.6 -127.75 -1.6 -132.5 -1.6 -135.05 2.9 -137.65 7.35 -137.65 13.65 -137.65 24.4 -129.8 24.4 -122.75 24.4 -120.8 14.7 L-126.15 13.75 Q-127.25 17.95 -129.55 17.95 -130.45 17.95 -131.3 16.9 -132.1 15.7 -132.1 13.8 -132.1 10.5 -130.95 7.65 -129.8 4.8 -127.75 4.8 M-56.45 4.9 Q-55.75 5.9 -55.75 7.8 L-55.85 9.2 -61.4 9.2 Q-60.95 6.6 -60.05 5.25 -59.2 3.95 -58.15 3.95 -57.1 3.95 -56.45 4.9 M-5.3 4.9 Q-4.6 5.8 -4.6 7.8 L-4.7 9.2 -10.25 9.2 Q-9.8 6.6 -8.9 5.25 -8.0 3.95 -6.95 3.95 -5.95 3.95 -5.3 4.9 M-26.5 -10.55 L-35.0 -10.55 -39.3 23.8 -28.45 23.8 Q-26.25 23.8 -23.85 22.15 -21.35 20.5 -19.65 15.25 -17.85 10.0 -17.85 3.85 -17.85 -2.6 -19.95 -6.55 -22.0 -10.55 -26.5 -10.55 M-27.5 -2.95 Q-25.6 -2.95 -24.85 -1.45 -24.15 0.0 -24.15 2.75 -24.15 7.35 -25.4 11.75 -26.65 16.25 -29.3 16.25 L-31.95 16.25 -29.55 -2.95 -27.5 -2.95 M-58.0 -1.6 Q-60.0 -1.6 -61.4 -0.9 -62.75 -0.25 -64.3 1.75 -65.8 3.75 -66.7 6.7 -67.55 9.7 -67.55 12.95 -67.55 17.85 -65.7 21.1 -63.8 24.4 -59.4 24.4 -56.4 24.4 -54.35 22.8 -52.3 21.15 -51.1 17.45 L-56.6 16.6 Q-57.55 18.85 -59.25 18.85 -61.7 18.85 -61.95 13.85 L-50.55 13.85 -50.2 8.85 Q-50.2 4.45 -52.0 1.4 -53.8 -1.6 -58.0 -1.6 M-76.6 -4.95 L-77.1 -1.05 -79.15 -1.05 -80.0 5.8 -77.95 5.8 -79.45 18.3 Q-79.45 20.5 -78.45 22.5 -77.4 24.4 -75.0 24.4 L-71.25 23.8 -70.35 17.0 -72.15 17.45 Q-73.5 17.45 -73.5 15.75 L-72.25 5.8 -69.25 5.8 -68.4 -1.05 -71.35 -1.05 -70.2 -10.25 -76.6 -4.95 M-81.45 -1.05 L-87.25 -1.05 -88.65 9.75 Q-89.1 13.45 -90.05 15.4 -91.0 17.35 -92.3 17.35 -93.4 17.35 -93.4 15.25 L-91.4 -1.05 -97.1 -1.05 -98.85 12.25 Q-99.45 16.8 -99.45 18.45 -99.45 20.9 -98.4 22.65 -97.45 24.4 -95.35 24.4 -92.0 24.4 -89.55 20.05 L-90.05 23.8 -84.65 23.8 -81.45 -1.05 M-109.45 -10.55 L-115.15 -10.55 -119.6 23.8 -113.85 23.8 -112.4 13.05 Q-111.95 9.25 -111.0 7.35 -110.1 5.35 -108.8 5.35 -107.65 5.35 -107.65 7.4 L-109.7 23.8 -103.95 23.8 -101.65 4.35 Q-101.65 1.9 -102.65 0.15 -103.65 -1.6 -105.65 -1.6 -108.9 -1.6 -110.95 2.0 L-111.05 1.9 -109.45 -10.55 M-152.2 -39.95 L-157.4 -39.95 Q-156.95 -42.0 -156.15 -42.9 -155.3 -43.9 -154.3 -43.9 -153.35 -43.9 -152.75 -43.15 -152.1 -42.45 -152.1 -41.0 L-152.2 -39.95 M-138.2 -35.65 L-137.35 -41.15 -145.15 -41.15 -146.05 -35.65 -138.2 -35.65" fill="#0000ff" fill-rule="evenodd" stroke="none"/>
    <path d="M25.05 -1.05 L25.55 -4.95 31.95 -10.25 30.75 -1.05 33.7 -1.05 32.85 5.8 29.85 5.8 28.65 15.75 Q28.65 17.45 29.95 17.45 L31.75 17.0 30.9 23.8 27.1 24.4 Q24.7 24.4 23.7 22.5 22.7 20.65 22.7 18.3 L24.15 5.8 22.1 5.8 22.95 -1.05 25.05 -1.05 M69.8 -9.8 Q71.8 -11.1 74.35 -11.1 82.75 -11.1 83.25 -1.0 L77.3 -0.45 Q77.1 -4.95 74.3 -4.95 73.2 -4.95 72.55 -4.15 71.95 -3.35 71.95 -2.2 71.95 -1.35 72.45 -0.65 72.9 0.1 74.75 1.25 77.25 2.85 78.55 4.1 80.05 5.45 80.95 7.55 81.9 9.85 81.9 12.9 81.9 15.85 80.9 18.45 79.85 21.05 78.0 22.75 76.05 24.4 72.6 24.4 67.7 24.4 65.65 21.25 63.6 18.15 63.6 13.2 L63.6 12.4 69.6 11.75 Q69.6 15.05 70.45 16.25 71.3 17.6 72.8 17.6 74.25 17.6 75.1 16.5 75.9 15.4 75.9 14.0 75.9 13.05 75.4 12.05 74.9 11.15 72.9 9.95 68.4 7.3 67.15 4.95 65.95 2.6 65.95 -0.6 65.95 -3.45 66.95 -6.0 67.95 -8.45 69.8 -9.8 M43.85 -10.55 L42.25 1.9 42.3 2.0 Q44.4 -1.6 47.6 -1.6 49.65 -1.6 50.65 0.15 51.65 1.9 51.65 4.35 L51.05 10.25 49.35 23.8 43.6 23.8 45.6 7.4 Q45.6 5.35 44.5 5.35 43.2 5.35 42.3 7.35 41.4 9.15 40.85 13.05 L39.45 23.8 33.7 23.8 38.15 -10.55 43.85 -10.55 M93.7 -1.6 Q97.9 -1.6 99.7 1.4 101.5 4.45 101.5 8.85 L101.15 13.85 89.75 13.85 Q90.0 18.85 92.45 18.85 94.15 18.85 95.1 16.6 L100.6 17.45 Q99.4 21.15 97.35 22.8 95.3 24.4 92.3 24.4 87.9 24.4 86.0 21.1 84.15 17.85 84.15 12.95 84.15 9.7 85.0 6.7 85.9 3.75 87.4 1.75 88.95 -0.25 90.3 -0.9 91.7 -1.6 93.7 -1.6 M111.05 -1.05 L110.55 2.7 110.6 2.8 Q113.0 -1.6 116.35 -1.6 118.45 -1.6 119.4 0.1 120.4 1.75 120.4 4.35 120.4 6.2 119.85 10.25 L118.15 23.8 112.4 23.8 114.4 7.4 Q114.4 5.35 113.25 5.35 112.0 5.35 111.05 7.35 110.1 9.45 109.65 13.05 L108.25 23.8 102.45 23.8 105.7 -1.05 111.05 -1.05 M126.3 -4.95 L132.7 -10.25 131.5 -1.05 134.45 -1.05 133.6 5.8 130.6 5.8 129.4 15.75 Q129.4 17.45 130.75 17.45 L132.5 17.0 131.65 23.8 127.85 24.4 Q125.45 24.4 124.45 22.5 123.45 20.65 123.45 18.3 L124.9 5.8 122.85 5.8 123.7 -1.05 125.8 -1.05 126.3 -4.95 M144.9 -1.6 Q149.05 -1.6 150.85 1.4 152.7 4.45 152.7 8.85 L152.3 13.85 140.95 13.85 Q141.2 18.85 143.6 18.85 145.3 18.85 146.25 16.6 L151.8 17.45 Q150.5 21.15 148.5 22.8 146.45 24.4 143.45 24.4 139.0 24.4 137.2 21.1 135.3 17.75 135.3 12.95 135.3 9.6 136.2 6.7 137.0 3.85 138.55 1.75 140.05 -0.2 141.5 -0.9 142.85 -1.6 144.9 -1.6 M202.5 -1.6 Q206.65 -1.6 208.45 1.4 210.3 4.45 210.3 8.85 L209.9 13.85 198.55 13.85 Q198.8 18.85 201.2 18.85 202.9 18.85 203.85 16.6 L209.4 17.45 Q208.1 21.15 206.1 22.8 204.05 24.4 201.05 24.4 196.6 24.4 194.8 21.1 192.9 17.75 192.9 12.95 192.9 9.6 193.8 6.7 194.6 3.85 196.15 1.75 197.65 -0.2 199.1 -0.9 200.45 -1.6 202.5 -1.6 M162.2 -1.05 L161.7 2.7 161.75 2.8 Q164.15 -1.6 167.55 -1.6 169.55 -1.6 170.6 0.1 171.6 1.85 171.6 4.35 L169.3 23.8 163.55 23.8 165.55 7.4 Q165.55 5.35 164.45 5.35 163.15 5.35 162.25 7.35 161.35 9.15 160.8 13.05 L159.4 23.8 153.65 23.8 156.85 -1.05 162.2 -1.05 M204.0 4.9 Q203.35 3.95 202.35 3.95 201.3 3.95 200.4 5.25 199.5 6.6 199.05 9.2 L204.6 9.2 204.7 7.8 Q204.7 5.9 204.0 4.9 M208.5 45.75 Q209.9 47.05 209.9 49.75 209.9 51.75 209.2 55.55 208.5 59.45 208.5 60.85 208.5 61.9 208.85 63.4 L203.65 63.4 203.45 61.3 Q201.35 63.85 198.75 63.85 196.1 63.85 194.95 62.2 193.75 60.55 193.75 58.4 193.75 55.85 194.8 54.6 195.9 53.3 197.35 52.85 L201.5 52.0 204.6 51.35 204.75 50.1 Q204.75 49.4 204.25 48.95 203.7 48.55 202.8 48.55 201.95 48.55 201.3 48.95 200.75 49.35 200.3 50.6 L195.3 49.9 Q195.8 47.25 197.55 45.8 199.3 44.35 202.9 44.35 207.05 44.35 208.5 45.75 M191.5 7.6 L186.3 8.05 Q185.9 4.8 183.65 4.8 181.6 4.8 180.45 7.65 179.35 10.35 179.35 13.8 179.35 15.8 180.15 16.9 180.9 17.95 181.85 17.95 184.15 17.95 185.25 13.75 L190.6 14.7 Q188.65 24.4 181.65 24.4 173.75 24.4 173.75 13.65 173.75 7.35 176.35 2.9 179.0 -1.6 183.65 -1.6 187.1 -1.6 189.1 0.7 191.15 3.0 191.5 7.6 M165.3 48.95 Q164.75 49.35 164.3 50.6 L159.3 49.9 Q159.8 47.25 161.55 45.8 163.3 44.35 166.9 44.35 171.05 44.35 172.5 45.75 173.9 47.05 173.9 49.75 173.9 51.75 173.2 55.55 172.55 59.15 172.55 60.85 172.55 62.1 172.85 63.4 L167.65 63.4 167.45 61.3 Q165.35 63.85 162.75 63.85 160.1 63.85 158.95 62.2 157.75 60.55 157.75 58.4 157.75 55.85 158.8 54.6 159.9 53.3 161.35 52.85 L165.5 52.0 168.6 51.35 168.75 50.1 Q168.75 49.4 168.25 48.95 167.7 48.55 166.8 48.55 165.95 48.55 165.3 48.95 M190.45 46.1 Q192.35 47.85 192.7 51.25 L187.85 51.6 Q187.45 49.15 185.4 49.15 183.4 49.15 182.35 51.3 181.3 53.4 181.3 55.9 181.3 57.45 182.05 58.2 182.8 59.05 183.7 59.05 185.85 59.05 186.85 55.85 L191.9 56.6 Q190.05 63.85 183.45 63.85 176.1 63.85 176.1 55.8 176.1 51.1 178.5 47.75 181.0 44.35 185.4 44.35 188.55 44.35 190.45 46.1 M200.65 59.95 Q201.65 59.95 202.7 58.85 203.7 57.75 204.0 55.05 200.35 55.85 199.65 56.55 199.0 57.2 199.0 58.05 199.0 58.95 199.5 59.45 199.95 59.95 200.65 59.95 M168.0 55.05 Q164.35 55.85 163.65 56.55 163.0 57.2 163.0 58.05 163.0 58.95 163.5 59.45 163.95 59.95 164.65 59.95 165.65 59.95 166.7 58.85 167.7 57.75 168.0 55.05 M146.4 4.9 Q145.75 3.95 144.75 3.95 143.7 3.95 142.8 5.25 141.9 6.6 141.45 9.2 L147.0 9.2 147.1 7.8 Q147.1 5.8 146.4 4.9 M129.3 48.95 Q128.75 49.35 128.3 50.6 L123.3 49.9 Q123.8 47.25 125.55 45.8 127.3 44.35 130.9 44.35 135.05 44.35 136.5 45.75 137.9 47.05 137.9 49.75 137.9 51.75 137.2 55.55 136.55 59.15 136.55 60.85 136.55 62.1 136.85 63.4 L131.65 63.4 131.45 61.3 Q129.35 63.85 126.75 63.85 124.1 63.85 122.95 62.2 121.75 60.55 121.75 58.4 121.75 55.85 122.8 54.6 123.9 53.3 125.35 52.85 L129.5 52.0 132.6 51.35 132.75 50.1 Q132.75 49.4 132.25 48.95 131.7 48.55 130.8 48.55 129.95 48.55 129.3 48.95 M147.25 44.75 L146.8 47.6 146.85 47.65 Q149.1 44.35 152.25 44.35 154.1 44.35 155.1 45.65 156.05 46.9 156.05 48.8 L155.55 53.25 153.9 63.4 148.55 63.4 150.4 51.1 Q150.4 49.55 149.35 49.55 148.2 49.55 147.3 51.05 146.4 52.55 145.95 55.35 L144.65 63.4 139.25 63.4 142.25 44.75 147.25 44.75 M93.55 3.95 Q92.5 3.95 91.65 5.25 90.75 6.6 90.3 9.2 L95.85 9.2 95.95 7.8 Q95.95 5.9 95.25 4.9 94.6 3.95 93.55 3.95 M84.45 44.9 L82.5 50.45 81.4 50.25 Q79.8 50.25 78.9 51.7 77.95 53.2 77.4 56.45 L76.3 63.4 70.9 63.4 73.9 44.75 78.9 44.75 78.3 48.45 Q79.6 46.0 80.55 45.2 81.5 44.35 82.6 44.35 83.45 44.35 84.45 44.9 M108.8 37.65 L113.55 52.65 116.05 37.65 121.65 37.65 117.5 63.4 111.9 63.4 107.1 48.45 104.65 63.4 99.05 63.4 103.2 37.65 108.8 37.65 M87.65 56.2 L86.5 63.4 80.7 63.4 81.9 56.2 87.65 56.2 M130.7 58.85 Q131.7 57.75 132.0 55.05 128.35 55.85 127.65 56.55 127.0 57.2 127.0 58.05 127.0 58.95 127.5 59.45 127.95 59.95 128.65 59.95 129.65 59.95 130.7 58.85 M56.35 37.65 L45.5 63.4 39.05 63.4 35.3 37.65 41.25 37.65 42.95 56.0 49.85 37.65 56.35 37.65 M59.5 44.85 Q60.8 44.35 62.7 44.35 66.6 44.35 68.3 46.6 70.0 48.9 70.0 52.2 L69.65 55.95 59.0 55.95 Q59.25 59.7 61.5 59.7 63.0 59.7 64.0 58.0 L69.15 58.65 Q67.95 61.5 66.1 62.65 64.25 63.85 61.35 63.85 57.2 63.85 55.45 61.35 53.7 58.85 53.7 55.3 53.7 52.85 54.55 50.6 55.4 48.35 56.75 46.9 58.25 45.35 59.5 44.85 M62.55 48.5 Q61.6 48.5 60.75 49.5 59.9 50.5 59.45 52.45 L64.65 52.45 64.75 51.4 Q64.75 50.0 64.15 49.25 63.5 48.5 62.55 48.5 M19.75 5.6 Q19.75 7.9 19.0 13.3 18.25 18.4 18.25 20.4 18.25 21.95 18.65 23.8 L13.05 23.8 12.85 21.0 Q10.6 24.4 7.85 24.4 5.05 24.4 3.75 22.2 2.5 19.95 2.5 17.1 2.5 13.8 3.65 12.05 4.7 10.3 6.35 9.7 8.25 9.0 10.75 8.6 L14.1 7.75 14.25 6.05 Q14.25 5.2 13.7 4.55 13.05 4.0 12.15 4.0 11.15 4.0 10.6 4.5 9.95 5.0 9.5 6.75 L4.15 5.8 Q4.65 2.25 6.55 0.3 8.4 -1.6 12.25 -1.6 16.7 -1.6 18.2 0.25 19.75 2.0 19.75 5.6 M9.9 19.2 Q10.95 19.2 12.0 17.75 13.05 16.3 13.45 12.7 9.5 13.75 8.8 14.65 8.1 15.5 8.1 16.65 8.1 17.75 8.6 18.5 9.1 19.2 9.9 19.2 M0.6 13.85 L-10.75 13.85 Q-10.5 18.85 -8.1 18.85 -6.4 18.85 -5.45 16.6 L0.1 17.45 Q-1.2 21.15 -3.2 22.8 -5.25 24.4 -8.25 24.4 -12.6 24.4 -14.5 21.1 -16.4 17.75 -16.4 12.95 -16.4 9.6 -15.5 6.7 -14.7 3.85 -13.15 1.75 -11.65 -0.2 -10.2 -0.9 -8.85 -1.6 -6.8 -1.6 -2.65 -1.6 -0.85 1.4 1.0 4.45 1.0 8.85 L0.6 13.85 M-208.55 -47.65 L-206.6 -47.65 -206.15 -50.55 -200.15 -54.55 -201.25 -47.65 -198.45 -47.65 -199.3 -42.5 -202.1 -42.5 -203.2 -35.0 Q-203.2 -33.75 -201.95 -33.75 L-200.3 -34.1 -201.1 -29.0 -204.65 -28.55 Q-207.0 -28.55 -207.85 -30.0 -208.8 -31.4 -208.8 -33.15 L-207.45 -42.5 -209.35 -42.5 -208.55 -47.65 M-170.95 -42.6 Q-171.45 -43.35 -172.25 -43.35 -173.75 -43.35 -174.55 -41.15 -175.35 -38.75 -175.35 -36.6 -175.35 -35.05 -174.7 -34.15 -174.1 -33.35 -173.25 -33.35 -172.05 -33.35 -171.25 -35.3 -170.4 -37.4 -170.4 -40.15 -170.4 -41.8 -170.95 -42.6 M-165.2 -40.3 Q-165.2 -35.55 -167.05 -32.05 -169.0 -28.5 -171.85 -28.5 -174.8 -28.5 -176.3 -31.45 L-177.85 -21.85 -183.2 -21.85 -179.05 -47.65 -174.1 -47.65 -174.35 -45.75 -174.3 -45.7 -172.25 -47.55 Q-171.4 -48.05 -170.05 -48.05 -167.7 -48.05 -166.45 -45.95 -165.2 -43.9 -165.2 -40.3 M-162.35 -41.8 Q-161.55 -43.95 -160.1 -45.5 -158.75 -47.0 -157.35 -47.55 L-154.2 -48.05 Q-150.25 -48.05 -148.6 -45.8 -146.85 -43.45 -146.85 -40.2 L-147.25 -36.45 -157.9 -36.45 Q-157.65 -32.7 -155.4 -32.7 -153.85 -32.7 -152.9 -34.4 L-147.7 -33.75 Q-148.95 -30.9 -150.8 -29.75 -152.65 -28.55 -155.5 -28.55 -159.7 -28.55 -161.4 -31.05 -163.15 -33.55 -163.15 -37.1 -163.15 -39.7 -162.35 -41.8 M-197.1 -26.5 Q-195.5 -26.5 -194.6 -29.0 L-197.3 -47.65 -192.0 -47.65 -191.25 -34.65 -186.45 -47.65 -181.0 -47.65 -189.9 -26.6 Q-191.1 -23.65 -192.4 -22.45 -193.6 -21.4 -195.3 -21.4 -197.3 -21.4 -199.25 -22.15 L-198.85 -26.95 Q-197.95 -26.5 -197.1 -26.5 M-200.15 -3.75 L-201.2 4.35 -199.05 4.35 Q-197.55 4.35 -196.6 2.85 -195.65 1.45 -195.65 -0.65 -195.65 -3.75 -197.65 -3.75 L-200.15 -3.75 M-190.3 -6.4 Q-189.6 -4.5 -189.6 -1.35 -189.6 2.55 -190.85 5.5 -192.1 8.5 -194.0 9.85 -195.9 11.15 -199.3 11.15 L-202.1 11.15 -203.7 23.8 -210.15 23.8 -205.7 -10.55 -196.3 -10.55 Q-193.7 -10.55 -192.35 -9.5 -191.0 -8.45 -190.3 -6.4 M-162.25 -1.05 L-162.9 3.85 Q-161.4 0.55 -160.5 -0.5 -159.45 -1.6 -158.25 -1.6 -157.35 -1.6 -156.3 -0.85 L-158.4 6.5 -159.6 6.25 Q-161.2 6.25 -162.25 8.2 -163.25 10.1 -163.85 14.5 L-165.05 23.8 -170.75 23.8 -167.6 -1.05 -162.25 -1.05 M-112.0 -60.65 Q-109.15 -57.4 -108.7 -52.05 L-116.05 -50.95 -116.05 -51.15 Q-116.05 -53.65 -117.15 -54.9 -118.25 -56.1 -119.65 -56.1 -121.35 -56.1 -123.05 -54.35 -124.65 -52.75 -125.75 -49.1 -126.75 -45.5 -126.75 -42.2 -126.75 -39.7 -125.7 -37.95 -124.7 -36.2 -122.7 -36.2 -120.9 -36.2 -119.6 -37.75 -118.4 -39.2 -117.4 -42.5 L-109.95 -41.0 Q-111.15 -35.55 -114.45 -32.0 -117.75 -28.4 -123.1 -28.4 -128.65 -28.4 -131.65 -32.35 -134.6 -36.35 -134.6 -42.9 -134.6 -47.9 -132.85 -53.0 -131.0 -58.2 -127.7 -61.0 -124.45 -63.9 -119.65 -63.9 -114.75 -63.9 -112.0 -60.65 M-138.2 -35.65 L-146.05 -35.65 -145.15 -41.15 -137.35 -41.15 -138.2 -35.65 M-152.2 -39.95 L-152.1 -41.0 Q-152.1 -42.45 -152.75 -43.15 -153.35 -43.9 -154.3 -43.9 -155.3 -43.9 -156.15 -42.9 -156.95 -42.0 -157.4 -39.95 L-152.2 -39.95 M-109.45 -10.55 L-111.05 1.9 -110.95 2.0 Q-108.9 -1.6 -105.65 -1.6 -103.65 -1.6 -102.65 0.15 -101.65 1.9 -101.65 4.35 L-103.95 23.8 -109.7 23.8 -107.65 7.4 Q-107.65 5.35 -108.8 5.35 -110.1 5.35 -111.0 7.35 -111.95 9.25 -112.4 13.05 L-113.85 23.8 -119.6 23.8 -115.15 -10.55 -109.45 -10.55 M-81.45 -1.05 L-84.65 23.8 -90.05 23.8 -89.55 20.05 Q-92.0 24.4 -95.35 24.4 -97.45 24.4 -98.4 22.65 -99.45 20.9 -99.45 18.45 -99.45 16.8 -98.85 12.25 L-97.1 -1.05 -91.4 -1.05 -93.4 15.25 Q-93.4 17.35 -92.3 17.35 -91.0 17.35 -90.05 15.4 -89.1 13.45 -88.65 9.75 L-87.25 -1.05 -81.45 -1.05 M-76.6 -4.95 L-70.2 -10.25 -71.35 -1.05 -68.4 -1.05 -69.25 5.8 -72.25 5.8 -73.5 15.75 Q-73.5 17.45 -72.15 17.45 L-70.35 17.0 -71.25 23.8 -75.0 24.4 Q-77.4 24.4 -78.45 22.5 -79.45 20.5 -79.45 18.3 L-77.95 5.8 -80.0 5.8 -79.15 -1.05 -77.1 -1.05 -76.6 -4.95 M-58.0 -1.6 Q-53.8 -1.6 -52.0 1.4 -50.2 4.45 -50.2 8.85 L-50.55 13.85 -61.95 13.85 Q-61.7 18.85 -59.25 18.85 -57.55 18.85 -56.6 16.6 L-51.1 17.45 Q-52.3 21.15 -54.35 22.8 -56.4 24.4 -59.4 24.4 -63.8 24.4 -65.7 21.1 -67.55 17.85 -67.55 12.95 -67.55 9.7 -66.7 6.7 -65.8 3.75 -64.3 1.75 -62.75 -0.25 -61.4 -0.9 -60.0 -1.6 -58.0 -1.6 M-27.5 -2.95 L-29.55 -2.95 -31.95 16.25 -29.3 16.25 Q-26.65 16.25 -25.4 11.75 -24.15 7.35 -24.15 2.75 -24.15 0.0 -24.85 -1.45 -25.6 -2.95 -27.5 -2.95 M-26.5 -10.55 Q-22.0 -10.55 -19.95 -6.55 -17.85 -2.6 -17.85 3.85 -17.85 10.0 -19.65 15.25 -21.35 20.5 -23.85 22.15 -26.25 23.8 -28.45 23.8 L-39.3 23.8 -35.0 -10.55 -26.5 -10.55 M-5.3 4.9 Q-5.95 3.95 -6.95 3.95 -8.0 3.95 -8.9 5.25 -9.8 6.6 -10.25 9.2 L-4.7 9.2 -4.6 7.8 Q-4.6 5.8 -5.3 4.9 M-56.45 4.9 Q-57.1 3.95 -58.15 3.95 -59.2 3.95 -60.05 5.25 -60.95 6.6 -61.4 9.2 L-55.85 9.2 -55.75 7.8 Q-55.75 5.9 -56.45 4.9 M-127.75 4.8 Q-129.8 4.8 -130.95 7.65 -132.1 10.5 -132.1 13.8 -132.1 15.7 -131.3 16.9 -130.45 17.95 -129.55 17.95 -127.25 17.95 -126.15 13.75 L-120.8 14.7 Q-122.75 24.4 -129.8 24.4 -137.65 24.4 -137.65 13.65 -137.65 7.35 -135.05 2.9 -132.5 -1.6 -127.75 -1.6 -124.3 -1.6 -122.3 0.7 -120.35 2.95 -119.95 7.6 L-125.1 8.05 Q-125.5 4.8 -127.75 4.8 M-139.95 5.6 Q-139.95 8.05 -140.75 13.3 L-141.45 20.4 Q-141.45 22.2 -141.1 23.8 L-146.65 23.8 -146.85 21.0 Q-149.1 24.4 -151.9 24.4 -154.65 24.4 -155.95 22.2 -157.2 19.95 -157.2 17.1 -157.2 13.85 -156.1 12.05 -154.95 10.3 -153.35 9.7 L-148.95 8.6 -145.65 7.75 -145.45 6.05 Q-145.45 5.15 -146.05 4.55 -146.6 4.0 -147.55 4.0 -148.6 4.0 -149.15 4.5 -149.75 5.0 -150.2 6.75 L-155.55 5.8 Q-155.05 2.25 -153.15 0.3 -151.3 -1.6 -147.45 -1.6 -143.05 -1.6 -141.5 0.25 -139.95 2.0 -139.95 5.6 M-146.25 12.7 Q-150.2 13.75 -150.9 14.65 -151.6 15.5 -151.6 16.65 -151.6 17.85 -151.1 18.5 -150.6 19.2 -149.85 19.2 -148.75 19.2 -147.7 17.75 -146.6 16.2 -146.25 12.7 M-172.15 5.6 Q-172.15 8.05 -172.95 13.3 L-173.65 20.4 Q-173.65 22.2 -173.3 23.8 L-178.85 23.8 -179.05 21.0 Q-181.3 24.4 -184.1 24.4 -186.95 24.4 -188.15 22.2 -189.4 20.05 -189.4 17.1 -189.4 13.85 -188.3 12.05 -187.15 10.3 -185.55 9.7 L-181.15 8.6 -177.85 7.75 -177.65 6.05 Q-177.65 5.15 -178.25 4.55 -178.8 4.0 -179.75 4.0 -180.8 4.0 -181.35 4.5 -181.95 5.0 -182.4 6.75 L-187.75 5.8 Q-187.25 2.3 -185.4 0.3 -183.5 -1.6 -179.65 -1.6 -175.25 -1.6 -173.7 0.25 -172.15 2.1 -172.15 5.6 M-178.45 12.7 Q-182.4 13.75 -183.1 14.65 -183.8 15.5 -183.8 16.65 -183.8 17.85 -183.3 18.5 -182.8 19.2 -182.05 19.2 -180.95 19.2 -179.9 17.75 -178.8 16.2 -178.45 12.7" fill="#7fffff" fill-rule="evenodd" stroke="none"/>
  </g>
</svg>
