<?xml version="1.0" encoding="UTF-8" standalone="no"?>
<svg xmlns:ffdec="https://www.free-decompiler.com/flash" xmlns:xlink="http://www.w3.org/1999/xlink" ffdec:objectType="shape" height="105.25px" width="262.4px" xmlns="http://www.w3.org/2000/svg">
  <g transform="matrix(1.0, 0.0, 0.0, 1.0, 131.2, 52.65)">
    <path d="M131.2 9.65 L128.85 24.5 125.1 24.5 124.65 27.4 128.95 26.25 126.5 41.95 118.25 43.1 Q113.9 43.1 111.25 40.15 L109.65 37.7 107.7 39.7 Q103.6 43.1 97.25 43.1 93.1 43.1 90.4 41.9 L90.55 42.5 75.35 42.5 Q73.7 43.1 71.85 43.1 66.9 43.1 64.0 39.85 L63.8 39.6 63.3 42.5 48.0 42.5 48.35 40.4 Q45.1 42.5 40.85 42.5 L20.3 42.5 27.05 0.15 42.35 0.15 Q48.3 0.15 51.7 3.1 53.05 4.25 53.9 5.8 L54.8 0.15 70.05 0.15 68.25 11.45 Q71.55 9.1 77.4 9.1 86.6 9.1 89.45 14.4 L91.25 12.5 Q95.2 9.1 101.05 9.1 106.45 9.1 109.35 11.35 L109.6 9.65 112.25 9.65 112.6 7.4 129.7 -3.95 127.5 9.65 131.2 9.65 M86.75 20.3 Q86.75 16.75 84.85 14.95 82.95 13.1 77.4 13.1 72.6 13.1 70.25 15.0 67.9 17.0 67.3 20.5 L73.95 21.45 Q74.55 19.7 75.3 19.2 76.0 18.7 77.3 18.7 78.45 18.7 79.15 19.25 79.9 19.85 79.9 20.75 L79.7 22.45 75.55 23.3 70.0 24.4 Q68.05 24.95 66.6 26.75 65.25 28.45 65.25 31.8 65.25 34.7 66.75 36.9 68.35 39.1 71.85 39.1 75.3 39.1 78.15 35.7 L78.35 38.5 85.35 38.5 Q84.9 36.75 84.9 35.1 84.9 33.1 85.8 28.0 86.75 22.75 86.75 20.3 M102.6 20.55 L109.3 19.6 Q108.85 16.05 106.8 14.55 104.8 13.1 101.05 13.1 97.8 13.1 95.55 14.3 93.35 15.5 92.2 17.6 91.1 19.8 91.1 21.85 91.1 24.5 92.6 26.3 94.05 28.1 98.25 28.9 L100.7 29.7 Q101.35 30.1 101.35 31.25 101.35 32.5 100.45 33.2 99.6 33.85 98.35 33.85 95.8 33.85 95.35 30.85 L88.3 31.65 Q88.7 35.6 90.7 37.35 92.75 39.1 97.25 39.1 102.7 39.1 105.4 36.4 108.05 33.75 108.05 29.85 108.05 27.05 106.7 25.4 105.4 23.8 101.2 22.95 98.6 22.4 98.05 21.85 97.45 21.3 97.45 20.45 97.45 19.55 98.15 18.95 98.9 18.3 100.1 18.3 102.3 18.3 102.6 20.55 M122.8 13.65 L124.3 4.45 116.3 9.75 115.65 13.65 113.05 13.65 112.0 20.5 114.55 20.5 112.7 33.0 Q112.7 35.2 114.0 37.2 115.2 39.1 118.25 39.1 L123.0 38.5 124.05 31.7 121.85 32.15 Q120.15 32.15 120.15 30.45 L121.7 20.5 125.45 20.5 126.5 13.65 122.8 13.65 M100.2 22.25 L98.65 21.1 99.15 21.85 Q99.55 21.85 100.1 22.3 L100.2 22.25 M78.9 27.4 Q78.45 30.95 77.1 32.45 75.75 33.9 74.4 33.9 73.4 33.9 72.85 33.2 72.2 32.45 72.2 31.35 72.2 30.15 73.1 29.35 73.9 28.45 78.9 27.4 M52.7 38.5 L59.9 38.5 65.35 4.15 58.2 4.15 52.7 38.5 M42.25 24.95 Q42.9 25.75 42.9 27.15 42.9 31.15 38.4 31.15 L34.15 31.15 35.3 24.15 39.6 24.15 Q41.6 24.15 42.25 24.95 M40.7 11.15 Q42.6 11.15 43.25 11.85 43.85 12.5 43.85 13.8 43.85 14.95 43.3 15.9 42.7 16.95 41.75 17.25 L39.0 17.6 36.3 17.6 37.3 11.15 40.7 11.15 M51.35 12.25 Q51.35 10.2 50.65 8.5 49.9 6.75 48.6 5.7 47.3 4.7 45.9 4.4 L30.5 4.15 25.0 38.5 40.85 38.5 Q45.6 38.5 48.15 35.2 50.7 31.9 50.7 27.8 50.7 22.3 46.55 20.5 49.1 19.4 50.2 17.15 51.35 14.9 51.35 12.25 M11.8 13.15 Q15.35 17.05 15.35 23.55 L14.9 28.7 15.95 28.85 14.35 32.55 Q11.95 37.95 9.3 40.15 5.8 43.1 -0.2 43.1 -7.05 43.1 -10.8 38.7 L-11.4 37.9 Q-12.6 45.05 -15.45 48.45 -18.9 52.6 -25.8 52.6 -31.85 52.6 -35.35 49.55 -39.05 46.3 -39.05 40.25 L-38.6 34.35 -36.75 34.7 Q-37.95 31.4 -37.95 27.75 L-37.9 26.45 Q-38.55 27.9 -38.85 29.85 L-40.85 42.5 -64.55 42.5 Q-66.2 43.1 -68.1 43.1 -73.0 43.1 -75.9 39.85 L-76.0 39.75 -76.45 42.5 -104.1 42.5 -103.65 39.7 Q-107.7 43.1 -113.8 43.1 -121.45 43.1 -125.55 37.45 -129.25 32.45 -129.25 24.6 -129.25 14.95 -124.75 7.85 -119.5 -0.4 -110.35 -0.4 -102.3 -0.4 -98.6 5.6 L-98.25 6.2 -97.3 0.15 -82.0 0.15 -83.45 9.2 -82.0 9.1 Q-77.85 9.1 -75.35 12.05 L-74.05 14.0 -73.35 13.0 Q-70.1 9.1 -62.5 9.1 -54.6 9.1 -51.35 13.0 L-50.85 9.65 -38.7 9.65 Q-37.3 9.1 -35.8 9.1 -34.0 9.1 -31.95 10.05 L-30.55 10.85 Q-27.9 9.1 -24.5 9.1 -22.85 9.1 -21.3 9.65 L-6.95 9.65 -7.3 11.95 Q-3.6 9.1 1.6 9.1 8.1 9.1 11.8 13.15 M9.05 16.1 Q6.8 13.1 1.6 13.1 -0.95 13.1 -2.65 13.8 -4.45 14.45 -6.35 16.45 -8.2 18.5 -9.3 21.4 -10.35 24.3 -10.35 27.65 -10.35 32.55 -8.05 35.8 -5.7 39.1 -0.2 39.1 3.55 39.1 6.15 37.5 8.6 35.85 10.2 32.15 L3.3 31.3 Q2.1 33.55 0.0 33.55 -3.05 33.55 -3.35 28.55 L10.85 28.55 11.35 23.55 Q11.35 19.15 9.05 16.1 M1.4 18.65 Q2.7 18.65 3.5 19.6 4.35 20.5 4.35 22.5 L4.25 23.9 -2.7 23.9 Q-2.1 21.25 -1.0 19.95 0.05 18.65 1.4 18.65 M-127.2 -36.95 L-127.0 -38.2 -111.95 -48.25 -113.75 -36.95 -90.05 -36.95 -87.25 -37.35 Q-82.75 -37.35 -80.35 -33.55 L-80.3 -33.5 Q-76.8 -37.35 -71.4 -37.35 -66.1 -37.35 -63.0 -34.05 -61.6 -32.5 -60.85 -30.45 L-54.95 -30.45 -51.4 -52.65 -36.1 -52.65 Q-30.15 -52.65 -26.75 -49.7 -23.1 -46.55 -23.1 -40.55 -23.1 -35.6 -25.75 -32.15 -23.75 -30.15 -23.75 -25.0 -23.75 -18.85 -27.55 -14.65 -31.5 -10.3 -37.6 -10.3 L-58.15 -10.3 -57.1 -16.95 -61.55 -16.95 Q-63.3 -13.6 -65.25 -12.1 -68.05 -9.85 -72.7 -9.85 -78.3 -9.85 -81.4 -13.45 L-81.7 -13.85 Q-84.55 -9.8 -89.05 -9.8 L-90.55 -9.9 -91.6 -3.15 -105.1 -3.15 -104.2 -8.6 Q-105.4 -6.3 -106.75 -4.95 -109.05 -2.7 -112.5 -2.7 -115.25 -2.7 -120.7 -4.75 L-120.2 -10.0 -121.85 -9.85 Q-125.55 -9.85 -127.8 -12.35 -130.0 -14.75 -130.0 -18.4 L-129.6 -22.05 -129.3 -23.8 -131.2 -23.8 -129.2 -36.95 -127.2 -36.95 M-67.1 33.2 Q-67.7 32.5 -67.7 31.35 -67.7 30.2 -66.85 29.35 -65.95 28.45 -61.05 27.4 -61.5 30.95 -62.85 32.45 -64.15 33.9 -65.5 33.9 -66.55 33.9 -67.1 33.2 M-77.0 19.05 Q-77.0 16.55 -78.25 14.85 -79.5 13.1 -82.0 13.1 -86.0 13.1 -88.65 16.7 L-88.7 16.6 -86.7 4.15 -93.85 4.15 -99.45 38.5 -92.2 38.5 -90.45 27.75 Q-89.85 24.05 -88.7 22.05 -87.5 20.05 -85.95 20.05 -84.5 20.05 -84.5 22.1 L-87.05 38.5 -79.85 38.5 -77.7 24.95 Q-77.0 20.35 -77.0 19.05 M-53.15 20.3 Q-53.15 16.75 -55.1 14.95 -57.0 13.1 -62.5 13.1 -67.35 13.1 -69.7 15.0 -72.0 16.9 -72.65 20.5 L-66.0 21.45 Q-65.4 19.7 -64.65 19.2 -63.95 18.7 -62.65 18.7 -61.55 18.7 -60.75 19.25 -60.05 19.85 -60.05 20.75 L-60.25 22.45 -64.4 23.3 -69.9 24.4 Q-71.9 25.0 -73.35 26.75 -74.7 28.45 -74.7 31.8 -74.7 34.75 -73.15 36.9 -71.65 39.1 -68.1 39.1 -64.65 39.1 -61.8 35.7 L-61.55 38.5 -54.6 38.5 -55.05 35.1 Q-55.05 33.1 -54.15 28.0 -53.15 22.45 -53.15 20.3 M-25.75 21.9 Q-24.55 19.4 -22.9 19.4 -21.85 19.4 -21.15 20.4 -20.45 21.5 -20.45 22.95 -20.45 25.65 -21.45 28.35 -22.4 31.2 -24.45 31.2 -25.5 31.2 -26.25 30.2 -26.95 29.2 -26.95 27.45 -26.95 24.35 -25.75 21.9 M-35.8 13.1 Q-37.35 13.1 -38.6 14.2 -39.7 15.25 -41.6 18.55 L-40.75 13.65 -47.45 13.65 -51.45 38.5 -44.25 38.5 -42.8 29.2 Q-42.05 24.85 -40.8 22.9 -39.5 20.95 -37.45 20.95 L-36.0 21.2 -33.35 13.85 Q-34.6 13.1 -35.8 13.1 M-11.65 13.65 L-18.3 13.65 -18.85 17.15 Q-21.1 13.1 -24.5 13.1 -28.6 13.1 -31.3 17.45 -33.95 21.9 -33.95 27.75 -33.95 32.1 -32.25 34.9 -30.5 37.6 -27.7 37.6 -24.6 37.6 -22.1 34.4 L-22.7 38.15 Q-23.15 40.6 -23.95 41.75 -24.85 42.95 -26.15 42.95 -28.1 42.95 -28.2 40.4 L-35.05 39.1 -35.05 40.25 Q-35.05 42.85 -33.8 45.0 -32.5 47.25 -30.75 47.9 -28.95 48.6 -25.8 48.6 -21.2 48.6 -18.85 46.3 -16.5 44.0 -15.35 37.05 L-11.65 13.65 M-55.4 -20.95 L-54.55 -26.45 -62.35 -26.45 -63.25 -20.95 -55.4 -20.95 M-44.3 -21.65 L-43.15 -28.65 -38.85 -28.65 Q-36.8 -28.65 -36.2 -27.85 -35.55 -27.05 -35.55 -25.65 -35.55 -21.65 -40.05 -21.65 L-44.3 -21.65 M-47.95 -48.65 L-53.45 -14.3 -37.6 -14.3 Q-32.85 -14.3 -30.3 -17.6 -27.75 -20.9 -27.75 -25.0 -27.75 -30.5 -31.9 -32.3 -29.35 -33.35 -28.25 -35.65 -27.1 -37.9 -27.1 -40.55 -27.1 -42.6 -27.8 -44.3 -28.6 -46.1 -29.85 -47.1 -31.15 -48.1 -32.5 -48.4 L-47.95 -48.65 M-74.55 -32.85 Q-75.95 -32.3 -77.3 -30.8 -78.75 -29.25 -79.55 -27.1 -80.35 -25.0 -80.35 -22.4 -80.35 -18.9 -78.6 -16.3 -76.9 -13.85 -72.7 -13.85 -69.85 -13.85 -68.0 -15.05 -66.15 -16.2 -64.9 -19.05 L-70.1 -19.7 Q-71.05 -18.0 -72.6 -18.0 -74.85 -18.0 -75.1 -21.75 L-64.45 -21.75 -64.05 -25.5 Q-64.05 -28.75 -65.8 -31.1 -67.45 -33.35 -71.4 -33.35 L-74.55 -32.85 M-73.35 -28.2 Q-72.5 -29.2 -71.5 -29.2 -70.55 -29.2 -69.95 -28.45 -69.3 -27.75 -69.3 -26.3 L-69.4 -25.25 -74.6 -25.25 Q-74.15 -27.3 -73.35 -28.2 M-42.15 -35.2 L-41.15 -41.65 -37.75 -41.65 Q-35.85 -41.65 -35.2 -40.95 -34.55 -40.2 -34.55 -39.0 -34.55 -37.95 -35.15 -36.9 -35.75 -35.85 -36.7 -35.55 L-39.4 -35.2 -42.15 -35.2 M-109.2 -32.95 L-114.5 -32.95 -111.8 -14.3 Q-112.7 -11.8 -114.3 -11.8 -115.15 -11.8 -116.05 -12.25 L-116.45 -7.45 Q-114.5 -6.7 -112.5 -6.7 -110.8 -6.7 -109.6 -7.75 -108.3 -8.95 -107.1 -11.9 L-98.2 -32.95 -103.65 -32.95 -108.45 -19.95 -109.2 -32.95 M-88.15 -27.9 Q-87.6 -27.1 -87.6 -25.45 -87.6 -22.7 -88.45 -20.6 -89.25 -18.65 -90.45 -18.65 -91.3 -18.65 -91.9 -19.45 -92.55 -20.35 -92.55 -21.9 -92.55 -24.05 -91.75 -26.45 -90.95 -28.65 -89.45 -28.65 -88.65 -28.65 -88.15 -27.9 M-91.3 -32.95 L-96.25 -32.95 -100.4 -7.15 -95.05 -7.15 -93.5 -16.75 Q-92.0 -13.8 -89.05 -13.8 -86.2 -13.8 -84.25 -17.35 -82.4 -20.85 -82.4 -25.6 -82.4 -29.2 -83.65 -31.25 -84.9 -33.35 -87.25 -33.35 L-89.45 -32.85 Q-90.3 -32.4 -91.5 -31.0 L-91.55 -31.05 -91.3 -32.95 M-126.55 -27.8 L-124.65 -27.8 -126.0 -18.4 Q-126.0 -16.7 -125.05 -15.3 -124.2 -13.85 -121.85 -13.85 L-118.3 -14.3 -117.5 -19.4 -119.15 -19.05 Q-120.4 -19.05 -120.4 -20.3 L-119.3 -27.8 -116.5 -27.8 -115.65 -32.95 -118.45 -32.95 -117.35 -39.85 -123.35 -35.85 -123.8 -32.95 -125.75 -32.95 -126.55 -27.8 M-100.4 19.65 L-108.35 20.85 -100.85 22.4 -100.4 19.65 M-102.65 6.85 Q-105.45 3.6 -110.35 3.6 -115.05 3.6 -118.4 6.5 -121.75 9.35 -123.5 14.5 -125.25 19.4 -125.25 24.6 -125.25 31.25 -122.3 35.15 -119.4 39.1 -113.8 39.1 -108.45 39.1 -105.15 35.5 -101.75 31.8 -100.65 26.5 L-108.1 25.0 Q-109.0 28.15 -110.3 29.75 -111.6 31.3 -113.4 31.3 -115.35 31.3 -116.4 29.55 -117.45 27.8 -117.45 25.3 -117.45 22.0 -116.45 18.4 -115.4 14.85 -113.75 13.15 -112.05 11.4 -110.3 11.4 -108.95 11.4 -107.85 12.65 -106.7 13.9 -106.7 16.35 L-106.7 16.55 -99.4 15.45 Q-99.85 10.1 -102.65 6.85 M-110.75 15.8 Q-112.05 17.1 -112.8 20.35 -113.45 23.0 -113.45 25.3 L-113.2 27.0 Q-112.65 26.15 -110.9 20.3 L-110.7 16.35 -110.75 15.8" fill="#ff0000" fill-rule="evenodd" stroke="none"/>
    <path d="M122.8 13.65 L126.5 13.65 125.45 20.5 121.7 20.5 120.15 30.45 Q120.15 32.15 121.85 32.15 L124.05 31.7 123.0 38.5 118.25 39.1 Q115.2 39.1 114.0 37.2 112.7 35.2 112.7 33.0 L114.55 20.5 112.0 20.5 113.05 13.65 115.65 13.65 116.3 9.75 124.3 4.45 122.8 13.65 M102.6 20.55 Q102.3 18.3 100.1 18.3 98.9 18.3 98.15 18.95 97.45 19.55 97.45 20.45 97.45 21.3 98.05 21.85 98.6 22.4 101.2 22.95 105.4 23.8 106.7 25.4 108.05 27.05 108.05 29.85 108.05 33.75 105.4 36.4 102.7 39.1 97.25 39.1 92.75 39.1 90.7 37.35 88.7 35.6 88.3 31.65 L95.35 30.85 Q95.8 33.85 98.35 33.85 99.6 33.85 100.45 33.2 101.35 32.5 101.35 31.25 101.35 30.1 100.7 29.7 L98.25 28.9 Q94.05 28.1 92.6 26.3 91.1 24.5 91.1 21.85 91.1 19.8 92.2 17.6 93.35 15.5 95.55 14.3 97.8 13.1 101.05 13.1 104.8 13.1 106.8 14.55 108.85 16.05 109.3 19.6 L102.6 20.55 M86.75 20.3 Q86.75 22.75 85.8 28.0 84.9 33.1 84.9 35.1 84.9 36.75 85.35 38.5 L78.35 38.5 78.15 35.7 Q75.3 39.1 71.85 39.1 68.35 39.1 66.75 36.9 65.25 34.7 65.25 31.8 65.25 28.45 66.6 26.75 68.05 24.95 70.0 24.4 L75.55 23.3 79.7 22.45 79.9 20.75 Q79.9 19.85 79.15 19.25 78.45 18.7 77.3 18.7 76.0 18.7 75.3 19.2 74.55 19.7 73.95 21.45 L67.3 20.5 Q67.9 17.0 70.25 15.0 72.6 13.1 77.4 13.1 82.95 13.1 84.85 14.95 86.75 16.75 86.75 20.3 M51.35 12.25 Q51.35 14.9 50.2 17.15 49.1 19.4 46.55 20.5 50.7 22.3 50.7 27.8 50.7 31.9 48.15 35.2 45.6 38.5 40.85 38.5 L25.0 38.5 30.5 4.15 45.9 4.4 Q47.3 4.7 48.6 5.7 49.9 6.75 50.65 8.5 51.35 10.2 51.35 12.25 M40.7 11.15 L37.3 11.15 36.3 17.6 39.0 17.6 41.75 17.25 Q42.7 16.95 43.3 15.9 43.85 14.95 43.85 13.8 43.85 12.5 43.25 11.85 42.6 11.15 40.7 11.15 M42.25 24.95 Q41.6 24.15 39.6 24.15 L35.3 24.15 34.15 31.15 38.4 31.15 Q42.9 31.15 42.9 27.15 42.9 25.75 42.25 24.95 M52.7 38.5 L58.2 4.15 65.35 4.15 59.9 38.5 52.7 38.5 M78.9 27.4 Q73.9 28.45 73.1 29.35 72.2 30.15 72.2 31.35 72.2 32.45 72.85 33.2 73.4 33.9 74.4 33.9 75.75 33.9 77.1 32.45 78.45 30.95 78.9 27.4 M1.4 18.65 Q0.05 18.65 -1.0 19.95 -2.1 21.25 -2.7 23.9 L4.25 23.9 4.35 22.5 Q4.35 20.5 3.5 19.6 2.7 18.65 1.4 18.65 M9.05 16.1 Q11.35 19.15 11.35 23.55 L10.85 28.55 -3.35 28.55 Q-3.05 33.55 0.0 33.55 2.1 33.55 3.3 31.3 L10.2 32.15 Q8.6 35.85 6.15 37.5 3.55 39.1 -0.2 39.1 -5.7 39.1 -8.05 35.8 -10.35 32.55 -10.35 27.65 -10.35 24.3 -9.3 21.4 -8.2 18.5 -6.35 16.45 -4.45 14.45 -2.65 13.8 -0.95 13.1 1.6 13.1 6.8 13.1 9.05 16.1 M-126.55 -27.8 L-125.75 -32.95 -123.8 -32.95 -123.35 -35.85 -117.35 -39.85 -118.45 -32.95 -115.65 -32.95 -116.5 -27.8 -119.3 -27.8 -120.4 -20.3 Q-120.4 -19.05 -119.15 -19.05 L-117.5 -19.4 -118.3 -14.3 -121.85 -13.85 Q-124.2 -13.85 -125.05 -15.3 -126.0 -16.7 -126.0 -18.4 L-124.65 -27.8 -126.55 -27.8 M-91.3 -32.95 L-91.55 -31.05 -91.5 -31.0 Q-90.3 -32.4 -89.45 -32.85 L-87.25 -33.35 Q-84.9 -33.35 -83.65 -31.25 -82.4 -29.2 -82.4 -25.6 -82.4 -20.85 -84.25 -17.35 -86.2 -13.8 -89.05 -13.8 -92.0 -13.8 -93.5 -16.75 L-95.05 -7.15 -100.4 -7.15 -96.25 -32.95 -91.3 -32.95 M-88.15 -27.9 Q-88.65 -28.65 -89.45 -28.65 -90.95 -28.65 -91.75 -26.45 -92.55 -24.05 -92.55 -21.9 -92.55 -20.35 -91.9 -19.45 -91.3 -18.65 -90.45 -18.65 -89.25 -18.65 -88.45 -20.6 -87.6 -22.7 -87.6 -25.45 -87.6 -27.1 -88.15 -27.9 M-109.2 -32.95 L-108.45 -19.95 -103.65 -32.95 -98.2 -32.95 -107.1 -11.9 Q-108.3 -8.95 -109.6 -7.75 -110.8 -6.7 -112.5 -6.7 -114.5 -6.7 -116.45 -7.45 L-116.05 -12.25 Q-115.15 -11.8 -114.3 -11.8 -112.7 -11.8 -111.8 -14.3 L-114.5 -32.95 -109.2 -32.95 M-42.15 -35.2 L-39.4 -35.2 -36.7 -35.55 Q-35.75 -35.85 -35.15 -36.9 -34.55 -37.95 -34.55 -39.0 -34.55 -40.2 -35.2 -40.95 -35.85 -41.65 -37.75 -41.65 L-41.15 -41.65 -42.15 -35.2 M-73.35 -28.2 Q-74.15 -27.3 -74.6 -25.25 L-69.4 -25.25 -69.3 -26.3 Q-69.3 -27.75 -69.95 -28.45 -70.55 -29.2 -71.5 -29.2 -72.5 -29.2 -73.35 -28.2 M-74.55 -32.85 L-71.4 -33.35 Q-67.45 -33.35 -65.8 -31.1 -64.05 -28.75 -64.05 -25.5 L-64.45 -21.75 -75.1 -21.75 Q-74.85 -18.0 -72.6 -18.0 -71.05 -18.0 -70.1 -19.7 L-64.9 -19.05 Q-66.15 -16.2 -68.0 -15.05 -69.85 -13.85 -72.7 -13.85 -76.9 -13.85 -78.6 -16.3 -80.35 -18.9 -80.35 -22.4 -80.35 -25.0 -79.55 -27.1 -78.75 -29.25 -77.3 -30.8 -75.95 -32.3 -74.55 -32.85 M-47.95 -48.65 L-32.5 -48.4 Q-31.15 -48.1 -29.85 -47.1 -28.6 -46.1 -27.8 -44.3 -27.1 -42.6 -27.1 -40.55 -27.1 -37.9 -28.25 -35.65 -29.35 -33.35 -31.9 -32.3 -27.75 -30.5 -27.75 -25.0 -27.75 -20.9 -30.3 -17.6 -32.85 -14.3 -37.6 -14.3 L-53.45 -14.3 -47.95 -48.65 M-44.3 -21.65 L-40.05 -21.65 Q-35.55 -21.65 -35.55 -25.65 -35.55 -27.05 -36.2 -27.85 -36.8 -28.65 -38.85 -28.65 L-43.15 -28.65 -44.3 -21.65 M-55.4 -20.95 L-63.25 -20.95 -62.35 -26.45 -54.55 -26.45 -55.4 -20.95 M-11.65 13.65 L-15.35 37.05 Q-16.5 44.0 -18.85 46.3 -21.2 48.6 -25.8 48.6 -28.95 48.6 -30.75 47.9 -32.5 47.25 -33.8 45.0 -35.05 42.85 -35.05 40.25 L-35.05 39.1 -28.2 40.4 Q-28.1 42.95 -26.15 42.95 -24.85 42.95 -23.95 41.75 -23.15 40.6 -22.7 38.15 L-22.1 34.4 Q-24.6 37.6 -27.7 37.6 -30.5 37.6 -32.25 34.9 -33.95 32.1 -33.95 27.75 -33.95 21.9 -31.3 17.45 -28.6 13.1 -24.5 13.1 -21.1 13.1 -18.85 17.15 L-18.3 13.65 -11.65 13.65 M-35.8 13.1 Q-34.6 13.1 -33.35 13.85 L-36.0 21.2 -37.45 20.95 Q-39.5 20.95 -40.8 22.9 -42.05 24.85 -42.8 29.2 L-44.25 38.5 -51.45 38.5 -47.45 13.65 -40.75 13.65 -41.6 18.55 Q-39.7 15.25 -38.6 14.2 -37.35 13.1 -35.8 13.1 M-25.75 21.9 Q-26.95 24.35 -26.95 27.45 -26.95 29.2 -26.25 30.2 -25.5 31.2 -24.45 31.2 -22.4 31.2 -21.45 28.35 -20.45 25.65 -20.45 22.95 -20.45 21.5 -21.15 20.4 -21.85 19.4 -22.9 19.4 -24.55 19.4 -25.75 21.9 M-53.15 20.3 Q-53.15 22.45 -54.15 28.0 -55.05 33.1 -55.05 35.1 L-54.6 38.5 -61.55 38.5 -61.8 35.7 Q-64.65 39.1 -68.1 39.1 -71.65 39.1 -73.15 36.9 -74.7 34.75 -74.7 31.8 -74.7 28.45 -73.35 26.75 -71.9 25.0 -69.9 24.4 L-64.4 23.3 -60.25 22.45 -60.05 20.75 Q-60.05 19.85 -60.75 19.25 -61.55 18.7 -62.65 18.7 -63.95 18.7 -64.65 19.2 -65.4 19.7 -66.0 21.45 L-72.65 20.5 Q-72.0 16.9 -69.7 15.0 -67.35 13.1 -62.5 13.1 -57.0 13.1 -55.1 14.95 -53.15 16.75 -53.15 20.3 M-77.0 19.05 Q-77.0 20.35 -77.7 24.95 L-79.85 38.5 -87.05 38.5 -84.5 22.1 Q-84.5 20.05 -85.95 20.05 -87.5 20.05 -88.7 22.05 -89.85 24.05 -90.45 27.75 L-92.2 38.5 -99.45 38.5 -93.85 4.15 -86.7 4.15 -88.7 16.6 -88.65 16.7 Q-86.0 13.1 -82.0 13.1 -79.5 13.1 -78.25 14.85 -77.0 16.55 -77.0 19.05 M-67.1 33.2 Q-66.55 33.9 -65.5 33.9 -64.15 33.9 -62.85 32.45 -61.5 30.95 -61.05 27.4 -65.95 28.45 -66.85 29.35 -67.7 30.2 -67.7 31.35 -67.7 32.5 -67.1 33.2 M-102.65 6.85 Q-99.85 10.1 -99.4 15.45 L-106.7 16.55 -106.7 16.35 Q-106.7 13.9 -107.85 12.65 -108.95 11.4 -110.3 11.4 -112.05 11.4 -113.75 13.15 -115.4 14.85 -116.45 18.4 -117.45 22.0 -117.45 25.3 -117.45 27.8 -116.4 29.55 -115.35 31.3 -113.4 31.3 -111.6 31.3 -110.3 29.75 -109.0 28.15 -108.1 25.0 L-100.65 26.5 Q-101.75 31.8 -105.15 35.5 -108.45 39.1 -113.8 39.1 -119.4 39.1 -122.3 35.15 -125.25 31.25 -125.25 24.6 -125.25 19.4 -123.5 14.5 -121.75 9.35 -118.4 6.5 -115.05 3.6 -110.35 3.6 -105.45 3.6 -102.65 6.85" fill="#ffa7ff" fill-rule="evenodd" stroke="none"/>
  </g>
</svg>
