<?xml version="1.0" encoding="UTF-8" standalone="no"?>
<svg xmlns:ffdec="https://www.free-decompiler.com/flash" xmlns:xlink="http://www.w3.org/1999/xlink" ffdec:objectType="shape" height="104.7px" width="294.9px" xmlns="http://www.w3.org/2000/svg">
  <g transform="matrix(1.0, 0.0, 0.0, 1.0, 147.45, 52.35)">
    <path d="M147.45 9.95 L145.05 24.8 141.35 24.8 140.9 27.7 145.2 26.55 142.75 42.25 134.45 43.4 Q130.1 43.4 127.45 40.45 126.3 39.15 125.7 37.55 L125.2 38.2 Q121.25 43.4 113.75 43.4 107.65 43.4 104.05 40.05 L104.8 42.8 89.6 42.8 Q87.95 43.4 86.1 43.4 81.15 43.4 78.25 40.15 L77.05 38.5 Q73.65 43.45 68.25 43.45 L65.2 43.0 63.7 52.35 48.4 52.35 49.95 42.8 0.85 42.8 7.65 0.45 23.8 0.45 22.3 9.95 32.55 9.95 Q34.05 9.4 35.85 9.4 39.05 9.4 41.5 11.4 44.35 9.4 48.1 9.4 52.3 9.4 54.8 12.45 L54.85 12.5 55.25 9.95 67.1 9.95 Q68.7 9.4 70.65 9.4 76.1 9.4 78.9 14.1 L79.55 15.3 Q80.1 14.1 80.8 13.3 84.05 9.4 91.65 9.4 101.4 9.4 104.05 15.4 L104.05 15.35 Q108.6 9.4 116.3 9.4 121.9 9.4 125.45 12.45 L125.85 9.95 128.5 9.95 128.85 7.7 145.9 -3.65 143.75 9.95 147.45 9.95 M-125.0 -32.65 L-130.3 -32.65 -127.6 -14.0 Q-128.5 -11.5 -130.1 -11.5 -130.95 -11.5 -131.85 -11.95 L-132.25 -7.15 Q-130.3 -6.4 -128.3 -6.4 -126.6 -6.4 -125.4 -7.45 -124.2 -8.5 -122.9 -11.6 L-114.0 -32.65 -119.45 -32.65 -124.25 -19.65 -125.0 -32.65 M-139.6 -32.65 L-141.55 -32.65 -142.35 -27.5 -140.45 -27.5 -141.8 -18.1 Q-141.8 -16.4 -140.85 -15.0 -140.0 -13.55 -137.65 -13.55 L-134.1 -14.0 -133.3 -19.1 -134.95 -18.75 Q-136.2 -18.75 -136.2 -20.0 L-135.1 -27.5 -132.3 -27.5 -131.45 -32.65 -134.25 -32.65 -133.15 -39.55 -139.15 -35.55 -139.6 -32.65 M19.1 4.45 L11.05 4.45 5.55 38.8 13.6 38.8 19.1 4.45 M41.55 22.15 Q42.6 20.35 44.2 20.35 45.6 20.35 45.6 22.3 L45.5 23.4 43.05 38.8 50.25 38.8 52.9 22.5 53.15 19.55 Q53.15 17.05 51.85 15.2 50.65 13.4 48.1 13.4 46.2 13.4 44.55 14.3 42.9 15.15 40.85 17.6 40.35 15.65 38.95 14.5 37.65 13.4 35.85 13.4 32.1 13.4 28.9 17.5 L29.45 13.95 22.8 13.95 18.8 38.8 26.0 38.8 27.95 26.9 Q28.45 23.4 29.7 21.85 30.9 20.35 32.0 20.35 33.45 20.35 33.45 22.25 L30.95 38.8 38.15 38.8 39.9 27.75 Q40.5 23.85 41.55 22.15 M67.75 19.65 Q68.75 19.65 69.45 20.65 70.15 21.55 70.15 23.95 70.15 27.8 69.05 30.35 67.95 33.0 66.35 33.0 65.3 33.0 64.45 31.95 63.6 30.8 63.6 28.65 63.6 25.45 64.7 22.6 65.75 19.65 67.75 19.65 M67.75 14.05 Q66.55 14.6 65.0 16.55 L64.9 16.45 65.25 13.95 58.65 13.95 53.1 48.35 60.3 48.35 62.35 35.5 Q64.3 39.45 68.25 39.45 72.1 39.45 74.65 34.75 77.15 30.0 77.15 23.7 77.15 18.95 75.45 16.2 73.85 13.4 70.65 13.4 68.9 13.4 67.75 14.05 M93.15 27.7 Q92.7 31.25 91.35 32.75 90.0 34.2 88.65 34.2 87.65 34.2 87.1 33.5 86.45 32.75 86.45 31.65 86.45 30.45 87.35 29.65 88.1 28.85 93.15 27.7 M84.5 15.3 Q82.15 17.3 81.55 20.8 L88.2 21.75 Q88.75 20.15 89.55 19.5 90.25 19.0 91.55 19.0 92.7 19.0 93.4 19.55 94.15 20.15 94.15 21.05 L93.95 22.75 89.8 23.6 84.25 24.7 Q82.3 25.25 80.85 27.05 79.5 28.75 79.5 32.1 79.5 35.0 81.0 37.2 82.55 39.4 86.1 39.4 89.55 39.4 92.4 36.0 L92.6 38.8 99.6 38.8 Q99.15 37.05 99.15 35.4 99.15 33.4 100.05 28.3 101.0 23.05 101.0 20.6 101.0 17.05 99.1 15.25 97.2 13.4 91.65 13.4 86.85 13.4 84.5 15.3 M126.05 22.6 Q125.6 18.0 123.05 15.7 120.55 13.4 116.3 13.4 110.4 13.4 107.15 17.9 103.9 22.35 103.9 28.65 103.9 39.4 113.75 39.4 122.5 39.4 124.95 29.7 L118.3 28.75 Q116.9 32.95 114.0 32.95 112.9 32.95 111.85 31.9 110.85 30.75 110.85 28.8 110.85 25.55 112.25 22.65 113.7 19.8 116.3 19.8 119.05 19.8 119.6 23.05 L126.05 22.6 M140.5 4.75 L132.5 10.05 131.9 13.95 129.3 13.95 128.25 20.8 130.8 20.8 128.95 33.3 Q128.95 35.6 130.2 37.5 131.5 39.4 134.45 39.4 L139.2 38.8 140.3 32.0 138.05 32.45 Q136.4 32.45 136.4 30.75 L137.9 20.8 141.65 20.8 142.75 13.95 139.05 13.95 140.5 4.75 M-129.55 -36.65 L-105.85 -36.65 -103.05 -37.05 Q-98.55 -37.05 -96.15 -33.25 L-96.1 -33.2 Q-92.6 -37.05 -87.2 -37.05 -81.9 -37.05 -78.8 -33.75 -77.4 -32.2 -76.65 -30.15 L-68.85 -30.15 -59.45 -52.35 -44.75 -52.35 -39.7 -10.0 -55.8 -10.0 -56.15 -15.6 -57.95 -15.6 -59.95 -10.0 -77.4 -10.0 -74.55 -16.65 -77.35 -16.65 Q-79.05 -13.3 -81.05 -11.75 -83.85 -9.55 -88.5 -9.55 -94.1 -9.55 -97.2 -13.15 L-97.5 -13.55 Q-100.35 -9.5 -104.85 -9.5 L-106.35 -9.6 -107.4 -2.85 -120.9 -2.85 -120.0 -8.3 Q-121.2 -6.0 -122.55 -4.65 -124.85 -2.4 -128.3 -2.4 -131.05 -2.4 -136.5 -4.45 L-136.0 -9.7 -137.65 -9.55 Q-141.35 -9.55 -143.6 -12.05 -145.8 -14.45 -145.8 -18.1 L-145.4 -21.75 -145.1 -23.5 -147.0 -23.5 -145.0 -36.65 -143.0 -36.65 -142.8 -37.9 -127.75 -47.95 -129.55 -36.65 M-70.35 -26.15 L-78.15 -26.15 -79.05 -20.65 -71.2 -20.65 -70.35 -26.15 M-48.3 -48.35 L-56.8 -48.35 -71.35 -14.0 -62.8 -14.0 -60.8 -19.6 -52.35 -19.6 -52.0 -14.0 -44.2 -14.0 -48.3 -48.35 M-52.9 -26.9 L-58.2 -26.9 -53.7 -39.4 -52.9 -26.9 M-105.25 -28.35 Q-104.45 -28.35 -103.95 -27.6 -103.4 -26.8 -103.4 -25.15 -103.4 -22.4 -104.25 -20.3 -105.05 -18.35 -106.25 -18.35 -107.1 -18.35 -107.7 -19.15 -108.35 -20.05 -108.35 -21.6 -108.35 -23.75 -107.55 -26.15 -106.75 -28.35 -105.25 -28.35 M-89.15 -27.9 Q-88.3 -28.9 -87.3 -28.9 -86.35 -28.9 -85.75 -28.15 -85.1 -27.45 -85.1 -26.0 L-85.2 -24.95 -90.4 -24.95 Q-89.95 -27.0 -89.15 -27.9 M-98.2 -25.3 Q-98.2 -28.9 -99.45 -30.95 -100.7 -33.05 -103.05 -33.05 -104.4 -33.05 -105.25 -32.55 -106.15 -32.1 -107.3 -30.65 L-107.35 -30.75 -107.1 -32.65 -112.05 -32.65 -116.2 -6.85 -110.85 -6.85 -109.3 -16.45 Q-107.8 -13.5 -104.85 -13.5 -102.0 -13.5 -100.05 -17.05 -98.2 -20.55 -98.2 -25.3 M-93.1 -30.5 Q-94.55 -28.95 -95.35 -26.8 -96.15 -24.7 -96.15 -22.1 -96.15 -18.6 -94.4 -16.0 -92.7 -13.55 -88.5 -13.55 -85.65 -13.55 -83.8 -14.75 -81.95 -15.9 -80.7 -18.75 L-85.9 -19.4 Q-86.85 -17.7 -88.4 -17.7 -90.65 -17.7 -90.9 -21.45 L-80.25 -21.45 -79.85 -25.2 Q-79.85 -28.45 -81.6 -30.8 -83.25 -33.05 -87.2 -33.05 L-90.35 -32.55 Q-91.75 -32.0 -93.1 -30.5 M-8.0 13.45 Q-4.45 17.3 -4.45 23.85 -4.45 26.3 -4.85 29.0 L-3.8 29.15 -5.4 32.85 Q-7.8 38.2 -10.5 40.45 -13.95 43.4 -19.95 43.4 -26.8 43.4 -30.6 39.0 L-31.6 37.65 -32.45 42.8 -47.75 42.8 -47.5 41.35 Q-50.2 43.4 -53.7 43.4 -55.55 43.4 -57.2 42.8 L-81.35 42.8 Q-82.85 43.4 -84.9 43.4 -89.1 43.4 -91.65 40.45 -92.6 39.35 -93.15 38.05 -97.5 43.4 -104.6 43.4 -111.1 43.4 -114.75 38.9 -115.9 37.5 -116.65 35.85 -121.3 42.8 -129.2 42.8 L-147.45 42.8 -140.8 0.45 -126.8 0.45 Q-119.2 0.45 -115.35 6.1 -113.25 9.1 -112.45 13.35 -108.45 9.4 -102.4 9.4 -95.25 9.4 -91.8 14.5 L-91.35 15.2 -90.5 9.95 -66.65 9.95 -65.15 0.45 -49.9 0.45 -51.3 9.4 Q-45.9 9.4 -43.1 13.95 L-40.95 0.45 -25.65 0.45 -27.6 12.7 Q-23.7 9.4 -18.2 9.4 -11.65 9.4 -8.0 13.45 M-130.6 12.05 L-128.05 12.05 Q-125.65 12.05 -124.75 13.55 -123.8 15.2 -123.8 17.75 -123.8 22.2 -125.4 26.75 -127.05 31.25 -130.3 31.25 L-133.6 31.25 -130.6 12.05 M-116.0 18.85 Q-116.0 12.4 -118.6 8.45 -121.15 4.45 -126.8 4.45 L-137.4 4.45 -142.8 38.8 -129.2 38.8 Q-126.45 38.8 -123.45 37.15 -120.45 35.5 -118.2 30.25 -116.0 24.95 -116.0 18.85 M-100.65 20.8 Q-99.75 21.75 -99.75 24.2 -99.75 27.45 -100.95 30.25 -102.15 32.95 -104.15 32.95 -105.4 32.95 -106.3 31.6 -107.2 30.25 -107.2 28.15 -107.2 25.4 -106.05 22.55 -104.9 19.8 -102.65 19.8 -101.55 19.8 -100.65 20.8 M-92.8 24.65 Q-92.8 20.1 -95.1 16.75 -97.35 13.4 -102.4 13.4 -106.1 13.4 -108.7 15.4 -111.35 17.35 -112.75 20.85 -114.15 24.3 -114.15 28.15 -114.15 33.0 -111.85 36.2 -109.45 39.4 -104.6 39.4 -100.7 39.4 -98.1 37.3 -95.5 35.35 -94.1 31.7 -92.8 28.05 -92.8 24.65 M-67.55 13.95 L-74.75 13.95 -76.5 24.75 Q-77.1 28.35 -78.3 30.4 -79.5 32.35 -81.1 32.35 -82.45 32.35 -82.45 30.25 L-82.4 29.2 -79.95 13.95 -87.1 13.95 -89.3 27.25 Q-90.05 31.8 -90.05 33.45 -90.05 35.9 -88.75 37.65 -87.5 39.4 -84.9 39.4 -80.7 39.4 -77.65 35.05 L-78.3 38.8 -71.55 38.8 -67.55 13.95 M-51.25 13.4 Q-53.0 13.4 -54.05 13.95 L-56.4 15.75 -54.6 4.45 -61.75 4.45 -67.25 38.8 -60.55 38.8 -59.9 34.75 Q-57.85 39.4 -53.7 39.4 -49.65 39.4 -47.2 34.55 -44.75 29.7 -44.75 23.8 -44.75 19.15 -46.35 16.3 -48.0 13.4 -51.25 13.4 M-54.2 19.65 Q-51.7 19.65 -51.7 23.85 -51.7 27.75 -52.85 30.35 -53.95 32.95 -55.5 32.95 -56.55 32.95 -57.45 31.85 -58.25 30.85 -58.25 28.6 -58.25 25.15 -57.15 22.45 -56.05 19.65 -54.2 19.65 M-30.35 4.45 L-37.55 4.45 -43.05 38.8 -35.85 38.8 -30.35 4.45 M-10.7 16.4 Q-12.95 13.4 -18.2 13.4 -20.55 13.4 -22.4 14.1 -24.15 14.75 -26.1 16.75 -27.9 18.7 -29.05 21.7 -30.15 24.75 -30.15 27.95 -30.15 32.75 -27.8 36.1 -25.45 39.4 -19.95 39.4 -16.15 39.4 -13.65 37.8 -11.15 36.2 -9.55 32.45 L-16.45 31.6 Q-17.7 33.85 -19.75 33.85 -22.8 33.85 -23.1 28.85 L-8.9 28.85 -8.45 23.85 Q-8.45 19.45 -10.7 16.4 M-18.35 18.95 Q-17.15 18.95 -16.25 19.9 -15.4 20.9 -15.4 22.8 L-15.55 24.2 -22.45 24.2 Q-21.95 21.75 -20.8 20.25 -19.65 18.95 -18.35 18.95" fill="#007f00" fill-rule="evenodd" stroke="none"/>
    <path d="M140.5 4.75 L139.05 13.95 142.75 13.95 141.65 20.8 137.9 20.8 136.4 30.75 Q136.4 32.45 138.05 32.45 L140.3 32.0 139.2 38.8 134.45 39.4 Q131.5 39.4 130.2 37.5 128.95 35.6 128.95 33.3 L130.8 20.8 128.25 20.8 129.3 13.95 131.9 13.95 132.5 10.05 140.5 4.75 M126.05 22.6 L119.6 23.05 Q119.05 19.8 116.3 19.8 113.7 19.8 112.25 22.65 110.85 25.55 110.85 28.8 110.85 30.75 111.85 31.9 112.9 32.95 114.0 32.95 116.9 32.95 118.3 28.75 L124.95 29.7 Q122.5 39.4 113.75 39.4 103.9 39.4 103.9 28.65 103.9 22.35 107.15 17.9 110.4 13.4 116.3 13.4 120.55 13.4 123.05 15.7 125.6 18.0 126.05 22.6 M84.5 15.3 Q86.85 13.4 91.65 13.4 97.2 13.4 99.1 15.25 101.0 17.05 101.0 20.6 101.0 23.05 100.05 28.3 99.15 33.4 99.15 35.4 99.15 37.05 99.6 38.8 L92.6 38.8 92.4 36.0 Q89.55 39.4 86.1 39.4 82.55 39.4 81.0 37.2 79.5 35.0 79.5 32.1 79.5 28.75 80.85 27.05 82.3 25.25 84.25 24.7 L89.8 23.6 93.95 22.75 94.15 21.05 Q94.15 20.15 93.4 19.55 92.7 19.0 91.55 19.0 90.25 19.0 89.55 19.5 88.75 20.15 88.2 21.75 L81.55 20.8 Q82.15 17.3 84.5 15.3 M93.15 27.7 Q88.1 28.85 87.35 29.65 86.45 30.45 86.45 31.65 86.45 32.75 87.1 33.5 87.65 34.2 88.65 34.2 90.0 34.2 91.35 32.75 92.7 31.25 93.15 27.7 M67.75 14.05 Q68.9 13.4 70.65 13.4 73.85 13.4 75.45 16.2 77.15 18.95 77.15 23.7 77.15 30.0 74.65 34.75 72.1 39.45 68.25 39.45 64.3 39.45 62.35 35.5 L60.3 48.35 53.1 48.35 58.65 13.95 65.25 13.95 64.9 16.45 65.0 16.55 Q66.55 14.6 67.75 14.05 M67.75 19.65 Q65.75 19.65 64.7 22.6 63.6 25.45 63.6 28.65 63.6 30.8 64.45 31.95 65.3 33.0 66.35 33.0 67.95 33.0 69.05 30.35 70.15 27.8 70.15 23.95 70.15 21.55 69.45 20.65 68.75 19.65 67.75 19.65 M41.55 22.15 Q40.5 23.85 39.9 27.75 L38.15 38.8 30.95 38.8 33.45 22.25 Q33.45 20.35 32.0 20.35 30.9 20.35 29.7 21.85 28.45 23.4 27.95 26.9 L26.0 38.8 18.8 38.8 22.8 13.95 29.45 13.95 28.9 17.5 Q32.1 13.4 35.85 13.4 37.65 13.4 38.95 14.5 40.35 15.65 40.85 17.6 42.9 15.15 44.55 14.3 46.2 13.4 48.1 13.4 50.65 13.4 51.85 15.2 53.15 17.05 53.15 19.55 L52.9 22.5 50.25 38.8 43.05 38.8 45.5 23.4 45.6 22.3 Q45.6 20.35 44.2 20.35 42.6 20.35 41.55 22.15 M19.1 4.45 L13.6 38.8 5.55 38.8 11.05 4.45 19.1 4.45 M-139.6 -32.65 L-139.15 -35.55 -133.15 -39.55 -134.25 -32.65 -131.45 -32.65 -132.3 -27.5 -135.1 -27.5 -136.2 -20.0 Q-136.2 -18.75 -134.95 -18.75 L-133.3 -19.1 -134.1 -14.0 -137.65 -13.55 Q-140.0 -13.55 -140.85 -15.0 -141.8 -16.4 -141.8 -18.1 L-140.45 -27.5 -142.35 -27.5 -141.55 -32.65 -139.6 -32.65 M-125.0 -32.65 L-124.25 -19.65 -119.45 -32.65 -114.0 -32.65 -122.9 -11.6 Q-124.2 -8.5 -125.4 -7.45 -126.6 -6.4 -128.3 -6.4 -130.3 -6.4 -132.25 -7.15 L-131.85 -11.95 Q-130.95 -11.5 -130.1 -11.5 -128.5 -11.5 -127.6 -14.0 L-130.3 -32.65 -125.0 -32.65 M-93.1 -30.5 Q-91.75 -32.0 -90.35 -32.55 L-87.2 -33.05 Q-83.25 -33.05 -81.6 -30.8 -79.85 -28.45 -79.85 -25.2 L-80.25 -21.45 -90.9 -21.45 Q-90.65 -17.7 -88.4 -17.7 -86.85 -17.7 -85.9 -19.4 L-80.7 -18.75 Q-81.95 -15.9 -83.8 -14.75 -85.65 -13.55 -88.5 -13.55 -92.7 -13.55 -94.4 -16.0 -96.15 -18.6 -96.15 -22.1 -96.15 -24.7 -95.35 -26.8 -94.55 -28.95 -93.1 -30.5 M-98.2 -25.3 Q-98.2 -20.55 -100.05 -17.05 -102.0 -13.5 -104.85 -13.5 -107.8 -13.5 -109.3 -16.45 L-110.85 -6.85 -116.2 -6.85 -112.05 -32.65 -107.1 -32.65 -107.35 -30.75 -107.3 -30.65 Q-106.15 -32.1 -105.25 -32.55 -104.4 -33.05 -103.05 -33.05 -100.7 -33.05 -99.45 -30.95 -98.2 -28.9 -98.2 -25.3 M-89.15 -27.9 Q-89.95 -27.0 -90.4 -24.95 L-85.2 -24.95 -85.1 -26.0 Q-85.1 -27.45 -85.75 -28.15 -86.35 -28.9 -87.3 -28.9 -88.3 -28.9 -89.15 -27.9 M-105.25 -28.35 Q-106.75 -28.35 -107.55 -26.15 -108.35 -23.75 -108.35 -21.6 -108.35 -20.05 -107.7 -19.15 -107.1 -18.35 -106.25 -18.35 -105.05 -18.35 -104.25 -20.3 -103.4 -22.4 -103.4 -25.15 -103.4 -26.8 -103.95 -27.6 -104.45 -28.35 -105.25 -28.35 M-52.9 -26.9 L-53.7 -39.4 -58.2 -26.9 -52.9 -26.9 M-48.3 -48.35 L-44.2 -14.0 -52.0 -14.0 -52.35 -19.6 -60.8 -19.6 -62.8 -14.0 -71.35 -14.0 -56.8 -48.35 -48.3 -48.35 M-70.35 -26.15 L-71.2 -20.65 -79.05 -20.65 -78.15 -26.15 -70.35 -26.15 M-18.35 18.95 Q-19.65 18.95 -20.8 20.25 -21.95 21.75 -22.45 24.2 L-15.55 24.2 -15.4 22.8 Q-15.4 20.9 -16.25 19.9 -17.15 18.95 -18.35 18.95 M-10.7 16.4 Q-8.45 19.45 -8.45 23.85 L-8.9 28.85 -23.1 28.85 Q-22.8 33.85 -19.75 33.85 -17.7 33.85 -16.45 31.6 L-9.55 32.45 Q-11.15 36.2 -13.65 37.8 -16.15 39.4 -19.95 39.4 -25.45 39.4 -27.8 36.1 -30.15 32.75 -30.15 27.95 -30.15 24.75 -29.05 21.7 -27.9 18.7 -26.1 16.75 -24.15 14.75 -22.4 14.1 -20.55 13.4 -18.2 13.4 -12.95 13.4 -10.7 16.4 M-30.35 4.45 L-35.85 38.8 -43.05 38.8 -37.55 4.45 -30.35 4.45 M-54.2 19.65 Q-56.05 19.65 -57.15 22.45 -58.25 25.15 -58.25 28.6 -58.25 30.85 -57.45 31.85 -56.55 32.95 -55.5 32.95 -53.95 32.95 -52.85 30.35 -51.7 27.75 -51.7 23.85 -51.7 19.65 -54.2 19.65 M-51.25 13.4 Q-48.0 13.4 -46.35 16.3 -44.75 19.15 -44.75 23.8 -44.75 29.7 -47.2 34.55 -49.65 39.4 -53.7 39.4 -57.85 39.4 -59.9 34.75 L-60.55 38.8 -67.25 38.8 -61.75 4.45 -54.6 4.45 -56.4 15.75 -54.05 13.95 Q-53.0 13.4 -51.25 13.4 M-67.55 13.95 L-71.55 38.8 -78.3 38.8 -77.65 35.05 Q-80.7 39.4 -84.9 39.4 -87.5 39.4 -88.75 37.65 -90.05 35.9 -90.05 33.45 -90.05 31.8 -89.3 27.25 L-87.1 13.95 -79.95 13.95 -82.4 29.2 -82.45 30.25 Q-82.45 32.35 -81.1 32.35 -79.5 32.35 -78.3 30.4 -77.1 28.35 -76.5 24.75 L-74.75 13.95 -67.55 13.95 M-92.8 24.65 Q-92.8 28.05 -94.1 31.7 -95.5 35.35 -98.1 37.3 -100.7 39.4 -104.6 39.4 -109.45 39.4 -111.85 36.2 -114.15 33.0 -114.15 28.15 -114.15 24.3 -112.75 20.85 -111.35 17.35 -108.7 15.4 -106.1 13.4 -102.4 13.4 -97.35 13.4 -95.1 16.75 -92.8 20.1 -92.8 24.65 M-100.65 20.8 Q-101.55 19.8 -102.65 19.8 -104.9 19.8 -106.05 22.55 -107.2 25.4 -107.2 28.15 -107.2 30.25 -106.3 31.6 -105.4 32.95 -104.15 32.95 -102.15 32.95 -100.95 30.25 -99.75 27.45 -99.75 24.2 -99.75 21.75 -100.65 20.8 M-116.0 18.85 Q-116.0 24.95 -118.2 30.25 -120.45 35.5 -123.45 37.15 -126.45 38.8 -129.2 38.8 L-142.8 38.8 -137.4 4.45 -126.8 4.45 Q-121.15 4.45 -118.6 8.45 -116.0 12.4 -116.0 18.85 M-130.6 12.05 L-133.6 31.25 -130.3 31.25 Q-127.05 31.25 -125.4 26.75 -123.8 22.2 -123.8 17.75 -123.8 15.2 -124.75 13.55 -125.65 12.05 -128.05 12.05 L-130.6 12.05" fill="#7fff7f" fill-rule="evenodd" stroke="none"/>
  </g>
</svg>
