<?xml version="1.0" encoding="UTF-8" standalone="no"?>
<svg xmlns:ffdec="https://www.free-decompiler.com/flash" xmlns:xlink="http://www.w3.org/1999/xlink" ffdec:objectType="shape" height="22.2px" width="33.35px" xmlns="http://www.w3.org/2000/svg">
  <g transform="matrix(1.0, 0.0, 0.0, 1.0, 16.65, 11.1)">
    <path d="M-4.9 -4.7 Q-6.7 -3.3 -6.7 0.0 -6.7 3.25 -4.9 4.7 -3.15 6.1 0.05 6.1 3.3 6.1 5.0 4.7 6.8 3.35 6.8 -0.3 6.8 -3.25 4.95 -4.7 3.1 -6.1 -0.05 -6.1 -3.15 -6.1 -4.9 -4.7 M12.35 -8.25 Q16.7 -5.35 16.7 -0.15 16.7 3.65 14.8 6.0 12.95 8.4 9.3 9.75 5.8 11.1 0.35 11.1 -5.05 11.1 -8.65 9.95 -12.25 8.75 -14.45 6.25 -16.65 3.85 -16.65 0.0 -16.65 -5.3 -12.25 -8.2 -7.95 -11.1 -0.05 -11.1 8.0 -11.1 12.35 -8.25" fill="#000000" fill-rule="evenodd" stroke="none"/>
  </g>
</svg>
