<?xml version="1.0" encoding="UTF-8" standalone="no"?>
<svg xmlns:ffdec="https://www.free-decompiler.com/flash" xmlns:xlink="http://www.w3.org/1999/xlink" ffdec:objectType="shape" height="46.65px" width="28.1px" xmlns="http://www.w3.org/2000/svg">
  <g transform="matrix(1.0, 0.0, 0.0, 1.0, 14.05, 23.35)">
    <path d="M6.95 -22.55 Q10.05 -21.75 11.65 -19.9 13.25 -18.05 13.65 -15.75 14.05 -13.5 14.05 -6.9 L14.05 9.45 Q14.05 15.7 13.5 17.85 12.9 19.95 11.4 21.15 9.95 22.35 7.8 22.85 L1.25 23.3 -14.05 23.3 -14.05 -23.35 -4.95 -23.35 6.95 -22.55 M1.75 -13.65 Q1.55 -14.55 0.8 -14.95 L-1.9 -15.35 -1.9 15.3 Q0.7 15.3 1.3 14.3 1.95 13.2 1.95 8.55 L1.95 -9.55 Q1.95 -12.75 1.75 -13.65" fill="#ff7700" fill-rule="evenodd" stroke="none"/>
  </g>
</svg>
