<?xml version="1.0" encoding="UTF-8" standalone="no"?>
<svg xmlns:ffdec="https://www.free-decompiler.com/flash" xmlns:xlink="http://www.w3.org/1999/xlink" ffdec:objectType="shape" height="22.2px" width="29.2px" xmlns="http://www.w3.org/2000/svg">
  <g transform="matrix(1.0, 0.0, 0.0, 1.0, 14.6, 11.1)">
    <path d="M-11.95 -7.95 Q-10.55 -9.4 -7.6 -10.25 -4.9 -11.1 0.3 -11.1 6.5 -11.1 9.7 -9.6 12.95 -8.05 13.55 -4.7 L4.2 -4.35 Q3.8 -5.8 2.65 -6.45 1.5 -7.1 -0.65 -7.1 L-3.3 -6.65 Q-4.15 -6.1 -4.15 -5.45 -4.15 -4.95 -3.45 -4.5 -2.6 -4.05 -0.1 -3.75 6.35 -2.8 9.2 -1.85 12.0 -0.9 13.3 0.55 14.6 1.9 14.6 3.75 14.6 5.85 12.9 7.55 11.15 9.3 8.1 10.2 5.05 11.1 0.35 11.1 -7.85 11.1 -11.0 9.0 -14.15 6.85 -14.6 3.6 L-5.15 3.25 Q-4.85 4.85 -3.9 5.55 -2.3 6.85 0.5 6.85 2.65 6.85 3.8 6.2 4.95 5.5 4.95 4.65 4.95 3.85 3.85 3.15 2.8 2.5 -1.25 1.9 -7.85 0.9 -10.55 -0.7 -13.4 -2.35 -13.4 -4.85 -13.4 -6.5 -11.95 -7.95" fill="#000000" fill-rule="evenodd" stroke="none"/>
  </g>
</svg>
