<?xml version="1.0" encoding="UTF-8" standalone="no"?>
<svg xmlns:ffdec="https://www.free-decompiler.com/flash" xmlns:xlink="http://www.w3.org/1999/xlink" ffdec:objectType="shape" height="21.85px" width="30.9px" xmlns="http://www.w3.org/2000/svg">
  <g transform="matrix(1.0, 0.0, 0.0, 1.0, 15.45, 10.9)">
    <path d="M15.45 -10.9 L15.45 1.9 Q15.45 3.75 14.55 5.5 13.6 7.25 11.75 8.45 9.85 9.75 7.8 10.2 L0.8 10.95 -4.3 10.7 -8.95 9.85 Q-10.9 9.15 -12.4 8.0 -13.9 6.8 -14.5 5.5 -15.45 3.35 -15.45 1.9 L-15.45 -10.9 -5.5 -10.9 -5.5 2.2 Q-5.5 3.95 -4.0 4.95 -2.55 5.95 0.0 5.95 2.5 5.95 4.05 4.95 5.5 3.95 5.5 2.2 L5.5 -10.9 15.45 -10.9" fill="#000000" fill-rule="evenodd" stroke="none"/>
  </g>
</svg>
