<?xml version="1.0" encoding="UTF-8" standalone="no"?>
<svg xmlns:ffdec="https://www.free-decompiler.com/flash" xmlns:xlink="http://www.w3.org/1999/xlink" ffdec:objectType="shape" height="21.5px" width="29.65px" xmlns="http://www.w3.org/2000/svg">
  <g transform="matrix(1.0, 0.0, 0.0, 1.0, 14.8, 10.75)">
    <path d="M-4.85 -5.9 L-4.85 5.85 -2.4 5.85 2.05 5.4 Q3.4 4.85 4.1 3.75 4.85 2.6 4.85 0.05 4.85 -3.4 3.2 -4.65 1.4 -5.9 -2.35 -5.9 L-4.85 -5.9 M0.0 -10.75 Q4.45 -10.75 7.05 -9.95 9.8 -9.2 11.5 -7.7 13.3 -6.2 14.05 -4.25 14.85 -2.35 14.85 -0.1 14.85 3.35 13.65 5.25 12.5 7.2 10.4 8.45 8.35 9.7 5.9 10.15 L0.0 10.75 -14.8 10.75 -14.8 -10.75 0.0 -10.75" fill="#000000" fill-rule="evenodd" stroke="none"/>
  </g>
</svg>
