<?xml version="1.0" encoding="UTF-8" standalone="no"?>
<svg xmlns:ffdec="https://www.free-decompiler.com/flash" xmlns:xlink="http://www.w3.org/1999/xlink" ffdec:objectType="shape" height="48.6px" width="28.2px" xmlns="http://www.w3.org/2000/svg">
  <g transform="matrix(1.0, 0.0, 0.0, 1.0, 14.1, 24.3)">
    <path d="M-13.35 -16.25 Q-12.65 -19.3 -9.2 -21.8 -5.8 -24.3 -0.4 -24.3 4.95 -24.3 8.45 -22.15 11.95 -19.95 13.05 -16.9 14.1 -13.9 14.1 -8.2 L14.1 -6.15 1.95 -6.15 1.95 -10.4 Q1.95 -14.4 1.6 -15.4 1.3 -16.45 0.0 -16.45 -1.15 -16.45 -1.55 -15.55 -1.95 -14.7 -1.95 -11.15 L-1.95 11.25 Q-1.95 14.4 -1.55 15.4 -1.15 16.4 0.05 16.4 1.4 16.4 1.9 15.25 2.35 14.15 2.35 10.9 L2.35 5.35 -0.1 5.35 -0.1 -1.75 14.1 -1.75 14.1 23.3 6.45 23.3 5.35 19.95 Q4.1 22.1 2.25 23.2 0.35 24.3 -2.25 24.3 -5.3 24.3 -7.95 22.8 -10.6 21.3 -12.0 19.1 -13.4 16.95 -13.75 14.55 -14.1 12.1 -14.1 7.3 L-14.1 -6.55 Q-14.1 -13.25 -13.35 -16.25" fill="#ff7700" fill-rule="evenodd" stroke="none"/>
  </g>
</svg>
