<?xml version="1.0" encoding="UTF-8" standalone="no"?>
<svg xmlns:ffdec="https://www.free-decompiler.com/flash" xmlns:xlink="http://www.w3.org/1999/xlink" ffdec:objectType="shape" height="22.2px" width="32.8px" xmlns="http://www.w3.org/2000/svg">
  <g transform="matrix(1.0, 0.0, 0.0, 1.0, 16.4, 11.1)">
    <path d="M8.95 -10.45 Q11.45 -9.9 13.35 -8.45 15.0 -7.15 15.95 -5.05 L6.35 -3.9 Q5.85 -5.05 4.35 -5.75 L0.75 -6.4 Q-2.5 -6.4 -4.45 -4.9 -6.4 -3.4 -6.4 -0.1 -6.4 3.4 -4.45 4.9 -2.5 6.4 1.05 6.4 L4.2 6.05 Q5.9 5.7 7.7 4.95 L7.7 2.95 1.0 2.95 1.0 -1.5 16.4 -1.5 16.4 7.6 Q11.8 9.7 8.6 10.35 L0.55 11.1 Q-5.15 11.1 -8.8 9.8 -12.45 8.4 -14.4 5.9 -16.4 3.4 -16.4 0.0 -16.4 -3.5 -14.2 -6.15 -11.95 -8.8 -7.85 -10.05 -4.55 -11.1 0.95 -11.1 L8.95 -10.45" fill="#000000" fill-rule="evenodd" stroke="none"/>
  </g>
</svg>
