<?xml version="1.0" encoding="UTF-8" standalone="no"?>
<svg xmlns:ffdec="https://www.free-decompiler.com/flash" xmlns:xlink="http://www.w3.org/1999/xlink" ffdec:objectType="shape" height="24.25px" width="34.6px" xmlns="http://www.w3.org/2000/svg">
  <g transform="matrix(1.0, 0.0, 0.0, 1.0, 17.3, 12.1)">
    <path d="M4.35 -5.7 Q2.5 -7.1 -0.7 -7.1 -3.65 -7.1 -5.5 -5.7 -7.35 -4.3 -7.35 -1.25 -7.35 2.25 -5.55 3.7 -3.8 5.1 -0.6 5.1 L1.3 5.0 Q0.1 4.2 -2.65 3.45 L-1.1 1.05 0.95 1.45 4.95 3.15 Q6.15 1.8 6.15 -1.05 6.15 -4.35 4.35 -5.7 M14.55 12.15 L7.55 9.15 Q4.15 10.1 -0.7 10.1 -8.0 10.1 -12.3 7.55 -17.3 4.55 -17.3 -0.95 -17.3 -6.2 -12.9 -9.2 -8.6 -12.1 -0.65 -12.1 7.35 -12.1 11.75 -9.25 16.1 -6.4 16.1 -1.05 16.1 3.65 12.6 6.6 L17.3 8.4 14.55 12.15" fill="#000000" fill-rule="evenodd" stroke="none"/>
  </g>
</svg>
